G04 #@! TF.GenerationSoftware,KiCad,Pcbnew,5.1.12-unknown-nightly-202202221509*
G04 #@! TF.CreationDate,2022-06-26T13:04:49-04:00*
G04 #@! TF.ProjectId,70W-Amplifier,3730572d-416d-4706-9c69-666965722e6b,rev?*
G04 #@! TF.SameCoordinates,Original*
G04 #@! TF.FileFunction,Copper,L2,Bot*
G04 #@! TF.FilePolarity,Positive*
%FSLAX46Y46*%
G04 Gerber Fmt 4.6, Leading zero omitted, Abs format (unit mm)*
G04 Created by KiCad (PCBNEW 5.1.12-unknown-nightly-202202221509) date 2022-06-26 13:04:49*
%MOMM*%
%LPD*%
G01*
G04 APERTURE LIST*
G04 #@! TA.AperFunction,ComponentPad*
%ADD10O,1.700000X1.700000*%
G04 #@! TD*
G04 #@! TA.AperFunction,ComponentPad*
%ADD11R,1.700000X1.700000*%
G04 #@! TD*
G04 #@! TA.AperFunction,ComponentPad*
%ADD12O,2.616000X1.308000*%
G04 #@! TD*
G04 #@! TA.AperFunction,ComponentPad*
%ADD13C,3.216000*%
G04 #@! TD*
G04 #@! TA.AperFunction,ViaPad*
%ADD14C,0.800000*%
G04 #@! TD*
G04 #@! TA.AperFunction,ViaPad*
%ADD15C,1.200000*%
G04 #@! TD*
G04 #@! TA.AperFunction,Conductor*
%ADD16C,1.000000*%
G04 #@! TD*
G04 #@! TA.AperFunction,Conductor*
%ADD17C,2.000000*%
G04 #@! TD*
G04 #@! TA.AperFunction,Conductor*
%ADD18C,0.254000*%
G04 #@! TD*
G04 #@! TA.AperFunction,Conductor*
%ADD19C,0.100000*%
G04 #@! TD*
G04 APERTURE END LIST*
D10*
X153540000Y-68500000D03*
D11*
X151000000Y-68500000D03*
G04 #@! TA.AperFunction,SMDPad,CuDef*
G36*
G01*
X117650000Y-110000000D02*
X118350000Y-110000000D01*
G75*
G02*
X118700000Y-110350000I0J-350000D01*
G01*
X118700000Y-114650000D01*
G75*
G02*
X118350000Y-115000000I-350000J0D01*
G01*
X117650000Y-115000000D01*
G75*
G02*
X117300000Y-114650000I0J350000D01*
G01*
X117300000Y-110350000D01*
G75*
G02*
X117650000Y-110000000I350000J0D01*
G01*
G37*
G04 #@! TD.AperFunction*
G04 #@! TA.AperFunction,SMDPad,CuDef*
G36*
G01*
X122478540Y-110007620D02*
X123178540Y-110007620D01*
G75*
G02*
X123528540Y-110357620I0J-350000D01*
G01*
X123528540Y-114657620D01*
G75*
G02*
X123178540Y-115007620I-350000J0D01*
G01*
X122478540Y-115007620D01*
G75*
G02*
X122128540Y-114657620I0J350000D01*
G01*
X122128540Y-110357620D01*
G75*
G02*
X122478540Y-110007620I350000J0D01*
G01*
G37*
G04 #@! TD.AperFunction*
G04 #@! TA.AperFunction,SMDPad,CuDef*
G36*
G01*
X129749700Y-109987300D02*
X130449700Y-109987300D01*
G75*
G02*
X130799700Y-110337300I0J-350000D01*
G01*
X130799700Y-114637300D01*
G75*
G02*
X130449700Y-114987300I-350000J0D01*
G01*
X129749700Y-114987300D01*
G75*
G02*
X129399700Y-114637300I0J350000D01*
G01*
X129399700Y-110337300D01*
G75*
G02*
X129749700Y-109987300I350000J0D01*
G01*
G37*
G04 #@! TD.AperFunction*
G04 #@! TA.AperFunction,SMDPad,CuDef*
G36*
G01*
X134578240Y-109994920D02*
X135278240Y-109994920D01*
G75*
G02*
X135628240Y-110344920I0J-350000D01*
G01*
X135628240Y-114644920D01*
G75*
G02*
X135278240Y-114994920I-350000J0D01*
G01*
X134578240Y-114994920D01*
G75*
G02*
X134228240Y-114644920I0J350000D01*
G01*
X134228240Y-110344920D01*
G75*
G02*
X134578240Y-109994920I350000J0D01*
G01*
G37*
G04 #@! TD.AperFunction*
D12*
X93500000Y-65000000D03*
X93500000Y-67540000D03*
D13*
X88420000Y-70080000D03*
X88420000Y-59920000D03*
D12*
X93400000Y-95600000D03*
X93400000Y-98140000D03*
D13*
X88320000Y-100680000D03*
X88320000Y-90520000D03*
D14*
X104500000Y-49500000D03*
X109500000Y-49500000D03*
X104500000Y-53000000D03*
X99500000Y-49500000D03*
X94500000Y-53000000D03*
X94500000Y-49500000D03*
X84500000Y-53000000D03*
X89500000Y-49500000D03*
X89500000Y-53000000D03*
X84500000Y-49500000D03*
X109500000Y-112500000D03*
X109500000Y-109000000D03*
X99500000Y-112500000D03*
X104500000Y-109000000D03*
X104500000Y-112500000D03*
X94500000Y-109000000D03*
X94500000Y-112500000D03*
X99500000Y-109000000D03*
X132500000Y-91500000D03*
X127000000Y-91500000D03*
X132500000Y-84500000D03*
X127000000Y-84500000D03*
X127000000Y-88000000D03*
X132500000Y-88000000D03*
X151000000Y-113000000D03*
X112000000Y-95500000D03*
X112000000Y-99000000D03*
X126500000Y-110000000D03*
X94500000Y-105000000D03*
X99500000Y-105000000D03*
X104500000Y-105000000D03*
X179000000Y-65500000D03*
X174000000Y-49500000D03*
X174000000Y-65500000D03*
X189000000Y-61500000D03*
X194000000Y-53500000D03*
X184000000Y-49500000D03*
X194000000Y-57500000D03*
X169000000Y-53500000D03*
X194000000Y-49500000D03*
X189000000Y-65500000D03*
X169000000Y-57500000D03*
X169000000Y-49500000D03*
X179000000Y-49500000D03*
X189000000Y-53500000D03*
X169000000Y-65500000D03*
X194000000Y-65500000D03*
X184000000Y-65500000D03*
X184000000Y-61500000D03*
X184000000Y-57500000D03*
X179000000Y-57500000D03*
X174000000Y-57500000D03*
X194000000Y-61500000D03*
X174000000Y-53500000D03*
X189000000Y-57500000D03*
X169000000Y-61500000D03*
X179000000Y-61500000D03*
X189000000Y-49500000D03*
X184000000Y-53500000D03*
X174000000Y-61500000D03*
X179000000Y-53500000D03*
X204000000Y-49500000D03*
X199000000Y-65500000D03*
X199000000Y-53500000D03*
X204000000Y-61500000D03*
X199000000Y-57500000D03*
X204000000Y-65500000D03*
X204000000Y-57500000D03*
X199000000Y-49500000D03*
X199000000Y-61500000D03*
X204000000Y-53500000D03*
X120000000Y-49500000D03*
X135000000Y-57500000D03*
X135000000Y-53500000D03*
X125000000Y-53500000D03*
X135000000Y-49500000D03*
X130000000Y-53500000D03*
X125000000Y-57500000D03*
X130000000Y-57500000D03*
X130000000Y-49500000D03*
X115000000Y-49500000D03*
X120000000Y-53500000D03*
X125000000Y-49500000D03*
X184000000Y-74000000D03*
X179000000Y-78000000D03*
X169000000Y-78000000D03*
X174000000Y-74000000D03*
X169000000Y-70000000D03*
X179000000Y-74000000D03*
X179000000Y-70000000D03*
X184000000Y-70000000D03*
X174000000Y-78000000D03*
X184000000Y-78000000D03*
X174000000Y-70000000D03*
X169000000Y-74000000D03*
X169000000Y-83000000D03*
X169000000Y-87000000D03*
X174000000Y-91000000D03*
X179000000Y-87000000D03*
X174000000Y-83000000D03*
X179000000Y-83000000D03*
X169000000Y-91000000D03*
X179000000Y-91000000D03*
X174000000Y-87000000D03*
X189000000Y-78000000D03*
X199000000Y-74000000D03*
X189000000Y-70000000D03*
X189000000Y-74000000D03*
X194000000Y-70000000D03*
X199000000Y-78000000D03*
X194000000Y-74000000D03*
X194000000Y-78000000D03*
X199000000Y-70000000D03*
X130000000Y-61500000D03*
X125000000Y-61500000D03*
X135000000Y-61500000D03*
X84500000Y-56500000D03*
X94500000Y-56500000D03*
X89500000Y-56500000D03*
X84500000Y-77500000D03*
X89500000Y-74000000D03*
X94500000Y-77500000D03*
X94500000Y-74000000D03*
X84500000Y-81000000D03*
X89500000Y-77500000D03*
X84500000Y-74000000D03*
X89500000Y-81000000D03*
X94500000Y-81000000D03*
X89500000Y-84500000D03*
X94500000Y-84500000D03*
X84500000Y-84500000D03*
X84500000Y-109000000D03*
X84500000Y-112500000D03*
X89500000Y-109000000D03*
X84500000Y-105000000D03*
X89500000Y-105000000D03*
X89500000Y-112500000D03*
X189000000Y-98000000D03*
X199000000Y-94000000D03*
X189000000Y-90000000D03*
X189000000Y-94000000D03*
X194000000Y-90000000D03*
X199000000Y-98000000D03*
X194000000Y-94000000D03*
X194000000Y-98000000D03*
X199000000Y-90000000D03*
D15*
X154687860Y-56312140D03*
X138596000Y-62596000D03*
X106000000Y-102000000D03*
X175500000Y-108000000D03*
X121500000Y-96500000D03*
X117750000Y-56250000D03*
X107500000Y-66500000D03*
X114000000Y-74000000D03*
X103500000Y-54500000D03*
X132400300Y-97900300D03*
X199500000Y-102000000D03*
D16*
X138596000Y-58404000D02*
X138596000Y-62596000D01*
X140687860Y-56312140D02*
X138596000Y-58404000D01*
X154687860Y-56312140D02*
X140687860Y-56312140D01*
X106000000Y-102000000D02*
X106000000Y-102000000D01*
X106000000Y-102000000D02*
X129500000Y-102000000D01*
X135500000Y-108000000D02*
X129500000Y-102000000D01*
X175500000Y-108000000D02*
X135500000Y-108000000D01*
D17*
X121500000Y-96500000D02*
X121500000Y-95131998D01*
X121500000Y-95131998D02*
X121500000Y-60000000D01*
X121500000Y-60000000D02*
X117750000Y-56250000D01*
X117750000Y-56250000D02*
X117500000Y-56000000D01*
X107500000Y-66500000D02*
X107500000Y-86500000D01*
X98400000Y-95600000D02*
X93400000Y-95600000D01*
X107500000Y-86500000D02*
X98400000Y-95600000D01*
D16*
X114000000Y-74000000D02*
X114000000Y-61500000D01*
X114000000Y-61500000D02*
X107000000Y-54500000D01*
X107000000Y-54500000D02*
X103500000Y-54500000D01*
X103500000Y-54500000D02*
X103500000Y-54500000D01*
D17*
X136500000Y-102000000D02*
X199500000Y-102000000D01*
X132400300Y-97900300D02*
X136500000Y-102000000D01*
D18*
X209315001Y-114815000D02*
X136266062Y-114815000D01*
X136263240Y-112780670D01*
X136104490Y-112621920D01*
X135055240Y-112621920D01*
X135055240Y-112641920D01*
X134801240Y-112641920D01*
X134801240Y-112621920D01*
X133751990Y-112621920D01*
X133593240Y-112780670D01*
X133590418Y-114815000D01*
X131437533Y-114815000D01*
X131434700Y-112773050D01*
X131275950Y-112614300D01*
X130226700Y-112614300D01*
X130226700Y-112634300D01*
X129972700Y-112634300D01*
X129972700Y-112614300D01*
X128923450Y-112614300D01*
X128764700Y-112773050D01*
X128761867Y-114815000D01*
X124166345Y-114815000D01*
X124163540Y-112793370D01*
X124004790Y-112634620D01*
X122955540Y-112634620D01*
X122955540Y-112654620D01*
X122701540Y-112654620D01*
X122701540Y-112634620D01*
X121652290Y-112634620D01*
X121493540Y-112793370D01*
X121490735Y-114815000D01*
X119337815Y-114815000D01*
X119335000Y-112785750D01*
X119176250Y-112627000D01*
X118127000Y-112627000D01*
X118127000Y-112647000D01*
X117873000Y-112647000D01*
X117873000Y-112627000D01*
X116823750Y-112627000D01*
X116665000Y-112785750D01*
X116662185Y-114815000D01*
X83185000Y-114815000D01*
X83185000Y-110000000D01*
X116661928Y-110000000D01*
X116665000Y-112214250D01*
X116823750Y-112373000D01*
X117873000Y-112373000D01*
X117873000Y-109523750D01*
X118127000Y-109523750D01*
X118127000Y-112373000D01*
X119176250Y-112373000D01*
X119335000Y-112214250D01*
X119338061Y-110007620D01*
X121490468Y-110007620D01*
X121493540Y-112221870D01*
X121652290Y-112380620D01*
X122701540Y-112380620D01*
X122701540Y-109531370D01*
X122955540Y-109531370D01*
X122955540Y-112380620D01*
X124004790Y-112380620D01*
X124163540Y-112221870D01*
X124166612Y-110007620D01*
X124164611Y-109987300D01*
X128761628Y-109987300D01*
X128764700Y-112201550D01*
X128923450Y-112360300D01*
X129972700Y-112360300D01*
X129972700Y-109511050D01*
X130226700Y-109511050D01*
X130226700Y-112360300D01*
X131275950Y-112360300D01*
X131434700Y-112201550D01*
X131437761Y-109994920D01*
X133590168Y-109994920D01*
X133593240Y-112209170D01*
X133751990Y-112367920D01*
X134801240Y-112367920D01*
X134801240Y-109518670D01*
X135055240Y-109518670D01*
X135055240Y-112367920D01*
X136104490Y-112367920D01*
X136263240Y-112209170D01*
X136266312Y-109994920D01*
X136254052Y-109870438D01*
X136217742Y-109750740D01*
X136158777Y-109640426D01*
X136079425Y-109543735D01*
X135982734Y-109464383D01*
X135872420Y-109405418D01*
X135752722Y-109369108D01*
X135628240Y-109356848D01*
X135213990Y-109359920D01*
X135055240Y-109518670D01*
X134801240Y-109518670D01*
X134642490Y-109359920D01*
X134228240Y-109356848D01*
X134103758Y-109369108D01*
X133984060Y-109405418D01*
X133873746Y-109464383D01*
X133777055Y-109543735D01*
X133697703Y-109640426D01*
X133638738Y-109750740D01*
X133602428Y-109870438D01*
X133590168Y-109994920D01*
X131437761Y-109994920D01*
X131437772Y-109987300D01*
X131425512Y-109862818D01*
X131389202Y-109743120D01*
X131330237Y-109632806D01*
X131250885Y-109536115D01*
X131154194Y-109456763D01*
X131043880Y-109397798D01*
X130924182Y-109361488D01*
X130799700Y-109349228D01*
X130385450Y-109352300D01*
X130226700Y-109511050D01*
X129972700Y-109511050D01*
X129813950Y-109352300D01*
X129399700Y-109349228D01*
X129275218Y-109361488D01*
X129155520Y-109397798D01*
X129045206Y-109456763D01*
X128948515Y-109536115D01*
X128869163Y-109632806D01*
X128810198Y-109743120D01*
X128773888Y-109862818D01*
X128761628Y-109987300D01*
X124164611Y-109987300D01*
X124154352Y-109883138D01*
X124118042Y-109763440D01*
X124059077Y-109653126D01*
X123979725Y-109556435D01*
X123883034Y-109477083D01*
X123772720Y-109418118D01*
X123653022Y-109381808D01*
X123528540Y-109369548D01*
X123114290Y-109372620D01*
X122955540Y-109531370D01*
X122701540Y-109531370D01*
X122542790Y-109372620D01*
X122128540Y-109369548D01*
X122004058Y-109381808D01*
X121884360Y-109418118D01*
X121774046Y-109477083D01*
X121677355Y-109556435D01*
X121598003Y-109653126D01*
X121539038Y-109763440D01*
X121502728Y-109883138D01*
X121490468Y-110007620D01*
X119338061Y-110007620D01*
X119338072Y-110000000D01*
X119325812Y-109875518D01*
X119289502Y-109755820D01*
X119230537Y-109645506D01*
X119151185Y-109548815D01*
X119054494Y-109469463D01*
X118944180Y-109410498D01*
X118824482Y-109374188D01*
X118700000Y-109361928D01*
X118285750Y-109365000D01*
X118127000Y-109523750D01*
X117873000Y-109523750D01*
X117714250Y-109365000D01*
X117300000Y-109361928D01*
X117175518Y-109374188D01*
X117055820Y-109410498D01*
X116945506Y-109469463D01*
X116848815Y-109548815D01*
X116769463Y-109645506D01*
X116710498Y-109755820D01*
X116674188Y-109875518D01*
X116661928Y-110000000D01*
X83185000Y-110000000D01*
X83185000Y-100459084D01*
X86077000Y-100459084D01*
X86077000Y-100900916D01*
X86163197Y-101334259D01*
X86332279Y-101742459D01*
X86577748Y-102109829D01*
X86890171Y-102422252D01*
X87257541Y-102667721D01*
X87665741Y-102836803D01*
X88099084Y-102923000D01*
X88540916Y-102923000D01*
X88974259Y-102836803D01*
X89382459Y-102667721D01*
X89749829Y-102422252D01*
X90062252Y-102109829D01*
X90216912Y-101878363D01*
X104765000Y-101878363D01*
X104765000Y-102121637D01*
X104812460Y-102360236D01*
X104905557Y-102584992D01*
X105040713Y-102787267D01*
X105212733Y-102959287D01*
X105415008Y-103094443D01*
X105639764Y-103187540D01*
X105878363Y-103235000D01*
X106121637Y-103235000D01*
X106360236Y-103187540D01*
X106487079Y-103135000D01*
X129029869Y-103135000D01*
X134658009Y-108763141D01*
X134693551Y-108806449D01*
X134866377Y-108948284D01*
X135063553Y-109053676D01*
X135277501Y-109118577D01*
X135444248Y-109135000D01*
X135444257Y-109135000D01*
X135499999Y-109140490D01*
X135555741Y-109135000D01*
X175012921Y-109135000D01*
X175139764Y-109187540D01*
X175378363Y-109235000D01*
X175621637Y-109235000D01*
X175860236Y-109187540D01*
X176084992Y-109094443D01*
X176287267Y-108959287D01*
X176459287Y-108787267D01*
X176594443Y-108584992D01*
X176687540Y-108360236D01*
X176735000Y-108121637D01*
X176735000Y-107878363D01*
X176687540Y-107639764D01*
X176594443Y-107415008D01*
X176459287Y-107212733D01*
X176287267Y-107040713D01*
X176084992Y-106905557D01*
X175860236Y-106812460D01*
X175621637Y-106765000D01*
X175378363Y-106765000D01*
X175139764Y-106812460D01*
X175012921Y-106865000D01*
X135970132Y-106865000D01*
X130341996Y-101236865D01*
X130306449Y-101193551D01*
X130133623Y-101051716D01*
X129936447Y-100946324D01*
X129722499Y-100881423D01*
X129555752Y-100865000D01*
X129555751Y-100865000D01*
X129500000Y-100859509D01*
X129444249Y-100865000D01*
X106487079Y-100865000D01*
X106360236Y-100812460D01*
X106121637Y-100765000D01*
X105878363Y-100765000D01*
X105639764Y-100812460D01*
X105415008Y-100905557D01*
X105212733Y-101040713D01*
X105040713Y-101212733D01*
X104905557Y-101415008D01*
X104812460Y-101639764D01*
X104765000Y-101878363D01*
X90216912Y-101878363D01*
X90307721Y-101742459D01*
X90476803Y-101334259D01*
X90563000Y-100900916D01*
X90563000Y-100459084D01*
X90476803Y-100025741D01*
X90307721Y-99617541D01*
X90062252Y-99250171D01*
X89749829Y-98937748D01*
X89382459Y-98692279D01*
X88974259Y-98523197D01*
X88687208Y-98466099D01*
X91498932Y-98466099D01*
X91506517Y-98515946D01*
X91603677Y-98750533D01*
X91744736Y-98961658D01*
X91924273Y-99141207D01*
X92135388Y-99282280D01*
X92369969Y-99379456D01*
X92619000Y-99429000D01*
X93273000Y-99429000D01*
X93273000Y-98267000D01*
X93527000Y-98267000D01*
X93527000Y-99429000D01*
X94181000Y-99429000D01*
X94430031Y-99379456D01*
X94664612Y-99282280D01*
X94875727Y-99141207D01*
X95055264Y-98961658D01*
X95196323Y-98750533D01*
X95293483Y-98515946D01*
X95301068Y-98466099D01*
X95177092Y-98267000D01*
X93527000Y-98267000D01*
X93273000Y-98267000D01*
X91622908Y-98267000D01*
X91498932Y-98466099D01*
X88687208Y-98466099D01*
X88540916Y-98437000D01*
X88099084Y-98437000D01*
X87665741Y-98523197D01*
X87257541Y-98692279D01*
X86890171Y-98937748D01*
X86577748Y-99250171D01*
X86332279Y-99617541D01*
X86163197Y-100025741D01*
X86077000Y-100459084D01*
X83185000Y-100459084D01*
X83185000Y-95600000D01*
X91450764Y-95600000D01*
X91475652Y-95852688D01*
X91549358Y-96095665D01*
X91669051Y-96319595D01*
X91830130Y-96515870D01*
X92026405Y-96676949D01*
X92250335Y-96796642D01*
X92298737Y-96811324D01*
X92400138Y-96894542D01*
X92369969Y-96900544D01*
X92135388Y-96997720D01*
X91924273Y-97138793D01*
X91744736Y-97318342D01*
X91603677Y-97529467D01*
X91506517Y-97764054D01*
X91498932Y-97813901D01*
X91622908Y-98013000D01*
X93273000Y-98013000D01*
X93273000Y-97993000D01*
X93527000Y-97993000D01*
X93527000Y-98013000D01*
X95177092Y-98013000D01*
X95301068Y-97813901D01*
X95293483Y-97764054D01*
X95196323Y-97529467D01*
X95055264Y-97318342D01*
X94971928Y-97235000D01*
X98319681Y-97235000D01*
X98400000Y-97242911D01*
X98480319Y-97235000D01*
X98480322Y-97235000D01*
X98720516Y-97211343D01*
X99028715Y-97117852D01*
X99312752Y-96966031D01*
X99561714Y-96761714D01*
X99612925Y-96699313D01*
X108599319Y-87712920D01*
X108661714Y-87661714D01*
X108866031Y-87412752D01*
X109017852Y-87128715D01*
X109111343Y-86820516D01*
X109135000Y-86580322D01*
X109135000Y-86580320D01*
X109142911Y-86500001D01*
X109135000Y-86419681D01*
X109135000Y-66419678D01*
X109111343Y-66179484D01*
X109017852Y-65871285D01*
X108866031Y-65587248D01*
X108661714Y-65338286D01*
X108412751Y-65133969D01*
X108128714Y-64982148D01*
X107820515Y-64888657D01*
X107500000Y-64857089D01*
X107179484Y-64888657D01*
X106871285Y-64982148D01*
X106587248Y-65133969D01*
X106338286Y-65338286D01*
X106133969Y-65587249D01*
X105982148Y-65871286D01*
X105888657Y-66179485D01*
X105865000Y-66419679D01*
X105865001Y-85822760D01*
X97722762Y-93965000D01*
X93319678Y-93965000D01*
X93079484Y-93988657D01*
X92771285Y-94082148D01*
X92487248Y-94233969D01*
X92298737Y-94388676D01*
X92250335Y-94403358D01*
X92026405Y-94523051D01*
X91830130Y-94684130D01*
X91669051Y-94880405D01*
X91549358Y-95104335D01*
X91475652Y-95347312D01*
X91450764Y-95600000D01*
X83185000Y-95600000D01*
X83185000Y-90299084D01*
X86077000Y-90299084D01*
X86077000Y-90740916D01*
X86163197Y-91174259D01*
X86332279Y-91582459D01*
X86577748Y-91949829D01*
X86890171Y-92262252D01*
X87257541Y-92507721D01*
X87665741Y-92676803D01*
X88099084Y-92763000D01*
X88540916Y-92763000D01*
X88974259Y-92676803D01*
X89382459Y-92507721D01*
X89749829Y-92262252D01*
X90062252Y-91949829D01*
X90307721Y-91582459D01*
X90476803Y-91174259D01*
X90563000Y-90740916D01*
X90563000Y-90299084D01*
X90476803Y-89865741D01*
X90307721Y-89457541D01*
X90062252Y-89090171D01*
X89749829Y-88777748D01*
X89382459Y-88532279D01*
X88974259Y-88363197D01*
X88540916Y-88277000D01*
X88099084Y-88277000D01*
X87665741Y-88363197D01*
X87257541Y-88532279D01*
X86890171Y-88777748D01*
X86577748Y-89090171D01*
X86332279Y-89457541D01*
X86163197Y-89865741D01*
X86077000Y-90299084D01*
X83185000Y-90299084D01*
X83185000Y-69859084D01*
X86177000Y-69859084D01*
X86177000Y-70300916D01*
X86263197Y-70734259D01*
X86432279Y-71142459D01*
X86677748Y-71509829D01*
X86990171Y-71822252D01*
X87357541Y-72067721D01*
X87765741Y-72236803D01*
X88199084Y-72323000D01*
X88640916Y-72323000D01*
X89074259Y-72236803D01*
X89482459Y-72067721D01*
X89849829Y-71822252D01*
X90162252Y-71509829D01*
X90407721Y-71142459D01*
X90576803Y-70734259D01*
X90663000Y-70300916D01*
X90663000Y-69859084D01*
X90576803Y-69425741D01*
X90407721Y-69017541D01*
X90162252Y-68650171D01*
X89849829Y-68337748D01*
X89482459Y-68092279D01*
X89074259Y-67923197D01*
X88787208Y-67866099D01*
X91598932Y-67866099D01*
X91606517Y-67915946D01*
X91703677Y-68150533D01*
X91844736Y-68361658D01*
X92024273Y-68541207D01*
X92235388Y-68682280D01*
X92469969Y-68779456D01*
X92719000Y-68829000D01*
X93373000Y-68829000D01*
X93373000Y-67667000D01*
X93627000Y-67667000D01*
X93627000Y-68829000D01*
X94281000Y-68829000D01*
X94530031Y-68779456D01*
X94764612Y-68682280D01*
X94975727Y-68541207D01*
X95155264Y-68361658D01*
X95296323Y-68150533D01*
X95393483Y-67915946D01*
X95401068Y-67866099D01*
X95277092Y-67667000D01*
X93627000Y-67667000D01*
X93373000Y-67667000D01*
X91722908Y-67667000D01*
X91598932Y-67866099D01*
X88787208Y-67866099D01*
X88640916Y-67837000D01*
X88199084Y-67837000D01*
X87765741Y-67923197D01*
X87357541Y-68092279D01*
X86990171Y-68337748D01*
X86677748Y-68650171D01*
X86432279Y-69017541D01*
X86263197Y-69425741D01*
X86177000Y-69859084D01*
X83185000Y-69859084D01*
X83185000Y-65000000D01*
X91550764Y-65000000D01*
X91575652Y-65252688D01*
X91649358Y-65495665D01*
X91769051Y-65719595D01*
X91930130Y-65915870D01*
X92126405Y-66076949D01*
X92350335Y-66196642D01*
X92593312Y-66270348D01*
X92612332Y-66272221D01*
X92469969Y-66300544D01*
X92235388Y-66397720D01*
X92024273Y-66538793D01*
X91844736Y-66718342D01*
X91703677Y-66929467D01*
X91606517Y-67164054D01*
X91598932Y-67213901D01*
X91722908Y-67413000D01*
X93373000Y-67413000D01*
X93373000Y-67393000D01*
X93627000Y-67393000D01*
X93627000Y-67413000D01*
X95277092Y-67413000D01*
X95401068Y-67213901D01*
X95393483Y-67164054D01*
X95296323Y-66929467D01*
X95155264Y-66718342D01*
X94975727Y-66538793D01*
X94764612Y-66397720D01*
X94530031Y-66300544D01*
X94387668Y-66272221D01*
X94406688Y-66270348D01*
X94649665Y-66196642D01*
X94873595Y-66076949D01*
X95069870Y-65915870D01*
X95230949Y-65719595D01*
X95350642Y-65495665D01*
X95424348Y-65252688D01*
X95449236Y-65000000D01*
X95424348Y-64747312D01*
X95350642Y-64504335D01*
X95230949Y-64280405D01*
X95069870Y-64084130D01*
X94873595Y-63923051D01*
X94649665Y-63803358D01*
X94406688Y-63729652D01*
X94217314Y-63711000D01*
X92782686Y-63711000D01*
X92593312Y-63729652D01*
X92350335Y-63803358D01*
X92126405Y-63923051D01*
X91930130Y-64084130D01*
X91769051Y-64280405D01*
X91649358Y-64504335D01*
X91575652Y-64747312D01*
X91550764Y-65000000D01*
X83185000Y-65000000D01*
X83185000Y-59699084D01*
X86177000Y-59699084D01*
X86177000Y-60140916D01*
X86263197Y-60574259D01*
X86432279Y-60982459D01*
X86677748Y-61349829D01*
X86990171Y-61662252D01*
X87357541Y-61907721D01*
X87765741Y-62076803D01*
X88199084Y-62163000D01*
X88640916Y-62163000D01*
X89074259Y-62076803D01*
X89482459Y-61907721D01*
X89849829Y-61662252D01*
X90162252Y-61349829D01*
X90407721Y-60982459D01*
X90576803Y-60574259D01*
X90663000Y-60140916D01*
X90663000Y-59699084D01*
X90576803Y-59265741D01*
X90407721Y-58857541D01*
X90162252Y-58490171D01*
X89849829Y-58177748D01*
X89482459Y-57932279D01*
X89074259Y-57763197D01*
X88640916Y-57677000D01*
X88199084Y-57677000D01*
X87765741Y-57763197D01*
X87357541Y-57932279D01*
X86990171Y-58177748D01*
X86677748Y-58490171D01*
X86432279Y-58857541D01*
X86263197Y-59265741D01*
X86177000Y-59699084D01*
X83185000Y-59699084D01*
X83185000Y-54378363D01*
X102265000Y-54378363D01*
X102265000Y-54621637D01*
X102312460Y-54860236D01*
X102405557Y-55084992D01*
X102540713Y-55287267D01*
X102712733Y-55459287D01*
X102915008Y-55594443D01*
X103139764Y-55687540D01*
X103378363Y-55735000D01*
X103621637Y-55735000D01*
X103860236Y-55687540D01*
X103987079Y-55635000D01*
X106529869Y-55635000D01*
X112865001Y-61970133D01*
X112865000Y-73512921D01*
X112812460Y-73639764D01*
X112765000Y-73878363D01*
X112765000Y-74121637D01*
X112812460Y-74360236D01*
X112905557Y-74584992D01*
X113040713Y-74787267D01*
X113212733Y-74959287D01*
X113415008Y-75094443D01*
X113639764Y-75187540D01*
X113878363Y-75235000D01*
X114121637Y-75235000D01*
X114360236Y-75187540D01*
X114584992Y-75094443D01*
X114787267Y-74959287D01*
X114959287Y-74787267D01*
X115094443Y-74584992D01*
X115187540Y-74360236D01*
X115235000Y-74121637D01*
X115235000Y-73878363D01*
X115187540Y-73639764D01*
X115135000Y-73512921D01*
X115135000Y-61555751D01*
X115140491Y-61500000D01*
X115118577Y-61277501D01*
X115053676Y-61063553D01*
X114948284Y-60866377D01*
X114806449Y-60693551D01*
X114763141Y-60658009D01*
X110105132Y-56000000D01*
X115857089Y-56000000D01*
X115888658Y-56320516D01*
X115982148Y-56628714D01*
X116133970Y-56912752D01*
X116287085Y-57099323D01*
X116537085Y-57349323D01*
X119865001Y-60677240D01*
X119865000Y-95051676D01*
X119865000Y-96580321D01*
X119888657Y-96820515D01*
X119982148Y-97128714D01*
X120133969Y-97412751D01*
X120338286Y-97661714D01*
X120587248Y-97866031D01*
X120871285Y-98017852D01*
X121179484Y-98111343D01*
X121500000Y-98142911D01*
X121820515Y-98111343D01*
X122128714Y-98017852D01*
X122348638Y-97900300D01*
X130757389Y-97900300D01*
X130788958Y-98220816D01*
X130882448Y-98529014D01*
X131034270Y-98813052D01*
X131187385Y-98999623D01*
X135287080Y-103099319D01*
X135338286Y-103161714D01*
X135587248Y-103366031D01*
X135871285Y-103517852D01*
X136179484Y-103611343D01*
X136419678Y-103635000D01*
X136419680Y-103635000D01*
X136499999Y-103642911D01*
X136580319Y-103635000D01*
X199580322Y-103635000D01*
X199820516Y-103611343D01*
X200128715Y-103517852D01*
X200412752Y-103366031D01*
X200661714Y-103161714D01*
X200866031Y-102912752D01*
X201017852Y-102628715D01*
X201111343Y-102320516D01*
X201142911Y-102000000D01*
X201111343Y-101679484D01*
X201017852Y-101371285D01*
X200866031Y-101087248D01*
X200661714Y-100838286D01*
X200412752Y-100633969D01*
X200128715Y-100482148D01*
X199820516Y-100388657D01*
X199580322Y-100365000D01*
X161581616Y-100365000D01*
X161635919Y-100263406D01*
X161675088Y-100134283D01*
X161685000Y-100033647D01*
X161685000Y-100033646D01*
X161688314Y-100000000D01*
X161685000Y-99966353D01*
X161685000Y-82533647D01*
X161688314Y-82500000D01*
X161675088Y-82365717D01*
X161635919Y-82236594D01*
X161572312Y-82117593D01*
X161486711Y-82013289D01*
X161382407Y-81927688D01*
X161263406Y-81864081D01*
X161134283Y-81824912D01*
X161033647Y-81815000D01*
X161000000Y-81811686D01*
X160966353Y-81815000D01*
X160033647Y-81815000D01*
X160000000Y-81811686D01*
X159966353Y-81815000D01*
X159865717Y-81824912D01*
X159736594Y-81864081D01*
X159617593Y-81927688D01*
X159513289Y-82013289D01*
X159427688Y-82117593D01*
X159364081Y-82236594D01*
X159324912Y-82365717D01*
X159311686Y-82500000D01*
X159315001Y-82533657D01*
X159315000Y-98315000D01*
X153033647Y-98315000D01*
X153000000Y-98311686D01*
X152966353Y-98315000D01*
X152865717Y-98324912D01*
X152736594Y-98364081D01*
X152617593Y-98427688D01*
X152513289Y-98513289D01*
X152427688Y-98617593D01*
X152364081Y-98736594D01*
X152324912Y-98865717D01*
X152311686Y-99000000D01*
X152315001Y-99033656D01*
X152315000Y-99966352D01*
X152311686Y-100000000D01*
X152324912Y-100134283D01*
X152364081Y-100263406D01*
X152418384Y-100365000D01*
X152081616Y-100365000D01*
X152135919Y-100263406D01*
X152175088Y-100134283D01*
X152188314Y-100000000D01*
X152185000Y-99966353D01*
X152185000Y-99033646D01*
X152188314Y-99000000D01*
X152175088Y-98865717D01*
X152135919Y-98736594D01*
X152072312Y-98617593D01*
X151986711Y-98513289D01*
X151882407Y-98427688D01*
X151763406Y-98364081D01*
X151634283Y-98324912D01*
X151533647Y-98315000D01*
X151500000Y-98311686D01*
X151466353Y-98315000D01*
X145185000Y-98315000D01*
X145185000Y-82533647D01*
X145188314Y-82500000D01*
X145175088Y-82365717D01*
X145135919Y-82236594D01*
X145072312Y-82117593D01*
X144986711Y-82013289D01*
X144882407Y-81927688D01*
X144763406Y-81864081D01*
X144634283Y-81824912D01*
X144533647Y-81815000D01*
X144500000Y-81811686D01*
X144466353Y-81815000D01*
X143533647Y-81815000D01*
X143500000Y-81811686D01*
X143466353Y-81815000D01*
X143365717Y-81824912D01*
X143236594Y-81864081D01*
X143117593Y-81927688D01*
X143013289Y-82013289D01*
X142927688Y-82117593D01*
X142864081Y-82236594D01*
X142824912Y-82365717D01*
X142811686Y-82500000D01*
X142815000Y-82533647D01*
X142815001Y-99966343D01*
X142811686Y-100000000D01*
X142824912Y-100134283D01*
X142864081Y-100263406D01*
X142918384Y-100365000D01*
X137177239Y-100365000D01*
X133499623Y-96687385D01*
X133313052Y-96534270D01*
X133029014Y-96382448D01*
X132720816Y-96288958D01*
X132400300Y-96257389D01*
X132079784Y-96288958D01*
X131771586Y-96382448D01*
X131487548Y-96534270D01*
X131238587Y-96738587D01*
X131034270Y-96987548D01*
X130882448Y-97271586D01*
X130788958Y-97579784D01*
X130757389Y-97900300D01*
X122348638Y-97900300D01*
X122412751Y-97866031D01*
X122661714Y-97661714D01*
X122866031Y-97412752D01*
X123017852Y-97128715D01*
X123111343Y-96820516D01*
X123135000Y-96580322D01*
X123135000Y-62474363D01*
X137361000Y-62474363D01*
X137361000Y-62717637D01*
X137408460Y-62956236D01*
X137501557Y-63180992D01*
X137636713Y-63383267D01*
X137808733Y-63555287D01*
X138011008Y-63690443D01*
X138235764Y-63783540D01*
X138474363Y-63831000D01*
X138717637Y-63831000D01*
X138956236Y-63783540D01*
X139180992Y-63690443D01*
X139383267Y-63555287D01*
X139438554Y-63500000D01*
X142811686Y-63500000D01*
X142815001Y-63533657D01*
X142815000Y-80966353D01*
X142811686Y-81000000D01*
X142824912Y-81134283D01*
X142864081Y-81263406D01*
X142927688Y-81382407D01*
X143013289Y-81486711D01*
X143117593Y-81572312D01*
X143236594Y-81635919D01*
X143365717Y-81675088D01*
X143500000Y-81688314D01*
X143533647Y-81685000D01*
X144466353Y-81685000D01*
X144500000Y-81688314D01*
X144634283Y-81675088D01*
X144763406Y-81635919D01*
X144882407Y-81572312D01*
X144986711Y-81486711D01*
X145072312Y-81382407D01*
X145135919Y-81263406D01*
X145175088Y-81134283D01*
X145185000Y-81033647D01*
X145185000Y-81033646D01*
X145188314Y-81000000D01*
X145185000Y-80966353D01*
X145185000Y-67650000D01*
X149511928Y-67650000D01*
X149511928Y-69350000D01*
X149524188Y-69474482D01*
X149560498Y-69594180D01*
X149619463Y-69704494D01*
X149698815Y-69801185D01*
X149795506Y-69880537D01*
X149905820Y-69939502D01*
X150025518Y-69975812D01*
X150150000Y-69988072D01*
X151850000Y-69988072D01*
X151974482Y-69975812D01*
X152094180Y-69939502D01*
X152204494Y-69880537D01*
X152301185Y-69801185D01*
X152380537Y-69704494D01*
X152439502Y-69594180D01*
X152461513Y-69521620D01*
X152593368Y-69653475D01*
X152836589Y-69815990D01*
X153106842Y-69927932D01*
X153393740Y-69985000D01*
X153686260Y-69985000D01*
X153973158Y-69927932D01*
X154243411Y-69815990D01*
X154486632Y-69653475D01*
X154693475Y-69446632D01*
X154855990Y-69203411D01*
X154967932Y-68933158D01*
X155025000Y-68646260D01*
X155025000Y-68353740D01*
X154967932Y-68066842D01*
X154855990Y-67796589D01*
X154693475Y-67553368D01*
X154486632Y-67346525D01*
X154243411Y-67184010D01*
X153973158Y-67072068D01*
X153686260Y-67015000D01*
X153393740Y-67015000D01*
X153106842Y-67072068D01*
X152836589Y-67184010D01*
X152593368Y-67346525D01*
X152461513Y-67478380D01*
X152439502Y-67405820D01*
X152380537Y-67295506D01*
X152301185Y-67198815D01*
X152204494Y-67119463D01*
X152094180Y-67060498D01*
X151974482Y-67024188D01*
X151850000Y-67011928D01*
X150150000Y-67011928D01*
X150025518Y-67024188D01*
X149905820Y-67060498D01*
X149795506Y-67119463D01*
X149698815Y-67198815D01*
X149619463Y-67295506D01*
X149560498Y-67405820D01*
X149524188Y-67525518D01*
X149511928Y-67650000D01*
X145185000Y-67650000D01*
X145185000Y-65185000D01*
X151466353Y-65185000D01*
X151500000Y-65188314D01*
X151634283Y-65175088D01*
X151763406Y-65135919D01*
X151882407Y-65072312D01*
X151986711Y-64986711D01*
X152072312Y-64882407D01*
X152135919Y-64763406D01*
X152175088Y-64634283D01*
X152185000Y-64533647D01*
X152188314Y-64500000D01*
X152185000Y-64466353D01*
X152185000Y-63533647D01*
X152188314Y-63500000D01*
X152311686Y-63500000D01*
X152315000Y-63533648D01*
X152315001Y-64466344D01*
X152311686Y-64500000D01*
X152324912Y-64634283D01*
X152364081Y-64763406D01*
X152427688Y-64882407D01*
X152513289Y-64986711D01*
X152617593Y-65072312D01*
X152736594Y-65135919D01*
X152865717Y-65175088D01*
X152966353Y-65185000D01*
X153000000Y-65188314D01*
X153033647Y-65185000D01*
X159315000Y-65185000D01*
X159315001Y-80966343D01*
X159311686Y-81000000D01*
X159324912Y-81134283D01*
X159364081Y-81263406D01*
X159427688Y-81382407D01*
X159513289Y-81486711D01*
X159617593Y-81572312D01*
X159736594Y-81635919D01*
X159865717Y-81675088D01*
X159966353Y-81685000D01*
X160000000Y-81688314D01*
X160033647Y-81685000D01*
X160966353Y-81685000D01*
X161000000Y-81688314D01*
X161033647Y-81685000D01*
X161134283Y-81675088D01*
X161263406Y-81635919D01*
X161382407Y-81572312D01*
X161486711Y-81486711D01*
X161572312Y-81382407D01*
X161635919Y-81263406D01*
X161675088Y-81134283D01*
X161688314Y-81000000D01*
X161685000Y-80966353D01*
X161685000Y-63533647D01*
X161688314Y-63500000D01*
X161675088Y-63365717D01*
X161635919Y-63236594D01*
X161572312Y-63117593D01*
X161486711Y-63013289D01*
X161382407Y-62927688D01*
X161263406Y-62864081D01*
X161134283Y-62824912D01*
X161033647Y-62815000D01*
X161000000Y-62811686D01*
X160966353Y-62815000D01*
X153033647Y-62815000D01*
X153000000Y-62811686D01*
X152966353Y-62815000D01*
X152865717Y-62824912D01*
X152736594Y-62864081D01*
X152617593Y-62927688D01*
X152513289Y-63013289D01*
X152427688Y-63117593D01*
X152364081Y-63236594D01*
X152324912Y-63365717D01*
X152311686Y-63500000D01*
X152188314Y-63500000D01*
X152175088Y-63365717D01*
X152135919Y-63236594D01*
X152072312Y-63117593D01*
X151986711Y-63013289D01*
X151882407Y-62927688D01*
X151763406Y-62864081D01*
X151634283Y-62824912D01*
X151533647Y-62815000D01*
X151500000Y-62811686D01*
X151466353Y-62815000D01*
X143533647Y-62815000D01*
X143500000Y-62811686D01*
X143466353Y-62815000D01*
X143365717Y-62824912D01*
X143236594Y-62864081D01*
X143117593Y-62927688D01*
X143013289Y-63013289D01*
X142927688Y-63117593D01*
X142864081Y-63236594D01*
X142824912Y-63365717D01*
X142811686Y-63500000D01*
X139438554Y-63500000D01*
X139555287Y-63383267D01*
X139690443Y-63180992D01*
X139783540Y-62956236D01*
X139831000Y-62717637D01*
X139831000Y-62474363D01*
X139783540Y-62235764D01*
X139731000Y-62108921D01*
X139731000Y-58874131D01*
X141157992Y-57447140D01*
X154200781Y-57447140D01*
X154327624Y-57499680D01*
X154566223Y-57547140D01*
X154809497Y-57547140D01*
X155048096Y-57499680D01*
X155272852Y-57406583D01*
X155475127Y-57271427D01*
X155647147Y-57099407D01*
X155782303Y-56897132D01*
X155875400Y-56672376D01*
X155922860Y-56433777D01*
X155922860Y-56190503D01*
X155875400Y-55951904D01*
X155782303Y-55727148D01*
X155647147Y-55524873D01*
X155475127Y-55352853D01*
X155272852Y-55217697D01*
X155048096Y-55124600D01*
X154809497Y-55077140D01*
X154566223Y-55077140D01*
X154327624Y-55124600D01*
X154200781Y-55177140D01*
X140743612Y-55177140D01*
X140687860Y-55171649D01*
X140632108Y-55177140D01*
X140465361Y-55193563D01*
X140251413Y-55258464D01*
X140054237Y-55363856D01*
X139881411Y-55505691D01*
X139845869Y-55548999D01*
X137832865Y-57562004D01*
X137789551Y-57597551D01*
X137647716Y-57770377D01*
X137561179Y-57932279D01*
X137542324Y-57967554D01*
X137477423Y-58181502D01*
X137455509Y-58404000D01*
X137461000Y-58459752D01*
X137461001Y-62108919D01*
X137408460Y-62235764D01*
X137361000Y-62474363D01*
X123135000Y-62474363D01*
X123135000Y-60080322D01*
X123142911Y-60000000D01*
X123111343Y-59679483D01*
X123017852Y-59371285D01*
X123007695Y-59352283D01*
X122866031Y-59087248D01*
X122661714Y-58838286D01*
X122599319Y-58787080D01*
X118849323Y-55037085D01*
X118599323Y-54787085D01*
X118412752Y-54633970D01*
X118128714Y-54482148D01*
X117820516Y-54388658D01*
X117500000Y-54357089D01*
X117179484Y-54388658D01*
X116871286Y-54482148D01*
X116587248Y-54633970D01*
X116338287Y-54838287D01*
X116133970Y-55087248D01*
X115982148Y-55371286D01*
X115888658Y-55679484D01*
X115857089Y-56000000D01*
X110105132Y-56000000D01*
X107841996Y-53736865D01*
X107806449Y-53693551D01*
X107633623Y-53551716D01*
X107436447Y-53446324D01*
X107222499Y-53381423D01*
X107055752Y-53365000D01*
X107055751Y-53365000D01*
X107000000Y-53359509D01*
X106944249Y-53365000D01*
X103987079Y-53365000D01*
X103860236Y-53312460D01*
X103621637Y-53265000D01*
X103378363Y-53265000D01*
X103139764Y-53312460D01*
X102915008Y-53405557D01*
X102712733Y-53540713D01*
X102540713Y-53712733D01*
X102405557Y-53915008D01*
X102312460Y-54139764D01*
X102265000Y-54378363D01*
X83185000Y-54378363D01*
X83185000Y-48185000D01*
X209315000Y-48185000D01*
X209315001Y-114815000D01*
G04 #@! TA.AperFunction,Conductor*
D19*
G36*
X209315001Y-114815000D02*
G01*
X136266062Y-114815000D01*
X136263240Y-112780670D01*
X136104490Y-112621920D01*
X135055240Y-112621920D01*
X135055240Y-112641920D01*
X134801240Y-112641920D01*
X134801240Y-112621920D01*
X133751990Y-112621920D01*
X133593240Y-112780670D01*
X133590418Y-114815000D01*
X131437533Y-114815000D01*
X131434700Y-112773050D01*
X131275950Y-112614300D01*
X130226700Y-112614300D01*
X130226700Y-112634300D01*
X129972700Y-112634300D01*
X129972700Y-112614300D01*
X128923450Y-112614300D01*
X128764700Y-112773050D01*
X128761867Y-114815000D01*
X124166345Y-114815000D01*
X124163540Y-112793370D01*
X124004790Y-112634620D01*
X122955540Y-112634620D01*
X122955540Y-112654620D01*
X122701540Y-112654620D01*
X122701540Y-112634620D01*
X121652290Y-112634620D01*
X121493540Y-112793370D01*
X121490735Y-114815000D01*
X119337815Y-114815000D01*
X119335000Y-112785750D01*
X119176250Y-112627000D01*
X118127000Y-112627000D01*
X118127000Y-112647000D01*
X117873000Y-112647000D01*
X117873000Y-112627000D01*
X116823750Y-112627000D01*
X116665000Y-112785750D01*
X116662185Y-114815000D01*
X83185000Y-114815000D01*
X83185000Y-110000000D01*
X116661928Y-110000000D01*
X116665000Y-112214250D01*
X116823750Y-112373000D01*
X117873000Y-112373000D01*
X117873000Y-109523750D01*
X118127000Y-109523750D01*
X118127000Y-112373000D01*
X119176250Y-112373000D01*
X119335000Y-112214250D01*
X119338061Y-110007620D01*
X121490468Y-110007620D01*
X121493540Y-112221870D01*
X121652290Y-112380620D01*
X122701540Y-112380620D01*
X122701540Y-109531370D01*
X122955540Y-109531370D01*
X122955540Y-112380620D01*
X124004790Y-112380620D01*
X124163540Y-112221870D01*
X124166612Y-110007620D01*
X124164611Y-109987300D01*
X128761628Y-109987300D01*
X128764700Y-112201550D01*
X128923450Y-112360300D01*
X129972700Y-112360300D01*
X129972700Y-109511050D01*
X130226700Y-109511050D01*
X130226700Y-112360300D01*
X131275950Y-112360300D01*
X131434700Y-112201550D01*
X131437761Y-109994920D01*
X133590168Y-109994920D01*
X133593240Y-112209170D01*
X133751990Y-112367920D01*
X134801240Y-112367920D01*
X134801240Y-109518670D01*
X135055240Y-109518670D01*
X135055240Y-112367920D01*
X136104490Y-112367920D01*
X136263240Y-112209170D01*
X136266312Y-109994920D01*
X136254052Y-109870438D01*
X136217742Y-109750740D01*
X136158777Y-109640426D01*
X136079425Y-109543735D01*
X135982734Y-109464383D01*
X135872420Y-109405418D01*
X135752722Y-109369108D01*
X135628240Y-109356848D01*
X135213990Y-109359920D01*
X135055240Y-109518670D01*
X134801240Y-109518670D01*
X134642490Y-109359920D01*
X134228240Y-109356848D01*
X134103758Y-109369108D01*
X133984060Y-109405418D01*
X133873746Y-109464383D01*
X133777055Y-109543735D01*
X133697703Y-109640426D01*
X133638738Y-109750740D01*
X133602428Y-109870438D01*
X133590168Y-109994920D01*
X131437761Y-109994920D01*
X131437772Y-109987300D01*
X131425512Y-109862818D01*
X131389202Y-109743120D01*
X131330237Y-109632806D01*
X131250885Y-109536115D01*
X131154194Y-109456763D01*
X131043880Y-109397798D01*
X130924182Y-109361488D01*
X130799700Y-109349228D01*
X130385450Y-109352300D01*
X130226700Y-109511050D01*
X129972700Y-109511050D01*
X129813950Y-109352300D01*
X129399700Y-109349228D01*
X129275218Y-109361488D01*
X129155520Y-109397798D01*
X129045206Y-109456763D01*
X128948515Y-109536115D01*
X128869163Y-109632806D01*
X128810198Y-109743120D01*
X128773888Y-109862818D01*
X128761628Y-109987300D01*
X124164611Y-109987300D01*
X124154352Y-109883138D01*
X124118042Y-109763440D01*
X124059077Y-109653126D01*
X123979725Y-109556435D01*
X123883034Y-109477083D01*
X123772720Y-109418118D01*
X123653022Y-109381808D01*
X123528540Y-109369548D01*
X123114290Y-109372620D01*
X122955540Y-109531370D01*
X122701540Y-109531370D01*
X122542790Y-109372620D01*
X122128540Y-109369548D01*
X122004058Y-109381808D01*
X121884360Y-109418118D01*
X121774046Y-109477083D01*
X121677355Y-109556435D01*
X121598003Y-109653126D01*
X121539038Y-109763440D01*
X121502728Y-109883138D01*
X121490468Y-110007620D01*
X119338061Y-110007620D01*
X119338072Y-110000000D01*
X119325812Y-109875518D01*
X119289502Y-109755820D01*
X119230537Y-109645506D01*
X119151185Y-109548815D01*
X119054494Y-109469463D01*
X118944180Y-109410498D01*
X118824482Y-109374188D01*
X118700000Y-109361928D01*
X118285750Y-109365000D01*
X118127000Y-109523750D01*
X117873000Y-109523750D01*
X117714250Y-109365000D01*
X117300000Y-109361928D01*
X117175518Y-109374188D01*
X117055820Y-109410498D01*
X116945506Y-109469463D01*
X116848815Y-109548815D01*
X116769463Y-109645506D01*
X116710498Y-109755820D01*
X116674188Y-109875518D01*
X116661928Y-110000000D01*
X83185000Y-110000000D01*
X83185000Y-100459084D01*
X86077000Y-100459084D01*
X86077000Y-100900916D01*
X86163197Y-101334259D01*
X86332279Y-101742459D01*
X86577748Y-102109829D01*
X86890171Y-102422252D01*
X87257541Y-102667721D01*
X87665741Y-102836803D01*
X88099084Y-102923000D01*
X88540916Y-102923000D01*
X88974259Y-102836803D01*
X89382459Y-102667721D01*
X89749829Y-102422252D01*
X90062252Y-102109829D01*
X90216912Y-101878363D01*
X104765000Y-101878363D01*
X104765000Y-102121637D01*
X104812460Y-102360236D01*
X104905557Y-102584992D01*
X105040713Y-102787267D01*
X105212733Y-102959287D01*
X105415008Y-103094443D01*
X105639764Y-103187540D01*
X105878363Y-103235000D01*
X106121637Y-103235000D01*
X106360236Y-103187540D01*
X106487079Y-103135000D01*
X129029869Y-103135000D01*
X134658009Y-108763141D01*
X134693551Y-108806449D01*
X134866377Y-108948284D01*
X135063553Y-109053676D01*
X135277501Y-109118577D01*
X135444248Y-109135000D01*
X135444257Y-109135000D01*
X135499999Y-109140490D01*
X135555741Y-109135000D01*
X175012921Y-109135000D01*
X175139764Y-109187540D01*
X175378363Y-109235000D01*
X175621637Y-109235000D01*
X175860236Y-109187540D01*
X176084992Y-109094443D01*
X176287267Y-108959287D01*
X176459287Y-108787267D01*
X176594443Y-108584992D01*
X176687540Y-108360236D01*
X176735000Y-108121637D01*
X176735000Y-107878363D01*
X176687540Y-107639764D01*
X176594443Y-107415008D01*
X176459287Y-107212733D01*
X176287267Y-107040713D01*
X176084992Y-106905557D01*
X175860236Y-106812460D01*
X175621637Y-106765000D01*
X175378363Y-106765000D01*
X175139764Y-106812460D01*
X175012921Y-106865000D01*
X135970132Y-106865000D01*
X130341996Y-101236865D01*
X130306449Y-101193551D01*
X130133623Y-101051716D01*
X129936447Y-100946324D01*
X129722499Y-100881423D01*
X129555752Y-100865000D01*
X129555751Y-100865000D01*
X129500000Y-100859509D01*
X129444249Y-100865000D01*
X106487079Y-100865000D01*
X106360236Y-100812460D01*
X106121637Y-100765000D01*
X105878363Y-100765000D01*
X105639764Y-100812460D01*
X105415008Y-100905557D01*
X105212733Y-101040713D01*
X105040713Y-101212733D01*
X104905557Y-101415008D01*
X104812460Y-101639764D01*
X104765000Y-101878363D01*
X90216912Y-101878363D01*
X90307721Y-101742459D01*
X90476803Y-101334259D01*
X90563000Y-100900916D01*
X90563000Y-100459084D01*
X90476803Y-100025741D01*
X90307721Y-99617541D01*
X90062252Y-99250171D01*
X89749829Y-98937748D01*
X89382459Y-98692279D01*
X88974259Y-98523197D01*
X88687208Y-98466099D01*
X91498932Y-98466099D01*
X91506517Y-98515946D01*
X91603677Y-98750533D01*
X91744736Y-98961658D01*
X91924273Y-99141207D01*
X92135388Y-99282280D01*
X92369969Y-99379456D01*
X92619000Y-99429000D01*
X93273000Y-99429000D01*
X93273000Y-98267000D01*
X93527000Y-98267000D01*
X93527000Y-99429000D01*
X94181000Y-99429000D01*
X94430031Y-99379456D01*
X94664612Y-99282280D01*
X94875727Y-99141207D01*
X95055264Y-98961658D01*
X95196323Y-98750533D01*
X95293483Y-98515946D01*
X95301068Y-98466099D01*
X95177092Y-98267000D01*
X93527000Y-98267000D01*
X93273000Y-98267000D01*
X91622908Y-98267000D01*
X91498932Y-98466099D01*
X88687208Y-98466099D01*
X88540916Y-98437000D01*
X88099084Y-98437000D01*
X87665741Y-98523197D01*
X87257541Y-98692279D01*
X86890171Y-98937748D01*
X86577748Y-99250171D01*
X86332279Y-99617541D01*
X86163197Y-100025741D01*
X86077000Y-100459084D01*
X83185000Y-100459084D01*
X83185000Y-95600000D01*
X91450764Y-95600000D01*
X91475652Y-95852688D01*
X91549358Y-96095665D01*
X91669051Y-96319595D01*
X91830130Y-96515870D01*
X92026405Y-96676949D01*
X92250335Y-96796642D01*
X92298737Y-96811324D01*
X92400138Y-96894542D01*
X92369969Y-96900544D01*
X92135388Y-96997720D01*
X91924273Y-97138793D01*
X91744736Y-97318342D01*
X91603677Y-97529467D01*
X91506517Y-97764054D01*
X91498932Y-97813901D01*
X91622908Y-98013000D01*
X93273000Y-98013000D01*
X93273000Y-97993000D01*
X93527000Y-97993000D01*
X93527000Y-98013000D01*
X95177092Y-98013000D01*
X95301068Y-97813901D01*
X95293483Y-97764054D01*
X95196323Y-97529467D01*
X95055264Y-97318342D01*
X94971928Y-97235000D01*
X98319681Y-97235000D01*
X98400000Y-97242911D01*
X98480319Y-97235000D01*
X98480322Y-97235000D01*
X98720516Y-97211343D01*
X99028715Y-97117852D01*
X99312752Y-96966031D01*
X99561714Y-96761714D01*
X99612925Y-96699313D01*
X108599319Y-87712920D01*
X108661714Y-87661714D01*
X108866031Y-87412752D01*
X109017852Y-87128715D01*
X109111343Y-86820516D01*
X109135000Y-86580322D01*
X109135000Y-86580320D01*
X109142911Y-86500001D01*
X109135000Y-86419681D01*
X109135000Y-66419678D01*
X109111343Y-66179484D01*
X109017852Y-65871285D01*
X108866031Y-65587248D01*
X108661714Y-65338286D01*
X108412751Y-65133969D01*
X108128714Y-64982148D01*
X107820515Y-64888657D01*
X107500000Y-64857089D01*
X107179484Y-64888657D01*
X106871285Y-64982148D01*
X106587248Y-65133969D01*
X106338286Y-65338286D01*
X106133969Y-65587249D01*
X105982148Y-65871286D01*
X105888657Y-66179485D01*
X105865000Y-66419679D01*
X105865001Y-85822760D01*
X97722762Y-93965000D01*
X93319678Y-93965000D01*
X93079484Y-93988657D01*
X92771285Y-94082148D01*
X92487248Y-94233969D01*
X92298737Y-94388676D01*
X92250335Y-94403358D01*
X92026405Y-94523051D01*
X91830130Y-94684130D01*
X91669051Y-94880405D01*
X91549358Y-95104335D01*
X91475652Y-95347312D01*
X91450764Y-95600000D01*
X83185000Y-95600000D01*
X83185000Y-90299084D01*
X86077000Y-90299084D01*
X86077000Y-90740916D01*
X86163197Y-91174259D01*
X86332279Y-91582459D01*
X86577748Y-91949829D01*
X86890171Y-92262252D01*
X87257541Y-92507721D01*
X87665741Y-92676803D01*
X88099084Y-92763000D01*
X88540916Y-92763000D01*
X88974259Y-92676803D01*
X89382459Y-92507721D01*
X89749829Y-92262252D01*
X90062252Y-91949829D01*
X90307721Y-91582459D01*
X90476803Y-91174259D01*
X90563000Y-90740916D01*
X90563000Y-90299084D01*
X90476803Y-89865741D01*
X90307721Y-89457541D01*
X90062252Y-89090171D01*
X89749829Y-88777748D01*
X89382459Y-88532279D01*
X88974259Y-88363197D01*
X88540916Y-88277000D01*
X88099084Y-88277000D01*
X87665741Y-88363197D01*
X87257541Y-88532279D01*
X86890171Y-88777748D01*
X86577748Y-89090171D01*
X86332279Y-89457541D01*
X86163197Y-89865741D01*
X86077000Y-90299084D01*
X83185000Y-90299084D01*
X83185000Y-69859084D01*
X86177000Y-69859084D01*
X86177000Y-70300916D01*
X86263197Y-70734259D01*
X86432279Y-71142459D01*
X86677748Y-71509829D01*
X86990171Y-71822252D01*
X87357541Y-72067721D01*
X87765741Y-72236803D01*
X88199084Y-72323000D01*
X88640916Y-72323000D01*
X89074259Y-72236803D01*
X89482459Y-72067721D01*
X89849829Y-71822252D01*
X90162252Y-71509829D01*
X90407721Y-71142459D01*
X90576803Y-70734259D01*
X90663000Y-70300916D01*
X90663000Y-69859084D01*
X90576803Y-69425741D01*
X90407721Y-69017541D01*
X90162252Y-68650171D01*
X89849829Y-68337748D01*
X89482459Y-68092279D01*
X89074259Y-67923197D01*
X88787208Y-67866099D01*
X91598932Y-67866099D01*
X91606517Y-67915946D01*
X91703677Y-68150533D01*
X91844736Y-68361658D01*
X92024273Y-68541207D01*
X92235388Y-68682280D01*
X92469969Y-68779456D01*
X92719000Y-68829000D01*
X93373000Y-68829000D01*
X93373000Y-67667000D01*
X93627000Y-67667000D01*
X93627000Y-68829000D01*
X94281000Y-68829000D01*
X94530031Y-68779456D01*
X94764612Y-68682280D01*
X94975727Y-68541207D01*
X95155264Y-68361658D01*
X95296323Y-68150533D01*
X95393483Y-67915946D01*
X95401068Y-67866099D01*
X95277092Y-67667000D01*
X93627000Y-67667000D01*
X93373000Y-67667000D01*
X91722908Y-67667000D01*
X91598932Y-67866099D01*
X88787208Y-67866099D01*
X88640916Y-67837000D01*
X88199084Y-67837000D01*
X87765741Y-67923197D01*
X87357541Y-68092279D01*
X86990171Y-68337748D01*
X86677748Y-68650171D01*
X86432279Y-69017541D01*
X86263197Y-69425741D01*
X86177000Y-69859084D01*
X83185000Y-69859084D01*
X83185000Y-65000000D01*
X91550764Y-65000000D01*
X91575652Y-65252688D01*
X91649358Y-65495665D01*
X91769051Y-65719595D01*
X91930130Y-65915870D01*
X92126405Y-66076949D01*
X92350335Y-66196642D01*
X92593312Y-66270348D01*
X92612332Y-66272221D01*
X92469969Y-66300544D01*
X92235388Y-66397720D01*
X92024273Y-66538793D01*
X91844736Y-66718342D01*
X91703677Y-66929467D01*
X91606517Y-67164054D01*
X91598932Y-67213901D01*
X91722908Y-67413000D01*
X93373000Y-67413000D01*
X93373000Y-67393000D01*
X93627000Y-67393000D01*
X93627000Y-67413000D01*
X95277092Y-67413000D01*
X95401068Y-67213901D01*
X95393483Y-67164054D01*
X95296323Y-66929467D01*
X95155264Y-66718342D01*
X94975727Y-66538793D01*
X94764612Y-66397720D01*
X94530031Y-66300544D01*
X94387668Y-66272221D01*
X94406688Y-66270348D01*
X94649665Y-66196642D01*
X94873595Y-66076949D01*
X95069870Y-65915870D01*
X95230949Y-65719595D01*
X95350642Y-65495665D01*
X95424348Y-65252688D01*
X95449236Y-65000000D01*
X95424348Y-64747312D01*
X95350642Y-64504335D01*
X95230949Y-64280405D01*
X95069870Y-64084130D01*
X94873595Y-63923051D01*
X94649665Y-63803358D01*
X94406688Y-63729652D01*
X94217314Y-63711000D01*
X92782686Y-63711000D01*
X92593312Y-63729652D01*
X92350335Y-63803358D01*
X92126405Y-63923051D01*
X91930130Y-64084130D01*
X91769051Y-64280405D01*
X91649358Y-64504335D01*
X91575652Y-64747312D01*
X91550764Y-65000000D01*
X83185000Y-65000000D01*
X83185000Y-59699084D01*
X86177000Y-59699084D01*
X86177000Y-60140916D01*
X86263197Y-60574259D01*
X86432279Y-60982459D01*
X86677748Y-61349829D01*
X86990171Y-61662252D01*
X87357541Y-61907721D01*
X87765741Y-62076803D01*
X88199084Y-62163000D01*
X88640916Y-62163000D01*
X89074259Y-62076803D01*
X89482459Y-61907721D01*
X89849829Y-61662252D01*
X90162252Y-61349829D01*
X90407721Y-60982459D01*
X90576803Y-60574259D01*
X90663000Y-60140916D01*
X90663000Y-59699084D01*
X90576803Y-59265741D01*
X90407721Y-58857541D01*
X90162252Y-58490171D01*
X89849829Y-58177748D01*
X89482459Y-57932279D01*
X89074259Y-57763197D01*
X88640916Y-57677000D01*
X88199084Y-57677000D01*
X87765741Y-57763197D01*
X87357541Y-57932279D01*
X86990171Y-58177748D01*
X86677748Y-58490171D01*
X86432279Y-58857541D01*
X86263197Y-59265741D01*
X86177000Y-59699084D01*
X83185000Y-59699084D01*
X83185000Y-54378363D01*
X102265000Y-54378363D01*
X102265000Y-54621637D01*
X102312460Y-54860236D01*
X102405557Y-55084992D01*
X102540713Y-55287267D01*
X102712733Y-55459287D01*
X102915008Y-55594443D01*
X103139764Y-55687540D01*
X103378363Y-55735000D01*
X103621637Y-55735000D01*
X103860236Y-55687540D01*
X103987079Y-55635000D01*
X106529869Y-55635000D01*
X112865001Y-61970133D01*
X112865000Y-73512921D01*
X112812460Y-73639764D01*
X112765000Y-73878363D01*
X112765000Y-74121637D01*
X112812460Y-74360236D01*
X112905557Y-74584992D01*
X113040713Y-74787267D01*
X113212733Y-74959287D01*
X113415008Y-75094443D01*
X113639764Y-75187540D01*
X113878363Y-75235000D01*
X114121637Y-75235000D01*
X114360236Y-75187540D01*
X114584992Y-75094443D01*
X114787267Y-74959287D01*
X114959287Y-74787267D01*
X115094443Y-74584992D01*
X115187540Y-74360236D01*
X115235000Y-74121637D01*
X115235000Y-73878363D01*
X115187540Y-73639764D01*
X115135000Y-73512921D01*
X115135000Y-61555751D01*
X115140491Y-61500000D01*
X115118577Y-61277501D01*
X115053676Y-61063553D01*
X114948284Y-60866377D01*
X114806449Y-60693551D01*
X114763141Y-60658009D01*
X110105132Y-56000000D01*
X115857089Y-56000000D01*
X115888658Y-56320516D01*
X115982148Y-56628714D01*
X116133970Y-56912752D01*
X116287085Y-57099323D01*
X116537085Y-57349323D01*
X119865001Y-60677240D01*
X119865000Y-95051676D01*
X119865000Y-96580321D01*
X119888657Y-96820515D01*
X119982148Y-97128714D01*
X120133969Y-97412751D01*
X120338286Y-97661714D01*
X120587248Y-97866031D01*
X120871285Y-98017852D01*
X121179484Y-98111343D01*
X121500000Y-98142911D01*
X121820515Y-98111343D01*
X122128714Y-98017852D01*
X122348638Y-97900300D01*
X130757389Y-97900300D01*
X130788958Y-98220816D01*
X130882448Y-98529014D01*
X131034270Y-98813052D01*
X131187385Y-98999623D01*
X135287080Y-103099319D01*
X135338286Y-103161714D01*
X135587248Y-103366031D01*
X135871285Y-103517852D01*
X136179484Y-103611343D01*
X136419678Y-103635000D01*
X136419680Y-103635000D01*
X136499999Y-103642911D01*
X136580319Y-103635000D01*
X199580322Y-103635000D01*
X199820516Y-103611343D01*
X200128715Y-103517852D01*
X200412752Y-103366031D01*
X200661714Y-103161714D01*
X200866031Y-102912752D01*
X201017852Y-102628715D01*
X201111343Y-102320516D01*
X201142911Y-102000000D01*
X201111343Y-101679484D01*
X201017852Y-101371285D01*
X200866031Y-101087248D01*
X200661714Y-100838286D01*
X200412752Y-100633969D01*
X200128715Y-100482148D01*
X199820516Y-100388657D01*
X199580322Y-100365000D01*
X161581616Y-100365000D01*
X161635919Y-100263406D01*
X161675088Y-100134283D01*
X161685000Y-100033647D01*
X161685000Y-100033646D01*
X161688314Y-100000000D01*
X161685000Y-99966353D01*
X161685000Y-82533647D01*
X161688314Y-82500000D01*
X161675088Y-82365717D01*
X161635919Y-82236594D01*
X161572312Y-82117593D01*
X161486711Y-82013289D01*
X161382407Y-81927688D01*
X161263406Y-81864081D01*
X161134283Y-81824912D01*
X161033647Y-81815000D01*
X161000000Y-81811686D01*
X160966353Y-81815000D01*
X160033647Y-81815000D01*
X160000000Y-81811686D01*
X159966353Y-81815000D01*
X159865717Y-81824912D01*
X159736594Y-81864081D01*
X159617593Y-81927688D01*
X159513289Y-82013289D01*
X159427688Y-82117593D01*
X159364081Y-82236594D01*
X159324912Y-82365717D01*
X159311686Y-82500000D01*
X159315001Y-82533657D01*
X159315000Y-98315000D01*
X153033647Y-98315000D01*
X153000000Y-98311686D01*
X152966353Y-98315000D01*
X152865717Y-98324912D01*
X152736594Y-98364081D01*
X152617593Y-98427688D01*
X152513289Y-98513289D01*
X152427688Y-98617593D01*
X152364081Y-98736594D01*
X152324912Y-98865717D01*
X152311686Y-99000000D01*
X152315001Y-99033656D01*
X152315000Y-99966352D01*
X152311686Y-100000000D01*
X152324912Y-100134283D01*
X152364081Y-100263406D01*
X152418384Y-100365000D01*
X152081616Y-100365000D01*
X152135919Y-100263406D01*
X152175088Y-100134283D01*
X152188314Y-100000000D01*
X152185000Y-99966353D01*
X152185000Y-99033646D01*
X152188314Y-99000000D01*
X152175088Y-98865717D01*
X152135919Y-98736594D01*
X152072312Y-98617593D01*
X151986711Y-98513289D01*
X151882407Y-98427688D01*
X151763406Y-98364081D01*
X151634283Y-98324912D01*
X151533647Y-98315000D01*
X151500000Y-98311686D01*
X151466353Y-98315000D01*
X145185000Y-98315000D01*
X145185000Y-82533647D01*
X145188314Y-82500000D01*
X145175088Y-82365717D01*
X145135919Y-82236594D01*
X145072312Y-82117593D01*
X144986711Y-82013289D01*
X144882407Y-81927688D01*
X144763406Y-81864081D01*
X144634283Y-81824912D01*
X144533647Y-81815000D01*
X144500000Y-81811686D01*
X144466353Y-81815000D01*
X143533647Y-81815000D01*
X143500000Y-81811686D01*
X143466353Y-81815000D01*
X143365717Y-81824912D01*
X143236594Y-81864081D01*
X143117593Y-81927688D01*
X143013289Y-82013289D01*
X142927688Y-82117593D01*
X142864081Y-82236594D01*
X142824912Y-82365717D01*
X142811686Y-82500000D01*
X142815000Y-82533647D01*
X142815001Y-99966343D01*
X142811686Y-100000000D01*
X142824912Y-100134283D01*
X142864081Y-100263406D01*
X142918384Y-100365000D01*
X137177239Y-100365000D01*
X133499623Y-96687385D01*
X133313052Y-96534270D01*
X133029014Y-96382448D01*
X132720816Y-96288958D01*
X132400300Y-96257389D01*
X132079784Y-96288958D01*
X131771586Y-96382448D01*
X131487548Y-96534270D01*
X131238587Y-96738587D01*
X131034270Y-96987548D01*
X130882448Y-97271586D01*
X130788958Y-97579784D01*
X130757389Y-97900300D01*
X122348638Y-97900300D01*
X122412751Y-97866031D01*
X122661714Y-97661714D01*
X122866031Y-97412752D01*
X123017852Y-97128715D01*
X123111343Y-96820516D01*
X123135000Y-96580322D01*
X123135000Y-62474363D01*
X137361000Y-62474363D01*
X137361000Y-62717637D01*
X137408460Y-62956236D01*
X137501557Y-63180992D01*
X137636713Y-63383267D01*
X137808733Y-63555287D01*
X138011008Y-63690443D01*
X138235764Y-63783540D01*
X138474363Y-63831000D01*
X138717637Y-63831000D01*
X138956236Y-63783540D01*
X139180992Y-63690443D01*
X139383267Y-63555287D01*
X139438554Y-63500000D01*
X142811686Y-63500000D01*
X142815001Y-63533657D01*
X142815000Y-80966353D01*
X142811686Y-81000000D01*
X142824912Y-81134283D01*
X142864081Y-81263406D01*
X142927688Y-81382407D01*
X143013289Y-81486711D01*
X143117593Y-81572312D01*
X143236594Y-81635919D01*
X143365717Y-81675088D01*
X143500000Y-81688314D01*
X143533647Y-81685000D01*
X144466353Y-81685000D01*
X144500000Y-81688314D01*
X144634283Y-81675088D01*
X144763406Y-81635919D01*
X144882407Y-81572312D01*
X144986711Y-81486711D01*
X145072312Y-81382407D01*
X145135919Y-81263406D01*
X145175088Y-81134283D01*
X145185000Y-81033647D01*
X145185000Y-81033646D01*
X145188314Y-81000000D01*
X145185000Y-80966353D01*
X145185000Y-67650000D01*
X149511928Y-67650000D01*
X149511928Y-69350000D01*
X149524188Y-69474482D01*
X149560498Y-69594180D01*
X149619463Y-69704494D01*
X149698815Y-69801185D01*
X149795506Y-69880537D01*
X149905820Y-69939502D01*
X150025518Y-69975812D01*
X150150000Y-69988072D01*
X151850000Y-69988072D01*
X151974482Y-69975812D01*
X152094180Y-69939502D01*
X152204494Y-69880537D01*
X152301185Y-69801185D01*
X152380537Y-69704494D01*
X152439502Y-69594180D01*
X152461513Y-69521620D01*
X152593368Y-69653475D01*
X152836589Y-69815990D01*
X153106842Y-69927932D01*
X153393740Y-69985000D01*
X153686260Y-69985000D01*
X153973158Y-69927932D01*
X154243411Y-69815990D01*
X154486632Y-69653475D01*
X154693475Y-69446632D01*
X154855990Y-69203411D01*
X154967932Y-68933158D01*
X155025000Y-68646260D01*
X155025000Y-68353740D01*
X154967932Y-68066842D01*
X154855990Y-67796589D01*
X154693475Y-67553368D01*
X154486632Y-67346525D01*
X154243411Y-67184010D01*
X153973158Y-67072068D01*
X153686260Y-67015000D01*
X153393740Y-67015000D01*
X153106842Y-67072068D01*
X152836589Y-67184010D01*
X152593368Y-67346525D01*
X152461513Y-67478380D01*
X152439502Y-67405820D01*
X152380537Y-67295506D01*
X152301185Y-67198815D01*
X152204494Y-67119463D01*
X152094180Y-67060498D01*
X151974482Y-67024188D01*
X151850000Y-67011928D01*
X150150000Y-67011928D01*
X150025518Y-67024188D01*
X149905820Y-67060498D01*
X149795506Y-67119463D01*
X149698815Y-67198815D01*
X149619463Y-67295506D01*
X149560498Y-67405820D01*
X149524188Y-67525518D01*
X149511928Y-67650000D01*
X145185000Y-67650000D01*
X145185000Y-65185000D01*
X151466353Y-65185000D01*
X151500000Y-65188314D01*
X151634283Y-65175088D01*
X151763406Y-65135919D01*
X151882407Y-65072312D01*
X151986711Y-64986711D01*
X152072312Y-64882407D01*
X152135919Y-64763406D01*
X152175088Y-64634283D01*
X152185000Y-64533647D01*
X152188314Y-64500000D01*
X152185000Y-64466353D01*
X152185000Y-63533647D01*
X152188314Y-63500000D01*
X152311686Y-63500000D01*
X152315000Y-63533648D01*
X152315001Y-64466344D01*
X152311686Y-64500000D01*
X152324912Y-64634283D01*
X152364081Y-64763406D01*
X152427688Y-64882407D01*
X152513289Y-64986711D01*
X152617593Y-65072312D01*
X152736594Y-65135919D01*
X152865717Y-65175088D01*
X152966353Y-65185000D01*
X153000000Y-65188314D01*
X153033647Y-65185000D01*
X159315000Y-65185000D01*
X159315001Y-80966343D01*
X159311686Y-81000000D01*
X159324912Y-81134283D01*
X159364081Y-81263406D01*
X159427688Y-81382407D01*
X159513289Y-81486711D01*
X159617593Y-81572312D01*
X159736594Y-81635919D01*
X159865717Y-81675088D01*
X159966353Y-81685000D01*
X160000000Y-81688314D01*
X160033647Y-81685000D01*
X160966353Y-81685000D01*
X161000000Y-81688314D01*
X161033647Y-81685000D01*
X161134283Y-81675088D01*
X161263406Y-81635919D01*
X161382407Y-81572312D01*
X161486711Y-81486711D01*
X161572312Y-81382407D01*
X161635919Y-81263406D01*
X161675088Y-81134283D01*
X161688314Y-81000000D01*
X161685000Y-80966353D01*
X161685000Y-63533647D01*
X161688314Y-63500000D01*
X161675088Y-63365717D01*
X161635919Y-63236594D01*
X161572312Y-63117593D01*
X161486711Y-63013289D01*
X161382407Y-62927688D01*
X161263406Y-62864081D01*
X161134283Y-62824912D01*
X161033647Y-62815000D01*
X161000000Y-62811686D01*
X160966353Y-62815000D01*
X153033647Y-62815000D01*
X153000000Y-62811686D01*
X152966353Y-62815000D01*
X152865717Y-62824912D01*
X152736594Y-62864081D01*
X152617593Y-62927688D01*
X152513289Y-63013289D01*
X152427688Y-63117593D01*
X152364081Y-63236594D01*
X152324912Y-63365717D01*
X152311686Y-63500000D01*
X152188314Y-63500000D01*
X152175088Y-63365717D01*
X152135919Y-63236594D01*
X152072312Y-63117593D01*
X151986711Y-63013289D01*
X151882407Y-62927688D01*
X151763406Y-62864081D01*
X151634283Y-62824912D01*
X151533647Y-62815000D01*
X151500000Y-62811686D01*
X151466353Y-62815000D01*
X143533647Y-62815000D01*
X143500000Y-62811686D01*
X143466353Y-62815000D01*
X143365717Y-62824912D01*
X143236594Y-62864081D01*
X143117593Y-62927688D01*
X143013289Y-63013289D01*
X142927688Y-63117593D01*
X142864081Y-63236594D01*
X142824912Y-63365717D01*
X142811686Y-63500000D01*
X139438554Y-63500000D01*
X139555287Y-63383267D01*
X139690443Y-63180992D01*
X139783540Y-62956236D01*
X139831000Y-62717637D01*
X139831000Y-62474363D01*
X139783540Y-62235764D01*
X139731000Y-62108921D01*
X139731000Y-58874131D01*
X141157992Y-57447140D01*
X154200781Y-57447140D01*
X154327624Y-57499680D01*
X154566223Y-57547140D01*
X154809497Y-57547140D01*
X155048096Y-57499680D01*
X155272852Y-57406583D01*
X155475127Y-57271427D01*
X155647147Y-57099407D01*
X155782303Y-56897132D01*
X155875400Y-56672376D01*
X155922860Y-56433777D01*
X155922860Y-56190503D01*
X155875400Y-55951904D01*
X155782303Y-55727148D01*
X155647147Y-55524873D01*
X155475127Y-55352853D01*
X155272852Y-55217697D01*
X155048096Y-55124600D01*
X154809497Y-55077140D01*
X154566223Y-55077140D01*
X154327624Y-55124600D01*
X154200781Y-55177140D01*
X140743612Y-55177140D01*
X140687860Y-55171649D01*
X140632108Y-55177140D01*
X140465361Y-55193563D01*
X140251413Y-55258464D01*
X140054237Y-55363856D01*
X139881411Y-55505691D01*
X139845869Y-55548999D01*
X137832865Y-57562004D01*
X137789551Y-57597551D01*
X137647716Y-57770377D01*
X137561179Y-57932279D01*
X137542324Y-57967554D01*
X137477423Y-58181502D01*
X137455509Y-58404000D01*
X137461000Y-58459752D01*
X137461001Y-62108919D01*
X137408460Y-62235764D01*
X137361000Y-62474363D01*
X123135000Y-62474363D01*
X123135000Y-60080322D01*
X123142911Y-60000000D01*
X123111343Y-59679483D01*
X123017852Y-59371285D01*
X123007695Y-59352283D01*
X122866031Y-59087248D01*
X122661714Y-58838286D01*
X122599319Y-58787080D01*
X118849323Y-55037085D01*
X118599323Y-54787085D01*
X118412752Y-54633970D01*
X118128714Y-54482148D01*
X117820516Y-54388658D01*
X117500000Y-54357089D01*
X117179484Y-54388658D01*
X116871286Y-54482148D01*
X116587248Y-54633970D01*
X116338287Y-54838287D01*
X116133970Y-55087248D01*
X115982148Y-55371286D01*
X115888658Y-55679484D01*
X115857089Y-56000000D01*
X110105132Y-56000000D01*
X107841996Y-53736865D01*
X107806449Y-53693551D01*
X107633623Y-53551716D01*
X107436447Y-53446324D01*
X107222499Y-53381423D01*
X107055752Y-53365000D01*
X107055751Y-53365000D01*
X107000000Y-53359509D01*
X106944249Y-53365000D01*
X103987079Y-53365000D01*
X103860236Y-53312460D01*
X103621637Y-53265000D01*
X103378363Y-53265000D01*
X103139764Y-53312460D01*
X102915008Y-53405557D01*
X102712733Y-53540713D01*
X102540713Y-53712733D01*
X102405557Y-53915008D01*
X102312460Y-54139764D01*
X102265000Y-54378363D01*
X83185000Y-54378363D01*
X83185000Y-48185000D01*
X209315000Y-48185000D01*
X209315001Y-114815000D01*
G37*
G04 #@! TD.AperFunction*
M02*
