M48
; DRILL file {KiCad (5.1.5)-3} date 10/30/2022 9:30:52 AM
; FORMAT={-:-/ absolute / metric / decimal}
; #@! TF.CreationDate,2022-10-30T09:30:52-04:00
; #@! TF.GenerationSoftware,Kicad,Pcbnew,(5.1.5)-3
; #@! TF.FileFunction,Plated,1,2,PTH
FMAT,2
METRIC
T1C0.400
T2C0.700
T3C0.800
T4C1.000
T5C2.200
%
G90
G05
T1
X84.5Y-49.5
X84.5Y-53.0
X84.5Y-56.5
X84.5Y-74.0
X84.5Y-77.5
X84.5Y-81.0
X84.5Y-84.5
X84.5Y-105.0
X84.5Y-109.0
X84.5Y-112.5
X89.5Y-49.5
X89.5Y-53.0
X89.5Y-56.5
X89.5Y-74.0
X89.5Y-77.5
X89.5Y-81.0
X89.5Y-84.5
X89.5Y-105.0
X89.5Y-109.0
X89.5Y-112.5
X94.5Y-49.5
X94.5Y-53.0
X94.5Y-56.5
X94.5Y-74.0
X94.5Y-77.5
X94.5Y-81.0
X94.5Y-84.5
X94.5Y-105.0
X94.5Y-109.0
X94.5Y-112.5
X99.5Y-49.5
X99.5Y-105.0
X99.5Y-109.0
X99.5Y-112.5
X104.5Y-49.5
X104.5Y-53.0
X104.5Y-105.0
X104.5Y-109.0
X104.5Y-112.5
X109.5Y-49.5
X109.5Y-109.0
X109.5Y-112.5
X112.0Y-95.5
X112.0Y-99.0
X115.0Y-49.5
X120.0Y-49.5
X120.0Y-53.5
X125.0Y-49.5
X125.0Y-53.5
X125.0Y-57.5
X125.0Y-61.5
X126.5Y-110.0
X127.0Y-84.5
X127.0Y-88.0
X127.0Y-91.5
X130.0Y-49.5
X130.0Y-53.5
X130.0Y-57.5
X130.0Y-61.5
X132.5Y-84.5
X132.5Y-88.0
X132.5Y-91.5
X135.0Y-49.5
X135.0Y-53.5
X135.0Y-57.5
X135.0Y-61.5
X151.0Y-113.0
X169.0Y-49.5
X169.0Y-53.5
X169.0Y-57.5
X169.0Y-61.5
X169.0Y-65.5
X169.0Y-70.0
X169.0Y-74.0
X169.0Y-78.0
X169.0Y-83.0
X169.0Y-87.0
X169.0Y-91.0
X174.0Y-49.5
X174.0Y-53.5
X174.0Y-57.5
X174.0Y-61.5
X174.0Y-65.5
X174.0Y-70.0
X174.0Y-74.0
X174.0Y-78.0
X174.0Y-83.0
X174.0Y-87.0
X174.0Y-91.0
X179.0Y-49.5
X179.0Y-53.5
X179.0Y-57.5
X179.0Y-61.5
X179.0Y-65.5
X179.0Y-70.0
X179.0Y-74.0
X179.0Y-78.0
X179.0Y-83.0
X179.0Y-87.0
X179.0Y-91.0
X184.0Y-49.5
X184.0Y-53.5
X184.0Y-57.5
X184.0Y-61.5
X184.0Y-65.5
X184.0Y-70.0
X184.0Y-74.0
X184.0Y-78.0
X189.0Y-49.5
X189.0Y-53.5
X189.0Y-57.5
X189.0Y-61.5
X189.0Y-65.5
X189.0Y-70.0
X189.0Y-74.0
X189.0Y-78.0
X189.0Y-90.0
X189.0Y-94.0
X189.0Y-98.0
X194.0Y-49.5
X194.0Y-53.5
X194.0Y-57.5
X194.0Y-61.5
X194.0Y-65.5
X194.0Y-70.0
X194.0Y-74.0
X194.0Y-78.0
X194.0Y-90.0
X194.0Y-94.0
X194.0Y-98.0
X199.0Y-49.5
X199.0Y-53.5
X199.0Y-57.5
X199.0Y-61.5
X199.0Y-65.5
X199.0Y-70.0
X199.0Y-74.0
X199.0Y-78.0
X199.0Y-90.0
X199.0Y-94.0
X199.0Y-98.0
X204.0Y-49.5
X204.0Y-53.5
X204.0Y-57.5
X204.0Y-61.5
X204.0Y-65.5
T2
X103.5Y-54.5
X106.0Y-102.0
X107.5Y-66.5
X114.0Y-74.0
X117.75Y-56.25
X121.5Y-96.5
X132.4Y-97.9
X138.596Y-62.596
X154.688Y-56.312
X175.5Y-108.0
X199.5Y-102.0
T3
X93.4Y-95.6
X93.4Y-98.14
X93.5Y-65.0
X93.5Y-67.54
T4
X151.0Y-68.5
X153.54Y-68.5
T5
X88.32Y-90.52
X88.32Y-100.68
X88.42Y-59.92
X88.42Y-70.08
T0
M30
