%FSLAX45Y45*%
G04 Gerber Fmt 4.5, Leading zero omitted, Abs format (unit mm)*
G04 Created by KiCad (PCBNEW 5.1.12-unknown-nightly-202202221509) date 2022-06-26 13:05:55*
%MOMM*%
%LPD*%
G01*
G04 APERTURE LIST*
%TA.AperFunction,Profile*%
%ADD10C,0.100000*%
%TD*%
%ADD11C,0.200000*%
%ADD12C,0.300000*%
G04 APERTURE END LIST*
D10*
X15150000Y-9900000D02*
X14450000Y-9900000D01*
X14350000Y-10000000D02*
X15150000Y-10000000D01*
X14450000Y-8250000D02*
X14350000Y-8250000D01*
X15150000Y-10000000D02*
X15150000Y-9900000D01*
X14450000Y-9900000D02*
X14450000Y-8250000D01*
X14350000Y-8250000D02*
X14350000Y-10000000D01*
X16000000Y-6450000D02*
X16000000Y-8100000D01*
X15300000Y-6350000D02*
X15300000Y-6450000D01*
X16100000Y-6350000D02*
X15300000Y-6350000D01*
X16000000Y-8100000D02*
X16100000Y-8100000D01*
X16100000Y-8100000D02*
X16100000Y-6350000D01*
X15300000Y-6450000D02*
X16000000Y-6450000D01*
X16000000Y-9900000D02*
X16000000Y-8250000D01*
X15300000Y-10000000D02*
X15300000Y-9900000D01*
X15300000Y-9900000D02*
X16000000Y-9900000D01*
X16000000Y-8250000D02*
X16100000Y-8250000D01*
X16100000Y-8250000D02*
X16100000Y-10000000D01*
X16100000Y-10000000D02*
X15300000Y-10000000D01*
X15150000Y-6350000D02*
X15150000Y-6450000D01*
X14350000Y-6350000D02*
X15150000Y-6350000D01*
X14350000Y-8100000D02*
X14350000Y-6350000D01*
X14450000Y-8100000D02*
X14350000Y-8100000D01*
X14450000Y-6450000D02*
X14450000Y-8100000D01*
X15150000Y-6450000D02*
X14450000Y-6450000D01*
X21000000Y-4750000D02*
X21000000Y-11550000D01*
X8250000Y-4750000D02*
X21000000Y-4750000D01*
X8250000Y-11550000D02*
X8250000Y-4750000D01*
X21000000Y-11550000D02*
X8250000Y-11550000D01*
D11*
X8430000Y-4930000D02*
X8470000Y-4970000D01*
X8470000Y-4930000D02*
X8430000Y-4970000D01*
X8430000Y-5280000D02*
X8470000Y-5320000D01*
X8470000Y-5280000D02*
X8430000Y-5320000D01*
X8430000Y-5630000D02*
X8470000Y-5670000D01*
X8470000Y-5630000D02*
X8430000Y-5670000D01*
X8430000Y-7380000D02*
X8470000Y-7420000D01*
X8470000Y-7380000D02*
X8430000Y-7420000D01*
X8430000Y-7730000D02*
X8470000Y-7770000D01*
X8470000Y-7730000D02*
X8430000Y-7770000D01*
X8430000Y-8080000D02*
X8470000Y-8120000D01*
X8470000Y-8080000D02*
X8430000Y-8120000D01*
X8430000Y-8430000D02*
X8470000Y-8470000D01*
X8470000Y-8430000D02*
X8430000Y-8470000D01*
X8430000Y-10480000D02*
X8470000Y-10520000D01*
X8470000Y-10480000D02*
X8430000Y-10520000D01*
X8430000Y-10880000D02*
X8470000Y-10920000D01*
X8470000Y-10880000D02*
X8430000Y-10920000D01*
X8430000Y-11230000D02*
X8470000Y-11270000D01*
X8470000Y-11230000D02*
X8430000Y-11270000D01*
X8930000Y-4930000D02*
X8970000Y-4970000D01*
X8970000Y-4930000D02*
X8930000Y-4970000D01*
X8930000Y-5280000D02*
X8970000Y-5320000D01*
X8970000Y-5280000D02*
X8930000Y-5320000D01*
X8930000Y-5630000D02*
X8970000Y-5670000D01*
X8970000Y-5630000D02*
X8930000Y-5670000D01*
X8930000Y-7380000D02*
X8970000Y-7420000D01*
X8970000Y-7380000D02*
X8930000Y-7420000D01*
X8930000Y-7730000D02*
X8970000Y-7770000D01*
X8970000Y-7730000D02*
X8930000Y-7770000D01*
X8930000Y-8080000D02*
X8970000Y-8120000D01*
X8970000Y-8080000D02*
X8930000Y-8120000D01*
X8930000Y-8430000D02*
X8970000Y-8470000D01*
X8970000Y-8430000D02*
X8930000Y-8470000D01*
X8930000Y-10480000D02*
X8970000Y-10520000D01*
X8970000Y-10480000D02*
X8930000Y-10520000D01*
X8930000Y-10880000D02*
X8970000Y-10920000D01*
X8970000Y-10880000D02*
X8930000Y-10920000D01*
X8930000Y-11230000D02*
X8970000Y-11270000D01*
X8970000Y-11230000D02*
X8930000Y-11270000D01*
X9430000Y-4930000D02*
X9470000Y-4970000D01*
X9470000Y-4930000D02*
X9430000Y-4970000D01*
X9430000Y-5280000D02*
X9470000Y-5320000D01*
X9470000Y-5280000D02*
X9430000Y-5320000D01*
X9430000Y-5630000D02*
X9470000Y-5670000D01*
X9470000Y-5630000D02*
X9430000Y-5670000D01*
X9430000Y-7380000D02*
X9470000Y-7420000D01*
X9470000Y-7380000D02*
X9430000Y-7420000D01*
X9430000Y-7730000D02*
X9470000Y-7770000D01*
X9470000Y-7730000D02*
X9430000Y-7770000D01*
X9430000Y-8080000D02*
X9470000Y-8120000D01*
X9470000Y-8080000D02*
X9430000Y-8120000D01*
X9430000Y-8430000D02*
X9470000Y-8470000D01*
X9470000Y-8430000D02*
X9430000Y-8470000D01*
X9430000Y-10480000D02*
X9470000Y-10520000D01*
X9470000Y-10480000D02*
X9430000Y-10520000D01*
X9430000Y-10880000D02*
X9470000Y-10920000D01*
X9470000Y-10880000D02*
X9430000Y-10920000D01*
X9430000Y-11230000D02*
X9470000Y-11270000D01*
X9470000Y-11230000D02*
X9430000Y-11270000D01*
X9930000Y-4930000D02*
X9970000Y-4970000D01*
X9970000Y-4930000D02*
X9930000Y-4970000D01*
X9930000Y-10480000D02*
X9970000Y-10520000D01*
X9970000Y-10480000D02*
X9930000Y-10520000D01*
X9930000Y-10880000D02*
X9970000Y-10920000D01*
X9970000Y-10880000D02*
X9930000Y-10920000D01*
X9930000Y-11230000D02*
X9970000Y-11270000D01*
X9970000Y-11230000D02*
X9930000Y-11270000D01*
X10430000Y-4930000D02*
X10470000Y-4970000D01*
X10470000Y-4930000D02*
X10430000Y-4970000D01*
X10430000Y-5280000D02*
X10470000Y-5320000D01*
X10470000Y-5280000D02*
X10430000Y-5320000D01*
X10430000Y-10480000D02*
X10470000Y-10520000D01*
X10470000Y-10480000D02*
X10430000Y-10520000D01*
X10430000Y-10880000D02*
X10470000Y-10920000D01*
X10470000Y-10880000D02*
X10430000Y-10920000D01*
X10430000Y-11230000D02*
X10470000Y-11270000D01*
X10470000Y-11230000D02*
X10430000Y-11270000D01*
X10930000Y-4930000D02*
X10970000Y-4970000D01*
X10970000Y-4930000D02*
X10930000Y-4970000D01*
X10930000Y-10880000D02*
X10970000Y-10920000D01*
X10970000Y-10880000D02*
X10930000Y-10920000D01*
X10930000Y-11230000D02*
X10970000Y-11270000D01*
X10970000Y-11230000D02*
X10930000Y-11270000D01*
X11180000Y-9530000D02*
X11220000Y-9570000D01*
X11220000Y-9530000D02*
X11180000Y-9570000D01*
X11180000Y-9880000D02*
X11220000Y-9920000D01*
X11220000Y-9880000D02*
X11180000Y-9920000D01*
X11480000Y-4930000D02*
X11520000Y-4970000D01*
X11520000Y-4930000D02*
X11480000Y-4970000D01*
X11980000Y-4930000D02*
X12020000Y-4970000D01*
X12020000Y-4930000D02*
X11980000Y-4970000D01*
X11980000Y-5330000D02*
X12020000Y-5370000D01*
X12020000Y-5330000D02*
X11980000Y-5370000D01*
X12480000Y-4930000D02*
X12520000Y-4970000D01*
X12520000Y-4930000D02*
X12480000Y-4970000D01*
X12480000Y-5330000D02*
X12520000Y-5370000D01*
X12520000Y-5330000D02*
X12480000Y-5370000D01*
X12480000Y-5730000D02*
X12520000Y-5770000D01*
X12520000Y-5730000D02*
X12480000Y-5770000D01*
X12480000Y-6130000D02*
X12520000Y-6170000D01*
X12520000Y-6130000D02*
X12480000Y-6170000D01*
X12630000Y-10980000D02*
X12670000Y-11020000D01*
X12670000Y-10980000D02*
X12630000Y-11020000D01*
X12680000Y-8430000D02*
X12720000Y-8470000D01*
X12720000Y-8430000D02*
X12680000Y-8470000D01*
X12680000Y-8780000D02*
X12720000Y-8820000D01*
X12720000Y-8780000D02*
X12680000Y-8820000D01*
X12680000Y-9130000D02*
X12720000Y-9170000D01*
X12720000Y-9130000D02*
X12680000Y-9170000D01*
X12980000Y-4930000D02*
X13020000Y-4970000D01*
X13020000Y-4930000D02*
X12980000Y-4970000D01*
X12980000Y-5330000D02*
X13020000Y-5370000D01*
X13020000Y-5330000D02*
X12980000Y-5370000D01*
X12980000Y-5730000D02*
X13020000Y-5770000D01*
X13020000Y-5730000D02*
X12980000Y-5770000D01*
X12980000Y-6130000D02*
X13020000Y-6170000D01*
X13020000Y-6130000D02*
X12980000Y-6170000D01*
X13230000Y-8430000D02*
X13270000Y-8470000D01*
X13270000Y-8430000D02*
X13230000Y-8470000D01*
X13230000Y-8780000D02*
X13270000Y-8820000D01*
X13270000Y-8780000D02*
X13230000Y-8820000D01*
X13230000Y-9130000D02*
X13270000Y-9170000D01*
X13270000Y-9130000D02*
X13230000Y-9170000D01*
X13480000Y-4930000D02*
X13520000Y-4970000D01*
X13520000Y-4930000D02*
X13480000Y-4970000D01*
X13480000Y-5330000D02*
X13520000Y-5370000D01*
X13520000Y-5330000D02*
X13480000Y-5370000D01*
X13480000Y-5730000D02*
X13520000Y-5770000D01*
X13520000Y-5730000D02*
X13480000Y-5770000D01*
X13480000Y-6130000D02*
X13520000Y-6170000D01*
X13520000Y-6130000D02*
X13480000Y-6170000D01*
X15080000Y-11280000D02*
X15120000Y-11320000D01*
X15120000Y-11280000D02*
X15080000Y-11320000D01*
X16880000Y-4930000D02*
X16920000Y-4970000D01*
X16920000Y-4930000D02*
X16880000Y-4970000D01*
X16880000Y-5330000D02*
X16920000Y-5370000D01*
X16920000Y-5330000D02*
X16880000Y-5370000D01*
X16880000Y-5730000D02*
X16920000Y-5770000D01*
X16920000Y-5730000D02*
X16880000Y-5770000D01*
X16880000Y-6130000D02*
X16920000Y-6170000D01*
X16920000Y-6130000D02*
X16880000Y-6170000D01*
X16880000Y-6530000D02*
X16920000Y-6570000D01*
X16920000Y-6530000D02*
X16880000Y-6570000D01*
X16880000Y-6980000D02*
X16920000Y-7020000D01*
X16920000Y-6980000D02*
X16880000Y-7020000D01*
X16880000Y-7380000D02*
X16920000Y-7420000D01*
X16920000Y-7380000D02*
X16880000Y-7420000D01*
X16880000Y-7780000D02*
X16920000Y-7820000D01*
X16920000Y-7780000D02*
X16880000Y-7820000D01*
X16880000Y-8280000D02*
X16920000Y-8320000D01*
X16920000Y-8280000D02*
X16880000Y-8320000D01*
X16880000Y-8680000D02*
X16920000Y-8720000D01*
X16920000Y-8680000D02*
X16880000Y-8720000D01*
X16880000Y-9080000D02*
X16920000Y-9120000D01*
X16920000Y-9080000D02*
X16880000Y-9120000D01*
X17380000Y-4930000D02*
X17420000Y-4970000D01*
X17420000Y-4930000D02*
X17380000Y-4970000D01*
X17380000Y-5330000D02*
X17420000Y-5370000D01*
X17420000Y-5330000D02*
X17380000Y-5370000D01*
X17380000Y-5730000D02*
X17420000Y-5770000D01*
X17420000Y-5730000D02*
X17380000Y-5770000D01*
X17380000Y-6130000D02*
X17420000Y-6170000D01*
X17420000Y-6130000D02*
X17380000Y-6170000D01*
X17380000Y-6530000D02*
X17420000Y-6570000D01*
X17420000Y-6530000D02*
X17380000Y-6570000D01*
X17380000Y-6980000D02*
X17420000Y-7020000D01*
X17420000Y-6980000D02*
X17380000Y-7020000D01*
X17380000Y-7380000D02*
X17420000Y-7420000D01*
X17420000Y-7380000D02*
X17380000Y-7420000D01*
X17380000Y-7780000D02*
X17420000Y-7820000D01*
X17420000Y-7780000D02*
X17380000Y-7820000D01*
X17380000Y-8280000D02*
X17420000Y-8320000D01*
X17420000Y-8280000D02*
X17380000Y-8320000D01*
X17380000Y-8680000D02*
X17420000Y-8720000D01*
X17420000Y-8680000D02*
X17380000Y-8720000D01*
X17380000Y-9080000D02*
X17420000Y-9120000D01*
X17420000Y-9080000D02*
X17380000Y-9120000D01*
X17880000Y-4930000D02*
X17920000Y-4970000D01*
X17920000Y-4930000D02*
X17880000Y-4970000D01*
X17880000Y-5330000D02*
X17920000Y-5370000D01*
X17920000Y-5330000D02*
X17880000Y-5370000D01*
X17880000Y-5730000D02*
X17920000Y-5770000D01*
X17920000Y-5730000D02*
X17880000Y-5770000D01*
X17880000Y-6130000D02*
X17920000Y-6170000D01*
X17920000Y-6130000D02*
X17880000Y-6170000D01*
X17880000Y-6530000D02*
X17920000Y-6570000D01*
X17920000Y-6530000D02*
X17880000Y-6570000D01*
X17880000Y-6980000D02*
X17920000Y-7020000D01*
X17920000Y-6980000D02*
X17880000Y-7020000D01*
X17880000Y-7380000D02*
X17920000Y-7420000D01*
X17920000Y-7380000D02*
X17880000Y-7420000D01*
X17880000Y-7780000D02*
X17920000Y-7820000D01*
X17920000Y-7780000D02*
X17880000Y-7820000D01*
X17880000Y-8280000D02*
X17920000Y-8320000D01*
X17920000Y-8280000D02*
X17880000Y-8320000D01*
X17880000Y-8680000D02*
X17920000Y-8720000D01*
X17920000Y-8680000D02*
X17880000Y-8720000D01*
X17880000Y-9080000D02*
X17920000Y-9120000D01*
X17920000Y-9080000D02*
X17880000Y-9120000D01*
X18380000Y-4930000D02*
X18420000Y-4970000D01*
X18420000Y-4930000D02*
X18380000Y-4970000D01*
X18380000Y-5330000D02*
X18420000Y-5370000D01*
X18420000Y-5330000D02*
X18380000Y-5370000D01*
X18380000Y-5730000D02*
X18420000Y-5770000D01*
X18420000Y-5730000D02*
X18380000Y-5770000D01*
X18380000Y-6130000D02*
X18420000Y-6170000D01*
X18420000Y-6130000D02*
X18380000Y-6170000D01*
X18380000Y-6530000D02*
X18420000Y-6570000D01*
X18420000Y-6530000D02*
X18380000Y-6570000D01*
X18380000Y-6980000D02*
X18420000Y-7020000D01*
X18420000Y-6980000D02*
X18380000Y-7020000D01*
X18380000Y-7380000D02*
X18420000Y-7420000D01*
X18420000Y-7380000D02*
X18380000Y-7420000D01*
X18380000Y-7780000D02*
X18420000Y-7820000D01*
X18420000Y-7780000D02*
X18380000Y-7820000D01*
X18880000Y-4930000D02*
X18920000Y-4970000D01*
X18920000Y-4930000D02*
X18880000Y-4970000D01*
X18880000Y-5330000D02*
X18920000Y-5370000D01*
X18920000Y-5330000D02*
X18880000Y-5370000D01*
X18880000Y-5730000D02*
X18920000Y-5770000D01*
X18920000Y-5730000D02*
X18880000Y-5770000D01*
X18880000Y-6130000D02*
X18920000Y-6170000D01*
X18920000Y-6130000D02*
X18880000Y-6170000D01*
X18880000Y-6530000D02*
X18920000Y-6570000D01*
X18920000Y-6530000D02*
X18880000Y-6570000D01*
X18880000Y-6980000D02*
X18920000Y-7020000D01*
X18920000Y-6980000D02*
X18880000Y-7020000D01*
X18880000Y-7380000D02*
X18920000Y-7420000D01*
X18920000Y-7380000D02*
X18880000Y-7420000D01*
X18880000Y-7780000D02*
X18920000Y-7820000D01*
X18920000Y-7780000D02*
X18880000Y-7820000D01*
X18880000Y-8980000D02*
X18920000Y-9020000D01*
X18920000Y-8980000D02*
X18880000Y-9020000D01*
X18880000Y-9380000D02*
X18920000Y-9420000D01*
X18920000Y-9380000D02*
X18880000Y-9420000D01*
X18880000Y-9780000D02*
X18920000Y-9820000D01*
X18920000Y-9780000D02*
X18880000Y-9820000D01*
X19380000Y-4930000D02*
X19420000Y-4970000D01*
X19420000Y-4930000D02*
X19380000Y-4970000D01*
X19380000Y-5330000D02*
X19420000Y-5370000D01*
X19420000Y-5330000D02*
X19380000Y-5370000D01*
X19380000Y-5730000D02*
X19420000Y-5770000D01*
X19420000Y-5730000D02*
X19380000Y-5770000D01*
X19380000Y-6130000D02*
X19420000Y-6170000D01*
X19420000Y-6130000D02*
X19380000Y-6170000D01*
X19380000Y-6530000D02*
X19420000Y-6570000D01*
X19420000Y-6530000D02*
X19380000Y-6570000D01*
X19380000Y-6980000D02*
X19420000Y-7020000D01*
X19420000Y-6980000D02*
X19380000Y-7020000D01*
X19380000Y-7380000D02*
X19420000Y-7420000D01*
X19420000Y-7380000D02*
X19380000Y-7420000D01*
X19380000Y-7780000D02*
X19420000Y-7820000D01*
X19420000Y-7780000D02*
X19380000Y-7820000D01*
X19380000Y-8980000D02*
X19420000Y-9020000D01*
X19420000Y-8980000D02*
X19380000Y-9020000D01*
X19380000Y-9380000D02*
X19420000Y-9420000D01*
X19420000Y-9380000D02*
X19380000Y-9420000D01*
X19380000Y-9780000D02*
X19420000Y-9820000D01*
X19420000Y-9780000D02*
X19380000Y-9820000D01*
X19880000Y-4930000D02*
X19920000Y-4970000D01*
X19920000Y-4930000D02*
X19880000Y-4970000D01*
X19880000Y-5330000D02*
X19920000Y-5370000D01*
X19920000Y-5330000D02*
X19880000Y-5370000D01*
X19880000Y-5730000D02*
X19920000Y-5770000D01*
X19920000Y-5730000D02*
X19880000Y-5770000D01*
X19880000Y-6130000D02*
X19920000Y-6170000D01*
X19920000Y-6130000D02*
X19880000Y-6170000D01*
X19880000Y-6530000D02*
X19920000Y-6570000D01*
X19920000Y-6530000D02*
X19880000Y-6570000D01*
X19880000Y-6980000D02*
X19920000Y-7020000D01*
X19920000Y-6980000D02*
X19880000Y-7020000D01*
X19880000Y-7380000D02*
X19920000Y-7420000D01*
X19920000Y-7380000D02*
X19880000Y-7420000D01*
X19880000Y-7780000D02*
X19920000Y-7820000D01*
X19920000Y-7780000D02*
X19880000Y-7820000D01*
X19880000Y-8980000D02*
X19920000Y-9020000D01*
X19920000Y-8980000D02*
X19880000Y-9020000D01*
X19880000Y-9380000D02*
X19920000Y-9420000D01*
X19920000Y-9380000D02*
X19880000Y-9420000D01*
X19880000Y-9780000D02*
X19920000Y-9820000D01*
X19920000Y-9780000D02*
X19880000Y-9820000D01*
X20380000Y-4930000D02*
X20420000Y-4970000D01*
X20420000Y-4930000D02*
X20380000Y-4970000D01*
X20380000Y-5330000D02*
X20420000Y-5370000D01*
X20420000Y-5330000D02*
X20380000Y-5370000D01*
X20380000Y-5730000D02*
X20420000Y-5770000D01*
X20420000Y-5730000D02*
X20380000Y-5770000D01*
X20380000Y-6130000D02*
X20420000Y-6170000D01*
X20420000Y-6130000D02*
X20380000Y-6170000D01*
X20380000Y-6530000D02*
X20420000Y-6570000D01*
X20420000Y-6530000D02*
X20380000Y-6570000D01*
X10385000Y-5450000D02*
G75*
G03*
X10385000Y-5450000I-35000J0D01*
G01*
X10635000Y-10200000D02*
G75*
G03*
X10635000Y-10200000I-35000J0D01*
G01*
X10785000Y-6650000D02*
G75*
G03*
X10785000Y-6650000I-35000J0D01*
G01*
X11435000Y-7400000D02*
G75*
G03*
X11435000Y-7400000I-35000J0D01*
G01*
X11810000Y-5625000D02*
G75*
G03*
X11810000Y-5625000I-35000J0D01*
G01*
X12185000Y-9650000D02*
G75*
G03*
X12185000Y-9650000I-35000J0D01*
G01*
X13275030Y-9790030D02*
G75*
G03*
X13275030Y-9790030I-35000J0D01*
G01*
X13894600Y-6259600D02*
G75*
G03*
X13894600Y-6259600I-35000J0D01*
G01*
X15503786Y-5631214D02*
G75*
G03*
X15503786Y-5631214I-35000J0D01*
G01*
X17585000Y-10800000D02*
G75*
G03*
X17585000Y-10800000I-35000J0D01*
G01*
X19985000Y-10200000D02*
G75*
G03*
X19985000Y-10200000I-35000J0D01*
G01*
X9340000Y-9520000D02*
X9340000Y-9600000D01*
X9300000Y-9560000D02*
X9380000Y-9560000D01*
X9340000Y-9774000D02*
X9340000Y-9854000D01*
X9300000Y-9814000D02*
X9380000Y-9814000D01*
X9350000Y-6460000D02*
X9350000Y-6540000D01*
X9310000Y-6500000D02*
X9390000Y-6500000D01*
X9350000Y-6714000D02*
X9350000Y-6794000D01*
X9310000Y-6754000D02*
X9390000Y-6754000D01*
X15135356Y-6885356D02*
X15135356Y-6814644D01*
X15064644Y-6814644D01*
X15064644Y-6885356D01*
X15135356Y-6885356D01*
X15389356Y-6885356D02*
X15389356Y-6814644D01*
X15318644Y-6814644D01*
X15318644Y-6885356D01*
X15389356Y-6885356D01*
X8832000Y-9162000D02*
X8942000Y-9052000D01*
X8832000Y-8942000D01*
X8722000Y-9052000D01*
X8832000Y-9162000D01*
X8832000Y-10178000D02*
X8942000Y-10068000D01*
X8832000Y-9958000D01*
X8722000Y-10068000D01*
X8832000Y-10178000D01*
X8842000Y-6102000D02*
X8952000Y-5992000D01*
X8842000Y-5882000D01*
X8732000Y-5992000D01*
X8842000Y-6102000D01*
X8842000Y-7118000D02*
X8952000Y-7008000D01*
X8842000Y-6898000D01*
X8732000Y-7008000D01*
X8842000Y-7118000D01*
D12*
X8531428Y-12020714D02*
X8531428Y-11720714D01*
X8602857Y-11720714D01*
X8645714Y-11735000D01*
X8674286Y-11763571D01*
X8688571Y-11792143D01*
X8702857Y-11849286D01*
X8702857Y-11892143D01*
X8688571Y-11949286D01*
X8674286Y-11977857D01*
X8645714Y-12006429D01*
X8602857Y-12020714D01*
X8531428Y-12020714D01*
X8831428Y-12020714D02*
X8831428Y-11820714D01*
X8831428Y-11877857D02*
X8845714Y-11849286D01*
X8860000Y-11835000D01*
X8888571Y-11820714D01*
X8917143Y-11820714D01*
X9017143Y-12020714D02*
X9017143Y-11820714D01*
X9017143Y-11720714D02*
X9002857Y-11735000D01*
X9017143Y-11749286D01*
X9031428Y-11735000D01*
X9017143Y-11720714D01*
X9017143Y-11749286D01*
X9202857Y-12020714D02*
X9174286Y-12006429D01*
X9160000Y-11977857D01*
X9160000Y-11720714D01*
X9360000Y-12020714D02*
X9331428Y-12006429D01*
X9317143Y-11977857D01*
X9317143Y-11720714D01*
X9702857Y-12020714D02*
X9702857Y-11720714D01*
X9802857Y-11935000D01*
X9902857Y-11720714D01*
X9902857Y-12020714D01*
X10174286Y-12020714D02*
X10174286Y-11863571D01*
X10160000Y-11835000D01*
X10131428Y-11820714D01*
X10074286Y-11820714D01*
X10045714Y-11835000D01*
X10174286Y-12006429D02*
X10145714Y-12020714D01*
X10074286Y-12020714D01*
X10045714Y-12006429D01*
X10031428Y-11977857D01*
X10031428Y-11949286D01*
X10045714Y-11920714D01*
X10074286Y-11906429D01*
X10145714Y-11906429D01*
X10174286Y-11892143D01*
X10317143Y-11820714D02*
X10317143Y-12120714D01*
X10317143Y-11835000D02*
X10345714Y-11820714D01*
X10402857Y-11820714D01*
X10431428Y-11835000D01*
X10445714Y-11849286D01*
X10460000Y-11877857D01*
X10460000Y-11963571D01*
X10445714Y-11992143D01*
X10431428Y-12006429D01*
X10402857Y-12020714D01*
X10345714Y-12020714D01*
X10317143Y-12006429D01*
X10588571Y-11992143D02*
X10602857Y-12006429D01*
X10588571Y-12020714D01*
X10574286Y-12006429D01*
X10588571Y-11992143D01*
X10588571Y-12020714D01*
X10588571Y-11835000D02*
X10602857Y-11849286D01*
X10588571Y-11863571D01*
X10574286Y-11849286D01*
X10588571Y-11835000D01*
X10588571Y-11863571D01*
X8205000Y-12495000D02*
X8245000Y-12535000D01*
X8245000Y-12495000D02*
X8205000Y-12535000D01*
X8588571Y-12350714D02*
X8617143Y-12350714D01*
X8645714Y-12365000D01*
X8660000Y-12379286D01*
X8674286Y-12407857D01*
X8688571Y-12465000D01*
X8688571Y-12536429D01*
X8674286Y-12593571D01*
X8660000Y-12622143D01*
X8645714Y-12636429D01*
X8617143Y-12650714D01*
X8588571Y-12650714D01*
X8560000Y-12636429D01*
X8545714Y-12622143D01*
X8531428Y-12593571D01*
X8517143Y-12536429D01*
X8517143Y-12465000D01*
X8531428Y-12407857D01*
X8545714Y-12379286D01*
X8560000Y-12365000D01*
X8588571Y-12350714D01*
X8817143Y-12622143D02*
X8831428Y-12636429D01*
X8817143Y-12650714D01*
X8802857Y-12636429D01*
X8817143Y-12622143D01*
X8817143Y-12650714D01*
X9088571Y-12450714D02*
X9088571Y-12650714D01*
X9017143Y-12336429D02*
X8945714Y-12550714D01*
X9131428Y-12550714D01*
X9302857Y-12350714D02*
X9331428Y-12350714D01*
X9360000Y-12365000D01*
X9374286Y-12379286D01*
X9388571Y-12407857D01*
X9402857Y-12465000D01*
X9402857Y-12536429D01*
X9388571Y-12593571D01*
X9374286Y-12622143D01*
X9360000Y-12636429D01*
X9331428Y-12650714D01*
X9302857Y-12650714D01*
X9274286Y-12636429D01*
X9260000Y-12622143D01*
X9245714Y-12593571D01*
X9231428Y-12536429D01*
X9231428Y-12465000D01*
X9245714Y-12407857D01*
X9260000Y-12379286D01*
X9274286Y-12365000D01*
X9302857Y-12350714D01*
X9588571Y-12350714D02*
X9617143Y-12350714D01*
X9645714Y-12365000D01*
X9660000Y-12379286D01*
X9674286Y-12407857D01*
X9688571Y-12465000D01*
X9688571Y-12536429D01*
X9674286Y-12593571D01*
X9660000Y-12622143D01*
X9645714Y-12636429D01*
X9617143Y-12650714D01*
X9588571Y-12650714D01*
X9560000Y-12636429D01*
X9545714Y-12622143D01*
X9531428Y-12593571D01*
X9517143Y-12536429D01*
X9517143Y-12465000D01*
X9531428Y-12407857D01*
X9545714Y-12379286D01*
X9560000Y-12365000D01*
X9588571Y-12350714D01*
X9817143Y-12650714D02*
X9817143Y-12450714D01*
X9817143Y-12479286D02*
X9831428Y-12465000D01*
X9860000Y-12450714D01*
X9902857Y-12450714D01*
X9931428Y-12465000D01*
X9945714Y-12493571D01*
X9945714Y-12650714D01*
X9945714Y-12493571D02*
X9960000Y-12465000D01*
X9988571Y-12450714D01*
X10031428Y-12450714D01*
X10060000Y-12465000D01*
X10074286Y-12493571D01*
X10074286Y-12650714D01*
X10217143Y-12650714D02*
X10217143Y-12450714D01*
X10217143Y-12479286D02*
X10231428Y-12465000D01*
X10260000Y-12450714D01*
X10302857Y-12450714D01*
X10331428Y-12465000D01*
X10345714Y-12493571D01*
X10345714Y-12650714D01*
X10345714Y-12493571D02*
X10360000Y-12465000D01*
X10388571Y-12450714D01*
X10431428Y-12450714D01*
X10460000Y-12465000D01*
X10474286Y-12493571D01*
X10474286Y-12650714D01*
X11060000Y-12336429D02*
X10802857Y-12722143D01*
X11445714Y-12350714D02*
X11474286Y-12350714D01*
X11502857Y-12365000D01*
X11517143Y-12379286D01*
X11531428Y-12407857D01*
X11545714Y-12465000D01*
X11545714Y-12536429D01*
X11531428Y-12593571D01*
X11517143Y-12622143D01*
X11502857Y-12636429D01*
X11474286Y-12650714D01*
X11445714Y-12650714D01*
X11417143Y-12636429D01*
X11402857Y-12622143D01*
X11388571Y-12593571D01*
X11374286Y-12536429D01*
X11374286Y-12465000D01*
X11388571Y-12407857D01*
X11402857Y-12379286D01*
X11417143Y-12365000D01*
X11445714Y-12350714D01*
X11674286Y-12622143D02*
X11688571Y-12636429D01*
X11674286Y-12650714D01*
X11660000Y-12636429D01*
X11674286Y-12622143D01*
X11674286Y-12650714D01*
X11874286Y-12350714D02*
X11902857Y-12350714D01*
X11931428Y-12365000D01*
X11945714Y-12379286D01*
X11960000Y-12407857D01*
X11974286Y-12465000D01*
X11974286Y-12536429D01*
X11960000Y-12593571D01*
X11945714Y-12622143D01*
X11931428Y-12636429D01*
X11902857Y-12650714D01*
X11874286Y-12650714D01*
X11845714Y-12636429D01*
X11831428Y-12622143D01*
X11817143Y-12593571D01*
X11802857Y-12536429D01*
X11802857Y-12465000D01*
X11817143Y-12407857D01*
X11831428Y-12379286D01*
X11845714Y-12365000D01*
X11874286Y-12350714D01*
X12260000Y-12650714D02*
X12088571Y-12650714D01*
X12174286Y-12650714D02*
X12174286Y-12350714D01*
X12145714Y-12393571D01*
X12117143Y-12422143D01*
X12088571Y-12436429D01*
X12531428Y-12350714D02*
X12388571Y-12350714D01*
X12374286Y-12493571D01*
X12388571Y-12479286D01*
X12417143Y-12465000D01*
X12488571Y-12465000D01*
X12517143Y-12479286D01*
X12531428Y-12493571D01*
X12545714Y-12522143D01*
X12545714Y-12593571D01*
X12531428Y-12622143D01*
X12517143Y-12636429D01*
X12488571Y-12650714D01*
X12417143Y-12650714D01*
X12388571Y-12636429D01*
X12374286Y-12622143D01*
X12645714Y-12350714D02*
X12845714Y-12350714D01*
X12717143Y-12650714D01*
X12945714Y-12350714D02*
X12945714Y-12407857D01*
X13060000Y-12350714D02*
X13060000Y-12407857D01*
X13502857Y-12765000D02*
X13488571Y-12750714D01*
X13460000Y-12707857D01*
X13445714Y-12679286D01*
X13431428Y-12636429D01*
X13417143Y-12565000D01*
X13417143Y-12507857D01*
X13431428Y-12436429D01*
X13445714Y-12393571D01*
X13460000Y-12365000D01*
X13488571Y-12322143D01*
X13502857Y-12307857D01*
X13774286Y-12650714D02*
X13602857Y-12650714D01*
X13688571Y-12650714D02*
X13688571Y-12350714D01*
X13660000Y-12393571D01*
X13631428Y-12422143D01*
X13602857Y-12436429D01*
X14031428Y-12450714D02*
X14031428Y-12650714D01*
X13960000Y-12336429D02*
X13888571Y-12550714D01*
X14074286Y-12550714D01*
X14317143Y-12350714D02*
X14260000Y-12350714D01*
X14231428Y-12365000D01*
X14217143Y-12379286D01*
X14188571Y-12422143D01*
X14174286Y-12479286D01*
X14174286Y-12593571D01*
X14188571Y-12622143D01*
X14202857Y-12636429D01*
X14231428Y-12650714D01*
X14288571Y-12650714D01*
X14317143Y-12636429D01*
X14331428Y-12622143D01*
X14345714Y-12593571D01*
X14345714Y-12522143D01*
X14331428Y-12493571D01*
X14317143Y-12479286D01*
X14288571Y-12465000D01*
X14231428Y-12465000D01*
X14202857Y-12479286D01*
X14188571Y-12493571D01*
X14174286Y-12522143D01*
X14702857Y-12650714D02*
X14702857Y-12350714D01*
X14831428Y-12650714D02*
X14831428Y-12493571D01*
X14817143Y-12465000D01*
X14788571Y-12450714D01*
X14745714Y-12450714D01*
X14717143Y-12465000D01*
X14702857Y-12479286D01*
X15017143Y-12650714D02*
X14988571Y-12636429D01*
X14974286Y-12622143D01*
X14960000Y-12593571D01*
X14960000Y-12507857D01*
X14974286Y-12479286D01*
X14988571Y-12465000D01*
X15017143Y-12450714D01*
X15060000Y-12450714D01*
X15088571Y-12465000D01*
X15102857Y-12479286D01*
X15117143Y-12507857D01*
X15117143Y-12593571D01*
X15102857Y-12622143D01*
X15088571Y-12636429D01*
X15060000Y-12650714D01*
X15017143Y-12650714D01*
X15288571Y-12650714D02*
X15260000Y-12636429D01*
X15245714Y-12607857D01*
X15245714Y-12350714D01*
X15517143Y-12636429D02*
X15488571Y-12650714D01*
X15431428Y-12650714D01*
X15402857Y-12636429D01*
X15388571Y-12607857D01*
X15388571Y-12493571D01*
X15402857Y-12465000D01*
X15431428Y-12450714D01*
X15488571Y-12450714D01*
X15517143Y-12465000D01*
X15531428Y-12493571D01*
X15531428Y-12522143D01*
X15388571Y-12550714D01*
X15645714Y-12636429D02*
X15674286Y-12650714D01*
X15731428Y-12650714D01*
X15760000Y-12636429D01*
X15774286Y-12607857D01*
X15774286Y-12593571D01*
X15760000Y-12565000D01*
X15731428Y-12550714D01*
X15688571Y-12550714D01*
X15660000Y-12536429D01*
X15645714Y-12507857D01*
X15645714Y-12493571D01*
X15660000Y-12465000D01*
X15688571Y-12450714D01*
X15731428Y-12450714D01*
X15760000Y-12465000D01*
X15874286Y-12765000D02*
X15888571Y-12750714D01*
X15917143Y-12707857D01*
X15931428Y-12679286D01*
X15945714Y-12636429D01*
X15960000Y-12565000D01*
X15960000Y-12507857D01*
X15945714Y-12436429D01*
X15931428Y-12393571D01*
X15917143Y-12365000D01*
X15888571Y-12322143D01*
X15874286Y-12307857D01*
X8245000Y-12911000D02*
G75*
G03*
X8245000Y-12911000I-35000J0D01*
G01*
X8588571Y-12746714D02*
X8617143Y-12746714D01*
X8645714Y-12761000D01*
X8660000Y-12775286D01*
X8674286Y-12803857D01*
X8688571Y-12861000D01*
X8688571Y-12932429D01*
X8674286Y-12989571D01*
X8660000Y-13018143D01*
X8645714Y-13032429D01*
X8617143Y-13046714D01*
X8588571Y-13046714D01*
X8560000Y-13032429D01*
X8545714Y-13018143D01*
X8531428Y-12989571D01*
X8517143Y-12932429D01*
X8517143Y-12861000D01*
X8531428Y-12803857D01*
X8545714Y-12775286D01*
X8560000Y-12761000D01*
X8588571Y-12746714D01*
X8817143Y-13018143D02*
X8831428Y-13032429D01*
X8817143Y-13046714D01*
X8802857Y-13032429D01*
X8817143Y-13018143D01*
X8817143Y-13046714D01*
X8931428Y-12746714D02*
X9131428Y-12746714D01*
X9002857Y-13046714D01*
X9302857Y-12746714D02*
X9331428Y-12746714D01*
X9360000Y-12761000D01*
X9374286Y-12775286D01*
X9388571Y-12803857D01*
X9402857Y-12861000D01*
X9402857Y-12932429D01*
X9388571Y-12989571D01*
X9374286Y-13018143D01*
X9360000Y-13032429D01*
X9331428Y-13046714D01*
X9302857Y-13046714D01*
X9274286Y-13032429D01*
X9260000Y-13018143D01*
X9245714Y-12989571D01*
X9231428Y-12932429D01*
X9231428Y-12861000D01*
X9245714Y-12803857D01*
X9260000Y-12775286D01*
X9274286Y-12761000D01*
X9302857Y-12746714D01*
X9588571Y-12746714D02*
X9617143Y-12746714D01*
X9645714Y-12761000D01*
X9660000Y-12775286D01*
X9674286Y-12803857D01*
X9688571Y-12861000D01*
X9688571Y-12932429D01*
X9674286Y-12989571D01*
X9660000Y-13018143D01*
X9645714Y-13032429D01*
X9617143Y-13046714D01*
X9588571Y-13046714D01*
X9560000Y-13032429D01*
X9545714Y-13018143D01*
X9531428Y-12989571D01*
X9517143Y-12932429D01*
X9517143Y-12861000D01*
X9531428Y-12803857D01*
X9545714Y-12775286D01*
X9560000Y-12761000D01*
X9588571Y-12746714D01*
X9817143Y-13046714D02*
X9817143Y-12846714D01*
X9817143Y-12875286D02*
X9831428Y-12861000D01*
X9860000Y-12846714D01*
X9902857Y-12846714D01*
X9931428Y-12861000D01*
X9945714Y-12889571D01*
X9945714Y-13046714D01*
X9945714Y-12889571D02*
X9960000Y-12861000D01*
X9988571Y-12846714D01*
X10031428Y-12846714D01*
X10060000Y-12861000D01*
X10074286Y-12889571D01*
X10074286Y-13046714D01*
X10217143Y-13046714D02*
X10217143Y-12846714D01*
X10217143Y-12875286D02*
X10231428Y-12861000D01*
X10260000Y-12846714D01*
X10302857Y-12846714D01*
X10331428Y-12861000D01*
X10345714Y-12889571D01*
X10345714Y-13046714D01*
X10345714Y-12889571D02*
X10360000Y-12861000D01*
X10388571Y-12846714D01*
X10431428Y-12846714D01*
X10460000Y-12861000D01*
X10474286Y-12889571D01*
X10474286Y-13046714D01*
X11060000Y-12732429D02*
X10802857Y-13118143D01*
X11445714Y-12746714D02*
X11474286Y-12746714D01*
X11502857Y-12761000D01*
X11517143Y-12775286D01*
X11531428Y-12803857D01*
X11545714Y-12861000D01*
X11545714Y-12932429D01*
X11531428Y-12989571D01*
X11517143Y-13018143D01*
X11502857Y-13032429D01*
X11474286Y-13046714D01*
X11445714Y-13046714D01*
X11417143Y-13032429D01*
X11402857Y-13018143D01*
X11388571Y-12989571D01*
X11374286Y-12932429D01*
X11374286Y-12861000D01*
X11388571Y-12803857D01*
X11402857Y-12775286D01*
X11417143Y-12761000D01*
X11445714Y-12746714D01*
X11674286Y-13018143D02*
X11688571Y-13032429D01*
X11674286Y-13046714D01*
X11660000Y-13032429D01*
X11674286Y-13018143D01*
X11674286Y-13046714D01*
X11874286Y-12746714D02*
X11902857Y-12746714D01*
X11931428Y-12761000D01*
X11945714Y-12775286D01*
X11960000Y-12803857D01*
X11974286Y-12861000D01*
X11974286Y-12932429D01*
X11960000Y-12989571D01*
X11945714Y-13018143D01*
X11931428Y-13032429D01*
X11902857Y-13046714D01*
X11874286Y-13046714D01*
X11845714Y-13032429D01*
X11831428Y-13018143D01*
X11817143Y-12989571D01*
X11802857Y-12932429D01*
X11802857Y-12861000D01*
X11817143Y-12803857D01*
X11831428Y-12775286D01*
X11845714Y-12761000D01*
X11874286Y-12746714D01*
X12088571Y-12775286D02*
X12102857Y-12761000D01*
X12131428Y-12746714D01*
X12202857Y-12746714D01*
X12231428Y-12761000D01*
X12245714Y-12775286D01*
X12260000Y-12803857D01*
X12260000Y-12832429D01*
X12245714Y-12875286D01*
X12074286Y-13046714D01*
X12260000Y-13046714D01*
X12360000Y-12746714D02*
X12560000Y-12746714D01*
X12431428Y-13046714D01*
X12802857Y-12746714D02*
X12745714Y-12746714D01*
X12717143Y-12761000D01*
X12702857Y-12775286D01*
X12674286Y-12818143D01*
X12660000Y-12875286D01*
X12660000Y-12989571D01*
X12674286Y-13018143D01*
X12688571Y-13032429D01*
X12717143Y-13046714D01*
X12774286Y-13046714D01*
X12802857Y-13032429D01*
X12817143Y-13018143D01*
X12831428Y-12989571D01*
X12831428Y-12918143D01*
X12817143Y-12889571D01*
X12802857Y-12875286D01*
X12774286Y-12861000D01*
X12717143Y-12861000D01*
X12688571Y-12875286D01*
X12674286Y-12889571D01*
X12660000Y-12918143D01*
X12945714Y-12746714D02*
X12945714Y-12803857D01*
X13060000Y-12746714D02*
X13060000Y-12803857D01*
X13502857Y-13161000D02*
X13488571Y-13146714D01*
X13460000Y-13103857D01*
X13445714Y-13075286D01*
X13431428Y-13032429D01*
X13417143Y-12961000D01*
X13417143Y-12903857D01*
X13431428Y-12832429D01*
X13445714Y-12789571D01*
X13460000Y-12761000D01*
X13488571Y-12718143D01*
X13502857Y-12703857D01*
X13774286Y-13046714D02*
X13602857Y-13046714D01*
X13688571Y-13046714D02*
X13688571Y-12746714D01*
X13660000Y-12789571D01*
X13631428Y-12818143D01*
X13602857Y-12832429D01*
X14060000Y-13046714D02*
X13888571Y-13046714D01*
X13974286Y-13046714D02*
X13974286Y-12746714D01*
X13945714Y-12789571D01*
X13917143Y-12818143D01*
X13888571Y-12832429D01*
X14417143Y-13046714D02*
X14417143Y-12746714D01*
X14545714Y-13046714D02*
X14545714Y-12889571D01*
X14531428Y-12861000D01*
X14502857Y-12846714D01*
X14460000Y-12846714D01*
X14431428Y-12861000D01*
X14417143Y-12875286D01*
X14731428Y-13046714D02*
X14702857Y-13032429D01*
X14688571Y-13018143D01*
X14674286Y-12989571D01*
X14674286Y-12903857D01*
X14688571Y-12875286D01*
X14702857Y-12861000D01*
X14731428Y-12846714D01*
X14774286Y-12846714D01*
X14802857Y-12861000D01*
X14817143Y-12875286D01*
X14831428Y-12903857D01*
X14831428Y-12989571D01*
X14817143Y-13018143D01*
X14802857Y-13032429D01*
X14774286Y-13046714D01*
X14731428Y-13046714D01*
X15002857Y-13046714D02*
X14974286Y-13032429D01*
X14960000Y-13003857D01*
X14960000Y-12746714D01*
X15231428Y-13032429D02*
X15202857Y-13046714D01*
X15145714Y-13046714D01*
X15117143Y-13032429D01*
X15102857Y-13003857D01*
X15102857Y-12889571D01*
X15117143Y-12861000D01*
X15145714Y-12846714D01*
X15202857Y-12846714D01*
X15231428Y-12861000D01*
X15245714Y-12889571D01*
X15245714Y-12918143D01*
X15102857Y-12946714D01*
X15360000Y-13032429D02*
X15388571Y-13046714D01*
X15445714Y-13046714D01*
X15474286Y-13032429D01*
X15488571Y-13003857D01*
X15488571Y-12989571D01*
X15474286Y-12961000D01*
X15445714Y-12946714D01*
X15402857Y-12946714D01*
X15374286Y-12932429D01*
X15360000Y-12903857D01*
X15360000Y-12889571D01*
X15374286Y-12861000D01*
X15402857Y-12846714D01*
X15445714Y-12846714D01*
X15474286Y-12861000D01*
X15588571Y-13161000D02*
X15602857Y-13146714D01*
X15631428Y-13103857D01*
X15645714Y-13075286D01*
X15660000Y-13032429D01*
X15674286Y-12961000D01*
X15674286Y-12903857D01*
X15660000Y-12832429D01*
X15645714Y-12789571D01*
X15631428Y-12761000D01*
X15602857Y-12718143D01*
X15588571Y-12703857D01*
X8205000Y-13267000D02*
X8205000Y-13347000D01*
X8165000Y-13307000D02*
X8245000Y-13307000D01*
X8588571Y-13142714D02*
X8617143Y-13142714D01*
X8645714Y-13157000D01*
X8660000Y-13171286D01*
X8674286Y-13199857D01*
X8688571Y-13257000D01*
X8688571Y-13328429D01*
X8674286Y-13385571D01*
X8660000Y-13414143D01*
X8645714Y-13428429D01*
X8617143Y-13442714D01*
X8588571Y-13442714D01*
X8560000Y-13428429D01*
X8545714Y-13414143D01*
X8531428Y-13385571D01*
X8517143Y-13328429D01*
X8517143Y-13257000D01*
X8531428Y-13199857D01*
X8545714Y-13171286D01*
X8560000Y-13157000D01*
X8588571Y-13142714D01*
X8817143Y-13414143D02*
X8831428Y-13428429D01*
X8817143Y-13442714D01*
X8802857Y-13428429D01*
X8817143Y-13414143D01*
X8817143Y-13442714D01*
X9002857Y-13271286D02*
X8974286Y-13257000D01*
X8960000Y-13242714D01*
X8945714Y-13214143D01*
X8945714Y-13199857D01*
X8960000Y-13171286D01*
X8974286Y-13157000D01*
X9002857Y-13142714D01*
X9060000Y-13142714D01*
X9088571Y-13157000D01*
X9102857Y-13171286D01*
X9117143Y-13199857D01*
X9117143Y-13214143D01*
X9102857Y-13242714D01*
X9088571Y-13257000D01*
X9060000Y-13271286D01*
X9002857Y-13271286D01*
X8974286Y-13285571D01*
X8960000Y-13299857D01*
X8945714Y-13328429D01*
X8945714Y-13385571D01*
X8960000Y-13414143D01*
X8974286Y-13428429D01*
X9002857Y-13442714D01*
X9060000Y-13442714D01*
X9088571Y-13428429D01*
X9102857Y-13414143D01*
X9117143Y-13385571D01*
X9117143Y-13328429D01*
X9102857Y-13299857D01*
X9088571Y-13285571D01*
X9060000Y-13271286D01*
X9302857Y-13142714D02*
X9331428Y-13142714D01*
X9360000Y-13157000D01*
X9374286Y-13171286D01*
X9388571Y-13199857D01*
X9402857Y-13257000D01*
X9402857Y-13328429D01*
X9388571Y-13385571D01*
X9374286Y-13414143D01*
X9360000Y-13428429D01*
X9331428Y-13442714D01*
X9302857Y-13442714D01*
X9274286Y-13428429D01*
X9260000Y-13414143D01*
X9245714Y-13385571D01*
X9231428Y-13328429D01*
X9231428Y-13257000D01*
X9245714Y-13199857D01*
X9260000Y-13171286D01*
X9274286Y-13157000D01*
X9302857Y-13142714D01*
X9588571Y-13142714D02*
X9617143Y-13142714D01*
X9645714Y-13157000D01*
X9660000Y-13171286D01*
X9674286Y-13199857D01*
X9688571Y-13257000D01*
X9688571Y-13328429D01*
X9674286Y-13385571D01*
X9660000Y-13414143D01*
X9645714Y-13428429D01*
X9617143Y-13442714D01*
X9588571Y-13442714D01*
X9560000Y-13428429D01*
X9545714Y-13414143D01*
X9531428Y-13385571D01*
X9517143Y-13328429D01*
X9517143Y-13257000D01*
X9531428Y-13199857D01*
X9545714Y-13171286D01*
X9560000Y-13157000D01*
X9588571Y-13142714D01*
X9817143Y-13442714D02*
X9817143Y-13242714D01*
X9817143Y-13271286D02*
X9831428Y-13257000D01*
X9860000Y-13242714D01*
X9902857Y-13242714D01*
X9931428Y-13257000D01*
X9945714Y-13285571D01*
X9945714Y-13442714D01*
X9945714Y-13285571D02*
X9960000Y-13257000D01*
X9988571Y-13242714D01*
X10031428Y-13242714D01*
X10060000Y-13257000D01*
X10074286Y-13285571D01*
X10074286Y-13442714D01*
X10217143Y-13442714D02*
X10217143Y-13242714D01*
X10217143Y-13271286D02*
X10231428Y-13257000D01*
X10260000Y-13242714D01*
X10302857Y-13242714D01*
X10331428Y-13257000D01*
X10345714Y-13285571D01*
X10345714Y-13442714D01*
X10345714Y-13285571D02*
X10360000Y-13257000D01*
X10388571Y-13242714D01*
X10431428Y-13242714D01*
X10460000Y-13257000D01*
X10474286Y-13285571D01*
X10474286Y-13442714D01*
X11060000Y-13128429D02*
X10802857Y-13514143D01*
X11445714Y-13142714D02*
X11474286Y-13142714D01*
X11502857Y-13157000D01*
X11517143Y-13171286D01*
X11531428Y-13199857D01*
X11545714Y-13257000D01*
X11545714Y-13328429D01*
X11531428Y-13385571D01*
X11517143Y-13414143D01*
X11502857Y-13428429D01*
X11474286Y-13442714D01*
X11445714Y-13442714D01*
X11417143Y-13428429D01*
X11402857Y-13414143D01*
X11388571Y-13385571D01*
X11374286Y-13328429D01*
X11374286Y-13257000D01*
X11388571Y-13199857D01*
X11402857Y-13171286D01*
X11417143Y-13157000D01*
X11445714Y-13142714D01*
X11674286Y-13414143D02*
X11688571Y-13428429D01*
X11674286Y-13442714D01*
X11660000Y-13428429D01*
X11674286Y-13414143D01*
X11674286Y-13442714D01*
X11874286Y-13142714D02*
X11902857Y-13142714D01*
X11931428Y-13157000D01*
X11945714Y-13171286D01*
X11960000Y-13199857D01*
X11974286Y-13257000D01*
X11974286Y-13328429D01*
X11960000Y-13385571D01*
X11945714Y-13414143D01*
X11931428Y-13428429D01*
X11902857Y-13442714D01*
X11874286Y-13442714D01*
X11845714Y-13428429D01*
X11831428Y-13414143D01*
X11817143Y-13385571D01*
X11802857Y-13328429D01*
X11802857Y-13257000D01*
X11817143Y-13199857D01*
X11831428Y-13171286D01*
X11845714Y-13157000D01*
X11874286Y-13142714D01*
X12074286Y-13142714D02*
X12260000Y-13142714D01*
X12160000Y-13257000D01*
X12202857Y-13257000D01*
X12231428Y-13271286D01*
X12245714Y-13285571D01*
X12260000Y-13314143D01*
X12260000Y-13385571D01*
X12245714Y-13414143D01*
X12231428Y-13428429D01*
X12202857Y-13442714D01*
X12117143Y-13442714D01*
X12088571Y-13428429D01*
X12074286Y-13414143D01*
X12545714Y-13442714D02*
X12374286Y-13442714D01*
X12460000Y-13442714D02*
X12460000Y-13142714D01*
X12431428Y-13185571D01*
X12402857Y-13214143D01*
X12374286Y-13228429D01*
X12817143Y-13142714D02*
X12674286Y-13142714D01*
X12660000Y-13285571D01*
X12674286Y-13271286D01*
X12702857Y-13257000D01*
X12774286Y-13257000D01*
X12802857Y-13271286D01*
X12817143Y-13285571D01*
X12831428Y-13314143D01*
X12831428Y-13385571D01*
X12817143Y-13414143D01*
X12802857Y-13428429D01*
X12774286Y-13442714D01*
X12702857Y-13442714D01*
X12674286Y-13428429D01*
X12660000Y-13414143D01*
X12945714Y-13142714D02*
X12945714Y-13199857D01*
X13060000Y-13142714D02*
X13060000Y-13199857D01*
X13502857Y-13557000D02*
X13488571Y-13542714D01*
X13460000Y-13499857D01*
X13445714Y-13471286D01*
X13431428Y-13428429D01*
X13417143Y-13357000D01*
X13417143Y-13299857D01*
X13431428Y-13228429D01*
X13445714Y-13185571D01*
X13460000Y-13157000D01*
X13488571Y-13114143D01*
X13502857Y-13099857D01*
X13745714Y-13242714D02*
X13745714Y-13442714D01*
X13674286Y-13128429D02*
X13602857Y-13342714D01*
X13788571Y-13342714D01*
X14131428Y-13442714D02*
X14131428Y-13142714D01*
X14260000Y-13442714D02*
X14260000Y-13285571D01*
X14245714Y-13257000D01*
X14217143Y-13242714D01*
X14174286Y-13242714D01*
X14145714Y-13257000D01*
X14131428Y-13271286D01*
X14445714Y-13442714D02*
X14417143Y-13428429D01*
X14402857Y-13414143D01*
X14388571Y-13385571D01*
X14388571Y-13299857D01*
X14402857Y-13271286D01*
X14417143Y-13257000D01*
X14445714Y-13242714D01*
X14488571Y-13242714D01*
X14517143Y-13257000D01*
X14531428Y-13271286D01*
X14545714Y-13299857D01*
X14545714Y-13385571D01*
X14531428Y-13414143D01*
X14517143Y-13428429D01*
X14488571Y-13442714D01*
X14445714Y-13442714D01*
X14717143Y-13442714D02*
X14688571Y-13428429D01*
X14674286Y-13399857D01*
X14674286Y-13142714D01*
X14945714Y-13428429D02*
X14917143Y-13442714D01*
X14860000Y-13442714D01*
X14831428Y-13428429D01*
X14817143Y-13399857D01*
X14817143Y-13285571D01*
X14831428Y-13257000D01*
X14860000Y-13242714D01*
X14917143Y-13242714D01*
X14945714Y-13257000D01*
X14960000Y-13285571D01*
X14960000Y-13314143D01*
X14817143Y-13342714D01*
X15074286Y-13428429D02*
X15102857Y-13442714D01*
X15160000Y-13442714D01*
X15188571Y-13428429D01*
X15202857Y-13399857D01*
X15202857Y-13385571D01*
X15188571Y-13357000D01*
X15160000Y-13342714D01*
X15117143Y-13342714D01*
X15088571Y-13328429D01*
X15074286Y-13299857D01*
X15074286Y-13285571D01*
X15088571Y-13257000D01*
X15117143Y-13242714D01*
X15160000Y-13242714D01*
X15188571Y-13257000D01*
X15302857Y-13557000D02*
X15317143Y-13542714D01*
X15345714Y-13499857D01*
X15360000Y-13471286D01*
X15374286Y-13428429D01*
X15388571Y-13357000D01*
X15388571Y-13299857D01*
X15374286Y-13228429D01*
X15360000Y-13185571D01*
X15345714Y-13157000D01*
X15317143Y-13114143D01*
X15302857Y-13099857D01*
X8230356Y-13738356D02*
X8230356Y-13667644D01*
X8159644Y-13667644D01*
X8159644Y-13738356D01*
X8230356Y-13738356D01*
X8688571Y-13838714D02*
X8517143Y-13838714D01*
X8602857Y-13838714D02*
X8602857Y-13538714D01*
X8574286Y-13581571D01*
X8545714Y-13610143D01*
X8517143Y-13624429D01*
X8817143Y-13810143D02*
X8831428Y-13824429D01*
X8817143Y-13838714D01*
X8802857Y-13824429D01*
X8817143Y-13810143D01*
X8817143Y-13838714D01*
X9017143Y-13538714D02*
X9045714Y-13538714D01*
X9074286Y-13553000D01*
X9088571Y-13567286D01*
X9102857Y-13595857D01*
X9117143Y-13653000D01*
X9117143Y-13724429D01*
X9102857Y-13781571D01*
X9088571Y-13810143D01*
X9074286Y-13824429D01*
X9045714Y-13838714D01*
X9017143Y-13838714D01*
X8988571Y-13824429D01*
X8974286Y-13810143D01*
X8960000Y-13781571D01*
X8945714Y-13724429D01*
X8945714Y-13653000D01*
X8960000Y-13595857D01*
X8974286Y-13567286D01*
X8988571Y-13553000D01*
X9017143Y-13538714D01*
X9302857Y-13538714D02*
X9331428Y-13538714D01*
X9360000Y-13553000D01*
X9374286Y-13567286D01*
X9388571Y-13595857D01*
X9402857Y-13653000D01*
X9402857Y-13724429D01*
X9388571Y-13781571D01*
X9374286Y-13810143D01*
X9360000Y-13824429D01*
X9331428Y-13838714D01*
X9302857Y-13838714D01*
X9274286Y-13824429D01*
X9260000Y-13810143D01*
X9245714Y-13781571D01*
X9231428Y-13724429D01*
X9231428Y-13653000D01*
X9245714Y-13595857D01*
X9260000Y-13567286D01*
X9274286Y-13553000D01*
X9302857Y-13538714D01*
X9588571Y-13538714D02*
X9617143Y-13538714D01*
X9645714Y-13553000D01*
X9660000Y-13567286D01*
X9674286Y-13595857D01*
X9688571Y-13653000D01*
X9688571Y-13724429D01*
X9674286Y-13781571D01*
X9660000Y-13810143D01*
X9645714Y-13824429D01*
X9617143Y-13838714D01*
X9588571Y-13838714D01*
X9560000Y-13824429D01*
X9545714Y-13810143D01*
X9531428Y-13781571D01*
X9517143Y-13724429D01*
X9517143Y-13653000D01*
X9531428Y-13595857D01*
X9545714Y-13567286D01*
X9560000Y-13553000D01*
X9588571Y-13538714D01*
X9817143Y-13838714D02*
X9817143Y-13638714D01*
X9817143Y-13667286D02*
X9831428Y-13653000D01*
X9860000Y-13638714D01*
X9902857Y-13638714D01*
X9931428Y-13653000D01*
X9945714Y-13681571D01*
X9945714Y-13838714D01*
X9945714Y-13681571D02*
X9960000Y-13653000D01*
X9988571Y-13638714D01*
X10031428Y-13638714D01*
X10060000Y-13653000D01*
X10074286Y-13681571D01*
X10074286Y-13838714D01*
X10217143Y-13838714D02*
X10217143Y-13638714D01*
X10217143Y-13667286D02*
X10231428Y-13653000D01*
X10260000Y-13638714D01*
X10302857Y-13638714D01*
X10331428Y-13653000D01*
X10345714Y-13681571D01*
X10345714Y-13838714D01*
X10345714Y-13681571D02*
X10360000Y-13653000D01*
X10388571Y-13638714D01*
X10431428Y-13638714D01*
X10460000Y-13653000D01*
X10474286Y-13681571D01*
X10474286Y-13838714D01*
X11060000Y-13524429D02*
X10802857Y-13910143D01*
X11445714Y-13538714D02*
X11474286Y-13538714D01*
X11502857Y-13553000D01*
X11517143Y-13567286D01*
X11531428Y-13595857D01*
X11545714Y-13653000D01*
X11545714Y-13724429D01*
X11531428Y-13781571D01*
X11517143Y-13810143D01*
X11502857Y-13824429D01*
X11474286Y-13838714D01*
X11445714Y-13838714D01*
X11417143Y-13824429D01*
X11402857Y-13810143D01*
X11388571Y-13781571D01*
X11374286Y-13724429D01*
X11374286Y-13653000D01*
X11388571Y-13595857D01*
X11402857Y-13567286D01*
X11417143Y-13553000D01*
X11445714Y-13538714D01*
X11674286Y-13810143D02*
X11688571Y-13824429D01*
X11674286Y-13838714D01*
X11660000Y-13824429D01*
X11674286Y-13810143D01*
X11674286Y-13838714D01*
X11874286Y-13538714D02*
X11902857Y-13538714D01*
X11931428Y-13553000D01*
X11945714Y-13567286D01*
X11960000Y-13595857D01*
X11974286Y-13653000D01*
X11974286Y-13724429D01*
X11960000Y-13781571D01*
X11945714Y-13810143D01*
X11931428Y-13824429D01*
X11902857Y-13838714D01*
X11874286Y-13838714D01*
X11845714Y-13824429D01*
X11831428Y-13810143D01*
X11817143Y-13781571D01*
X11802857Y-13724429D01*
X11802857Y-13653000D01*
X11817143Y-13595857D01*
X11831428Y-13567286D01*
X11845714Y-13553000D01*
X11874286Y-13538714D01*
X12074286Y-13538714D02*
X12260000Y-13538714D01*
X12160000Y-13653000D01*
X12202857Y-13653000D01*
X12231428Y-13667286D01*
X12245714Y-13681571D01*
X12260000Y-13710143D01*
X12260000Y-13781571D01*
X12245714Y-13810143D01*
X12231428Y-13824429D01*
X12202857Y-13838714D01*
X12117143Y-13838714D01*
X12088571Y-13824429D01*
X12074286Y-13810143D01*
X12402857Y-13838714D02*
X12460000Y-13838714D01*
X12488571Y-13824429D01*
X12502857Y-13810143D01*
X12531428Y-13767286D01*
X12545714Y-13710143D01*
X12545714Y-13595857D01*
X12531428Y-13567286D01*
X12517143Y-13553000D01*
X12488571Y-13538714D01*
X12431428Y-13538714D01*
X12402857Y-13553000D01*
X12388571Y-13567286D01*
X12374286Y-13595857D01*
X12374286Y-13667286D01*
X12388571Y-13695857D01*
X12402857Y-13710143D01*
X12431428Y-13724429D01*
X12488571Y-13724429D01*
X12517143Y-13710143D01*
X12531428Y-13695857D01*
X12545714Y-13667286D01*
X12802857Y-13638714D02*
X12802857Y-13838714D01*
X12731428Y-13524429D02*
X12660000Y-13738714D01*
X12845714Y-13738714D01*
X12945714Y-13538714D02*
X12945714Y-13595857D01*
X13060000Y-13538714D02*
X13060000Y-13595857D01*
X13502857Y-13953000D02*
X13488571Y-13938714D01*
X13460000Y-13895857D01*
X13445714Y-13867286D01*
X13431428Y-13824429D01*
X13417143Y-13753000D01*
X13417143Y-13695857D01*
X13431428Y-13624429D01*
X13445714Y-13581571D01*
X13460000Y-13553000D01*
X13488571Y-13510143D01*
X13502857Y-13495857D01*
X13602857Y-13567286D02*
X13617143Y-13553000D01*
X13645714Y-13538714D01*
X13717143Y-13538714D01*
X13745714Y-13553000D01*
X13760000Y-13567286D01*
X13774286Y-13595857D01*
X13774286Y-13624429D01*
X13760000Y-13667286D01*
X13588571Y-13838714D01*
X13774286Y-13838714D01*
X14131428Y-13838714D02*
X14131428Y-13538714D01*
X14260000Y-13838714D02*
X14260000Y-13681571D01*
X14245714Y-13653000D01*
X14217143Y-13638714D01*
X14174286Y-13638714D01*
X14145714Y-13653000D01*
X14131428Y-13667286D01*
X14445714Y-13838714D02*
X14417143Y-13824429D01*
X14402857Y-13810143D01*
X14388571Y-13781571D01*
X14388571Y-13695857D01*
X14402857Y-13667286D01*
X14417143Y-13653000D01*
X14445714Y-13638714D01*
X14488571Y-13638714D01*
X14517143Y-13653000D01*
X14531428Y-13667286D01*
X14545714Y-13695857D01*
X14545714Y-13781571D01*
X14531428Y-13810143D01*
X14517143Y-13824429D01*
X14488571Y-13838714D01*
X14445714Y-13838714D01*
X14717143Y-13838714D02*
X14688571Y-13824429D01*
X14674286Y-13795857D01*
X14674286Y-13538714D01*
X14945714Y-13824429D02*
X14917143Y-13838714D01*
X14860000Y-13838714D01*
X14831428Y-13824429D01*
X14817143Y-13795857D01*
X14817143Y-13681571D01*
X14831428Y-13653000D01*
X14860000Y-13638714D01*
X14917143Y-13638714D01*
X14945714Y-13653000D01*
X14960000Y-13681571D01*
X14960000Y-13710143D01*
X14817143Y-13738714D01*
X15074286Y-13824429D02*
X15102857Y-13838714D01*
X15160000Y-13838714D01*
X15188571Y-13824429D01*
X15202857Y-13795857D01*
X15202857Y-13781571D01*
X15188571Y-13753000D01*
X15160000Y-13738714D01*
X15117143Y-13738714D01*
X15088571Y-13724429D01*
X15074286Y-13695857D01*
X15074286Y-13681571D01*
X15088571Y-13653000D01*
X15117143Y-13638714D01*
X15160000Y-13638714D01*
X15188571Y-13653000D01*
X15302857Y-13953000D02*
X15317143Y-13938714D01*
X15345714Y-13895857D01*
X15360000Y-13867286D01*
X15374286Y-13824429D01*
X15388571Y-13753000D01*
X15388571Y-13695857D01*
X15374286Y-13624429D01*
X15360000Y-13581571D01*
X15345714Y-13553000D01*
X15317143Y-13510143D01*
X15302857Y-13495857D01*
X8135000Y-14209000D02*
X8245000Y-14099000D01*
X8135000Y-13989000D01*
X8025000Y-14099000D01*
X8135000Y-14209000D01*
X8517143Y-13963286D02*
X8531428Y-13949000D01*
X8560000Y-13934714D01*
X8631428Y-13934714D01*
X8660000Y-13949000D01*
X8674286Y-13963286D01*
X8688571Y-13991857D01*
X8688571Y-14020429D01*
X8674286Y-14063286D01*
X8502857Y-14234714D01*
X8688571Y-14234714D01*
X8817143Y-14206143D02*
X8831428Y-14220429D01*
X8817143Y-14234714D01*
X8802857Y-14220429D01*
X8817143Y-14206143D01*
X8817143Y-14234714D01*
X8945714Y-13963286D02*
X8960000Y-13949000D01*
X8988571Y-13934714D01*
X9060000Y-13934714D01*
X9088571Y-13949000D01*
X9102857Y-13963286D01*
X9117143Y-13991857D01*
X9117143Y-14020429D01*
X9102857Y-14063286D01*
X8931428Y-14234714D01*
X9117143Y-14234714D01*
X9302857Y-13934714D02*
X9331428Y-13934714D01*
X9360000Y-13949000D01*
X9374286Y-13963286D01*
X9388571Y-13991857D01*
X9402857Y-14049000D01*
X9402857Y-14120429D01*
X9388571Y-14177571D01*
X9374286Y-14206143D01*
X9360000Y-14220429D01*
X9331428Y-14234714D01*
X9302857Y-14234714D01*
X9274286Y-14220429D01*
X9260000Y-14206143D01*
X9245714Y-14177571D01*
X9231428Y-14120429D01*
X9231428Y-14049000D01*
X9245714Y-13991857D01*
X9260000Y-13963286D01*
X9274286Y-13949000D01*
X9302857Y-13934714D01*
X9588571Y-13934714D02*
X9617143Y-13934714D01*
X9645714Y-13949000D01*
X9660000Y-13963286D01*
X9674286Y-13991857D01*
X9688571Y-14049000D01*
X9688571Y-14120429D01*
X9674286Y-14177571D01*
X9660000Y-14206143D01*
X9645714Y-14220429D01*
X9617143Y-14234714D01*
X9588571Y-14234714D01*
X9560000Y-14220429D01*
X9545714Y-14206143D01*
X9531428Y-14177571D01*
X9517143Y-14120429D01*
X9517143Y-14049000D01*
X9531428Y-13991857D01*
X9545714Y-13963286D01*
X9560000Y-13949000D01*
X9588571Y-13934714D01*
X9817143Y-14234714D02*
X9817143Y-14034714D01*
X9817143Y-14063286D02*
X9831428Y-14049000D01*
X9860000Y-14034714D01*
X9902857Y-14034714D01*
X9931428Y-14049000D01*
X9945714Y-14077571D01*
X9945714Y-14234714D01*
X9945714Y-14077571D02*
X9960000Y-14049000D01*
X9988571Y-14034714D01*
X10031428Y-14034714D01*
X10060000Y-14049000D01*
X10074286Y-14077571D01*
X10074286Y-14234714D01*
X10217143Y-14234714D02*
X10217143Y-14034714D01*
X10217143Y-14063286D02*
X10231428Y-14049000D01*
X10260000Y-14034714D01*
X10302857Y-14034714D01*
X10331428Y-14049000D01*
X10345714Y-14077571D01*
X10345714Y-14234714D01*
X10345714Y-14077571D02*
X10360000Y-14049000D01*
X10388571Y-14034714D01*
X10431428Y-14034714D01*
X10460000Y-14049000D01*
X10474286Y-14077571D01*
X10474286Y-14234714D01*
X11060000Y-13920429D02*
X10802857Y-14306143D01*
X11445714Y-13934714D02*
X11474286Y-13934714D01*
X11502857Y-13949000D01*
X11517143Y-13963286D01*
X11531428Y-13991857D01*
X11545714Y-14049000D01*
X11545714Y-14120429D01*
X11531428Y-14177571D01*
X11517143Y-14206143D01*
X11502857Y-14220429D01*
X11474286Y-14234714D01*
X11445714Y-14234714D01*
X11417143Y-14220429D01*
X11402857Y-14206143D01*
X11388571Y-14177571D01*
X11374286Y-14120429D01*
X11374286Y-14049000D01*
X11388571Y-13991857D01*
X11402857Y-13963286D01*
X11417143Y-13949000D01*
X11445714Y-13934714D01*
X11674286Y-14206143D02*
X11688571Y-14220429D01*
X11674286Y-14234714D01*
X11660000Y-14220429D01*
X11674286Y-14206143D01*
X11674286Y-14234714D01*
X11874286Y-13934714D02*
X11902857Y-13934714D01*
X11931428Y-13949000D01*
X11945714Y-13963286D01*
X11960000Y-13991857D01*
X11974286Y-14049000D01*
X11974286Y-14120429D01*
X11960000Y-14177571D01*
X11945714Y-14206143D01*
X11931428Y-14220429D01*
X11902857Y-14234714D01*
X11874286Y-14234714D01*
X11845714Y-14220429D01*
X11831428Y-14206143D01*
X11817143Y-14177571D01*
X11802857Y-14120429D01*
X11802857Y-14049000D01*
X11817143Y-13991857D01*
X11831428Y-13963286D01*
X11845714Y-13949000D01*
X11874286Y-13934714D01*
X12145714Y-14063286D02*
X12117143Y-14049000D01*
X12102857Y-14034714D01*
X12088571Y-14006143D01*
X12088571Y-13991857D01*
X12102857Y-13963286D01*
X12117143Y-13949000D01*
X12145714Y-13934714D01*
X12202857Y-13934714D01*
X12231428Y-13949000D01*
X12245714Y-13963286D01*
X12260000Y-13991857D01*
X12260000Y-14006143D01*
X12245714Y-14034714D01*
X12231428Y-14049000D01*
X12202857Y-14063286D01*
X12145714Y-14063286D01*
X12117143Y-14077571D01*
X12102857Y-14091857D01*
X12088571Y-14120429D01*
X12088571Y-14177571D01*
X12102857Y-14206143D01*
X12117143Y-14220429D01*
X12145714Y-14234714D01*
X12202857Y-14234714D01*
X12231428Y-14220429D01*
X12245714Y-14206143D01*
X12260000Y-14177571D01*
X12260000Y-14120429D01*
X12245714Y-14091857D01*
X12231428Y-14077571D01*
X12202857Y-14063286D01*
X12517143Y-13934714D02*
X12460000Y-13934714D01*
X12431428Y-13949000D01*
X12417143Y-13963286D01*
X12388571Y-14006143D01*
X12374286Y-14063286D01*
X12374286Y-14177571D01*
X12388571Y-14206143D01*
X12402857Y-14220429D01*
X12431428Y-14234714D01*
X12488571Y-14234714D01*
X12517143Y-14220429D01*
X12531428Y-14206143D01*
X12545714Y-14177571D01*
X12545714Y-14106143D01*
X12531428Y-14077571D01*
X12517143Y-14063286D01*
X12488571Y-14049000D01*
X12431428Y-14049000D01*
X12402857Y-14063286D01*
X12388571Y-14077571D01*
X12374286Y-14106143D01*
X12802857Y-13934714D02*
X12745714Y-13934714D01*
X12717143Y-13949000D01*
X12702857Y-13963286D01*
X12674286Y-14006143D01*
X12660000Y-14063286D01*
X12660000Y-14177571D01*
X12674286Y-14206143D01*
X12688571Y-14220429D01*
X12717143Y-14234714D01*
X12774286Y-14234714D01*
X12802857Y-14220429D01*
X12817143Y-14206143D01*
X12831428Y-14177571D01*
X12831428Y-14106143D01*
X12817143Y-14077571D01*
X12802857Y-14063286D01*
X12774286Y-14049000D01*
X12717143Y-14049000D01*
X12688571Y-14063286D01*
X12674286Y-14077571D01*
X12660000Y-14106143D01*
X12945714Y-13934714D02*
X12945714Y-13991857D01*
X13060000Y-13934714D02*
X13060000Y-13991857D01*
X13502857Y-14349000D02*
X13488571Y-14334714D01*
X13460000Y-14291857D01*
X13445714Y-14263286D01*
X13431428Y-14220429D01*
X13417143Y-14149000D01*
X13417143Y-14091857D01*
X13431428Y-14020429D01*
X13445714Y-13977571D01*
X13460000Y-13949000D01*
X13488571Y-13906143D01*
X13502857Y-13891857D01*
X13745714Y-14034714D02*
X13745714Y-14234714D01*
X13674286Y-13920429D02*
X13602857Y-14134714D01*
X13788571Y-14134714D01*
X14131428Y-14234714D02*
X14131428Y-13934714D01*
X14260000Y-14234714D02*
X14260000Y-14077571D01*
X14245714Y-14049000D01*
X14217143Y-14034714D01*
X14174286Y-14034714D01*
X14145714Y-14049000D01*
X14131428Y-14063286D01*
X14445714Y-14234714D02*
X14417143Y-14220429D01*
X14402857Y-14206143D01*
X14388571Y-14177571D01*
X14388571Y-14091857D01*
X14402857Y-14063286D01*
X14417143Y-14049000D01*
X14445714Y-14034714D01*
X14488571Y-14034714D01*
X14517143Y-14049000D01*
X14531428Y-14063286D01*
X14545714Y-14091857D01*
X14545714Y-14177571D01*
X14531428Y-14206143D01*
X14517143Y-14220429D01*
X14488571Y-14234714D01*
X14445714Y-14234714D01*
X14717143Y-14234714D02*
X14688571Y-14220429D01*
X14674286Y-14191857D01*
X14674286Y-13934714D01*
X14945714Y-14220429D02*
X14917143Y-14234714D01*
X14860000Y-14234714D01*
X14831428Y-14220429D01*
X14817143Y-14191857D01*
X14817143Y-14077571D01*
X14831428Y-14049000D01*
X14860000Y-14034714D01*
X14917143Y-14034714D01*
X14945714Y-14049000D01*
X14960000Y-14077571D01*
X14960000Y-14106143D01*
X14817143Y-14134714D01*
X15074286Y-14220429D02*
X15102857Y-14234714D01*
X15160000Y-14234714D01*
X15188571Y-14220429D01*
X15202857Y-14191857D01*
X15202857Y-14177571D01*
X15188571Y-14149000D01*
X15160000Y-14134714D01*
X15117143Y-14134714D01*
X15088571Y-14120429D01*
X15074286Y-14091857D01*
X15074286Y-14077571D01*
X15088571Y-14049000D01*
X15117143Y-14034714D01*
X15160000Y-14034714D01*
X15188571Y-14049000D01*
X15302857Y-14349000D02*
X15317143Y-14334714D01*
X15345714Y-14291857D01*
X15360000Y-14263286D01*
X15374286Y-14220429D01*
X15388571Y-14149000D01*
X15388571Y-14091857D01*
X15374286Y-14020429D01*
X15360000Y-13977571D01*
X15345714Y-13949000D01*
X15317143Y-13906143D01*
X15302857Y-13891857D01*
M02*
