G04 #@! TF.GenerationSoftware,KiCad,Pcbnew,(5.1.5)-3*
G04 #@! TF.CreationDate,2022-01-10T13:13:20-06:00*
G04 #@! TF.ProjectId,70W-Amplifier,3730572d-416d-4706-9c69-666965722e6b,rev?*
G04 #@! TF.SameCoordinates,Original*
G04 #@! TF.FileFunction,Soldermask,Top*
G04 #@! TF.FilePolarity,Negative*
%FSLAX46Y46*%
G04 Gerber Fmt 4.6, Leading zero omitted, Abs format (unit mm)*
G04 Created by KiCad (PCBNEW (5.1.5)-3) date 2022-01-10 13:13:20*
%MOMM*%
%LPD*%
G04 APERTURE LIST*
%ADD10C,0.100000*%
%ADD11C,3.000000*%
%ADD12R,2.703200X3.203200*%
%ADD13R,3.000000X3.500000*%
%ADD14R,3.500000X3.000000*%
%ADD15R,3.000000X2.000000*%
%ADD16R,2.200000X3.000000*%
%ADD17R,1.750000X3.000000*%
%ADD18R,4.000000X4.000000*%
%ADD19R,0.800000X0.900000*%
%ADD20R,3.000000X3.000000*%
%ADD21R,5.800000X6.400000*%
%ADD22R,1.200000X2.200000*%
%ADD23O,2.819200X1.511200*%
%ADD24C,3.419200*%
%ADD25R,3.250000X1.500000*%
%ADD26O,1.600000X1.600000*%
%ADD27R,1.600000X1.600000*%
G04 APERTURE END LIST*
D10*
G36*
X108684306Y-92601685D02*
G01*
X108718282Y-92606725D01*
X108751600Y-92615071D01*
X108783939Y-92626642D01*
X108814989Y-92641328D01*
X108844450Y-92658986D01*
X108872038Y-92679446D01*
X108897487Y-92702513D01*
X108920554Y-92727962D01*
X108941014Y-92755550D01*
X108958672Y-92785011D01*
X108973358Y-92816061D01*
X108984929Y-92848400D01*
X108993275Y-92881718D01*
X108998315Y-92915694D01*
X109000000Y-92950000D01*
X109000000Y-97250000D01*
X108998315Y-97284306D01*
X108993275Y-97318282D01*
X108984929Y-97351600D01*
X108973358Y-97383939D01*
X108958672Y-97414989D01*
X108941014Y-97444450D01*
X108920554Y-97472038D01*
X108897487Y-97497487D01*
X108872038Y-97520554D01*
X108844450Y-97541014D01*
X108814989Y-97558672D01*
X108783939Y-97573358D01*
X108751600Y-97584929D01*
X108718282Y-97593275D01*
X108684306Y-97598315D01*
X108650000Y-97600000D01*
X107950000Y-97600000D01*
X107915694Y-97598315D01*
X107881718Y-97593275D01*
X107848400Y-97584929D01*
X107816061Y-97573358D01*
X107785011Y-97558672D01*
X107755550Y-97541014D01*
X107727962Y-97520554D01*
X107702513Y-97497487D01*
X107679446Y-97472038D01*
X107658986Y-97444450D01*
X107641328Y-97414989D01*
X107626642Y-97383939D01*
X107615071Y-97351600D01*
X107606725Y-97318282D01*
X107601685Y-97284306D01*
X107600000Y-97250000D01*
X107600000Y-92950000D01*
X107601685Y-92915694D01*
X107606725Y-92881718D01*
X107615071Y-92848400D01*
X107626642Y-92816061D01*
X107641328Y-92785011D01*
X107658986Y-92755550D01*
X107679446Y-92727962D01*
X107702513Y-92702513D01*
X107727962Y-92679446D01*
X107755550Y-92658986D01*
X107785011Y-92641328D01*
X107816061Y-92626642D01*
X107848400Y-92615071D01*
X107881718Y-92606725D01*
X107915694Y-92601685D01*
X107950000Y-92600000D01*
X108650000Y-92600000D01*
X108684306Y-92601685D01*
G37*
G36*
X106284306Y-92601685D02*
G01*
X106318282Y-92606725D01*
X106351600Y-92615071D01*
X106383939Y-92626642D01*
X106414989Y-92641328D01*
X106444450Y-92658986D01*
X106472038Y-92679446D01*
X106497487Y-92702513D01*
X106520554Y-92727962D01*
X106541014Y-92755550D01*
X106558672Y-92785011D01*
X106573358Y-92816061D01*
X106584929Y-92848400D01*
X106593275Y-92881718D01*
X106598315Y-92915694D01*
X106600000Y-92950000D01*
X106600000Y-97250000D01*
X106598315Y-97284306D01*
X106593275Y-97318282D01*
X106584929Y-97351600D01*
X106573358Y-97383939D01*
X106558672Y-97414989D01*
X106541014Y-97444450D01*
X106520554Y-97472038D01*
X106497487Y-97497487D01*
X106472038Y-97520554D01*
X106444450Y-97541014D01*
X106414989Y-97558672D01*
X106383939Y-97573358D01*
X106351600Y-97584929D01*
X106318282Y-97593275D01*
X106284306Y-97598315D01*
X106250000Y-97600000D01*
X105550000Y-97600000D01*
X105515694Y-97598315D01*
X105481718Y-97593275D01*
X105448400Y-97584929D01*
X105416061Y-97573358D01*
X105385011Y-97558672D01*
X105355550Y-97541014D01*
X105327962Y-97520554D01*
X105302513Y-97497487D01*
X105279446Y-97472038D01*
X105258986Y-97444450D01*
X105241328Y-97414989D01*
X105226642Y-97383939D01*
X105215071Y-97351600D01*
X105206725Y-97318282D01*
X105201685Y-97284306D01*
X105200000Y-97250000D01*
X105200000Y-92950000D01*
X105201685Y-92915694D01*
X105206725Y-92881718D01*
X105215071Y-92848400D01*
X105226642Y-92816061D01*
X105241328Y-92785011D01*
X105258986Y-92755550D01*
X105279446Y-92727962D01*
X105302513Y-92702513D01*
X105327962Y-92679446D01*
X105355550Y-92658986D01*
X105385011Y-92641328D01*
X105416061Y-92626642D01*
X105448400Y-92615071D01*
X105481718Y-92606725D01*
X105515694Y-92601685D01*
X105550000Y-92600000D01*
X106250000Y-92600000D01*
X106284306Y-92601685D01*
G37*
D11*
X223900000Y-109600000D03*
X231000000Y-109500000D03*
D12*
X212852000Y-101346000D03*
X212852000Y-118872000D03*
D13*
X157226000Y-72390000D03*
X157226000Y-92710000D03*
D14*
X165354000Y-106172000D03*
X185674000Y-106172000D03*
X164592000Y-57658000D03*
X184912000Y-57658000D03*
D15*
X97536000Y-72136000D03*
X97536000Y-67056000D03*
X97536000Y-61976000D03*
X109728000Y-61976000D03*
X109728000Y-67056000D03*
X109728000Y-72136000D03*
X97536000Y-79756000D03*
X109728000Y-79756000D03*
D16*
X140970000Y-68072000D03*
X143510000Y-72390000D03*
X138430000Y-72390000D03*
D10*
G36*
X171414504Y-111610204D02*
G01*
X171438773Y-111613804D01*
X171462571Y-111619765D01*
X171485671Y-111628030D01*
X171507849Y-111638520D01*
X171528893Y-111651133D01*
X171548598Y-111665747D01*
X171566777Y-111682223D01*
X171583253Y-111700402D01*
X171597867Y-111720107D01*
X171610480Y-111741151D01*
X171620970Y-111763329D01*
X171629235Y-111786429D01*
X171635196Y-111810227D01*
X171638796Y-111834496D01*
X171640000Y-111859000D01*
X171640000Y-114709000D01*
X171638796Y-114733504D01*
X171635196Y-114757773D01*
X171629235Y-114781571D01*
X171620970Y-114804671D01*
X171610480Y-114826849D01*
X171597867Y-114847893D01*
X171583253Y-114867598D01*
X171566777Y-114885777D01*
X171548598Y-114902253D01*
X171528893Y-114916867D01*
X171507849Y-114929480D01*
X171485671Y-114939970D01*
X171462571Y-114948235D01*
X171438773Y-114954196D01*
X171414504Y-114957796D01*
X171390000Y-114959000D01*
X170665000Y-114959000D01*
X170640496Y-114957796D01*
X170616227Y-114954196D01*
X170592429Y-114948235D01*
X170569329Y-114939970D01*
X170547151Y-114929480D01*
X170526107Y-114916867D01*
X170506402Y-114902253D01*
X170488223Y-114885777D01*
X170471747Y-114867598D01*
X170457133Y-114847893D01*
X170444520Y-114826849D01*
X170434030Y-114804671D01*
X170425765Y-114781571D01*
X170419804Y-114757773D01*
X170416204Y-114733504D01*
X170415000Y-114709000D01*
X170415000Y-111859000D01*
X170416204Y-111834496D01*
X170419804Y-111810227D01*
X170425765Y-111786429D01*
X170434030Y-111763329D01*
X170444520Y-111741151D01*
X170457133Y-111720107D01*
X170471747Y-111700402D01*
X170488223Y-111682223D01*
X170506402Y-111665747D01*
X170526107Y-111651133D01*
X170547151Y-111638520D01*
X170569329Y-111628030D01*
X170592429Y-111619765D01*
X170616227Y-111613804D01*
X170640496Y-111610204D01*
X170665000Y-111609000D01*
X171390000Y-111609000D01*
X171414504Y-111610204D01*
G37*
G36*
X177339504Y-111610204D02*
G01*
X177363773Y-111613804D01*
X177387571Y-111619765D01*
X177410671Y-111628030D01*
X177432849Y-111638520D01*
X177453893Y-111651133D01*
X177473598Y-111665747D01*
X177491777Y-111682223D01*
X177508253Y-111700402D01*
X177522867Y-111720107D01*
X177535480Y-111741151D01*
X177545970Y-111763329D01*
X177554235Y-111786429D01*
X177560196Y-111810227D01*
X177563796Y-111834496D01*
X177565000Y-111859000D01*
X177565000Y-114709000D01*
X177563796Y-114733504D01*
X177560196Y-114757773D01*
X177554235Y-114781571D01*
X177545970Y-114804671D01*
X177535480Y-114826849D01*
X177522867Y-114847893D01*
X177508253Y-114867598D01*
X177491777Y-114885777D01*
X177473598Y-114902253D01*
X177453893Y-114916867D01*
X177432849Y-114929480D01*
X177410671Y-114939970D01*
X177387571Y-114948235D01*
X177363773Y-114954196D01*
X177339504Y-114957796D01*
X177315000Y-114959000D01*
X176590000Y-114959000D01*
X176565496Y-114957796D01*
X176541227Y-114954196D01*
X176517429Y-114948235D01*
X176494329Y-114939970D01*
X176472151Y-114929480D01*
X176451107Y-114916867D01*
X176431402Y-114902253D01*
X176413223Y-114885777D01*
X176396747Y-114867598D01*
X176382133Y-114847893D01*
X176369520Y-114826849D01*
X176359030Y-114804671D01*
X176350765Y-114781571D01*
X176344804Y-114757773D01*
X176341204Y-114733504D01*
X176340000Y-114709000D01*
X176340000Y-111859000D01*
X176341204Y-111834496D01*
X176344804Y-111810227D01*
X176350765Y-111786429D01*
X176359030Y-111763329D01*
X176369520Y-111741151D01*
X176382133Y-111720107D01*
X176396747Y-111700402D01*
X176413223Y-111682223D01*
X176431402Y-111665747D01*
X176451107Y-111651133D01*
X176472151Y-111638520D01*
X176494329Y-111628030D01*
X176517429Y-111619765D01*
X176541227Y-111613804D01*
X176565496Y-111610204D01*
X176590000Y-111609000D01*
X177315000Y-111609000D01*
X177339504Y-111610204D01*
G37*
G36*
X178428004Y-48364204D02*
G01*
X178452273Y-48367804D01*
X178476071Y-48373765D01*
X178499171Y-48382030D01*
X178521349Y-48392520D01*
X178542393Y-48405133D01*
X178562098Y-48419747D01*
X178580277Y-48436223D01*
X178596753Y-48454402D01*
X178611367Y-48474107D01*
X178623980Y-48495151D01*
X178634470Y-48517329D01*
X178642735Y-48540429D01*
X178648696Y-48564227D01*
X178652296Y-48588496D01*
X178653500Y-48613000D01*
X178653500Y-51463000D01*
X178652296Y-51487504D01*
X178648696Y-51511773D01*
X178642735Y-51535571D01*
X178634470Y-51558671D01*
X178623980Y-51580849D01*
X178611367Y-51601893D01*
X178596753Y-51621598D01*
X178580277Y-51639777D01*
X178562098Y-51656253D01*
X178542393Y-51670867D01*
X178521349Y-51683480D01*
X178499171Y-51693970D01*
X178476071Y-51702235D01*
X178452273Y-51708196D01*
X178428004Y-51711796D01*
X178403500Y-51713000D01*
X177678500Y-51713000D01*
X177653996Y-51711796D01*
X177629727Y-51708196D01*
X177605929Y-51702235D01*
X177582829Y-51693970D01*
X177560651Y-51683480D01*
X177539607Y-51670867D01*
X177519902Y-51656253D01*
X177501723Y-51639777D01*
X177485247Y-51621598D01*
X177470633Y-51601893D01*
X177458020Y-51580849D01*
X177447530Y-51558671D01*
X177439265Y-51535571D01*
X177433304Y-51511773D01*
X177429704Y-51487504D01*
X177428500Y-51463000D01*
X177428500Y-48613000D01*
X177429704Y-48588496D01*
X177433304Y-48564227D01*
X177439265Y-48540429D01*
X177447530Y-48517329D01*
X177458020Y-48495151D01*
X177470633Y-48474107D01*
X177485247Y-48454402D01*
X177501723Y-48436223D01*
X177519902Y-48419747D01*
X177539607Y-48405133D01*
X177560651Y-48392520D01*
X177582829Y-48382030D01*
X177605929Y-48373765D01*
X177629727Y-48367804D01*
X177653996Y-48364204D01*
X177678500Y-48363000D01*
X178403500Y-48363000D01*
X178428004Y-48364204D01*
G37*
G36*
X172503004Y-48364204D02*
G01*
X172527273Y-48367804D01*
X172551071Y-48373765D01*
X172574171Y-48382030D01*
X172596349Y-48392520D01*
X172617393Y-48405133D01*
X172637098Y-48419747D01*
X172655277Y-48436223D01*
X172671753Y-48454402D01*
X172686367Y-48474107D01*
X172698980Y-48495151D01*
X172709470Y-48517329D01*
X172717735Y-48540429D01*
X172723696Y-48564227D01*
X172727296Y-48588496D01*
X172728500Y-48613000D01*
X172728500Y-51463000D01*
X172727296Y-51487504D01*
X172723696Y-51511773D01*
X172717735Y-51535571D01*
X172709470Y-51558671D01*
X172698980Y-51580849D01*
X172686367Y-51601893D01*
X172671753Y-51621598D01*
X172655277Y-51639777D01*
X172637098Y-51656253D01*
X172617393Y-51670867D01*
X172596349Y-51683480D01*
X172574171Y-51693970D01*
X172551071Y-51702235D01*
X172527273Y-51708196D01*
X172503004Y-51711796D01*
X172478500Y-51713000D01*
X171753500Y-51713000D01*
X171728996Y-51711796D01*
X171704727Y-51708196D01*
X171680929Y-51702235D01*
X171657829Y-51693970D01*
X171635651Y-51683480D01*
X171614607Y-51670867D01*
X171594902Y-51656253D01*
X171576723Y-51639777D01*
X171560247Y-51621598D01*
X171545633Y-51601893D01*
X171533020Y-51580849D01*
X171522530Y-51558671D01*
X171514265Y-51535571D01*
X171508304Y-51511773D01*
X171504704Y-51487504D01*
X171503500Y-51463000D01*
X171503500Y-48613000D01*
X171504704Y-48588496D01*
X171508304Y-48564227D01*
X171514265Y-48540429D01*
X171522530Y-48517329D01*
X171533020Y-48495151D01*
X171545633Y-48474107D01*
X171560247Y-48454402D01*
X171576723Y-48436223D01*
X171594902Y-48419747D01*
X171614607Y-48405133D01*
X171635651Y-48392520D01*
X171657829Y-48382030D01*
X171680929Y-48373765D01*
X171704727Y-48367804D01*
X171728996Y-48364204D01*
X171753500Y-48363000D01*
X172478500Y-48363000D01*
X172503004Y-48364204D01*
G37*
G36*
X180231504Y-112410204D02*
G01*
X180255773Y-112413804D01*
X180279571Y-112419765D01*
X180302671Y-112428030D01*
X180324849Y-112438520D01*
X180345893Y-112451133D01*
X180365598Y-112465747D01*
X180383777Y-112482223D01*
X180400253Y-112500402D01*
X180414867Y-112520107D01*
X180427480Y-112541151D01*
X180437970Y-112563329D01*
X180446235Y-112586429D01*
X180452196Y-112610227D01*
X180455796Y-112634496D01*
X180457000Y-112659000D01*
X180457000Y-113909000D01*
X180455796Y-113933504D01*
X180452196Y-113957773D01*
X180446235Y-113981571D01*
X180437970Y-114004671D01*
X180427480Y-114026849D01*
X180414867Y-114047893D01*
X180400253Y-114067598D01*
X180383777Y-114085777D01*
X180365598Y-114102253D01*
X180345893Y-114116867D01*
X180324849Y-114129480D01*
X180302671Y-114139970D01*
X180279571Y-114148235D01*
X180255773Y-114154196D01*
X180231504Y-114157796D01*
X180207000Y-114159000D01*
X179457000Y-114159000D01*
X179432496Y-114157796D01*
X179408227Y-114154196D01*
X179384429Y-114148235D01*
X179361329Y-114139970D01*
X179339151Y-114129480D01*
X179318107Y-114116867D01*
X179298402Y-114102253D01*
X179280223Y-114085777D01*
X179263747Y-114067598D01*
X179249133Y-114047893D01*
X179236520Y-114026849D01*
X179226030Y-114004671D01*
X179217765Y-113981571D01*
X179211804Y-113957773D01*
X179208204Y-113933504D01*
X179207000Y-113909000D01*
X179207000Y-112659000D01*
X179208204Y-112634496D01*
X179211804Y-112610227D01*
X179217765Y-112586429D01*
X179226030Y-112563329D01*
X179236520Y-112541151D01*
X179249133Y-112520107D01*
X179263747Y-112500402D01*
X179280223Y-112482223D01*
X179298402Y-112465747D01*
X179318107Y-112451133D01*
X179339151Y-112438520D01*
X179361329Y-112428030D01*
X179384429Y-112419765D01*
X179408227Y-112413804D01*
X179432496Y-112410204D01*
X179457000Y-112409000D01*
X180207000Y-112409000D01*
X180231504Y-112410204D01*
G37*
G36*
X183031504Y-112410204D02*
G01*
X183055773Y-112413804D01*
X183079571Y-112419765D01*
X183102671Y-112428030D01*
X183124849Y-112438520D01*
X183145893Y-112451133D01*
X183165598Y-112465747D01*
X183183777Y-112482223D01*
X183200253Y-112500402D01*
X183214867Y-112520107D01*
X183227480Y-112541151D01*
X183237970Y-112563329D01*
X183246235Y-112586429D01*
X183252196Y-112610227D01*
X183255796Y-112634496D01*
X183257000Y-112659000D01*
X183257000Y-113909000D01*
X183255796Y-113933504D01*
X183252196Y-113957773D01*
X183246235Y-113981571D01*
X183237970Y-114004671D01*
X183227480Y-114026849D01*
X183214867Y-114047893D01*
X183200253Y-114067598D01*
X183183777Y-114085777D01*
X183165598Y-114102253D01*
X183145893Y-114116867D01*
X183124849Y-114129480D01*
X183102671Y-114139970D01*
X183079571Y-114148235D01*
X183055773Y-114154196D01*
X183031504Y-114157796D01*
X183007000Y-114159000D01*
X182257000Y-114159000D01*
X182232496Y-114157796D01*
X182208227Y-114154196D01*
X182184429Y-114148235D01*
X182161329Y-114139970D01*
X182139151Y-114129480D01*
X182118107Y-114116867D01*
X182098402Y-114102253D01*
X182080223Y-114085777D01*
X182063747Y-114067598D01*
X182049133Y-114047893D01*
X182036520Y-114026849D01*
X182026030Y-114004671D01*
X182017765Y-113981571D01*
X182011804Y-113957773D01*
X182008204Y-113933504D01*
X182007000Y-113909000D01*
X182007000Y-112659000D01*
X182008204Y-112634496D01*
X182011804Y-112610227D01*
X182017765Y-112586429D01*
X182026030Y-112563329D01*
X182036520Y-112541151D01*
X182049133Y-112520107D01*
X182063747Y-112500402D01*
X182080223Y-112482223D01*
X182098402Y-112465747D01*
X182118107Y-112451133D01*
X182139151Y-112438520D01*
X182161329Y-112428030D01*
X182184429Y-112419765D01*
X182208227Y-112413804D01*
X182232496Y-112410204D01*
X182257000Y-112409000D01*
X183007000Y-112409000D01*
X183031504Y-112410204D01*
G37*
G36*
X169473504Y-48910204D02*
G01*
X169497773Y-48913804D01*
X169521571Y-48919765D01*
X169544671Y-48928030D01*
X169566849Y-48938520D01*
X169587893Y-48951133D01*
X169607598Y-48965747D01*
X169625777Y-48982223D01*
X169642253Y-49000402D01*
X169656867Y-49020107D01*
X169669480Y-49041151D01*
X169679970Y-49063329D01*
X169688235Y-49086429D01*
X169694196Y-49110227D01*
X169697796Y-49134496D01*
X169699000Y-49159000D01*
X169699000Y-50409000D01*
X169697796Y-50433504D01*
X169694196Y-50457773D01*
X169688235Y-50481571D01*
X169679970Y-50504671D01*
X169669480Y-50526849D01*
X169656867Y-50547893D01*
X169642253Y-50567598D01*
X169625777Y-50585777D01*
X169607598Y-50602253D01*
X169587893Y-50616867D01*
X169566849Y-50629480D01*
X169544671Y-50639970D01*
X169521571Y-50648235D01*
X169497773Y-50654196D01*
X169473504Y-50657796D01*
X169449000Y-50659000D01*
X168699000Y-50659000D01*
X168674496Y-50657796D01*
X168650227Y-50654196D01*
X168626429Y-50648235D01*
X168603329Y-50639970D01*
X168581151Y-50629480D01*
X168560107Y-50616867D01*
X168540402Y-50602253D01*
X168522223Y-50585777D01*
X168505747Y-50567598D01*
X168491133Y-50547893D01*
X168478520Y-50526849D01*
X168468030Y-50504671D01*
X168459765Y-50481571D01*
X168453804Y-50457773D01*
X168450204Y-50433504D01*
X168449000Y-50409000D01*
X168449000Y-49159000D01*
X168450204Y-49134496D01*
X168453804Y-49110227D01*
X168459765Y-49086429D01*
X168468030Y-49063329D01*
X168478520Y-49041151D01*
X168491133Y-49020107D01*
X168505747Y-49000402D01*
X168522223Y-48982223D01*
X168540402Y-48965747D01*
X168560107Y-48951133D01*
X168581151Y-48938520D01*
X168603329Y-48928030D01*
X168626429Y-48919765D01*
X168650227Y-48913804D01*
X168674496Y-48910204D01*
X168699000Y-48909000D01*
X169449000Y-48909000D01*
X169473504Y-48910204D01*
G37*
G36*
X166673504Y-48910204D02*
G01*
X166697773Y-48913804D01*
X166721571Y-48919765D01*
X166744671Y-48928030D01*
X166766849Y-48938520D01*
X166787893Y-48951133D01*
X166807598Y-48965747D01*
X166825777Y-48982223D01*
X166842253Y-49000402D01*
X166856867Y-49020107D01*
X166869480Y-49041151D01*
X166879970Y-49063329D01*
X166888235Y-49086429D01*
X166894196Y-49110227D01*
X166897796Y-49134496D01*
X166899000Y-49159000D01*
X166899000Y-50409000D01*
X166897796Y-50433504D01*
X166894196Y-50457773D01*
X166888235Y-50481571D01*
X166879970Y-50504671D01*
X166869480Y-50526849D01*
X166856867Y-50547893D01*
X166842253Y-50567598D01*
X166825777Y-50585777D01*
X166807598Y-50602253D01*
X166787893Y-50616867D01*
X166766849Y-50629480D01*
X166744671Y-50639970D01*
X166721571Y-50648235D01*
X166697773Y-50654196D01*
X166673504Y-50657796D01*
X166649000Y-50659000D01*
X165899000Y-50659000D01*
X165874496Y-50657796D01*
X165850227Y-50654196D01*
X165826429Y-50648235D01*
X165803329Y-50639970D01*
X165781151Y-50629480D01*
X165760107Y-50616867D01*
X165740402Y-50602253D01*
X165722223Y-50585777D01*
X165705747Y-50567598D01*
X165691133Y-50547893D01*
X165678520Y-50526849D01*
X165668030Y-50504671D01*
X165659765Y-50481571D01*
X165653804Y-50457773D01*
X165650204Y-50433504D01*
X165649000Y-50409000D01*
X165649000Y-49159000D01*
X165650204Y-49134496D01*
X165653804Y-49110227D01*
X165659765Y-49086429D01*
X165668030Y-49063329D01*
X165678520Y-49041151D01*
X165691133Y-49020107D01*
X165705747Y-49000402D01*
X165722223Y-48982223D01*
X165740402Y-48965747D01*
X165760107Y-48951133D01*
X165781151Y-48938520D01*
X165803329Y-48928030D01*
X165826429Y-48919765D01*
X165850227Y-48913804D01*
X165874496Y-48910204D01*
X165899000Y-48909000D01*
X166649000Y-48909000D01*
X166673504Y-48910204D01*
G37*
D17*
X177238660Y-106934000D03*
X174708820Y-106934000D03*
X172212000Y-106934000D03*
X172161200Y-56388000D03*
X174691040Y-56388000D03*
X177187860Y-56388000D03*
D18*
X193384000Y-75422000D03*
X193384000Y-89222000D03*
X232984000Y-71222000D03*
X233084000Y-82522000D03*
X233084000Y-93122000D03*
D10*
G36*
X130432306Y-108245685D02*
G01*
X130466282Y-108250725D01*
X130499600Y-108259071D01*
X130531939Y-108270642D01*
X130562989Y-108285328D01*
X130592450Y-108302986D01*
X130620038Y-108323446D01*
X130645487Y-108346513D01*
X130668554Y-108371962D01*
X130689014Y-108399550D01*
X130706672Y-108429011D01*
X130721358Y-108460061D01*
X130732929Y-108492400D01*
X130741275Y-108525718D01*
X130746315Y-108559694D01*
X130748000Y-108594000D01*
X130748000Y-112894000D01*
X130746315Y-112928306D01*
X130741275Y-112962282D01*
X130732929Y-112995600D01*
X130721358Y-113027939D01*
X130706672Y-113058989D01*
X130689014Y-113088450D01*
X130668554Y-113116038D01*
X130645487Y-113141487D01*
X130620038Y-113164554D01*
X130592450Y-113185014D01*
X130562989Y-113202672D01*
X130531939Y-113217358D01*
X130499600Y-113228929D01*
X130466282Y-113237275D01*
X130432306Y-113242315D01*
X130398000Y-113244000D01*
X129698000Y-113244000D01*
X129663694Y-113242315D01*
X129629718Y-113237275D01*
X129596400Y-113228929D01*
X129564061Y-113217358D01*
X129533011Y-113202672D01*
X129503550Y-113185014D01*
X129475962Y-113164554D01*
X129450513Y-113141487D01*
X129427446Y-113116038D01*
X129406986Y-113088450D01*
X129389328Y-113058989D01*
X129374642Y-113027939D01*
X129363071Y-112995600D01*
X129354725Y-112962282D01*
X129349685Y-112928306D01*
X129348000Y-112894000D01*
X129348000Y-108594000D01*
X129349685Y-108559694D01*
X129354725Y-108525718D01*
X129363071Y-108492400D01*
X129374642Y-108460061D01*
X129389328Y-108429011D01*
X129406986Y-108399550D01*
X129427446Y-108371962D01*
X129450513Y-108346513D01*
X129475962Y-108323446D01*
X129503550Y-108302986D01*
X129533011Y-108285328D01*
X129564061Y-108270642D01*
X129596400Y-108259071D01*
X129629718Y-108250725D01*
X129663694Y-108245685D01*
X129698000Y-108244000D01*
X130398000Y-108244000D01*
X130432306Y-108245685D01*
G37*
G36*
X135260846Y-108253305D02*
G01*
X135294822Y-108258345D01*
X135328140Y-108266691D01*
X135360479Y-108278262D01*
X135391529Y-108292948D01*
X135420990Y-108310606D01*
X135448578Y-108331066D01*
X135474027Y-108354133D01*
X135497094Y-108379582D01*
X135517554Y-108407170D01*
X135535212Y-108436631D01*
X135549898Y-108467681D01*
X135561469Y-108500020D01*
X135569815Y-108533338D01*
X135574855Y-108567314D01*
X135576540Y-108601620D01*
X135576540Y-112901620D01*
X135574855Y-112935926D01*
X135569815Y-112969902D01*
X135561469Y-113003220D01*
X135549898Y-113035559D01*
X135535212Y-113066609D01*
X135517554Y-113096070D01*
X135497094Y-113123658D01*
X135474027Y-113149107D01*
X135448578Y-113172174D01*
X135420990Y-113192634D01*
X135391529Y-113210292D01*
X135360479Y-113224978D01*
X135328140Y-113236549D01*
X135294822Y-113244895D01*
X135260846Y-113249935D01*
X135226540Y-113251620D01*
X134526540Y-113251620D01*
X134492234Y-113249935D01*
X134458258Y-113244895D01*
X134424940Y-113236549D01*
X134392601Y-113224978D01*
X134361551Y-113210292D01*
X134332090Y-113192634D01*
X134304502Y-113172174D01*
X134279053Y-113149107D01*
X134255986Y-113123658D01*
X134235526Y-113096070D01*
X134217868Y-113066609D01*
X134203182Y-113035559D01*
X134191611Y-113003220D01*
X134183265Y-112969902D01*
X134178225Y-112935926D01*
X134176540Y-112901620D01*
X134176540Y-108601620D01*
X134178225Y-108567314D01*
X134183265Y-108533338D01*
X134191611Y-108500020D01*
X134203182Y-108467681D01*
X134217868Y-108436631D01*
X134235526Y-108407170D01*
X134255986Y-108379582D01*
X134279053Y-108354133D01*
X134304502Y-108331066D01*
X134332090Y-108310606D01*
X134361551Y-108292948D01*
X134392601Y-108278262D01*
X134424940Y-108266691D01*
X134458258Y-108258345D01*
X134492234Y-108253305D01*
X134526540Y-108251620D01*
X135226540Y-108251620D01*
X135260846Y-108253305D01*
G37*
G36*
X130411986Y-108258385D02*
G01*
X130445962Y-108263425D01*
X130479280Y-108271771D01*
X130511619Y-108283342D01*
X130542669Y-108298028D01*
X130572130Y-108315686D01*
X130599718Y-108336146D01*
X130625167Y-108359213D01*
X130648234Y-108384662D01*
X130668694Y-108412250D01*
X130686352Y-108441711D01*
X130701038Y-108472761D01*
X130712609Y-108505100D01*
X130720955Y-108538418D01*
X130725995Y-108572394D01*
X130727680Y-108606700D01*
X130727680Y-112906700D01*
X130725995Y-112941006D01*
X130720955Y-112974982D01*
X130712609Y-113008300D01*
X130701038Y-113040639D01*
X130686352Y-113071689D01*
X130668694Y-113101150D01*
X130648234Y-113128738D01*
X130625167Y-113154187D01*
X130599718Y-113177254D01*
X130572130Y-113197714D01*
X130542669Y-113215372D01*
X130511619Y-113230058D01*
X130479280Y-113241629D01*
X130445962Y-113249975D01*
X130411986Y-113255015D01*
X130377680Y-113256700D01*
X129677680Y-113256700D01*
X129643374Y-113255015D01*
X129609398Y-113249975D01*
X129576080Y-113241629D01*
X129543741Y-113230058D01*
X129512691Y-113215372D01*
X129483230Y-113197714D01*
X129455642Y-113177254D01*
X129430193Y-113154187D01*
X129407126Y-113128738D01*
X129386666Y-113101150D01*
X129369008Y-113071689D01*
X129354322Y-113040639D01*
X129342751Y-113008300D01*
X129334405Y-112974982D01*
X129329365Y-112941006D01*
X129327680Y-112906700D01*
X129327680Y-108606700D01*
X129329365Y-108572394D01*
X129334405Y-108538418D01*
X129342751Y-108505100D01*
X129354322Y-108472761D01*
X129369008Y-108441711D01*
X129386666Y-108412250D01*
X129407126Y-108384662D01*
X129430193Y-108359213D01*
X129455642Y-108336146D01*
X129483230Y-108315686D01*
X129512691Y-108298028D01*
X129543741Y-108283342D01*
X129576080Y-108271771D01*
X129609398Y-108263425D01*
X129643374Y-108258385D01*
X129677680Y-108256700D01*
X130377680Y-108256700D01*
X130411986Y-108258385D01*
G37*
G36*
X135253226Y-108240605D02*
G01*
X135287202Y-108245645D01*
X135320520Y-108253991D01*
X135352859Y-108265562D01*
X135383909Y-108280248D01*
X135413370Y-108297906D01*
X135440958Y-108318366D01*
X135466407Y-108341433D01*
X135489474Y-108366882D01*
X135509934Y-108394470D01*
X135527592Y-108423931D01*
X135542278Y-108454981D01*
X135553849Y-108487320D01*
X135562195Y-108520638D01*
X135567235Y-108554614D01*
X135568920Y-108588920D01*
X135568920Y-112888920D01*
X135567235Y-112923226D01*
X135562195Y-112957202D01*
X135553849Y-112990520D01*
X135542278Y-113022859D01*
X135527592Y-113053909D01*
X135509934Y-113083370D01*
X135489474Y-113110958D01*
X135466407Y-113136407D01*
X135440958Y-113159474D01*
X135413370Y-113179934D01*
X135383909Y-113197592D01*
X135352859Y-113212278D01*
X135320520Y-113223849D01*
X135287202Y-113232195D01*
X135253226Y-113237235D01*
X135218920Y-113238920D01*
X134518920Y-113238920D01*
X134484614Y-113237235D01*
X134450638Y-113232195D01*
X134417320Y-113223849D01*
X134384981Y-113212278D01*
X134353931Y-113197592D01*
X134324470Y-113179934D01*
X134296882Y-113159474D01*
X134271433Y-113136407D01*
X134248366Y-113110958D01*
X134227906Y-113083370D01*
X134210248Y-113053909D01*
X134195562Y-113022859D01*
X134183991Y-112990520D01*
X134175645Y-112957202D01*
X134170605Y-112923226D01*
X134168920Y-112888920D01*
X134168920Y-108588920D01*
X134170605Y-108554614D01*
X134175645Y-108520638D01*
X134183991Y-108487320D01*
X134195562Y-108454981D01*
X134210248Y-108423931D01*
X134227906Y-108394470D01*
X134248366Y-108366882D01*
X134271433Y-108341433D01*
X134296882Y-108318366D01*
X134324470Y-108297906D01*
X134353931Y-108280248D01*
X134384981Y-108265562D01*
X134417320Y-108253991D01*
X134450638Y-108245645D01*
X134484614Y-108240605D01*
X134518920Y-108238920D01*
X135218920Y-108238920D01*
X135253226Y-108240605D01*
G37*
G36*
X132832606Y-108258385D02*
G01*
X132866582Y-108263425D01*
X132899900Y-108271771D01*
X132932239Y-108283342D01*
X132963289Y-108298028D01*
X132992750Y-108315686D01*
X133020338Y-108336146D01*
X133045787Y-108359213D01*
X133068854Y-108384662D01*
X133089314Y-108412250D01*
X133106972Y-108441711D01*
X133121658Y-108472761D01*
X133133229Y-108505100D01*
X133141575Y-108538418D01*
X133146615Y-108572394D01*
X133148300Y-108606700D01*
X133148300Y-112906700D01*
X133146615Y-112941006D01*
X133141575Y-112974982D01*
X133133229Y-113008300D01*
X133121658Y-113040639D01*
X133106972Y-113071689D01*
X133089314Y-113101150D01*
X133068854Y-113128738D01*
X133045787Y-113154187D01*
X133020338Y-113177254D01*
X132992750Y-113197714D01*
X132963289Y-113215372D01*
X132932239Y-113230058D01*
X132899900Y-113241629D01*
X132866582Y-113249975D01*
X132832606Y-113255015D01*
X132798300Y-113256700D01*
X132098300Y-113256700D01*
X132063994Y-113255015D01*
X132030018Y-113249975D01*
X131996700Y-113241629D01*
X131964361Y-113230058D01*
X131933311Y-113215372D01*
X131903850Y-113197714D01*
X131876262Y-113177254D01*
X131850813Y-113154187D01*
X131827746Y-113128738D01*
X131807286Y-113101150D01*
X131789628Y-113071689D01*
X131774942Y-113040639D01*
X131763371Y-113008300D01*
X131755025Y-112974982D01*
X131749985Y-112941006D01*
X131748300Y-112906700D01*
X131748300Y-108606700D01*
X131749985Y-108572394D01*
X131755025Y-108538418D01*
X131763371Y-108505100D01*
X131774942Y-108472761D01*
X131789628Y-108441711D01*
X131807286Y-108412250D01*
X131827746Y-108384662D01*
X131850813Y-108359213D01*
X131876262Y-108336146D01*
X131903850Y-108315686D01*
X131933311Y-108298028D01*
X131964361Y-108283342D01*
X131996700Y-108271771D01*
X132030018Y-108263425D01*
X132063994Y-108258385D01*
X132098300Y-108256700D01*
X132798300Y-108256700D01*
X132832606Y-108258385D01*
G37*
G36*
X154369266Y-108476825D02*
G01*
X154403242Y-108481865D01*
X154436560Y-108490211D01*
X154468899Y-108501782D01*
X154499949Y-108516468D01*
X154529410Y-108534126D01*
X154556998Y-108554586D01*
X154582447Y-108577653D01*
X154605514Y-108603102D01*
X154625974Y-108630690D01*
X154643632Y-108660151D01*
X154658318Y-108691201D01*
X154669889Y-108723540D01*
X154678235Y-108756858D01*
X154683275Y-108790834D01*
X154684960Y-108825140D01*
X154684960Y-113125140D01*
X154683275Y-113159446D01*
X154678235Y-113193422D01*
X154669889Y-113226740D01*
X154658318Y-113259079D01*
X154643632Y-113290129D01*
X154625974Y-113319590D01*
X154605514Y-113347178D01*
X154582447Y-113372627D01*
X154556998Y-113395694D01*
X154529410Y-113416154D01*
X154499949Y-113433812D01*
X154468899Y-113448498D01*
X154436560Y-113460069D01*
X154403242Y-113468415D01*
X154369266Y-113473455D01*
X154334960Y-113475140D01*
X153634960Y-113475140D01*
X153600654Y-113473455D01*
X153566678Y-113468415D01*
X153533360Y-113460069D01*
X153501021Y-113448498D01*
X153469971Y-113433812D01*
X153440510Y-113416154D01*
X153412922Y-113395694D01*
X153387473Y-113372627D01*
X153364406Y-113347178D01*
X153343946Y-113319590D01*
X153326288Y-113290129D01*
X153311602Y-113259079D01*
X153300031Y-113226740D01*
X153291685Y-113193422D01*
X153286645Y-113159446D01*
X153284960Y-113125140D01*
X153284960Y-108825140D01*
X153286645Y-108790834D01*
X153291685Y-108756858D01*
X153300031Y-108723540D01*
X153311602Y-108691201D01*
X153326288Y-108660151D01*
X153343946Y-108630690D01*
X153364406Y-108603102D01*
X153387473Y-108577653D01*
X153412922Y-108554586D01*
X153440510Y-108534126D01*
X153469971Y-108516468D01*
X153501021Y-108501782D01*
X153533360Y-108490211D01*
X153566678Y-108481865D01*
X153600654Y-108476825D01*
X153634960Y-108475140D01*
X154334960Y-108475140D01*
X154369266Y-108476825D01*
G37*
G36*
X159197806Y-108484445D02*
G01*
X159231782Y-108489485D01*
X159265100Y-108497831D01*
X159297439Y-108509402D01*
X159328489Y-108524088D01*
X159357950Y-108541746D01*
X159385538Y-108562206D01*
X159410987Y-108585273D01*
X159434054Y-108610722D01*
X159454514Y-108638310D01*
X159472172Y-108667771D01*
X159486858Y-108698821D01*
X159498429Y-108731160D01*
X159506775Y-108764478D01*
X159511815Y-108798454D01*
X159513500Y-108832760D01*
X159513500Y-113132760D01*
X159511815Y-113167066D01*
X159506775Y-113201042D01*
X159498429Y-113234360D01*
X159486858Y-113266699D01*
X159472172Y-113297749D01*
X159454514Y-113327210D01*
X159434054Y-113354798D01*
X159410987Y-113380247D01*
X159385538Y-113403314D01*
X159357950Y-113423774D01*
X159328489Y-113441432D01*
X159297439Y-113456118D01*
X159265100Y-113467689D01*
X159231782Y-113476035D01*
X159197806Y-113481075D01*
X159163500Y-113482760D01*
X158463500Y-113482760D01*
X158429194Y-113481075D01*
X158395218Y-113476035D01*
X158361900Y-113467689D01*
X158329561Y-113456118D01*
X158298511Y-113441432D01*
X158269050Y-113423774D01*
X158241462Y-113403314D01*
X158216013Y-113380247D01*
X158192946Y-113354798D01*
X158172486Y-113327210D01*
X158154828Y-113297749D01*
X158140142Y-113266699D01*
X158128571Y-113234360D01*
X158120225Y-113201042D01*
X158115185Y-113167066D01*
X158113500Y-113132760D01*
X158113500Y-108832760D01*
X158115185Y-108798454D01*
X158120225Y-108764478D01*
X158128571Y-108731160D01*
X158140142Y-108698821D01*
X158154828Y-108667771D01*
X158172486Y-108638310D01*
X158192946Y-108610722D01*
X158216013Y-108585273D01*
X158241462Y-108562206D01*
X158269050Y-108541746D01*
X158298511Y-108524088D01*
X158329561Y-108509402D01*
X158361900Y-108497831D01*
X158395218Y-108489485D01*
X158429194Y-108484445D01*
X158463500Y-108482760D01*
X159163500Y-108482760D01*
X159197806Y-108484445D01*
G37*
G36*
X154348946Y-108489525D02*
G01*
X154382922Y-108494565D01*
X154416240Y-108502911D01*
X154448579Y-108514482D01*
X154479629Y-108529168D01*
X154509090Y-108546826D01*
X154536678Y-108567286D01*
X154562127Y-108590353D01*
X154585194Y-108615802D01*
X154605654Y-108643390D01*
X154623312Y-108672851D01*
X154637998Y-108703901D01*
X154649569Y-108736240D01*
X154657915Y-108769558D01*
X154662955Y-108803534D01*
X154664640Y-108837840D01*
X154664640Y-113137840D01*
X154662955Y-113172146D01*
X154657915Y-113206122D01*
X154649569Y-113239440D01*
X154637998Y-113271779D01*
X154623312Y-113302829D01*
X154605654Y-113332290D01*
X154585194Y-113359878D01*
X154562127Y-113385327D01*
X154536678Y-113408394D01*
X154509090Y-113428854D01*
X154479629Y-113446512D01*
X154448579Y-113461198D01*
X154416240Y-113472769D01*
X154382922Y-113481115D01*
X154348946Y-113486155D01*
X154314640Y-113487840D01*
X153614640Y-113487840D01*
X153580334Y-113486155D01*
X153546358Y-113481115D01*
X153513040Y-113472769D01*
X153480701Y-113461198D01*
X153449651Y-113446512D01*
X153420190Y-113428854D01*
X153392602Y-113408394D01*
X153367153Y-113385327D01*
X153344086Y-113359878D01*
X153323626Y-113332290D01*
X153305968Y-113302829D01*
X153291282Y-113271779D01*
X153279711Y-113239440D01*
X153271365Y-113206122D01*
X153266325Y-113172146D01*
X153264640Y-113137840D01*
X153264640Y-108837840D01*
X153266325Y-108803534D01*
X153271365Y-108769558D01*
X153279711Y-108736240D01*
X153291282Y-108703901D01*
X153305968Y-108672851D01*
X153323626Y-108643390D01*
X153344086Y-108615802D01*
X153367153Y-108590353D01*
X153392602Y-108567286D01*
X153420190Y-108546826D01*
X153449651Y-108529168D01*
X153480701Y-108514482D01*
X153513040Y-108502911D01*
X153546358Y-108494565D01*
X153580334Y-108489525D01*
X153614640Y-108487840D01*
X154314640Y-108487840D01*
X154348946Y-108489525D01*
G37*
G36*
X159190186Y-108471745D02*
G01*
X159224162Y-108476785D01*
X159257480Y-108485131D01*
X159289819Y-108496702D01*
X159320869Y-108511388D01*
X159350330Y-108529046D01*
X159377918Y-108549506D01*
X159403367Y-108572573D01*
X159426434Y-108598022D01*
X159446894Y-108625610D01*
X159464552Y-108655071D01*
X159479238Y-108686121D01*
X159490809Y-108718460D01*
X159499155Y-108751778D01*
X159504195Y-108785754D01*
X159505880Y-108820060D01*
X159505880Y-113120060D01*
X159504195Y-113154366D01*
X159499155Y-113188342D01*
X159490809Y-113221660D01*
X159479238Y-113253999D01*
X159464552Y-113285049D01*
X159446894Y-113314510D01*
X159426434Y-113342098D01*
X159403367Y-113367547D01*
X159377918Y-113390614D01*
X159350330Y-113411074D01*
X159320869Y-113428732D01*
X159289819Y-113443418D01*
X159257480Y-113454989D01*
X159224162Y-113463335D01*
X159190186Y-113468375D01*
X159155880Y-113470060D01*
X158455880Y-113470060D01*
X158421574Y-113468375D01*
X158387598Y-113463335D01*
X158354280Y-113454989D01*
X158321941Y-113443418D01*
X158290891Y-113428732D01*
X158261430Y-113411074D01*
X158233842Y-113390614D01*
X158208393Y-113367547D01*
X158185326Y-113342098D01*
X158164866Y-113314510D01*
X158147208Y-113285049D01*
X158132522Y-113253999D01*
X158120951Y-113221660D01*
X158112605Y-113188342D01*
X158107565Y-113154366D01*
X158105880Y-113120060D01*
X158105880Y-108820060D01*
X158107565Y-108785754D01*
X158112605Y-108751778D01*
X158120951Y-108718460D01*
X158132522Y-108686121D01*
X158147208Y-108655071D01*
X158164866Y-108625610D01*
X158185326Y-108598022D01*
X158208393Y-108572573D01*
X158233842Y-108549506D01*
X158261430Y-108529046D01*
X158290891Y-108511388D01*
X158321941Y-108496702D01*
X158354280Y-108485131D01*
X158387598Y-108476785D01*
X158421574Y-108471745D01*
X158455880Y-108470060D01*
X159155880Y-108470060D01*
X159190186Y-108471745D01*
G37*
G36*
X156769566Y-108489525D02*
G01*
X156803542Y-108494565D01*
X156836860Y-108502911D01*
X156869199Y-108514482D01*
X156900249Y-108529168D01*
X156929710Y-108546826D01*
X156957298Y-108567286D01*
X156982747Y-108590353D01*
X157005814Y-108615802D01*
X157026274Y-108643390D01*
X157043932Y-108672851D01*
X157058618Y-108703901D01*
X157070189Y-108736240D01*
X157078535Y-108769558D01*
X157083575Y-108803534D01*
X157085260Y-108837840D01*
X157085260Y-113137840D01*
X157083575Y-113172146D01*
X157078535Y-113206122D01*
X157070189Y-113239440D01*
X157058618Y-113271779D01*
X157043932Y-113302829D01*
X157026274Y-113332290D01*
X157005814Y-113359878D01*
X156982747Y-113385327D01*
X156957298Y-113408394D01*
X156929710Y-113428854D01*
X156900249Y-113446512D01*
X156869199Y-113461198D01*
X156836860Y-113472769D01*
X156803542Y-113481115D01*
X156769566Y-113486155D01*
X156735260Y-113487840D01*
X156035260Y-113487840D01*
X156000954Y-113486155D01*
X155966978Y-113481115D01*
X155933660Y-113472769D01*
X155901321Y-113461198D01*
X155870271Y-113446512D01*
X155840810Y-113428854D01*
X155813222Y-113408394D01*
X155787773Y-113385327D01*
X155764706Y-113359878D01*
X155744246Y-113332290D01*
X155726588Y-113302829D01*
X155711902Y-113271779D01*
X155700331Y-113239440D01*
X155691985Y-113206122D01*
X155686945Y-113172146D01*
X155685260Y-113137840D01*
X155685260Y-108837840D01*
X155686945Y-108803534D01*
X155691985Y-108769558D01*
X155700331Y-108736240D01*
X155711902Y-108703901D01*
X155726588Y-108672851D01*
X155744246Y-108643390D01*
X155764706Y-108615802D01*
X155787773Y-108590353D01*
X155813222Y-108567286D01*
X155840810Y-108546826D01*
X155870271Y-108529168D01*
X155901321Y-108514482D01*
X155933660Y-108502911D01*
X155966978Y-108494565D01*
X156000954Y-108489525D01*
X156035260Y-108487840D01*
X156735260Y-108487840D01*
X156769566Y-108489525D01*
G37*
D19*
X104902000Y-106664000D03*
X103952000Y-104664000D03*
X105852000Y-104664000D03*
D20*
X151962000Y-86266000D03*
X151962000Y-79466000D03*
X129462000Y-82766000D03*
X129462000Y-88066000D03*
X129462000Y-77766000D03*
D21*
X118618000Y-103056000D03*
D22*
X120898000Y-109356000D03*
X118618000Y-109356000D03*
X116338000Y-109356000D03*
D23*
X87466000Y-68426000D03*
X87466000Y-70966000D03*
D24*
X82386000Y-73506000D03*
X82386000Y-63346000D03*
D23*
X87376000Y-97536000D03*
X87376000Y-100076000D03*
D24*
X82296000Y-102616000D03*
X82296000Y-92456000D03*
D10*
G36*
X132566504Y-65921204D02*
G01*
X132590773Y-65924804D01*
X132614571Y-65930765D01*
X132637671Y-65939030D01*
X132659849Y-65949520D01*
X132680893Y-65962133D01*
X132700598Y-65976747D01*
X132718777Y-65993223D01*
X132735253Y-66011402D01*
X132749867Y-66031107D01*
X132762480Y-66052151D01*
X132772970Y-66074329D01*
X132781235Y-66097429D01*
X132787196Y-66121227D01*
X132790796Y-66145496D01*
X132792000Y-66170000D01*
X132792000Y-66920000D01*
X132790796Y-66944504D01*
X132787196Y-66968773D01*
X132781235Y-66992571D01*
X132772970Y-67015671D01*
X132762480Y-67037849D01*
X132749867Y-67058893D01*
X132735253Y-67078598D01*
X132718777Y-67096777D01*
X132700598Y-67113253D01*
X132680893Y-67127867D01*
X132659849Y-67140480D01*
X132637671Y-67150970D01*
X132614571Y-67159235D01*
X132590773Y-67165196D01*
X132566504Y-67168796D01*
X132542000Y-67170000D01*
X131292000Y-67170000D01*
X131267496Y-67168796D01*
X131243227Y-67165196D01*
X131219429Y-67159235D01*
X131196329Y-67150970D01*
X131174151Y-67140480D01*
X131153107Y-67127867D01*
X131133402Y-67113253D01*
X131115223Y-67096777D01*
X131098747Y-67078598D01*
X131084133Y-67058893D01*
X131071520Y-67037849D01*
X131061030Y-67015671D01*
X131052765Y-66992571D01*
X131046804Y-66968773D01*
X131043204Y-66944504D01*
X131042000Y-66920000D01*
X131042000Y-66170000D01*
X131043204Y-66145496D01*
X131046804Y-66121227D01*
X131052765Y-66097429D01*
X131061030Y-66074329D01*
X131071520Y-66052151D01*
X131084133Y-66031107D01*
X131098747Y-66011402D01*
X131115223Y-65993223D01*
X131133402Y-65976747D01*
X131153107Y-65962133D01*
X131174151Y-65949520D01*
X131196329Y-65939030D01*
X131219429Y-65930765D01*
X131243227Y-65924804D01*
X131267496Y-65921204D01*
X131292000Y-65920000D01*
X132542000Y-65920000D01*
X132566504Y-65921204D01*
G37*
G36*
X132566504Y-68721204D02*
G01*
X132590773Y-68724804D01*
X132614571Y-68730765D01*
X132637671Y-68739030D01*
X132659849Y-68749520D01*
X132680893Y-68762133D01*
X132700598Y-68776747D01*
X132718777Y-68793223D01*
X132735253Y-68811402D01*
X132749867Y-68831107D01*
X132762480Y-68852151D01*
X132772970Y-68874329D01*
X132781235Y-68897429D01*
X132787196Y-68921227D01*
X132790796Y-68945496D01*
X132792000Y-68970000D01*
X132792000Y-69720000D01*
X132790796Y-69744504D01*
X132787196Y-69768773D01*
X132781235Y-69792571D01*
X132772970Y-69815671D01*
X132762480Y-69837849D01*
X132749867Y-69858893D01*
X132735253Y-69878598D01*
X132718777Y-69896777D01*
X132700598Y-69913253D01*
X132680893Y-69927867D01*
X132659849Y-69940480D01*
X132637671Y-69950970D01*
X132614571Y-69959235D01*
X132590773Y-69965196D01*
X132566504Y-69968796D01*
X132542000Y-69970000D01*
X131292000Y-69970000D01*
X131267496Y-69968796D01*
X131243227Y-69965196D01*
X131219429Y-69959235D01*
X131196329Y-69950970D01*
X131174151Y-69940480D01*
X131153107Y-69927867D01*
X131133402Y-69913253D01*
X131115223Y-69896777D01*
X131098747Y-69878598D01*
X131084133Y-69858893D01*
X131071520Y-69837849D01*
X131061030Y-69815671D01*
X131052765Y-69792571D01*
X131046804Y-69768773D01*
X131043204Y-69744504D01*
X131042000Y-69720000D01*
X131042000Y-68970000D01*
X131043204Y-68945496D01*
X131046804Y-68921227D01*
X131052765Y-68897429D01*
X131061030Y-68874329D01*
X131071520Y-68852151D01*
X131084133Y-68831107D01*
X131098747Y-68811402D01*
X131115223Y-68793223D01*
X131133402Y-68776747D01*
X131153107Y-68762133D01*
X131174151Y-68749520D01*
X131196329Y-68739030D01*
X131219429Y-68730765D01*
X131243227Y-68724804D01*
X131267496Y-68721204D01*
X131292000Y-68720000D01*
X132542000Y-68720000D01*
X132566504Y-68721204D01*
G37*
G36*
X124692504Y-81669204D02*
G01*
X124716773Y-81672804D01*
X124740571Y-81678765D01*
X124763671Y-81687030D01*
X124785849Y-81697520D01*
X124806893Y-81710133D01*
X124826598Y-81724747D01*
X124844777Y-81741223D01*
X124861253Y-81759402D01*
X124875867Y-81779107D01*
X124888480Y-81800151D01*
X124898970Y-81822329D01*
X124907235Y-81845429D01*
X124913196Y-81869227D01*
X124916796Y-81893496D01*
X124918000Y-81918000D01*
X124918000Y-82668000D01*
X124916796Y-82692504D01*
X124913196Y-82716773D01*
X124907235Y-82740571D01*
X124898970Y-82763671D01*
X124888480Y-82785849D01*
X124875867Y-82806893D01*
X124861253Y-82826598D01*
X124844777Y-82844777D01*
X124826598Y-82861253D01*
X124806893Y-82875867D01*
X124785849Y-82888480D01*
X124763671Y-82898970D01*
X124740571Y-82907235D01*
X124716773Y-82913196D01*
X124692504Y-82916796D01*
X124668000Y-82918000D01*
X123418000Y-82918000D01*
X123393496Y-82916796D01*
X123369227Y-82913196D01*
X123345429Y-82907235D01*
X123322329Y-82898970D01*
X123300151Y-82888480D01*
X123279107Y-82875867D01*
X123259402Y-82861253D01*
X123241223Y-82844777D01*
X123224747Y-82826598D01*
X123210133Y-82806893D01*
X123197520Y-82785849D01*
X123187030Y-82763671D01*
X123178765Y-82740571D01*
X123172804Y-82716773D01*
X123169204Y-82692504D01*
X123168000Y-82668000D01*
X123168000Y-81918000D01*
X123169204Y-81893496D01*
X123172804Y-81869227D01*
X123178765Y-81845429D01*
X123187030Y-81822329D01*
X123197520Y-81800151D01*
X123210133Y-81779107D01*
X123224747Y-81759402D01*
X123241223Y-81741223D01*
X123259402Y-81724747D01*
X123279107Y-81710133D01*
X123300151Y-81697520D01*
X123322329Y-81687030D01*
X123345429Y-81678765D01*
X123369227Y-81672804D01*
X123393496Y-81669204D01*
X123418000Y-81668000D01*
X124668000Y-81668000D01*
X124692504Y-81669204D01*
G37*
G36*
X124692504Y-84469204D02*
G01*
X124716773Y-84472804D01*
X124740571Y-84478765D01*
X124763671Y-84487030D01*
X124785849Y-84497520D01*
X124806893Y-84510133D01*
X124826598Y-84524747D01*
X124844777Y-84541223D01*
X124861253Y-84559402D01*
X124875867Y-84579107D01*
X124888480Y-84600151D01*
X124898970Y-84622329D01*
X124907235Y-84645429D01*
X124913196Y-84669227D01*
X124916796Y-84693496D01*
X124918000Y-84718000D01*
X124918000Y-85468000D01*
X124916796Y-85492504D01*
X124913196Y-85516773D01*
X124907235Y-85540571D01*
X124898970Y-85563671D01*
X124888480Y-85585849D01*
X124875867Y-85606893D01*
X124861253Y-85626598D01*
X124844777Y-85644777D01*
X124826598Y-85661253D01*
X124806893Y-85675867D01*
X124785849Y-85688480D01*
X124763671Y-85698970D01*
X124740571Y-85707235D01*
X124716773Y-85713196D01*
X124692504Y-85716796D01*
X124668000Y-85718000D01*
X123418000Y-85718000D01*
X123393496Y-85716796D01*
X123369227Y-85713196D01*
X123345429Y-85707235D01*
X123322329Y-85698970D01*
X123300151Y-85688480D01*
X123279107Y-85675867D01*
X123259402Y-85661253D01*
X123241223Y-85644777D01*
X123224747Y-85626598D01*
X123210133Y-85606893D01*
X123197520Y-85585849D01*
X123187030Y-85563671D01*
X123178765Y-85540571D01*
X123172804Y-85516773D01*
X123169204Y-85492504D01*
X123168000Y-85468000D01*
X123168000Y-84718000D01*
X123169204Y-84693496D01*
X123172804Y-84669227D01*
X123178765Y-84645429D01*
X123187030Y-84622329D01*
X123197520Y-84600151D01*
X123210133Y-84579107D01*
X123224747Y-84559402D01*
X123241223Y-84541223D01*
X123259402Y-84524747D01*
X123279107Y-84510133D01*
X123300151Y-84497520D01*
X123322329Y-84487030D01*
X123345429Y-84478765D01*
X123369227Y-84472804D01*
X123393496Y-84469204D01*
X123418000Y-84468000D01*
X124668000Y-84468000D01*
X124692504Y-84469204D01*
G37*
G36*
X111146504Y-99547204D02*
G01*
X111170773Y-99550804D01*
X111194571Y-99556765D01*
X111217671Y-99565030D01*
X111239849Y-99575520D01*
X111260893Y-99588133D01*
X111280598Y-99602747D01*
X111298777Y-99619223D01*
X111315253Y-99637402D01*
X111329867Y-99657107D01*
X111342480Y-99678151D01*
X111352970Y-99700329D01*
X111361235Y-99723429D01*
X111367196Y-99747227D01*
X111370796Y-99771496D01*
X111372000Y-99796000D01*
X111372000Y-101046000D01*
X111370796Y-101070504D01*
X111367196Y-101094773D01*
X111361235Y-101118571D01*
X111352970Y-101141671D01*
X111342480Y-101163849D01*
X111329867Y-101184893D01*
X111315253Y-101204598D01*
X111298777Y-101222777D01*
X111280598Y-101239253D01*
X111260893Y-101253867D01*
X111239849Y-101266480D01*
X111217671Y-101276970D01*
X111194571Y-101285235D01*
X111170773Y-101291196D01*
X111146504Y-101294796D01*
X111122000Y-101296000D01*
X110372000Y-101296000D01*
X110347496Y-101294796D01*
X110323227Y-101291196D01*
X110299429Y-101285235D01*
X110276329Y-101276970D01*
X110254151Y-101266480D01*
X110233107Y-101253867D01*
X110213402Y-101239253D01*
X110195223Y-101222777D01*
X110178747Y-101204598D01*
X110164133Y-101184893D01*
X110151520Y-101163849D01*
X110141030Y-101141671D01*
X110132765Y-101118571D01*
X110126804Y-101094773D01*
X110123204Y-101070504D01*
X110122000Y-101046000D01*
X110122000Y-99796000D01*
X110123204Y-99771496D01*
X110126804Y-99747227D01*
X110132765Y-99723429D01*
X110141030Y-99700329D01*
X110151520Y-99678151D01*
X110164133Y-99657107D01*
X110178747Y-99637402D01*
X110195223Y-99619223D01*
X110213402Y-99602747D01*
X110233107Y-99588133D01*
X110254151Y-99575520D01*
X110276329Y-99565030D01*
X110299429Y-99556765D01*
X110323227Y-99550804D01*
X110347496Y-99547204D01*
X110372000Y-99546000D01*
X111122000Y-99546000D01*
X111146504Y-99547204D01*
G37*
G36*
X108346504Y-99547204D02*
G01*
X108370773Y-99550804D01*
X108394571Y-99556765D01*
X108417671Y-99565030D01*
X108439849Y-99575520D01*
X108460893Y-99588133D01*
X108480598Y-99602747D01*
X108498777Y-99619223D01*
X108515253Y-99637402D01*
X108529867Y-99657107D01*
X108542480Y-99678151D01*
X108552970Y-99700329D01*
X108561235Y-99723429D01*
X108567196Y-99747227D01*
X108570796Y-99771496D01*
X108572000Y-99796000D01*
X108572000Y-101046000D01*
X108570796Y-101070504D01*
X108567196Y-101094773D01*
X108561235Y-101118571D01*
X108552970Y-101141671D01*
X108542480Y-101163849D01*
X108529867Y-101184893D01*
X108515253Y-101204598D01*
X108498777Y-101222777D01*
X108480598Y-101239253D01*
X108460893Y-101253867D01*
X108439849Y-101266480D01*
X108417671Y-101276970D01*
X108394571Y-101285235D01*
X108370773Y-101291196D01*
X108346504Y-101294796D01*
X108322000Y-101296000D01*
X107572000Y-101296000D01*
X107547496Y-101294796D01*
X107523227Y-101291196D01*
X107499429Y-101285235D01*
X107476329Y-101276970D01*
X107454151Y-101266480D01*
X107433107Y-101253867D01*
X107413402Y-101239253D01*
X107395223Y-101222777D01*
X107378747Y-101204598D01*
X107364133Y-101184893D01*
X107351520Y-101163849D01*
X107341030Y-101141671D01*
X107332765Y-101118571D01*
X107326804Y-101094773D01*
X107323204Y-101070504D01*
X107322000Y-101046000D01*
X107322000Y-99796000D01*
X107323204Y-99771496D01*
X107326804Y-99747227D01*
X107332765Y-99723429D01*
X107341030Y-99700329D01*
X107351520Y-99678151D01*
X107364133Y-99657107D01*
X107378747Y-99637402D01*
X107395223Y-99619223D01*
X107413402Y-99602747D01*
X107433107Y-99588133D01*
X107454151Y-99575520D01*
X107476329Y-99565030D01*
X107499429Y-99556765D01*
X107523227Y-99550804D01*
X107547496Y-99547204D01*
X107572000Y-99546000D01*
X108322000Y-99546000D01*
X108346504Y-99547204D01*
G37*
G36*
X111139504Y-106056204D02*
G01*
X111163773Y-106059804D01*
X111187571Y-106065765D01*
X111210671Y-106074030D01*
X111232849Y-106084520D01*
X111253893Y-106097133D01*
X111273598Y-106111747D01*
X111291777Y-106128223D01*
X111308253Y-106146402D01*
X111322867Y-106166107D01*
X111335480Y-106187151D01*
X111345970Y-106209329D01*
X111354235Y-106232429D01*
X111360196Y-106256227D01*
X111363796Y-106280496D01*
X111365000Y-106305000D01*
X111365000Y-107055000D01*
X111363796Y-107079504D01*
X111360196Y-107103773D01*
X111354235Y-107127571D01*
X111345970Y-107150671D01*
X111335480Y-107172849D01*
X111322867Y-107193893D01*
X111308253Y-107213598D01*
X111291777Y-107231777D01*
X111273598Y-107248253D01*
X111253893Y-107262867D01*
X111232849Y-107275480D01*
X111210671Y-107285970D01*
X111187571Y-107294235D01*
X111163773Y-107300196D01*
X111139504Y-107303796D01*
X111115000Y-107305000D01*
X109865000Y-107305000D01*
X109840496Y-107303796D01*
X109816227Y-107300196D01*
X109792429Y-107294235D01*
X109769329Y-107285970D01*
X109747151Y-107275480D01*
X109726107Y-107262867D01*
X109706402Y-107248253D01*
X109688223Y-107231777D01*
X109671747Y-107213598D01*
X109657133Y-107193893D01*
X109644520Y-107172849D01*
X109634030Y-107150671D01*
X109625765Y-107127571D01*
X109619804Y-107103773D01*
X109616204Y-107079504D01*
X109615000Y-107055000D01*
X109615000Y-106305000D01*
X109616204Y-106280496D01*
X109619804Y-106256227D01*
X109625765Y-106232429D01*
X109634030Y-106209329D01*
X109644520Y-106187151D01*
X109657133Y-106166107D01*
X109671747Y-106146402D01*
X109688223Y-106128223D01*
X109706402Y-106111747D01*
X109726107Y-106097133D01*
X109747151Y-106084520D01*
X109769329Y-106074030D01*
X109792429Y-106065765D01*
X109816227Y-106059804D01*
X109840496Y-106056204D01*
X109865000Y-106055000D01*
X111115000Y-106055000D01*
X111139504Y-106056204D01*
G37*
G36*
X111139504Y-103256204D02*
G01*
X111163773Y-103259804D01*
X111187571Y-103265765D01*
X111210671Y-103274030D01*
X111232849Y-103284520D01*
X111253893Y-103297133D01*
X111273598Y-103311747D01*
X111291777Y-103328223D01*
X111308253Y-103346402D01*
X111322867Y-103366107D01*
X111335480Y-103387151D01*
X111345970Y-103409329D01*
X111354235Y-103432429D01*
X111360196Y-103456227D01*
X111363796Y-103480496D01*
X111365000Y-103505000D01*
X111365000Y-104255000D01*
X111363796Y-104279504D01*
X111360196Y-104303773D01*
X111354235Y-104327571D01*
X111345970Y-104350671D01*
X111335480Y-104372849D01*
X111322867Y-104393893D01*
X111308253Y-104413598D01*
X111291777Y-104431777D01*
X111273598Y-104448253D01*
X111253893Y-104462867D01*
X111232849Y-104475480D01*
X111210671Y-104485970D01*
X111187571Y-104494235D01*
X111163773Y-104500196D01*
X111139504Y-104503796D01*
X111115000Y-104505000D01*
X109865000Y-104505000D01*
X109840496Y-104503796D01*
X109816227Y-104500196D01*
X109792429Y-104494235D01*
X109769329Y-104485970D01*
X109747151Y-104475480D01*
X109726107Y-104462867D01*
X109706402Y-104448253D01*
X109688223Y-104431777D01*
X109671747Y-104413598D01*
X109657133Y-104393893D01*
X109644520Y-104372849D01*
X109634030Y-104350671D01*
X109625765Y-104327571D01*
X109619804Y-104303773D01*
X109616204Y-104279504D01*
X109615000Y-104255000D01*
X109615000Y-103505000D01*
X109616204Y-103480496D01*
X109619804Y-103456227D01*
X109625765Y-103432429D01*
X109634030Y-103409329D01*
X109644520Y-103387151D01*
X109657133Y-103366107D01*
X109671747Y-103346402D01*
X109688223Y-103328223D01*
X109706402Y-103311747D01*
X109726107Y-103297133D01*
X109747151Y-103284520D01*
X109769329Y-103274030D01*
X109792429Y-103265765D01*
X109816227Y-103259804D01*
X109840496Y-103256204D01*
X109865000Y-103255000D01*
X111115000Y-103255000D01*
X111139504Y-103256204D01*
G37*
D25*
X142272000Y-100096000D03*
X146022000Y-100096000D03*
D10*
G36*
X123764504Y-68769204D02*
G01*
X123788773Y-68772804D01*
X123812571Y-68778765D01*
X123835671Y-68787030D01*
X123857849Y-68797520D01*
X123878893Y-68810133D01*
X123898598Y-68824747D01*
X123916777Y-68841223D01*
X123933253Y-68859402D01*
X123947867Y-68879107D01*
X123960480Y-68900151D01*
X123970970Y-68922329D01*
X123979235Y-68945429D01*
X123985196Y-68969227D01*
X123988796Y-68993496D01*
X123990000Y-69018000D01*
X123990000Y-72018000D01*
X123988796Y-72042504D01*
X123985196Y-72066773D01*
X123979235Y-72090571D01*
X123970970Y-72113671D01*
X123960480Y-72135849D01*
X123947867Y-72156893D01*
X123933253Y-72176598D01*
X123916777Y-72194777D01*
X123898598Y-72211253D01*
X123878893Y-72225867D01*
X123857849Y-72238480D01*
X123835671Y-72248970D01*
X123812571Y-72257235D01*
X123788773Y-72263196D01*
X123764504Y-72266796D01*
X123740000Y-72268000D01*
X122640000Y-72268000D01*
X122615496Y-72266796D01*
X122591227Y-72263196D01*
X122567429Y-72257235D01*
X122544329Y-72248970D01*
X122522151Y-72238480D01*
X122501107Y-72225867D01*
X122481402Y-72211253D01*
X122463223Y-72194777D01*
X122446747Y-72176598D01*
X122432133Y-72156893D01*
X122419520Y-72135849D01*
X122409030Y-72113671D01*
X122400765Y-72090571D01*
X122394804Y-72066773D01*
X122391204Y-72042504D01*
X122390000Y-72018000D01*
X122390000Y-69018000D01*
X122391204Y-68993496D01*
X122394804Y-68969227D01*
X122400765Y-68945429D01*
X122409030Y-68922329D01*
X122419520Y-68900151D01*
X122432133Y-68879107D01*
X122446747Y-68859402D01*
X122463223Y-68841223D01*
X122481402Y-68824747D01*
X122501107Y-68810133D01*
X122522151Y-68797520D01*
X122544329Y-68787030D01*
X122567429Y-68778765D01*
X122591227Y-68772804D01*
X122615496Y-68769204D01*
X122640000Y-68768000D01*
X123740000Y-68768000D01*
X123764504Y-68769204D01*
G37*
G36*
X123764504Y-63369204D02*
G01*
X123788773Y-63372804D01*
X123812571Y-63378765D01*
X123835671Y-63387030D01*
X123857849Y-63397520D01*
X123878893Y-63410133D01*
X123898598Y-63424747D01*
X123916777Y-63441223D01*
X123933253Y-63459402D01*
X123947867Y-63479107D01*
X123960480Y-63500151D01*
X123970970Y-63522329D01*
X123979235Y-63545429D01*
X123985196Y-63569227D01*
X123988796Y-63593496D01*
X123990000Y-63618000D01*
X123990000Y-66618000D01*
X123988796Y-66642504D01*
X123985196Y-66666773D01*
X123979235Y-66690571D01*
X123970970Y-66713671D01*
X123960480Y-66735849D01*
X123947867Y-66756893D01*
X123933253Y-66776598D01*
X123916777Y-66794777D01*
X123898598Y-66811253D01*
X123878893Y-66825867D01*
X123857849Y-66838480D01*
X123835671Y-66848970D01*
X123812571Y-66857235D01*
X123788773Y-66863196D01*
X123764504Y-66866796D01*
X123740000Y-66868000D01*
X122640000Y-66868000D01*
X122615496Y-66866796D01*
X122591227Y-66863196D01*
X122567429Y-66857235D01*
X122544329Y-66848970D01*
X122522151Y-66838480D01*
X122501107Y-66825867D01*
X122481402Y-66811253D01*
X122463223Y-66794777D01*
X122446747Y-66776598D01*
X122432133Y-66756893D01*
X122419520Y-66735849D01*
X122409030Y-66713671D01*
X122400765Y-66690571D01*
X122394804Y-66666773D01*
X122391204Y-66642504D01*
X122390000Y-66618000D01*
X122390000Y-63618000D01*
X122391204Y-63593496D01*
X122394804Y-63569227D01*
X122400765Y-63545429D01*
X122409030Y-63522329D01*
X122419520Y-63500151D01*
X122432133Y-63479107D01*
X122446747Y-63459402D01*
X122463223Y-63441223D01*
X122481402Y-63424747D01*
X122501107Y-63410133D01*
X122522151Y-63397520D01*
X122544329Y-63387030D01*
X122567429Y-63378765D01*
X122591227Y-63372804D01*
X122615496Y-63369204D01*
X122640000Y-63368000D01*
X123740000Y-63368000D01*
X123764504Y-63369204D01*
G37*
G36*
X201234504Y-108581204D02*
G01*
X201258773Y-108584804D01*
X201282571Y-108590765D01*
X201305671Y-108599030D01*
X201327849Y-108609520D01*
X201348893Y-108622133D01*
X201368598Y-108636747D01*
X201386777Y-108653223D01*
X201403253Y-108671402D01*
X201417867Y-108691107D01*
X201430480Y-108712151D01*
X201440970Y-108734329D01*
X201449235Y-108757429D01*
X201455196Y-108781227D01*
X201458796Y-108805496D01*
X201460000Y-108830000D01*
X201460000Y-111830000D01*
X201458796Y-111854504D01*
X201455196Y-111878773D01*
X201449235Y-111902571D01*
X201440970Y-111925671D01*
X201430480Y-111947849D01*
X201417867Y-111968893D01*
X201403253Y-111988598D01*
X201386777Y-112006777D01*
X201368598Y-112023253D01*
X201348893Y-112037867D01*
X201327849Y-112050480D01*
X201305671Y-112060970D01*
X201282571Y-112069235D01*
X201258773Y-112075196D01*
X201234504Y-112078796D01*
X201210000Y-112080000D01*
X200110000Y-112080000D01*
X200085496Y-112078796D01*
X200061227Y-112075196D01*
X200037429Y-112069235D01*
X200014329Y-112060970D01*
X199992151Y-112050480D01*
X199971107Y-112037867D01*
X199951402Y-112023253D01*
X199933223Y-112006777D01*
X199916747Y-111988598D01*
X199902133Y-111968893D01*
X199889520Y-111947849D01*
X199879030Y-111925671D01*
X199870765Y-111902571D01*
X199864804Y-111878773D01*
X199861204Y-111854504D01*
X199860000Y-111830000D01*
X199860000Y-108830000D01*
X199861204Y-108805496D01*
X199864804Y-108781227D01*
X199870765Y-108757429D01*
X199879030Y-108734329D01*
X199889520Y-108712151D01*
X199902133Y-108691107D01*
X199916747Y-108671402D01*
X199933223Y-108653223D01*
X199951402Y-108636747D01*
X199971107Y-108622133D01*
X199992151Y-108609520D01*
X200014329Y-108599030D01*
X200037429Y-108590765D01*
X200061227Y-108584804D01*
X200085496Y-108581204D01*
X200110000Y-108580000D01*
X201210000Y-108580000D01*
X201234504Y-108581204D01*
G37*
G36*
X201234504Y-113981204D02*
G01*
X201258773Y-113984804D01*
X201282571Y-113990765D01*
X201305671Y-113999030D01*
X201327849Y-114009520D01*
X201348893Y-114022133D01*
X201368598Y-114036747D01*
X201386777Y-114053223D01*
X201403253Y-114071402D01*
X201417867Y-114091107D01*
X201430480Y-114112151D01*
X201440970Y-114134329D01*
X201449235Y-114157429D01*
X201455196Y-114181227D01*
X201458796Y-114205496D01*
X201460000Y-114230000D01*
X201460000Y-117230000D01*
X201458796Y-117254504D01*
X201455196Y-117278773D01*
X201449235Y-117302571D01*
X201440970Y-117325671D01*
X201430480Y-117347849D01*
X201417867Y-117368893D01*
X201403253Y-117388598D01*
X201386777Y-117406777D01*
X201368598Y-117423253D01*
X201348893Y-117437867D01*
X201327849Y-117450480D01*
X201305671Y-117460970D01*
X201282571Y-117469235D01*
X201258773Y-117475196D01*
X201234504Y-117478796D01*
X201210000Y-117480000D01*
X200110000Y-117480000D01*
X200085496Y-117478796D01*
X200061227Y-117475196D01*
X200037429Y-117469235D01*
X200014329Y-117460970D01*
X199992151Y-117450480D01*
X199971107Y-117437867D01*
X199951402Y-117423253D01*
X199933223Y-117406777D01*
X199916747Y-117388598D01*
X199902133Y-117368893D01*
X199889520Y-117347849D01*
X199879030Y-117325671D01*
X199870765Y-117302571D01*
X199864804Y-117278773D01*
X199861204Y-117254504D01*
X199860000Y-117230000D01*
X199860000Y-114230000D01*
X199861204Y-114205496D01*
X199864804Y-114181227D01*
X199870765Y-114157429D01*
X199879030Y-114134329D01*
X199889520Y-114112151D01*
X199902133Y-114091107D01*
X199916747Y-114071402D01*
X199933223Y-114053223D01*
X199951402Y-114036747D01*
X199971107Y-114022133D01*
X199992151Y-114009520D01*
X200014329Y-113999030D01*
X200037429Y-113990765D01*
X200061227Y-113984804D01*
X200085496Y-113981204D01*
X200110000Y-113980000D01*
X201210000Y-113980000D01*
X201234504Y-113981204D01*
G37*
D26*
X109982000Y-84582000D03*
D27*
X102362000Y-84582000D03*
D10*
G36*
X160549504Y-96880204D02*
G01*
X160573773Y-96883804D01*
X160597571Y-96889765D01*
X160620671Y-96898030D01*
X160642849Y-96908520D01*
X160663893Y-96921133D01*
X160683598Y-96935747D01*
X160701777Y-96952223D01*
X160718253Y-96970402D01*
X160732867Y-96990107D01*
X160745480Y-97011151D01*
X160755970Y-97033329D01*
X160764235Y-97056429D01*
X160770196Y-97080227D01*
X160773796Y-97104496D01*
X160775000Y-97129000D01*
X160775000Y-98379000D01*
X160773796Y-98403504D01*
X160770196Y-98427773D01*
X160764235Y-98451571D01*
X160755970Y-98474671D01*
X160745480Y-98496849D01*
X160732867Y-98517893D01*
X160718253Y-98537598D01*
X160701777Y-98555777D01*
X160683598Y-98572253D01*
X160663893Y-98586867D01*
X160642849Y-98599480D01*
X160620671Y-98609970D01*
X160597571Y-98618235D01*
X160573773Y-98624196D01*
X160549504Y-98627796D01*
X160525000Y-98629000D01*
X159775000Y-98629000D01*
X159750496Y-98627796D01*
X159726227Y-98624196D01*
X159702429Y-98618235D01*
X159679329Y-98609970D01*
X159657151Y-98599480D01*
X159636107Y-98586867D01*
X159616402Y-98572253D01*
X159598223Y-98555777D01*
X159581747Y-98537598D01*
X159567133Y-98517893D01*
X159554520Y-98496849D01*
X159544030Y-98474671D01*
X159535765Y-98451571D01*
X159529804Y-98427773D01*
X159526204Y-98403504D01*
X159525000Y-98379000D01*
X159525000Y-97129000D01*
X159526204Y-97104496D01*
X159529804Y-97080227D01*
X159535765Y-97056429D01*
X159544030Y-97033329D01*
X159554520Y-97011151D01*
X159567133Y-96990107D01*
X159581747Y-96970402D01*
X159598223Y-96952223D01*
X159616402Y-96935747D01*
X159636107Y-96921133D01*
X159657151Y-96908520D01*
X159679329Y-96898030D01*
X159702429Y-96889765D01*
X159726227Y-96883804D01*
X159750496Y-96880204D01*
X159775000Y-96879000D01*
X160525000Y-96879000D01*
X160549504Y-96880204D01*
G37*
G36*
X157749504Y-96880204D02*
G01*
X157773773Y-96883804D01*
X157797571Y-96889765D01*
X157820671Y-96898030D01*
X157842849Y-96908520D01*
X157863893Y-96921133D01*
X157883598Y-96935747D01*
X157901777Y-96952223D01*
X157918253Y-96970402D01*
X157932867Y-96990107D01*
X157945480Y-97011151D01*
X157955970Y-97033329D01*
X157964235Y-97056429D01*
X157970196Y-97080227D01*
X157973796Y-97104496D01*
X157975000Y-97129000D01*
X157975000Y-98379000D01*
X157973796Y-98403504D01*
X157970196Y-98427773D01*
X157964235Y-98451571D01*
X157955970Y-98474671D01*
X157945480Y-98496849D01*
X157932867Y-98517893D01*
X157918253Y-98537598D01*
X157901777Y-98555777D01*
X157883598Y-98572253D01*
X157863893Y-98586867D01*
X157842849Y-98599480D01*
X157820671Y-98609970D01*
X157797571Y-98618235D01*
X157773773Y-98624196D01*
X157749504Y-98627796D01*
X157725000Y-98629000D01*
X156975000Y-98629000D01*
X156950496Y-98627796D01*
X156926227Y-98624196D01*
X156902429Y-98618235D01*
X156879329Y-98609970D01*
X156857151Y-98599480D01*
X156836107Y-98586867D01*
X156816402Y-98572253D01*
X156798223Y-98555777D01*
X156781747Y-98537598D01*
X156767133Y-98517893D01*
X156754520Y-98496849D01*
X156744030Y-98474671D01*
X156735765Y-98451571D01*
X156729804Y-98427773D01*
X156726204Y-98403504D01*
X156725000Y-98379000D01*
X156725000Y-97129000D01*
X156726204Y-97104496D01*
X156729804Y-97080227D01*
X156735765Y-97056429D01*
X156744030Y-97033329D01*
X156754520Y-97011151D01*
X156767133Y-96990107D01*
X156781747Y-96970402D01*
X156798223Y-96952223D01*
X156816402Y-96935747D01*
X156836107Y-96921133D01*
X156857151Y-96908520D01*
X156879329Y-96898030D01*
X156902429Y-96889765D01*
X156926227Y-96883804D01*
X156950496Y-96880204D01*
X156975000Y-96879000D01*
X157725000Y-96879000D01*
X157749504Y-96880204D01*
G37*
G36*
X157495504Y-66218204D02*
G01*
X157519773Y-66221804D01*
X157543571Y-66227765D01*
X157566671Y-66236030D01*
X157588849Y-66246520D01*
X157609893Y-66259133D01*
X157629598Y-66273747D01*
X157647777Y-66290223D01*
X157664253Y-66308402D01*
X157678867Y-66328107D01*
X157691480Y-66349151D01*
X157701970Y-66371329D01*
X157710235Y-66394429D01*
X157716196Y-66418227D01*
X157719796Y-66442496D01*
X157721000Y-66467000D01*
X157721000Y-67717000D01*
X157719796Y-67741504D01*
X157716196Y-67765773D01*
X157710235Y-67789571D01*
X157701970Y-67812671D01*
X157691480Y-67834849D01*
X157678867Y-67855893D01*
X157664253Y-67875598D01*
X157647777Y-67893777D01*
X157629598Y-67910253D01*
X157609893Y-67924867D01*
X157588849Y-67937480D01*
X157566671Y-67947970D01*
X157543571Y-67956235D01*
X157519773Y-67962196D01*
X157495504Y-67965796D01*
X157471000Y-67967000D01*
X156721000Y-67967000D01*
X156696496Y-67965796D01*
X156672227Y-67962196D01*
X156648429Y-67956235D01*
X156625329Y-67947970D01*
X156603151Y-67937480D01*
X156582107Y-67924867D01*
X156562402Y-67910253D01*
X156544223Y-67893777D01*
X156527747Y-67875598D01*
X156513133Y-67855893D01*
X156500520Y-67834849D01*
X156490030Y-67812671D01*
X156481765Y-67789571D01*
X156475804Y-67765773D01*
X156472204Y-67741504D01*
X156471000Y-67717000D01*
X156471000Y-66467000D01*
X156472204Y-66442496D01*
X156475804Y-66418227D01*
X156481765Y-66394429D01*
X156490030Y-66371329D01*
X156500520Y-66349151D01*
X156513133Y-66328107D01*
X156527747Y-66308402D01*
X156544223Y-66290223D01*
X156562402Y-66273747D01*
X156582107Y-66259133D01*
X156603151Y-66246520D01*
X156625329Y-66236030D01*
X156648429Y-66227765D01*
X156672227Y-66221804D01*
X156696496Y-66218204D01*
X156721000Y-66217000D01*
X157471000Y-66217000D01*
X157495504Y-66218204D01*
G37*
G36*
X160295504Y-66218204D02*
G01*
X160319773Y-66221804D01*
X160343571Y-66227765D01*
X160366671Y-66236030D01*
X160388849Y-66246520D01*
X160409893Y-66259133D01*
X160429598Y-66273747D01*
X160447777Y-66290223D01*
X160464253Y-66308402D01*
X160478867Y-66328107D01*
X160491480Y-66349151D01*
X160501970Y-66371329D01*
X160510235Y-66394429D01*
X160516196Y-66418227D01*
X160519796Y-66442496D01*
X160521000Y-66467000D01*
X160521000Y-67717000D01*
X160519796Y-67741504D01*
X160516196Y-67765773D01*
X160510235Y-67789571D01*
X160501970Y-67812671D01*
X160491480Y-67834849D01*
X160478867Y-67855893D01*
X160464253Y-67875598D01*
X160447777Y-67893777D01*
X160429598Y-67910253D01*
X160409893Y-67924867D01*
X160388849Y-67937480D01*
X160366671Y-67947970D01*
X160343571Y-67956235D01*
X160319773Y-67962196D01*
X160295504Y-67965796D01*
X160271000Y-67967000D01*
X159521000Y-67967000D01*
X159496496Y-67965796D01*
X159472227Y-67962196D01*
X159448429Y-67956235D01*
X159425329Y-67947970D01*
X159403151Y-67937480D01*
X159382107Y-67924867D01*
X159362402Y-67910253D01*
X159344223Y-67893777D01*
X159327747Y-67875598D01*
X159313133Y-67855893D01*
X159300520Y-67834849D01*
X159290030Y-67812671D01*
X159281765Y-67789571D01*
X159275804Y-67765773D01*
X159272204Y-67741504D01*
X159271000Y-67717000D01*
X159271000Y-66467000D01*
X159272204Y-66442496D01*
X159275804Y-66418227D01*
X159281765Y-66394429D01*
X159290030Y-66371329D01*
X159300520Y-66349151D01*
X159313133Y-66328107D01*
X159327747Y-66308402D01*
X159344223Y-66290223D01*
X159362402Y-66273747D01*
X159382107Y-66259133D01*
X159403151Y-66246520D01*
X159425329Y-66236030D01*
X159448429Y-66227765D01*
X159472227Y-66221804D01*
X159496496Y-66218204D01*
X159521000Y-66217000D01*
X160271000Y-66217000D01*
X160295504Y-66218204D01*
G37*
G36*
X149783504Y-68848204D02*
G01*
X149807773Y-68851804D01*
X149831571Y-68857765D01*
X149854671Y-68866030D01*
X149876849Y-68876520D01*
X149897893Y-68889133D01*
X149917598Y-68903747D01*
X149935777Y-68920223D01*
X149952253Y-68938402D01*
X149966867Y-68958107D01*
X149979480Y-68979151D01*
X149989970Y-69001329D01*
X149998235Y-69024429D01*
X150004196Y-69048227D01*
X150007796Y-69072496D01*
X150009000Y-69097000D01*
X150009000Y-69847000D01*
X150007796Y-69871504D01*
X150004196Y-69895773D01*
X149998235Y-69919571D01*
X149989970Y-69942671D01*
X149979480Y-69964849D01*
X149966867Y-69985893D01*
X149952253Y-70005598D01*
X149935777Y-70023777D01*
X149917598Y-70040253D01*
X149897893Y-70054867D01*
X149876849Y-70067480D01*
X149854671Y-70077970D01*
X149831571Y-70086235D01*
X149807773Y-70092196D01*
X149783504Y-70095796D01*
X149759000Y-70097000D01*
X148509000Y-70097000D01*
X148484496Y-70095796D01*
X148460227Y-70092196D01*
X148436429Y-70086235D01*
X148413329Y-70077970D01*
X148391151Y-70067480D01*
X148370107Y-70054867D01*
X148350402Y-70040253D01*
X148332223Y-70023777D01*
X148315747Y-70005598D01*
X148301133Y-69985893D01*
X148288520Y-69964849D01*
X148278030Y-69942671D01*
X148269765Y-69919571D01*
X148263804Y-69895773D01*
X148260204Y-69871504D01*
X148259000Y-69847000D01*
X148259000Y-69097000D01*
X148260204Y-69072496D01*
X148263804Y-69048227D01*
X148269765Y-69024429D01*
X148278030Y-69001329D01*
X148288520Y-68979151D01*
X148301133Y-68958107D01*
X148315747Y-68938402D01*
X148332223Y-68920223D01*
X148350402Y-68903747D01*
X148370107Y-68889133D01*
X148391151Y-68876520D01*
X148413329Y-68866030D01*
X148436429Y-68857765D01*
X148460227Y-68851804D01*
X148484496Y-68848204D01*
X148509000Y-68847000D01*
X149759000Y-68847000D01*
X149783504Y-68848204D01*
G37*
G36*
X149783504Y-66048204D02*
G01*
X149807773Y-66051804D01*
X149831571Y-66057765D01*
X149854671Y-66066030D01*
X149876849Y-66076520D01*
X149897893Y-66089133D01*
X149917598Y-66103747D01*
X149935777Y-66120223D01*
X149952253Y-66138402D01*
X149966867Y-66158107D01*
X149979480Y-66179151D01*
X149989970Y-66201329D01*
X149998235Y-66224429D01*
X150004196Y-66248227D01*
X150007796Y-66272496D01*
X150009000Y-66297000D01*
X150009000Y-67047000D01*
X150007796Y-67071504D01*
X150004196Y-67095773D01*
X149998235Y-67119571D01*
X149989970Y-67142671D01*
X149979480Y-67164849D01*
X149966867Y-67185893D01*
X149952253Y-67205598D01*
X149935777Y-67223777D01*
X149917598Y-67240253D01*
X149897893Y-67254867D01*
X149876849Y-67267480D01*
X149854671Y-67277970D01*
X149831571Y-67286235D01*
X149807773Y-67292196D01*
X149783504Y-67295796D01*
X149759000Y-67297000D01*
X148509000Y-67297000D01*
X148484496Y-67295796D01*
X148460227Y-67292196D01*
X148436429Y-67286235D01*
X148413329Y-67277970D01*
X148391151Y-67267480D01*
X148370107Y-67254867D01*
X148350402Y-67240253D01*
X148332223Y-67223777D01*
X148315747Y-67205598D01*
X148301133Y-67185893D01*
X148288520Y-67164849D01*
X148278030Y-67142671D01*
X148269765Y-67119571D01*
X148263804Y-67095773D01*
X148260204Y-67071504D01*
X148259000Y-67047000D01*
X148259000Y-66297000D01*
X148260204Y-66272496D01*
X148263804Y-66248227D01*
X148269765Y-66224429D01*
X148278030Y-66201329D01*
X148288520Y-66179151D01*
X148301133Y-66158107D01*
X148315747Y-66138402D01*
X148332223Y-66120223D01*
X148350402Y-66103747D01*
X148370107Y-66089133D01*
X148391151Y-66076520D01*
X148413329Y-66066030D01*
X148436429Y-66057765D01*
X148460227Y-66051804D01*
X148484496Y-66048204D01*
X148509000Y-66047000D01*
X149759000Y-66047000D01*
X149783504Y-66048204D01*
G37*
G36*
X142391504Y-61864204D02*
G01*
X142415773Y-61867804D01*
X142439571Y-61873765D01*
X142462671Y-61882030D01*
X142484849Y-61892520D01*
X142505893Y-61905133D01*
X142525598Y-61919747D01*
X142543777Y-61936223D01*
X142560253Y-61954402D01*
X142574867Y-61974107D01*
X142587480Y-61995151D01*
X142597970Y-62017329D01*
X142606235Y-62040429D01*
X142612196Y-62064227D01*
X142615796Y-62088496D01*
X142617000Y-62113000D01*
X142617000Y-63363000D01*
X142615796Y-63387504D01*
X142612196Y-63411773D01*
X142606235Y-63435571D01*
X142597970Y-63458671D01*
X142587480Y-63480849D01*
X142574867Y-63501893D01*
X142560253Y-63521598D01*
X142543777Y-63539777D01*
X142525598Y-63556253D01*
X142505893Y-63570867D01*
X142484849Y-63583480D01*
X142462671Y-63593970D01*
X142439571Y-63602235D01*
X142415773Y-63608196D01*
X142391504Y-63611796D01*
X142367000Y-63613000D01*
X141617000Y-63613000D01*
X141592496Y-63611796D01*
X141568227Y-63608196D01*
X141544429Y-63602235D01*
X141521329Y-63593970D01*
X141499151Y-63583480D01*
X141478107Y-63570867D01*
X141458402Y-63556253D01*
X141440223Y-63539777D01*
X141423747Y-63521598D01*
X141409133Y-63501893D01*
X141396520Y-63480849D01*
X141386030Y-63458671D01*
X141377765Y-63435571D01*
X141371804Y-63411773D01*
X141368204Y-63387504D01*
X141367000Y-63363000D01*
X141367000Y-62113000D01*
X141368204Y-62088496D01*
X141371804Y-62064227D01*
X141377765Y-62040429D01*
X141386030Y-62017329D01*
X141396520Y-61995151D01*
X141409133Y-61974107D01*
X141423747Y-61954402D01*
X141440223Y-61936223D01*
X141458402Y-61919747D01*
X141478107Y-61905133D01*
X141499151Y-61892520D01*
X141521329Y-61882030D01*
X141544429Y-61873765D01*
X141568227Y-61867804D01*
X141592496Y-61864204D01*
X141617000Y-61863000D01*
X142367000Y-61863000D01*
X142391504Y-61864204D01*
G37*
G36*
X139591504Y-61864204D02*
G01*
X139615773Y-61867804D01*
X139639571Y-61873765D01*
X139662671Y-61882030D01*
X139684849Y-61892520D01*
X139705893Y-61905133D01*
X139725598Y-61919747D01*
X139743777Y-61936223D01*
X139760253Y-61954402D01*
X139774867Y-61974107D01*
X139787480Y-61995151D01*
X139797970Y-62017329D01*
X139806235Y-62040429D01*
X139812196Y-62064227D01*
X139815796Y-62088496D01*
X139817000Y-62113000D01*
X139817000Y-63363000D01*
X139815796Y-63387504D01*
X139812196Y-63411773D01*
X139806235Y-63435571D01*
X139797970Y-63458671D01*
X139787480Y-63480849D01*
X139774867Y-63501893D01*
X139760253Y-63521598D01*
X139743777Y-63539777D01*
X139725598Y-63556253D01*
X139705893Y-63570867D01*
X139684849Y-63583480D01*
X139662671Y-63593970D01*
X139639571Y-63602235D01*
X139615773Y-63608196D01*
X139591504Y-63611796D01*
X139567000Y-63613000D01*
X138817000Y-63613000D01*
X138792496Y-63611796D01*
X138768227Y-63608196D01*
X138744429Y-63602235D01*
X138721329Y-63593970D01*
X138699151Y-63583480D01*
X138678107Y-63570867D01*
X138658402Y-63556253D01*
X138640223Y-63539777D01*
X138623747Y-63521598D01*
X138609133Y-63501893D01*
X138596520Y-63480849D01*
X138586030Y-63458671D01*
X138577765Y-63435571D01*
X138571804Y-63411773D01*
X138568204Y-63387504D01*
X138567000Y-63363000D01*
X138567000Y-62113000D01*
X138568204Y-62088496D01*
X138571804Y-62064227D01*
X138577765Y-62040429D01*
X138586030Y-62017329D01*
X138596520Y-61995151D01*
X138609133Y-61974107D01*
X138623747Y-61954402D01*
X138640223Y-61936223D01*
X138658402Y-61919747D01*
X138678107Y-61905133D01*
X138699151Y-61892520D01*
X138721329Y-61882030D01*
X138744429Y-61873765D01*
X138768227Y-61867804D01*
X138792496Y-61864204D01*
X138817000Y-61863000D01*
X139567000Y-61863000D01*
X139591504Y-61864204D01*
G37*
G36*
X240813504Y-80878204D02*
G01*
X240837773Y-80881804D01*
X240861571Y-80887765D01*
X240884671Y-80896030D01*
X240906849Y-80906520D01*
X240927893Y-80919133D01*
X240947598Y-80933747D01*
X240965777Y-80950223D01*
X240982253Y-80968402D01*
X240996867Y-80988107D01*
X241009480Y-81009151D01*
X241019970Y-81031329D01*
X241028235Y-81054429D01*
X241034196Y-81078227D01*
X241037796Y-81102496D01*
X241039000Y-81127000D01*
X241039000Y-82377000D01*
X241037796Y-82401504D01*
X241034196Y-82425773D01*
X241028235Y-82449571D01*
X241019970Y-82472671D01*
X241009480Y-82494849D01*
X240996867Y-82515893D01*
X240982253Y-82535598D01*
X240965777Y-82553777D01*
X240947598Y-82570253D01*
X240927893Y-82584867D01*
X240906849Y-82597480D01*
X240884671Y-82607970D01*
X240861571Y-82616235D01*
X240837773Y-82622196D01*
X240813504Y-82625796D01*
X240789000Y-82627000D01*
X240039000Y-82627000D01*
X240014496Y-82625796D01*
X239990227Y-82622196D01*
X239966429Y-82616235D01*
X239943329Y-82607970D01*
X239921151Y-82597480D01*
X239900107Y-82584867D01*
X239880402Y-82570253D01*
X239862223Y-82553777D01*
X239845747Y-82535598D01*
X239831133Y-82515893D01*
X239818520Y-82494849D01*
X239808030Y-82472671D01*
X239799765Y-82449571D01*
X239793804Y-82425773D01*
X239790204Y-82401504D01*
X239789000Y-82377000D01*
X239789000Y-81127000D01*
X239790204Y-81102496D01*
X239793804Y-81078227D01*
X239799765Y-81054429D01*
X239808030Y-81031329D01*
X239818520Y-81009151D01*
X239831133Y-80988107D01*
X239845747Y-80968402D01*
X239862223Y-80950223D01*
X239880402Y-80933747D01*
X239900107Y-80919133D01*
X239921151Y-80906520D01*
X239943329Y-80896030D01*
X239966429Y-80887765D01*
X239990227Y-80881804D01*
X240014496Y-80878204D01*
X240039000Y-80877000D01*
X240789000Y-80877000D01*
X240813504Y-80878204D01*
G37*
G36*
X238013504Y-80878204D02*
G01*
X238037773Y-80881804D01*
X238061571Y-80887765D01*
X238084671Y-80896030D01*
X238106849Y-80906520D01*
X238127893Y-80919133D01*
X238147598Y-80933747D01*
X238165777Y-80950223D01*
X238182253Y-80968402D01*
X238196867Y-80988107D01*
X238209480Y-81009151D01*
X238219970Y-81031329D01*
X238228235Y-81054429D01*
X238234196Y-81078227D01*
X238237796Y-81102496D01*
X238239000Y-81127000D01*
X238239000Y-82377000D01*
X238237796Y-82401504D01*
X238234196Y-82425773D01*
X238228235Y-82449571D01*
X238219970Y-82472671D01*
X238209480Y-82494849D01*
X238196867Y-82515893D01*
X238182253Y-82535598D01*
X238165777Y-82553777D01*
X238147598Y-82570253D01*
X238127893Y-82584867D01*
X238106849Y-82597480D01*
X238084671Y-82607970D01*
X238061571Y-82616235D01*
X238037773Y-82622196D01*
X238013504Y-82625796D01*
X237989000Y-82627000D01*
X237239000Y-82627000D01*
X237214496Y-82625796D01*
X237190227Y-82622196D01*
X237166429Y-82616235D01*
X237143329Y-82607970D01*
X237121151Y-82597480D01*
X237100107Y-82584867D01*
X237080402Y-82570253D01*
X237062223Y-82553777D01*
X237045747Y-82535598D01*
X237031133Y-82515893D01*
X237018520Y-82494849D01*
X237008030Y-82472671D01*
X236999765Y-82449571D01*
X236993804Y-82425773D01*
X236990204Y-82401504D01*
X236989000Y-82377000D01*
X236989000Y-81127000D01*
X236990204Y-81102496D01*
X236993804Y-81078227D01*
X236999765Y-81054429D01*
X237008030Y-81031329D01*
X237018520Y-81009151D01*
X237031133Y-80988107D01*
X237045747Y-80968402D01*
X237062223Y-80950223D01*
X237080402Y-80933747D01*
X237100107Y-80919133D01*
X237121151Y-80906520D01*
X237143329Y-80896030D01*
X237166429Y-80887765D01*
X237190227Y-80881804D01*
X237214496Y-80878204D01*
X237239000Y-80877000D01*
X237989000Y-80877000D01*
X238013504Y-80878204D01*
G37*
M02*
