M48
; DRILL file {KiCad 5.1.12-unknown-nightly-202112011503} date Wed 19 Jan 2022 05:03:39 PM CST
; FORMAT={-:-/ absolute / metric / decimal}
; #@! TF.CreationDate,2022-01-19T17:03:39-06:00
; #@! TF.GenerationSoftware,Kicad,Pcbnew,5.1.12-unknown-nightly-202112011503
; #@! TF.FileFunction,Plated,1,2,PTH
FMAT,2
METRIC
T1C0.400
T2C0.700
T3C0.800
T4C2.200
%
G90
G05
T1
X84.5Y-49.5
X84.5Y-53.0
X84.5Y-74.0
X84.5Y-77.5
X84.5Y-81.5
X84.5Y-85.0
X84.5Y-109.0
X84.5Y-112.5
X89.5Y-49.5
X89.5Y-53.0
X89.5Y-74.0
X89.5Y-77.5
X89.5Y-85.0
X89.5Y-105.0
X89.5Y-109.0
X89.5Y-112.5
X94.5Y-49.5
X94.5Y-53.0
X94.5Y-105.0
X94.5Y-109.0
X94.5Y-112.5
X99.5Y-49.5
X99.5Y-53.0
X99.5Y-105.0
X99.5Y-109.0
X99.5Y-112.5
X104.5Y-49.5
X104.5Y-53.0
X104.5Y-105.0
X104.5Y-109.0
X104.5Y-112.5
X106.5Y-84.5
X106.5Y-91.5
X109.5Y-49.5
X109.5Y-53.0
X109.5Y-88.0
X109.5Y-109.0
X109.5Y-112.5
X112.0Y-91.5
X112.0Y-95.5
X112.0Y-99.0
X115.0Y-49.5
X115.0Y-53.5
X115.0Y-57.5
X115.0Y-61.5
X120.0Y-49.5
X120.0Y-53.5
X120.0Y-57.5
X120.0Y-61.5
X125.0Y-49.5
X125.0Y-53.5
X125.0Y-57.5
X125.0Y-61.5
X126.5Y-110.0
X127.0Y-84.5
X127.0Y-88.0
X127.0Y-91.5
X130.0Y-49.5
X130.0Y-53.5
X130.0Y-57.5
X130.0Y-61.5
X132.5Y-84.5
X132.5Y-88.0
X132.5Y-91.5
X135.0Y-49.5
X135.0Y-53.5
X135.0Y-57.5
X135.0Y-61.5
X151.0Y-113.0
X169.0Y-49.5
X169.0Y-53.5
X169.0Y-57.5
X169.0Y-61.5
X169.0Y-65.5
X169.0Y-70.0
X169.0Y-74.0
X169.0Y-78.0
X169.0Y-83.0
X169.0Y-87.0
X169.0Y-91.0
X174.0Y-49.5
X174.0Y-53.5
X174.0Y-57.5
X174.0Y-61.5
X174.0Y-65.5
X174.0Y-70.0
X174.0Y-74.0
X174.0Y-78.0
X174.0Y-83.0
X174.0Y-87.0
X174.0Y-91.0
X179.0Y-49.5
X179.0Y-53.5
X179.0Y-57.5
X179.0Y-61.5
X179.0Y-65.5
X179.0Y-70.0
X179.0Y-74.0
X179.0Y-78.0
X179.0Y-83.0
X179.0Y-87.0
X179.0Y-91.0
X184.0Y-49.5
X184.0Y-53.5
X184.0Y-57.5
X184.0Y-61.5
X184.0Y-65.5
X184.0Y-70.0
X184.0Y-74.0
X184.0Y-78.0
X189.0Y-49.5
X189.0Y-53.5
X189.0Y-57.5
X189.0Y-61.5
X189.0Y-65.5
X189.0Y-70.0
X189.0Y-74.0
X189.0Y-78.0
X194.0Y-49.5
X194.0Y-53.5
X194.0Y-57.5
X194.0Y-61.5
X194.0Y-65.5
X194.0Y-70.0
X194.0Y-74.0
X194.0Y-78.0
X199.0Y-49.5
X199.0Y-53.5
X199.0Y-57.5
X199.0Y-61.5
X199.0Y-65.5
X199.0Y-70.0
X199.0Y-74.0
X199.0Y-78.0
X204.0Y-49.5
X204.0Y-53.5
X204.0Y-57.5
X204.0Y-61.5
X204.0Y-65.5
T2
X102.0Y-69.0
X106.0Y-102.0
X109.5Y-59.0
X121.5Y-96.5
X132.4Y-97.9
X138.596Y-62.596
X154.688Y-56.312
X175.5Y-108.0
X199.5Y-102.0
T3
X87.376Y-97.536
X87.376Y-100.076
X87.58Y-64.08
X87.58Y-66.62
X96.0Y-81.0
X103.62Y-81.0
T4
X82.296Y-92.456
X82.296Y-102.616
X82.5Y-59.0
X82.5Y-69.16
T0
M30
