G04 #@! TF.GenerationSoftware,KiCad,Pcbnew,(5.1.5)-3*
G04 #@! TF.CreationDate,2022-01-19T16:01:21-06:00*
G04 #@! TF.ProjectId,70W-Amplifier,3730572d-416d-4706-9c69-666965722e6b,rev?*
G04 #@! TF.SameCoordinates,Original*
G04 #@! TF.FileFunction,Copper,L2,Bot*
G04 #@! TF.FilePolarity,Positive*
%FSLAX46Y46*%
G04 Gerber Fmt 4.6, Leading zero omitted, Abs format (unit mm)*
G04 Created by KiCad (PCBNEW (5.1.5)-3) date 2022-01-19 16:01:21*
%MOMM*%
%LPD*%
G04 APERTURE LIST*
%ADD10C,0.100000*%
%ADD11O,2.616000X1.308000*%
%ADD12C,3.216000*%
%ADD13O,1.600000X1.600000*%
%ADD14R,1.600000X1.600000*%
%ADD15C,0.800000*%
%ADD16C,1.200000*%
%ADD17C,1.000000*%
%ADD18C,2.000000*%
%ADD19C,0.254000*%
G04 APERTURE END LIST*
G04 #@! TA.AperFunction,SMDPad,CuDef*
D10*
G36*
X118384306Y-110001685D02*
G01*
X118418282Y-110006725D01*
X118451600Y-110015071D01*
X118483939Y-110026642D01*
X118514989Y-110041328D01*
X118544450Y-110058986D01*
X118572038Y-110079446D01*
X118597487Y-110102513D01*
X118620554Y-110127962D01*
X118641014Y-110155550D01*
X118658672Y-110185011D01*
X118673358Y-110216061D01*
X118684929Y-110248400D01*
X118693275Y-110281718D01*
X118698315Y-110315694D01*
X118700000Y-110350000D01*
X118700000Y-114650000D01*
X118698315Y-114684306D01*
X118693275Y-114718282D01*
X118684929Y-114751600D01*
X118673358Y-114783939D01*
X118658672Y-114814989D01*
X118641014Y-114844450D01*
X118620554Y-114872038D01*
X118597487Y-114897487D01*
X118572038Y-114920554D01*
X118544450Y-114941014D01*
X118514989Y-114958672D01*
X118483939Y-114973358D01*
X118451600Y-114984929D01*
X118418282Y-114993275D01*
X118384306Y-114998315D01*
X118350000Y-115000000D01*
X117650000Y-115000000D01*
X117615694Y-114998315D01*
X117581718Y-114993275D01*
X117548400Y-114984929D01*
X117516061Y-114973358D01*
X117485011Y-114958672D01*
X117455550Y-114941014D01*
X117427962Y-114920554D01*
X117402513Y-114897487D01*
X117379446Y-114872038D01*
X117358986Y-114844450D01*
X117341328Y-114814989D01*
X117326642Y-114783939D01*
X117315071Y-114751600D01*
X117306725Y-114718282D01*
X117301685Y-114684306D01*
X117300000Y-114650000D01*
X117300000Y-110350000D01*
X117301685Y-110315694D01*
X117306725Y-110281718D01*
X117315071Y-110248400D01*
X117326642Y-110216061D01*
X117341328Y-110185011D01*
X117358986Y-110155550D01*
X117379446Y-110127962D01*
X117402513Y-110102513D01*
X117427962Y-110079446D01*
X117455550Y-110058986D01*
X117485011Y-110041328D01*
X117516061Y-110026642D01*
X117548400Y-110015071D01*
X117581718Y-110006725D01*
X117615694Y-110001685D01*
X117650000Y-110000000D01*
X118350000Y-110000000D01*
X118384306Y-110001685D01*
G37*
G04 #@! TD.AperFunction*
G04 #@! TA.AperFunction,SMDPad,CuDef*
G36*
X123212846Y-110009305D02*
G01*
X123246822Y-110014345D01*
X123280140Y-110022691D01*
X123312479Y-110034262D01*
X123343529Y-110048948D01*
X123372990Y-110066606D01*
X123400578Y-110087066D01*
X123426027Y-110110133D01*
X123449094Y-110135582D01*
X123469554Y-110163170D01*
X123487212Y-110192631D01*
X123501898Y-110223681D01*
X123513469Y-110256020D01*
X123521815Y-110289338D01*
X123526855Y-110323314D01*
X123528540Y-110357620D01*
X123528540Y-114657620D01*
X123526855Y-114691926D01*
X123521815Y-114725902D01*
X123513469Y-114759220D01*
X123501898Y-114791559D01*
X123487212Y-114822609D01*
X123469554Y-114852070D01*
X123449094Y-114879658D01*
X123426027Y-114905107D01*
X123400578Y-114928174D01*
X123372990Y-114948634D01*
X123343529Y-114966292D01*
X123312479Y-114980978D01*
X123280140Y-114992549D01*
X123246822Y-115000895D01*
X123212846Y-115005935D01*
X123178540Y-115007620D01*
X122478540Y-115007620D01*
X122444234Y-115005935D01*
X122410258Y-115000895D01*
X122376940Y-114992549D01*
X122344601Y-114980978D01*
X122313551Y-114966292D01*
X122284090Y-114948634D01*
X122256502Y-114928174D01*
X122231053Y-114905107D01*
X122207986Y-114879658D01*
X122187526Y-114852070D01*
X122169868Y-114822609D01*
X122155182Y-114791559D01*
X122143611Y-114759220D01*
X122135265Y-114725902D01*
X122130225Y-114691926D01*
X122128540Y-114657620D01*
X122128540Y-110357620D01*
X122130225Y-110323314D01*
X122135265Y-110289338D01*
X122143611Y-110256020D01*
X122155182Y-110223681D01*
X122169868Y-110192631D01*
X122187526Y-110163170D01*
X122207986Y-110135582D01*
X122231053Y-110110133D01*
X122256502Y-110087066D01*
X122284090Y-110066606D01*
X122313551Y-110048948D01*
X122344601Y-110034262D01*
X122376940Y-110022691D01*
X122410258Y-110014345D01*
X122444234Y-110009305D01*
X122478540Y-110007620D01*
X123178540Y-110007620D01*
X123212846Y-110009305D01*
G37*
G04 #@! TD.AperFunction*
G04 #@! TA.AperFunction,SMDPad,CuDef*
G36*
X130484006Y-109988985D02*
G01*
X130517982Y-109994025D01*
X130551300Y-110002371D01*
X130583639Y-110013942D01*
X130614689Y-110028628D01*
X130644150Y-110046286D01*
X130671738Y-110066746D01*
X130697187Y-110089813D01*
X130720254Y-110115262D01*
X130740714Y-110142850D01*
X130758372Y-110172311D01*
X130773058Y-110203361D01*
X130784629Y-110235700D01*
X130792975Y-110269018D01*
X130798015Y-110302994D01*
X130799700Y-110337300D01*
X130799700Y-114637300D01*
X130798015Y-114671606D01*
X130792975Y-114705582D01*
X130784629Y-114738900D01*
X130773058Y-114771239D01*
X130758372Y-114802289D01*
X130740714Y-114831750D01*
X130720254Y-114859338D01*
X130697187Y-114884787D01*
X130671738Y-114907854D01*
X130644150Y-114928314D01*
X130614689Y-114945972D01*
X130583639Y-114960658D01*
X130551300Y-114972229D01*
X130517982Y-114980575D01*
X130484006Y-114985615D01*
X130449700Y-114987300D01*
X129749700Y-114987300D01*
X129715394Y-114985615D01*
X129681418Y-114980575D01*
X129648100Y-114972229D01*
X129615761Y-114960658D01*
X129584711Y-114945972D01*
X129555250Y-114928314D01*
X129527662Y-114907854D01*
X129502213Y-114884787D01*
X129479146Y-114859338D01*
X129458686Y-114831750D01*
X129441028Y-114802289D01*
X129426342Y-114771239D01*
X129414771Y-114738900D01*
X129406425Y-114705582D01*
X129401385Y-114671606D01*
X129399700Y-114637300D01*
X129399700Y-110337300D01*
X129401385Y-110302994D01*
X129406425Y-110269018D01*
X129414771Y-110235700D01*
X129426342Y-110203361D01*
X129441028Y-110172311D01*
X129458686Y-110142850D01*
X129479146Y-110115262D01*
X129502213Y-110089813D01*
X129527662Y-110066746D01*
X129555250Y-110046286D01*
X129584711Y-110028628D01*
X129615761Y-110013942D01*
X129648100Y-110002371D01*
X129681418Y-109994025D01*
X129715394Y-109988985D01*
X129749700Y-109987300D01*
X130449700Y-109987300D01*
X130484006Y-109988985D01*
G37*
G04 #@! TD.AperFunction*
G04 #@! TA.AperFunction,SMDPad,CuDef*
G36*
X135312546Y-109996605D02*
G01*
X135346522Y-110001645D01*
X135379840Y-110009991D01*
X135412179Y-110021562D01*
X135443229Y-110036248D01*
X135472690Y-110053906D01*
X135500278Y-110074366D01*
X135525727Y-110097433D01*
X135548794Y-110122882D01*
X135569254Y-110150470D01*
X135586912Y-110179931D01*
X135601598Y-110210981D01*
X135613169Y-110243320D01*
X135621515Y-110276638D01*
X135626555Y-110310614D01*
X135628240Y-110344920D01*
X135628240Y-114644920D01*
X135626555Y-114679226D01*
X135621515Y-114713202D01*
X135613169Y-114746520D01*
X135601598Y-114778859D01*
X135586912Y-114809909D01*
X135569254Y-114839370D01*
X135548794Y-114866958D01*
X135525727Y-114892407D01*
X135500278Y-114915474D01*
X135472690Y-114935934D01*
X135443229Y-114953592D01*
X135412179Y-114968278D01*
X135379840Y-114979849D01*
X135346522Y-114988195D01*
X135312546Y-114993235D01*
X135278240Y-114994920D01*
X134578240Y-114994920D01*
X134543934Y-114993235D01*
X134509958Y-114988195D01*
X134476640Y-114979849D01*
X134444301Y-114968278D01*
X134413251Y-114953592D01*
X134383790Y-114935934D01*
X134356202Y-114915474D01*
X134330753Y-114892407D01*
X134307686Y-114866958D01*
X134287226Y-114839370D01*
X134269568Y-114809909D01*
X134254882Y-114778859D01*
X134243311Y-114746520D01*
X134234965Y-114713202D01*
X134229925Y-114679226D01*
X134228240Y-114644920D01*
X134228240Y-110344920D01*
X134229925Y-110310614D01*
X134234965Y-110276638D01*
X134243311Y-110243320D01*
X134254882Y-110210981D01*
X134269568Y-110179931D01*
X134287226Y-110150470D01*
X134307686Y-110122882D01*
X134330753Y-110097433D01*
X134356202Y-110074366D01*
X134383790Y-110053906D01*
X134413251Y-110036248D01*
X134444301Y-110021562D01*
X134476640Y-110009991D01*
X134509958Y-110001645D01*
X134543934Y-109996605D01*
X134578240Y-109994920D01*
X135278240Y-109994920D01*
X135312546Y-109996605D01*
G37*
G04 #@! TD.AperFunction*
D11*
X87580000Y-64080000D03*
X87580000Y-66620000D03*
D12*
X82500000Y-69160000D03*
X82500000Y-59000000D03*
D11*
X87376000Y-97536000D03*
X87376000Y-100076000D03*
D12*
X82296000Y-102616000D03*
X82296000Y-92456000D03*
D13*
X103620000Y-81000000D03*
D14*
X96000000Y-81000000D03*
D15*
X104500000Y-49500000D03*
X109500000Y-49500000D03*
X99500000Y-53000000D03*
X109500000Y-53000000D03*
X104500000Y-53000000D03*
X99500000Y-49500000D03*
X94500000Y-53000000D03*
X94500000Y-49500000D03*
X84500000Y-53000000D03*
X89500000Y-49500000D03*
X89500000Y-53000000D03*
X84500000Y-49500000D03*
X89500000Y-112500000D03*
X109500000Y-112500000D03*
X89500000Y-109000000D03*
X109500000Y-109000000D03*
X99500000Y-112500000D03*
X84500000Y-112500000D03*
X84500000Y-109000000D03*
X104500000Y-109000000D03*
X104500000Y-112500000D03*
X94500000Y-109000000D03*
X94500000Y-112500000D03*
X99500000Y-109000000D03*
X89500000Y-77500000D03*
X89500000Y-74000000D03*
X84500000Y-77500000D03*
X84500000Y-74000000D03*
X89500000Y-85000000D03*
X84500000Y-85000000D03*
X84500000Y-81500000D03*
X132500000Y-91500000D03*
X127000000Y-91500000D03*
X132500000Y-84500000D03*
X127000000Y-84500000D03*
X127000000Y-88000000D03*
X132500000Y-88000000D03*
X151000000Y-113000000D03*
X106500000Y-91500000D03*
X106500000Y-84500000D03*
X112000000Y-91500000D03*
X112000000Y-95500000D03*
X112000000Y-99000000D03*
X126500000Y-110000000D03*
X94500000Y-105000000D03*
X99500000Y-105000000D03*
X89500000Y-105000000D03*
X104500000Y-105000000D03*
X179000000Y-65500000D03*
X174000000Y-49500000D03*
X174000000Y-65500000D03*
X189000000Y-61500000D03*
X194000000Y-53500000D03*
X184000000Y-49500000D03*
X194000000Y-57500000D03*
X169000000Y-53500000D03*
X194000000Y-49500000D03*
X189000000Y-65500000D03*
X169000000Y-57500000D03*
X169000000Y-49500000D03*
X179000000Y-49500000D03*
X189000000Y-53500000D03*
X169000000Y-65500000D03*
X194000000Y-65500000D03*
X184000000Y-65500000D03*
X184000000Y-61500000D03*
X184000000Y-57500000D03*
X179000000Y-57500000D03*
X174000000Y-57500000D03*
X194000000Y-61500000D03*
X174000000Y-53500000D03*
X189000000Y-57500000D03*
X169000000Y-61500000D03*
X179000000Y-61500000D03*
X189000000Y-49500000D03*
X184000000Y-53500000D03*
X174000000Y-61500000D03*
X179000000Y-53500000D03*
X204000000Y-49500000D03*
X199000000Y-65500000D03*
X199000000Y-53500000D03*
X204000000Y-61500000D03*
X199000000Y-57500000D03*
X204000000Y-65500000D03*
X204000000Y-57500000D03*
X199000000Y-49500000D03*
X199000000Y-61500000D03*
X204000000Y-53500000D03*
X120000000Y-49500000D03*
X135000000Y-57500000D03*
X115000000Y-53500000D03*
X135000000Y-53500000D03*
X125000000Y-53500000D03*
X115000000Y-57500000D03*
X135000000Y-49500000D03*
X130000000Y-53500000D03*
X125000000Y-57500000D03*
X130000000Y-57500000D03*
X120000000Y-57500000D03*
X130000000Y-49500000D03*
X115000000Y-49500000D03*
X120000000Y-53500000D03*
X125000000Y-49500000D03*
X184000000Y-74000000D03*
X179000000Y-78000000D03*
X169000000Y-78000000D03*
X174000000Y-74000000D03*
X169000000Y-70000000D03*
X179000000Y-74000000D03*
X179000000Y-70000000D03*
X184000000Y-70000000D03*
X174000000Y-78000000D03*
X184000000Y-78000000D03*
X174000000Y-70000000D03*
X169000000Y-74000000D03*
X169000000Y-83000000D03*
X169000000Y-87000000D03*
X174000000Y-91000000D03*
X179000000Y-87000000D03*
X174000000Y-83000000D03*
X179000000Y-83000000D03*
X169000000Y-91000000D03*
X179000000Y-91000000D03*
X174000000Y-87000000D03*
X189000000Y-78000000D03*
X199000000Y-74000000D03*
X189000000Y-70000000D03*
X189000000Y-74000000D03*
X194000000Y-70000000D03*
X199000000Y-78000000D03*
X194000000Y-74000000D03*
X194000000Y-78000000D03*
X199000000Y-70000000D03*
X120000000Y-61500000D03*
X130000000Y-61500000D03*
X125000000Y-61500000D03*
X135000000Y-61500000D03*
X115000000Y-61500000D03*
X109500000Y-88000000D03*
D16*
X154687860Y-56312140D03*
X138596000Y-62596000D03*
X106000000Y-102000000D03*
X175500000Y-108000000D03*
X132400300Y-97900300D03*
X203750000Y-97750000D03*
X121500000Y-96500000D03*
X109500000Y-59000000D03*
X102000000Y-69000000D03*
D17*
X138596000Y-58404000D02*
X138596000Y-62596000D01*
X140687860Y-56312140D02*
X138596000Y-58404000D01*
X154687860Y-56312140D02*
X140687860Y-56312140D01*
X106000000Y-102000000D02*
X106000000Y-102000000D01*
X106000000Y-102000000D02*
X129500000Y-102000000D01*
X135500000Y-108000000D02*
X129500000Y-102000000D01*
X175500000Y-108000000D02*
X135500000Y-108000000D01*
D18*
X203599700Y-97900300D02*
X203750000Y-97750000D01*
X199500000Y-102000000D02*
X203599700Y-97900300D01*
X136500000Y-102000000D02*
X199500000Y-102000000D01*
X132400300Y-97900300D02*
X136500000Y-102000000D01*
X109500000Y-81000000D02*
X109500000Y-59000000D01*
X109500000Y-59000000D02*
X109500000Y-59000000D01*
X109500000Y-83131998D02*
X109500000Y-81000000D01*
X121500000Y-95131998D02*
X109500000Y-83131998D01*
X121500000Y-96500000D02*
X121500000Y-95131998D01*
X87376000Y-97536000D02*
X87376000Y-83624000D01*
X87376000Y-83624000D02*
X102000000Y-69000000D01*
X102000000Y-69000000D02*
X102000000Y-69000000D01*
D19*
G36*
X209315001Y-114815000D02*
G01*
X77185000Y-114815000D01*
X77185000Y-102395084D01*
X80053000Y-102395084D01*
X80053000Y-102836916D01*
X80139197Y-103270259D01*
X80308279Y-103678459D01*
X80553748Y-104045829D01*
X80866171Y-104358252D01*
X81233541Y-104603721D01*
X81641741Y-104772803D01*
X82075084Y-104859000D01*
X82516916Y-104859000D01*
X82950259Y-104772803D01*
X83358459Y-104603721D01*
X83725829Y-104358252D01*
X84038252Y-104045829D01*
X84283721Y-103678459D01*
X84452803Y-103270259D01*
X84539000Y-102836916D01*
X84539000Y-102395084D01*
X84452803Y-101961741D01*
X84418267Y-101878363D01*
X104765000Y-101878363D01*
X104765000Y-102121637D01*
X104812460Y-102360236D01*
X104905557Y-102584992D01*
X105040713Y-102787267D01*
X105212733Y-102959287D01*
X105415008Y-103094443D01*
X105639764Y-103187540D01*
X105878363Y-103235000D01*
X106121637Y-103235000D01*
X106360236Y-103187540D01*
X106487079Y-103135000D01*
X129029869Y-103135000D01*
X134658009Y-108763141D01*
X134693551Y-108806449D01*
X134866377Y-108948284D01*
X135063553Y-109053676D01*
X135277501Y-109118577D01*
X135444248Y-109135000D01*
X135444257Y-109135000D01*
X135499999Y-109140490D01*
X135555741Y-109135000D01*
X175012921Y-109135000D01*
X175139764Y-109187540D01*
X175378363Y-109235000D01*
X175621637Y-109235000D01*
X175860236Y-109187540D01*
X176084992Y-109094443D01*
X176287267Y-108959287D01*
X176459287Y-108787267D01*
X176594443Y-108584992D01*
X176687540Y-108360236D01*
X176735000Y-108121637D01*
X176735000Y-107878363D01*
X176687540Y-107639764D01*
X176594443Y-107415008D01*
X176459287Y-107212733D01*
X176287267Y-107040713D01*
X176084992Y-106905557D01*
X175860236Y-106812460D01*
X175621637Y-106765000D01*
X175378363Y-106765000D01*
X175139764Y-106812460D01*
X175012921Y-106865000D01*
X135970132Y-106865000D01*
X130341996Y-101236865D01*
X130306449Y-101193551D01*
X130133623Y-101051716D01*
X129936447Y-100946324D01*
X129722499Y-100881423D01*
X129555752Y-100865000D01*
X129555751Y-100865000D01*
X129500000Y-100859509D01*
X129444249Y-100865000D01*
X106487079Y-100865000D01*
X106360236Y-100812460D01*
X106121637Y-100765000D01*
X105878363Y-100765000D01*
X105639764Y-100812460D01*
X105415008Y-100905557D01*
X105212733Y-101040713D01*
X105040713Y-101212733D01*
X104905557Y-101415008D01*
X104812460Y-101639764D01*
X104765000Y-101878363D01*
X84418267Y-101878363D01*
X84283721Y-101553541D01*
X84038252Y-101186171D01*
X83725829Y-100873748D01*
X83358459Y-100628279D01*
X82950259Y-100459197D01*
X82516916Y-100373000D01*
X82075084Y-100373000D01*
X81641741Y-100459197D01*
X81233541Y-100628279D01*
X80866171Y-100873748D01*
X80553748Y-101186171D01*
X80308279Y-101553541D01*
X80139197Y-101961741D01*
X80053000Y-102395084D01*
X77185000Y-102395084D01*
X77185000Y-97536000D01*
X85426764Y-97536000D01*
X85451652Y-97788688D01*
X85525358Y-98031665D01*
X85645051Y-98255595D01*
X85806130Y-98451870D01*
X86002405Y-98612949D01*
X86226335Y-98732642D01*
X86274737Y-98747324D01*
X86463248Y-98902031D01*
X86747285Y-99053852D01*
X87055484Y-99147343D01*
X87376000Y-99178911D01*
X87696515Y-99147343D01*
X88004714Y-99053852D01*
X88288751Y-98902031D01*
X88477263Y-98747325D01*
X88525665Y-98732642D01*
X88749595Y-98612949D01*
X88945870Y-98451870D01*
X89106949Y-98255595D01*
X89226642Y-98031665D01*
X89300348Y-97788688D01*
X89325236Y-97536000D01*
X89300348Y-97283312D01*
X89226642Y-97040335D01*
X89106949Y-96816405D01*
X89011000Y-96699491D01*
X89011000Y-84301238D01*
X93112238Y-80200000D01*
X94561928Y-80200000D01*
X94561928Y-81800000D01*
X94574188Y-81924482D01*
X94610498Y-82044180D01*
X94669463Y-82154494D01*
X94748815Y-82251185D01*
X94845506Y-82330537D01*
X94955820Y-82389502D01*
X95075518Y-82425812D01*
X95200000Y-82438072D01*
X96800000Y-82438072D01*
X96924482Y-82425812D01*
X97044180Y-82389502D01*
X97154494Y-82330537D01*
X97251185Y-82251185D01*
X97330537Y-82154494D01*
X97389502Y-82044180D01*
X97425812Y-81924482D01*
X97438072Y-81800000D01*
X97438072Y-80200000D01*
X97425812Y-80075518D01*
X97389502Y-79955820D01*
X97330537Y-79845506D01*
X97251185Y-79748815D01*
X97154494Y-79669463D01*
X97044180Y-79610498D01*
X96924482Y-79574188D01*
X96800000Y-79561928D01*
X95200000Y-79561928D01*
X95075518Y-79574188D01*
X94955820Y-79610498D01*
X94845506Y-79669463D01*
X94748815Y-79748815D01*
X94669463Y-79845506D01*
X94610498Y-79955820D01*
X94574188Y-80075518D01*
X94561928Y-80200000D01*
X93112238Y-80200000D01*
X103099319Y-70212920D01*
X103161714Y-70161714D01*
X103366031Y-69912752D01*
X103517852Y-69628715D01*
X103611343Y-69320516D01*
X103642911Y-69000000D01*
X103611343Y-68679484D01*
X103517852Y-68371285D01*
X103366031Y-68087248D01*
X103161714Y-67838286D01*
X102912752Y-67633969D01*
X102628715Y-67482148D01*
X102320516Y-67388657D01*
X102080322Y-67365000D01*
X102080319Y-67365000D01*
X101999999Y-67357089D01*
X101919680Y-67365000D01*
X101919678Y-67365000D01*
X101679484Y-67388657D01*
X101371285Y-67482148D01*
X101087248Y-67633969D01*
X100838286Y-67838286D01*
X100787080Y-67900681D01*
X86276682Y-82411080D01*
X86214287Y-82462286D01*
X86009970Y-82711248D01*
X85858148Y-82995286D01*
X85764658Y-83303484D01*
X85733089Y-83624000D01*
X85741001Y-83704329D01*
X85741000Y-96699491D01*
X85645051Y-96816405D01*
X85525358Y-97040335D01*
X85451652Y-97283312D01*
X85426764Y-97536000D01*
X77185000Y-97536000D01*
X77185000Y-92235084D01*
X80053000Y-92235084D01*
X80053000Y-92676916D01*
X80139197Y-93110259D01*
X80308279Y-93518459D01*
X80553748Y-93885829D01*
X80866171Y-94198252D01*
X81233541Y-94443721D01*
X81641741Y-94612803D01*
X82075084Y-94699000D01*
X82516916Y-94699000D01*
X82950259Y-94612803D01*
X83358459Y-94443721D01*
X83725829Y-94198252D01*
X84038252Y-93885829D01*
X84283721Y-93518459D01*
X84452803Y-93110259D01*
X84539000Y-92676916D01*
X84539000Y-92235084D01*
X84452803Y-91801741D01*
X84283721Y-91393541D01*
X84038252Y-91026171D01*
X83725829Y-90713748D01*
X83358459Y-90468279D01*
X82950259Y-90299197D01*
X82516916Y-90213000D01*
X82075084Y-90213000D01*
X81641741Y-90299197D01*
X81233541Y-90468279D01*
X80866171Y-90713748D01*
X80553748Y-91026171D01*
X80308279Y-91393541D01*
X80139197Y-91801741D01*
X80053000Y-92235084D01*
X77185000Y-92235084D01*
X77185000Y-68939084D01*
X80257000Y-68939084D01*
X80257000Y-69380916D01*
X80343197Y-69814259D01*
X80512279Y-70222459D01*
X80757748Y-70589829D01*
X81070171Y-70902252D01*
X81437541Y-71147721D01*
X81845741Y-71316803D01*
X82279084Y-71403000D01*
X82720916Y-71403000D01*
X83154259Y-71316803D01*
X83562459Y-71147721D01*
X83929829Y-70902252D01*
X84242252Y-70589829D01*
X84487721Y-70222459D01*
X84656803Y-69814259D01*
X84743000Y-69380916D01*
X84743000Y-68939084D01*
X84656803Y-68505741D01*
X84487721Y-68097541D01*
X84242252Y-67730171D01*
X83929829Y-67417748D01*
X83562459Y-67172279D01*
X83154259Y-67003197D01*
X82720916Y-66917000D01*
X82279084Y-66917000D01*
X81845741Y-67003197D01*
X81437541Y-67172279D01*
X81070171Y-67417748D01*
X80757748Y-67730171D01*
X80512279Y-68097541D01*
X80343197Y-68505741D01*
X80257000Y-68939084D01*
X77185000Y-68939084D01*
X77185000Y-64080000D01*
X85630764Y-64080000D01*
X85655652Y-64332688D01*
X85729358Y-64575665D01*
X85849051Y-64799595D01*
X86010130Y-64995870D01*
X86206405Y-65156949D01*
X86430335Y-65276642D01*
X86673312Y-65350348D01*
X86862686Y-65369000D01*
X88297314Y-65369000D01*
X88486688Y-65350348D01*
X88729665Y-65276642D01*
X88953595Y-65156949D01*
X89149870Y-64995870D01*
X89310949Y-64799595D01*
X89430642Y-64575665D01*
X89504348Y-64332688D01*
X89529236Y-64080000D01*
X89504348Y-63827312D01*
X89430642Y-63584335D01*
X89310949Y-63360405D01*
X89149870Y-63164130D01*
X88953595Y-63003051D01*
X88729665Y-62883358D01*
X88486688Y-62809652D01*
X88297314Y-62791000D01*
X86862686Y-62791000D01*
X86673312Y-62809652D01*
X86430335Y-62883358D01*
X86206405Y-63003051D01*
X86010130Y-63164130D01*
X85849051Y-63360405D01*
X85729358Y-63584335D01*
X85655652Y-63827312D01*
X85630764Y-64080000D01*
X77185000Y-64080000D01*
X77185000Y-58779084D01*
X80257000Y-58779084D01*
X80257000Y-59220916D01*
X80343197Y-59654259D01*
X80512279Y-60062459D01*
X80757748Y-60429829D01*
X81070171Y-60742252D01*
X81437541Y-60987721D01*
X81845741Y-61156803D01*
X82279084Y-61243000D01*
X82720916Y-61243000D01*
X83154259Y-61156803D01*
X83562459Y-60987721D01*
X83929829Y-60742252D01*
X84242252Y-60429829D01*
X84487721Y-60062459D01*
X84656803Y-59654259D01*
X84743000Y-59220916D01*
X84743000Y-59000000D01*
X107857089Y-59000000D01*
X107865001Y-59080332D01*
X107865000Y-81080321D01*
X107865001Y-81080330D01*
X107865000Y-83051678D01*
X107857089Y-83131998D01*
X107865000Y-83212317D01*
X107865000Y-83212319D01*
X107888657Y-83452513D01*
X107982148Y-83760712D01*
X108133969Y-84044749D01*
X108338286Y-84293712D01*
X108400687Y-84344923D01*
X119865000Y-95809237D01*
X119865000Y-96580321D01*
X119888657Y-96820515D01*
X119982148Y-97128714D01*
X120133969Y-97412751D01*
X120338286Y-97661714D01*
X120587248Y-97866031D01*
X120871285Y-98017852D01*
X121179484Y-98111343D01*
X121500000Y-98142911D01*
X121820515Y-98111343D01*
X122128714Y-98017852D01*
X122348638Y-97900300D01*
X130757389Y-97900300D01*
X130788958Y-98220816D01*
X130882448Y-98529014D01*
X131034270Y-98813052D01*
X131187385Y-98999623D01*
X135287080Y-103099319D01*
X135338286Y-103161714D01*
X135587248Y-103366031D01*
X135871285Y-103517852D01*
X136179484Y-103611343D01*
X136419678Y-103635000D01*
X136419680Y-103635000D01*
X136499999Y-103642911D01*
X136580319Y-103635000D01*
X199419681Y-103635000D01*
X199500000Y-103642911D01*
X199580319Y-103635000D01*
X199580322Y-103635000D01*
X199820516Y-103611343D01*
X200128715Y-103517852D01*
X200412752Y-103366031D01*
X200661714Y-103161714D01*
X200712925Y-103099313D01*
X204812615Y-98999624D01*
X204812620Y-98999618D01*
X204962915Y-98849323D01*
X205116030Y-98662752D01*
X205267851Y-98378715D01*
X205361342Y-98070516D01*
X205392911Y-97750001D01*
X205361342Y-97429484D01*
X205267851Y-97121286D01*
X205116030Y-96837248D01*
X204911713Y-96588287D01*
X204662752Y-96383970D01*
X204378714Y-96232149D01*
X204070516Y-96138658D01*
X203749999Y-96107089D01*
X203429484Y-96138658D01*
X203121285Y-96232149D01*
X202837248Y-96383970D01*
X202650677Y-96537085D01*
X202500382Y-96687380D01*
X202500376Y-96687385D01*
X198822762Y-100365000D01*
X137177239Y-100365000D01*
X133499623Y-96687385D01*
X133313052Y-96534270D01*
X133029014Y-96382448D01*
X132720816Y-96288958D01*
X132400300Y-96257389D01*
X132079784Y-96288958D01*
X131771586Y-96382448D01*
X131487548Y-96534270D01*
X131238587Y-96738587D01*
X131034270Y-96987548D01*
X130882448Y-97271586D01*
X130788958Y-97579784D01*
X130757389Y-97900300D01*
X122348638Y-97900300D01*
X122412751Y-97866031D01*
X122661714Y-97661714D01*
X122866031Y-97412752D01*
X123017852Y-97128715D01*
X123111343Y-96820516D01*
X123135000Y-96580322D01*
X123135000Y-95212320D01*
X123142911Y-95131998D01*
X123111343Y-94811481D01*
X123017852Y-94503283D01*
X122866030Y-94219245D01*
X122661714Y-93970284D01*
X122599319Y-93919078D01*
X111135000Y-82454760D01*
X111135000Y-64000000D01*
X143311686Y-64000000D01*
X143315001Y-64033657D01*
X143315000Y-99466353D01*
X143311686Y-99500000D01*
X143324912Y-99634283D01*
X143364081Y-99763406D01*
X143427688Y-99882407D01*
X143513289Y-99986711D01*
X143617593Y-100072312D01*
X143736594Y-100135919D01*
X143865717Y-100175088D01*
X144000000Y-100188314D01*
X144033647Y-100185000D01*
X160466353Y-100185000D01*
X160500000Y-100188314D01*
X160634283Y-100175088D01*
X160763406Y-100135919D01*
X160882407Y-100072312D01*
X160986711Y-99986711D01*
X161072312Y-99882407D01*
X161135919Y-99763406D01*
X161175088Y-99634283D01*
X161185000Y-99533647D01*
X161185000Y-99533646D01*
X161188314Y-99500000D01*
X161185000Y-99466353D01*
X161185000Y-64033647D01*
X161188314Y-64000000D01*
X161175088Y-63865717D01*
X161135919Y-63736594D01*
X161072312Y-63617593D01*
X160986711Y-63513289D01*
X160882407Y-63427688D01*
X160763406Y-63364081D01*
X160634283Y-63324912D01*
X160533647Y-63315000D01*
X160500000Y-63311686D01*
X160466353Y-63315000D01*
X144033647Y-63315000D01*
X144000000Y-63311686D01*
X143966353Y-63315000D01*
X143865717Y-63324912D01*
X143736594Y-63364081D01*
X143617593Y-63427688D01*
X143513289Y-63513289D01*
X143427688Y-63617593D01*
X143364081Y-63736594D01*
X143324912Y-63865717D01*
X143311686Y-64000000D01*
X111135000Y-64000000D01*
X111135000Y-62474363D01*
X137361000Y-62474363D01*
X137361000Y-62717637D01*
X137408460Y-62956236D01*
X137501557Y-63180992D01*
X137636713Y-63383267D01*
X137808733Y-63555287D01*
X138011008Y-63690443D01*
X138235764Y-63783540D01*
X138474363Y-63831000D01*
X138717637Y-63831000D01*
X138956236Y-63783540D01*
X139180992Y-63690443D01*
X139383267Y-63555287D01*
X139555287Y-63383267D01*
X139690443Y-63180992D01*
X139783540Y-62956236D01*
X139831000Y-62717637D01*
X139831000Y-62474363D01*
X139783540Y-62235764D01*
X139731000Y-62108921D01*
X139731000Y-58874131D01*
X141157992Y-57447140D01*
X154200781Y-57447140D01*
X154327624Y-57499680D01*
X154566223Y-57547140D01*
X154809497Y-57547140D01*
X155048096Y-57499680D01*
X155272852Y-57406583D01*
X155475127Y-57271427D01*
X155647147Y-57099407D01*
X155782303Y-56897132D01*
X155875400Y-56672376D01*
X155922860Y-56433777D01*
X155922860Y-56190503D01*
X155875400Y-55951904D01*
X155782303Y-55727148D01*
X155647147Y-55524873D01*
X155475127Y-55352853D01*
X155272852Y-55217697D01*
X155048096Y-55124600D01*
X154809497Y-55077140D01*
X154566223Y-55077140D01*
X154327624Y-55124600D01*
X154200781Y-55177140D01*
X140743612Y-55177140D01*
X140687860Y-55171649D01*
X140632108Y-55177140D01*
X140465361Y-55193563D01*
X140251413Y-55258464D01*
X140054237Y-55363856D01*
X139881411Y-55505691D01*
X139845869Y-55548999D01*
X137832865Y-57562004D01*
X137789551Y-57597551D01*
X137647716Y-57770377D01*
X137575462Y-57905557D01*
X137542324Y-57967554D01*
X137477423Y-58181502D01*
X137455509Y-58404000D01*
X137461000Y-58459752D01*
X137461001Y-62108919D01*
X137408460Y-62235764D01*
X137361000Y-62474363D01*
X111135000Y-62474363D01*
X111135000Y-59080322D01*
X111142911Y-59000000D01*
X111111343Y-58679484D01*
X111017852Y-58371285D01*
X110866031Y-58087248D01*
X110661714Y-57838286D01*
X110412752Y-57633969D01*
X110128715Y-57482148D01*
X109820516Y-57388657D01*
X109580322Y-57365000D01*
X109500000Y-57357089D01*
X109419678Y-57365000D01*
X109179484Y-57388657D01*
X108871285Y-57482148D01*
X108587248Y-57633969D01*
X108338286Y-57838286D01*
X108133969Y-58087248D01*
X107982148Y-58371285D01*
X107888657Y-58679484D01*
X107857089Y-59000000D01*
X84743000Y-59000000D01*
X84743000Y-58779084D01*
X84656803Y-58345741D01*
X84487721Y-57937541D01*
X84242252Y-57570171D01*
X83929829Y-57257748D01*
X83562459Y-57012279D01*
X83154259Y-56843197D01*
X82720916Y-56757000D01*
X82279084Y-56757000D01*
X81845741Y-56843197D01*
X81437541Y-57012279D01*
X81070171Y-57257748D01*
X80757748Y-57570171D01*
X80512279Y-57937541D01*
X80343197Y-58345741D01*
X80257000Y-58779084D01*
X77185000Y-58779084D01*
X77185000Y-48185000D01*
X209315000Y-48185000D01*
X209315001Y-114815000D01*
G37*
X209315001Y-114815000D02*
X77185000Y-114815000D01*
X77185000Y-102395084D01*
X80053000Y-102395084D01*
X80053000Y-102836916D01*
X80139197Y-103270259D01*
X80308279Y-103678459D01*
X80553748Y-104045829D01*
X80866171Y-104358252D01*
X81233541Y-104603721D01*
X81641741Y-104772803D01*
X82075084Y-104859000D01*
X82516916Y-104859000D01*
X82950259Y-104772803D01*
X83358459Y-104603721D01*
X83725829Y-104358252D01*
X84038252Y-104045829D01*
X84283721Y-103678459D01*
X84452803Y-103270259D01*
X84539000Y-102836916D01*
X84539000Y-102395084D01*
X84452803Y-101961741D01*
X84418267Y-101878363D01*
X104765000Y-101878363D01*
X104765000Y-102121637D01*
X104812460Y-102360236D01*
X104905557Y-102584992D01*
X105040713Y-102787267D01*
X105212733Y-102959287D01*
X105415008Y-103094443D01*
X105639764Y-103187540D01*
X105878363Y-103235000D01*
X106121637Y-103235000D01*
X106360236Y-103187540D01*
X106487079Y-103135000D01*
X129029869Y-103135000D01*
X134658009Y-108763141D01*
X134693551Y-108806449D01*
X134866377Y-108948284D01*
X135063553Y-109053676D01*
X135277501Y-109118577D01*
X135444248Y-109135000D01*
X135444257Y-109135000D01*
X135499999Y-109140490D01*
X135555741Y-109135000D01*
X175012921Y-109135000D01*
X175139764Y-109187540D01*
X175378363Y-109235000D01*
X175621637Y-109235000D01*
X175860236Y-109187540D01*
X176084992Y-109094443D01*
X176287267Y-108959287D01*
X176459287Y-108787267D01*
X176594443Y-108584992D01*
X176687540Y-108360236D01*
X176735000Y-108121637D01*
X176735000Y-107878363D01*
X176687540Y-107639764D01*
X176594443Y-107415008D01*
X176459287Y-107212733D01*
X176287267Y-107040713D01*
X176084992Y-106905557D01*
X175860236Y-106812460D01*
X175621637Y-106765000D01*
X175378363Y-106765000D01*
X175139764Y-106812460D01*
X175012921Y-106865000D01*
X135970132Y-106865000D01*
X130341996Y-101236865D01*
X130306449Y-101193551D01*
X130133623Y-101051716D01*
X129936447Y-100946324D01*
X129722499Y-100881423D01*
X129555752Y-100865000D01*
X129555751Y-100865000D01*
X129500000Y-100859509D01*
X129444249Y-100865000D01*
X106487079Y-100865000D01*
X106360236Y-100812460D01*
X106121637Y-100765000D01*
X105878363Y-100765000D01*
X105639764Y-100812460D01*
X105415008Y-100905557D01*
X105212733Y-101040713D01*
X105040713Y-101212733D01*
X104905557Y-101415008D01*
X104812460Y-101639764D01*
X104765000Y-101878363D01*
X84418267Y-101878363D01*
X84283721Y-101553541D01*
X84038252Y-101186171D01*
X83725829Y-100873748D01*
X83358459Y-100628279D01*
X82950259Y-100459197D01*
X82516916Y-100373000D01*
X82075084Y-100373000D01*
X81641741Y-100459197D01*
X81233541Y-100628279D01*
X80866171Y-100873748D01*
X80553748Y-101186171D01*
X80308279Y-101553541D01*
X80139197Y-101961741D01*
X80053000Y-102395084D01*
X77185000Y-102395084D01*
X77185000Y-97536000D01*
X85426764Y-97536000D01*
X85451652Y-97788688D01*
X85525358Y-98031665D01*
X85645051Y-98255595D01*
X85806130Y-98451870D01*
X86002405Y-98612949D01*
X86226335Y-98732642D01*
X86274737Y-98747324D01*
X86463248Y-98902031D01*
X86747285Y-99053852D01*
X87055484Y-99147343D01*
X87376000Y-99178911D01*
X87696515Y-99147343D01*
X88004714Y-99053852D01*
X88288751Y-98902031D01*
X88477263Y-98747325D01*
X88525665Y-98732642D01*
X88749595Y-98612949D01*
X88945870Y-98451870D01*
X89106949Y-98255595D01*
X89226642Y-98031665D01*
X89300348Y-97788688D01*
X89325236Y-97536000D01*
X89300348Y-97283312D01*
X89226642Y-97040335D01*
X89106949Y-96816405D01*
X89011000Y-96699491D01*
X89011000Y-84301238D01*
X93112238Y-80200000D01*
X94561928Y-80200000D01*
X94561928Y-81800000D01*
X94574188Y-81924482D01*
X94610498Y-82044180D01*
X94669463Y-82154494D01*
X94748815Y-82251185D01*
X94845506Y-82330537D01*
X94955820Y-82389502D01*
X95075518Y-82425812D01*
X95200000Y-82438072D01*
X96800000Y-82438072D01*
X96924482Y-82425812D01*
X97044180Y-82389502D01*
X97154494Y-82330537D01*
X97251185Y-82251185D01*
X97330537Y-82154494D01*
X97389502Y-82044180D01*
X97425812Y-81924482D01*
X97438072Y-81800000D01*
X97438072Y-80200000D01*
X97425812Y-80075518D01*
X97389502Y-79955820D01*
X97330537Y-79845506D01*
X97251185Y-79748815D01*
X97154494Y-79669463D01*
X97044180Y-79610498D01*
X96924482Y-79574188D01*
X96800000Y-79561928D01*
X95200000Y-79561928D01*
X95075518Y-79574188D01*
X94955820Y-79610498D01*
X94845506Y-79669463D01*
X94748815Y-79748815D01*
X94669463Y-79845506D01*
X94610498Y-79955820D01*
X94574188Y-80075518D01*
X94561928Y-80200000D01*
X93112238Y-80200000D01*
X103099319Y-70212920D01*
X103161714Y-70161714D01*
X103366031Y-69912752D01*
X103517852Y-69628715D01*
X103611343Y-69320516D01*
X103642911Y-69000000D01*
X103611343Y-68679484D01*
X103517852Y-68371285D01*
X103366031Y-68087248D01*
X103161714Y-67838286D01*
X102912752Y-67633969D01*
X102628715Y-67482148D01*
X102320516Y-67388657D01*
X102080322Y-67365000D01*
X102080319Y-67365000D01*
X101999999Y-67357089D01*
X101919680Y-67365000D01*
X101919678Y-67365000D01*
X101679484Y-67388657D01*
X101371285Y-67482148D01*
X101087248Y-67633969D01*
X100838286Y-67838286D01*
X100787080Y-67900681D01*
X86276682Y-82411080D01*
X86214287Y-82462286D01*
X86009970Y-82711248D01*
X85858148Y-82995286D01*
X85764658Y-83303484D01*
X85733089Y-83624000D01*
X85741001Y-83704329D01*
X85741000Y-96699491D01*
X85645051Y-96816405D01*
X85525358Y-97040335D01*
X85451652Y-97283312D01*
X85426764Y-97536000D01*
X77185000Y-97536000D01*
X77185000Y-92235084D01*
X80053000Y-92235084D01*
X80053000Y-92676916D01*
X80139197Y-93110259D01*
X80308279Y-93518459D01*
X80553748Y-93885829D01*
X80866171Y-94198252D01*
X81233541Y-94443721D01*
X81641741Y-94612803D01*
X82075084Y-94699000D01*
X82516916Y-94699000D01*
X82950259Y-94612803D01*
X83358459Y-94443721D01*
X83725829Y-94198252D01*
X84038252Y-93885829D01*
X84283721Y-93518459D01*
X84452803Y-93110259D01*
X84539000Y-92676916D01*
X84539000Y-92235084D01*
X84452803Y-91801741D01*
X84283721Y-91393541D01*
X84038252Y-91026171D01*
X83725829Y-90713748D01*
X83358459Y-90468279D01*
X82950259Y-90299197D01*
X82516916Y-90213000D01*
X82075084Y-90213000D01*
X81641741Y-90299197D01*
X81233541Y-90468279D01*
X80866171Y-90713748D01*
X80553748Y-91026171D01*
X80308279Y-91393541D01*
X80139197Y-91801741D01*
X80053000Y-92235084D01*
X77185000Y-92235084D01*
X77185000Y-68939084D01*
X80257000Y-68939084D01*
X80257000Y-69380916D01*
X80343197Y-69814259D01*
X80512279Y-70222459D01*
X80757748Y-70589829D01*
X81070171Y-70902252D01*
X81437541Y-71147721D01*
X81845741Y-71316803D01*
X82279084Y-71403000D01*
X82720916Y-71403000D01*
X83154259Y-71316803D01*
X83562459Y-71147721D01*
X83929829Y-70902252D01*
X84242252Y-70589829D01*
X84487721Y-70222459D01*
X84656803Y-69814259D01*
X84743000Y-69380916D01*
X84743000Y-68939084D01*
X84656803Y-68505741D01*
X84487721Y-68097541D01*
X84242252Y-67730171D01*
X83929829Y-67417748D01*
X83562459Y-67172279D01*
X83154259Y-67003197D01*
X82720916Y-66917000D01*
X82279084Y-66917000D01*
X81845741Y-67003197D01*
X81437541Y-67172279D01*
X81070171Y-67417748D01*
X80757748Y-67730171D01*
X80512279Y-68097541D01*
X80343197Y-68505741D01*
X80257000Y-68939084D01*
X77185000Y-68939084D01*
X77185000Y-64080000D01*
X85630764Y-64080000D01*
X85655652Y-64332688D01*
X85729358Y-64575665D01*
X85849051Y-64799595D01*
X86010130Y-64995870D01*
X86206405Y-65156949D01*
X86430335Y-65276642D01*
X86673312Y-65350348D01*
X86862686Y-65369000D01*
X88297314Y-65369000D01*
X88486688Y-65350348D01*
X88729665Y-65276642D01*
X88953595Y-65156949D01*
X89149870Y-64995870D01*
X89310949Y-64799595D01*
X89430642Y-64575665D01*
X89504348Y-64332688D01*
X89529236Y-64080000D01*
X89504348Y-63827312D01*
X89430642Y-63584335D01*
X89310949Y-63360405D01*
X89149870Y-63164130D01*
X88953595Y-63003051D01*
X88729665Y-62883358D01*
X88486688Y-62809652D01*
X88297314Y-62791000D01*
X86862686Y-62791000D01*
X86673312Y-62809652D01*
X86430335Y-62883358D01*
X86206405Y-63003051D01*
X86010130Y-63164130D01*
X85849051Y-63360405D01*
X85729358Y-63584335D01*
X85655652Y-63827312D01*
X85630764Y-64080000D01*
X77185000Y-64080000D01*
X77185000Y-58779084D01*
X80257000Y-58779084D01*
X80257000Y-59220916D01*
X80343197Y-59654259D01*
X80512279Y-60062459D01*
X80757748Y-60429829D01*
X81070171Y-60742252D01*
X81437541Y-60987721D01*
X81845741Y-61156803D01*
X82279084Y-61243000D01*
X82720916Y-61243000D01*
X83154259Y-61156803D01*
X83562459Y-60987721D01*
X83929829Y-60742252D01*
X84242252Y-60429829D01*
X84487721Y-60062459D01*
X84656803Y-59654259D01*
X84743000Y-59220916D01*
X84743000Y-59000000D01*
X107857089Y-59000000D01*
X107865001Y-59080332D01*
X107865000Y-81080321D01*
X107865001Y-81080330D01*
X107865000Y-83051678D01*
X107857089Y-83131998D01*
X107865000Y-83212317D01*
X107865000Y-83212319D01*
X107888657Y-83452513D01*
X107982148Y-83760712D01*
X108133969Y-84044749D01*
X108338286Y-84293712D01*
X108400687Y-84344923D01*
X119865000Y-95809237D01*
X119865000Y-96580321D01*
X119888657Y-96820515D01*
X119982148Y-97128714D01*
X120133969Y-97412751D01*
X120338286Y-97661714D01*
X120587248Y-97866031D01*
X120871285Y-98017852D01*
X121179484Y-98111343D01*
X121500000Y-98142911D01*
X121820515Y-98111343D01*
X122128714Y-98017852D01*
X122348638Y-97900300D01*
X130757389Y-97900300D01*
X130788958Y-98220816D01*
X130882448Y-98529014D01*
X131034270Y-98813052D01*
X131187385Y-98999623D01*
X135287080Y-103099319D01*
X135338286Y-103161714D01*
X135587248Y-103366031D01*
X135871285Y-103517852D01*
X136179484Y-103611343D01*
X136419678Y-103635000D01*
X136419680Y-103635000D01*
X136499999Y-103642911D01*
X136580319Y-103635000D01*
X199419681Y-103635000D01*
X199500000Y-103642911D01*
X199580319Y-103635000D01*
X199580322Y-103635000D01*
X199820516Y-103611343D01*
X200128715Y-103517852D01*
X200412752Y-103366031D01*
X200661714Y-103161714D01*
X200712925Y-103099313D01*
X204812615Y-98999624D01*
X204812620Y-98999618D01*
X204962915Y-98849323D01*
X205116030Y-98662752D01*
X205267851Y-98378715D01*
X205361342Y-98070516D01*
X205392911Y-97750001D01*
X205361342Y-97429484D01*
X205267851Y-97121286D01*
X205116030Y-96837248D01*
X204911713Y-96588287D01*
X204662752Y-96383970D01*
X204378714Y-96232149D01*
X204070516Y-96138658D01*
X203749999Y-96107089D01*
X203429484Y-96138658D01*
X203121285Y-96232149D01*
X202837248Y-96383970D01*
X202650677Y-96537085D01*
X202500382Y-96687380D01*
X202500376Y-96687385D01*
X198822762Y-100365000D01*
X137177239Y-100365000D01*
X133499623Y-96687385D01*
X133313052Y-96534270D01*
X133029014Y-96382448D01*
X132720816Y-96288958D01*
X132400300Y-96257389D01*
X132079784Y-96288958D01*
X131771586Y-96382448D01*
X131487548Y-96534270D01*
X131238587Y-96738587D01*
X131034270Y-96987548D01*
X130882448Y-97271586D01*
X130788958Y-97579784D01*
X130757389Y-97900300D01*
X122348638Y-97900300D01*
X122412751Y-97866031D01*
X122661714Y-97661714D01*
X122866031Y-97412752D01*
X123017852Y-97128715D01*
X123111343Y-96820516D01*
X123135000Y-96580322D01*
X123135000Y-95212320D01*
X123142911Y-95131998D01*
X123111343Y-94811481D01*
X123017852Y-94503283D01*
X122866030Y-94219245D01*
X122661714Y-93970284D01*
X122599319Y-93919078D01*
X111135000Y-82454760D01*
X111135000Y-64000000D01*
X143311686Y-64000000D01*
X143315001Y-64033657D01*
X143315000Y-99466353D01*
X143311686Y-99500000D01*
X143324912Y-99634283D01*
X143364081Y-99763406D01*
X143427688Y-99882407D01*
X143513289Y-99986711D01*
X143617593Y-100072312D01*
X143736594Y-100135919D01*
X143865717Y-100175088D01*
X144000000Y-100188314D01*
X144033647Y-100185000D01*
X160466353Y-100185000D01*
X160500000Y-100188314D01*
X160634283Y-100175088D01*
X160763406Y-100135919D01*
X160882407Y-100072312D01*
X160986711Y-99986711D01*
X161072312Y-99882407D01*
X161135919Y-99763406D01*
X161175088Y-99634283D01*
X161185000Y-99533647D01*
X161185000Y-99533646D01*
X161188314Y-99500000D01*
X161185000Y-99466353D01*
X161185000Y-64033647D01*
X161188314Y-64000000D01*
X161175088Y-63865717D01*
X161135919Y-63736594D01*
X161072312Y-63617593D01*
X160986711Y-63513289D01*
X160882407Y-63427688D01*
X160763406Y-63364081D01*
X160634283Y-63324912D01*
X160533647Y-63315000D01*
X160500000Y-63311686D01*
X160466353Y-63315000D01*
X144033647Y-63315000D01*
X144000000Y-63311686D01*
X143966353Y-63315000D01*
X143865717Y-63324912D01*
X143736594Y-63364081D01*
X143617593Y-63427688D01*
X143513289Y-63513289D01*
X143427688Y-63617593D01*
X143364081Y-63736594D01*
X143324912Y-63865717D01*
X143311686Y-64000000D01*
X111135000Y-64000000D01*
X111135000Y-62474363D01*
X137361000Y-62474363D01*
X137361000Y-62717637D01*
X137408460Y-62956236D01*
X137501557Y-63180992D01*
X137636713Y-63383267D01*
X137808733Y-63555287D01*
X138011008Y-63690443D01*
X138235764Y-63783540D01*
X138474363Y-63831000D01*
X138717637Y-63831000D01*
X138956236Y-63783540D01*
X139180992Y-63690443D01*
X139383267Y-63555287D01*
X139555287Y-63383267D01*
X139690443Y-63180992D01*
X139783540Y-62956236D01*
X139831000Y-62717637D01*
X139831000Y-62474363D01*
X139783540Y-62235764D01*
X139731000Y-62108921D01*
X139731000Y-58874131D01*
X141157992Y-57447140D01*
X154200781Y-57447140D01*
X154327624Y-57499680D01*
X154566223Y-57547140D01*
X154809497Y-57547140D01*
X155048096Y-57499680D01*
X155272852Y-57406583D01*
X155475127Y-57271427D01*
X155647147Y-57099407D01*
X155782303Y-56897132D01*
X155875400Y-56672376D01*
X155922860Y-56433777D01*
X155922860Y-56190503D01*
X155875400Y-55951904D01*
X155782303Y-55727148D01*
X155647147Y-55524873D01*
X155475127Y-55352853D01*
X155272852Y-55217697D01*
X155048096Y-55124600D01*
X154809497Y-55077140D01*
X154566223Y-55077140D01*
X154327624Y-55124600D01*
X154200781Y-55177140D01*
X140743612Y-55177140D01*
X140687860Y-55171649D01*
X140632108Y-55177140D01*
X140465361Y-55193563D01*
X140251413Y-55258464D01*
X140054237Y-55363856D01*
X139881411Y-55505691D01*
X139845869Y-55548999D01*
X137832865Y-57562004D01*
X137789551Y-57597551D01*
X137647716Y-57770377D01*
X137575462Y-57905557D01*
X137542324Y-57967554D01*
X137477423Y-58181502D01*
X137455509Y-58404000D01*
X137461000Y-58459752D01*
X137461001Y-62108919D01*
X137408460Y-62235764D01*
X137361000Y-62474363D01*
X111135000Y-62474363D01*
X111135000Y-59080322D01*
X111142911Y-59000000D01*
X111111343Y-58679484D01*
X111017852Y-58371285D01*
X110866031Y-58087248D01*
X110661714Y-57838286D01*
X110412752Y-57633969D01*
X110128715Y-57482148D01*
X109820516Y-57388657D01*
X109580322Y-57365000D01*
X109500000Y-57357089D01*
X109419678Y-57365000D01*
X109179484Y-57388657D01*
X108871285Y-57482148D01*
X108587248Y-57633969D01*
X108338286Y-57838286D01*
X108133969Y-58087248D01*
X107982148Y-58371285D01*
X107888657Y-58679484D01*
X107857089Y-59000000D01*
X84743000Y-59000000D01*
X84743000Y-58779084D01*
X84656803Y-58345741D01*
X84487721Y-57937541D01*
X84242252Y-57570171D01*
X83929829Y-57257748D01*
X83562459Y-57012279D01*
X83154259Y-56843197D01*
X82720916Y-56757000D01*
X82279084Y-56757000D01*
X81845741Y-56843197D01*
X81437541Y-57012279D01*
X81070171Y-57257748D01*
X80757748Y-57570171D01*
X80512279Y-57937541D01*
X80343197Y-58345741D01*
X80257000Y-58779084D01*
X77185000Y-58779084D01*
X77185000Y-48185000D01*
X209315000Y-48185000D01*
X209315001Y-114815000D01*
M02*
