G04 #@! TF.GenerationSoftware,KiCad,Pcbnew,5.1.12-unknown-nightly-202112011503*
G04 #@! TF.CreationDate,2022-01-19T18:07:55-06:00*
G04 #@! TF.ProjectId,70W-Amplifier,3730572d-416d-4706-9c69-666965722e6b,rev?*
G04 #@! TF.SameCoordinates,Original*
G04 #@! TF.FileFunction,Profile,NP*
%FSLAX46Y46*%
G04 Gerber Fmt 4.6, Leading zero omitted, Abs format (unit mm)*
G04 Created by KiCad (PCBNEW 5.1.12-unknown-nightly-202112011503) date 2022-01-19 18:07:55*
%MOMM*%
%LPD*%
G01*
G04 APERTURE LIST*
G04 #@! TA.AperFunction,Profile*
%ADD10C,0.100000*%
G04 #@! TD*
G04 APERTURE END LIST*
D10*
X151500000Y-99000000D02*
X144500000Y-99000000D01*
X143500000Y-100000000D02*
X151500000Y-100000000D01*
X144500000Y-82500000D02*
X143500000Y-82500000D01*
X151500000Y-100000000D02*
X151500000Y-99000000D01*
X144500000Y-99000000D02*
X144500000Y-82500000D01*
X143500000Y-82500000D02*
X143500000Y-100000000D01*
X160000000Y-64500000D02*
X160000000Y-81000000D01*
X153000000Y-63500000D02*
X153000000Y-64500000D01*
X161000000Y-63500000D02*
X153000000Y-63500000D01*
X160000000Y-81000000D02*
X161000000Y-81000000D01*
X161000000Y-81000000D02*
X161000000Y-63500000D01*
X153000000Y-64500000D02*
X160000000Y-64500000D01*
X160000000Y-99000000D02*
X160000000Y-82500000D01*
X153000000Y-100000000D02*
X153000000Y-99000000D01*
X153000000Y-99000000D02*
X160000000Y-99000000D01*
X160000000Y-82500000D02*
X161000000Y-82500000D01*
X161000000Y-82500000D02*
X161000000Y-100000000D01*
X161000000Y-100000000D02*
X153000000Y-100000000D01*
X151500000Y-63500000D02*
X151500000Y-64500000D01*
X143500000Y-63500000D02*
X151500000Y-63500000D01*
X143500000Y-81000000D02*
X143500000Y-63500000D01*
X144500000Y-81000000D02*
X143500000Y-81000000D01*
X144500000Y-64500000D02*
X144500000Y-81000000D01*
X151500000Y-64500000D02*
X144500000Y-64500000D01*
X210000000Y-47500000D02*
X210000000Y-115500000D01*
X76500000Y-47500000D02*
X210000000Y-47500000D01*
X76500000Y-115500000D02*
X76500000Y-47500000D01*
X210000000Y-115500000D02*
X76500000Y-115500000D01*
M02*
