G04 #@! TF.GenerationSoftware,KiCad,Pcbnew,(5.1.5)-3*
G04 #@! TF.CreationDate,2022-10-30T09:30:50-04:00*
G04 #@! TF.ProjectId,70W-Amplifier,3730572d-416d-4706-9c69-666965722e6b,rev?*
G04 #@! TF.SameCoordinates,Original*
G04 #@! TF.FileFunction,Paste,Top*
G04 #@! TF.FilePolarity,Positive*
%FSLAX46Y46*%
G04 Gerber Fmt 4.6, Leading zero omitted, Abs format (unit mm)*
G04 Created by KiCad (PCBNEW (5.1.5)-3) date 2022-10-30 09:30:50*
%MOMM*%
%LPD*%
G04 APERTURE LIST*
%ADD10R,0.900000X1.200000*%
%ADD11R,1.200000X0.900000*%
%ADD12C,2.000000*%
%ADD13C,0.100000*%
%ADD14C,3.000000*%
%ADD15R,3.000000X2.500000*%
%ADD16R,3.000000X3.500000*%
%ADD17R,3.500000X3.000000*%
%ADD18R,3.000000X2.000000*%
%ADD19R,2.200000X3.000000*%
%ADD20R,1.750000X3.000000*%
%ADD21R,4.000000X4.000000*%
%ADD22R,0.900000X0.800000*%
%ADD23R,3.000000X3.000000*%
%ADD24R,2.750000X3.050000*%
%ADD25R,1.200000X2.200000*%
G04 APERTURE END LIST*
D10*
X107150000Y-75500000D03*
X103850000Y-75500000D03*
D11*
X150500000Y-92650000D03*
X150500000Y-89350000D03*
X154000000Y-89350000D03*
X154000000Y-92650000D03*
X150500000Y-86800000D03*
X150500000Y-83500000D03*
X154000000Y-83500000D03*
X154000000Y-86800000D03*
X150500000Y-80800000D03*
X150500000Y-77500000D03*
X154000000Y-77500000D03*
X154000000Y-80800000D03*
D12*
X130000000Y-59500000D03*
X127000000Y-59500000D03*
D13*
G36*
X205399504Y-96376204D02*
G01*
X205423773Y-96379804D01*
X205447571Y-96385765D01*
X205470671Y-96394030D01*
X205492849Y-96404520D01*
X205513893Y-96417133D01*
X205533598Y-96431747D01*
X205551777Y-96448223D01*
X205568253Y-96466402D01*
X205582867Y-96486107D01*
X205595480Y-96507151D01*
X205605970Y-96529329D01*
X205614235Y-96552429D01*
X205620196Y-96576227D01*
X205623796Y-96600496D01*
X205625000Y-96625000D01*
X205625000Y-97375000D01*
X205623796Y-97399504D01*
X205620196Y-97423773D01*
X205614235Y-97447571D01*
X205605970Y-97470671D01*
X205595480Y-97492849D01*
X205582867Y-97513893D01*
X205568253Y-97533598D01*
X205551777Y-97551777D01*
X205533598Y-97568253D01*
X205513893Y-97582867D01*
X205492849Y-97595480D01*
X205470671Y-97605970D01*
X205447571Y-97614235D01*
X205423773Y-97620196D01*
X205399504Y-97623796D01*
X205375000Y-97625000D01*
X204125000Y-97625000D01*
X204100496Y-97623796D01*
X204076227Y-97620196D01*
X204052429Y-97614235D01*
X204029329Y-97605970D01*
X204007151Y-97595480D01*
X203986107Y-97582867D01*
X203966402Y-97568253D01*
X203948223Y-97551777D01*
X203931747Y-97533598D01*
X203917133Y-97513893D01*
X203904520Y-97492849D01*
X203894030Y-97470671D01*
X203885765Y-97447571D01*
X203879804Y-97423773D01*
X203876204Y-97399504D01*
X203875000Y-97375000D01*
X203875000Y-96625000D01*
X203876204Y-96600496D01*
X203879804Y-96576227D01*
X203885765Y-96552429D01*
X203894030Y-96529329D01*
X203904520Y-96507151D01*
X203917133Y-96486107D01*
X203931747Y-96466402D01*
X203948223Y-96448223D01*
X203966402Y-96431747D01*
X203986107Y-96417133D01*
X204007151Y-96404520D01*
X204029329Y-96394030D01*
X204052429Y-96385765D01*
X204076227Y-96379804D01*
X204100496Y-96376204D01*
X204125000Y-96375000D01*
X205375000Y-96375000D01*
X205399504Y-96376204D01*
G37*
G36*
X205399504Y-99176204D02*
G01*
X205423773Y-99179804D01*
X205447571Y-99185765D01*
X205470671Y-99194030D01*
X205492849Y-99204520D01*
X205513893Y-99217133D01*
X205533598Y-99231747D01*
X205551777Y-99248223D01*
X205568253Y-99266402D01*
X205582867Y-99286107D01*
X205595480Y-99307151D01*
X205605970Y-99329329D01*
X205614235Y-99352429D01*
X205620196Y-99376227D01*
X205623796Y-99400496D01*
X205625000Y-99425000D01*
X205625000Y-100175000D01*
X205623796Y-100199504D01*
X205620196Y-100223773D01*
X205614235Y-100247571D01*
X205605970Y-100270671D01*
X205595480Y-100292849D01*
X205582867Y-100313893D01*
X205568253Y-100333598D01*
X205551777Y-100351777D01*
X205533598Y-100368253D01*
X205513893Y-100382867D01*
X205492849Y-100395480D01*
X205470671Y-100405970D01*
X205447571Y-100414235D01*
X205423773Y-100420196D01*
X205399504Y-100423796D01*
X205375000Y-100425000D01*
X204125000Y-100425000D01*
X204100496Y-100423796D01*
X204076227Y-100420196D01*
X204052429Y-100414235D01*
X204029329Y-100405970D01*
X204007151Y-100395480D01*
X203986107Y-100382867D01*
X203966402Y-100368253D01*
X203948223Y-100351777D01*
X203931747Y-100333598D01*
X203917133Y-100313893D01*
X203904520Y-100292849D01*
X203894030Y-100270671D01*
X203885765Y-100247571D01*
X203879804Y-100223773D01*
X203876204Y-100199504D01*
X203875000Y-100175000D01*
X203875000Y-99425000D01*
X203876204Y-99400496D01*
X203879804Y-99376227D01*
X203885765Y-99352429D01*
X203894030Y-99329329D01*
X203904520Y-99307151D01*
X203917133Y-99286107D01*
X203931747Y-99266402D01*
X203948223Y-99248223D01*
X203966402Y-99231747D01*
X203986107Y-99217133D01*
X204007151Y-99204520D01*
X204029329Y-99194030D01*
X204052429Y-99185765D01*
X204076227Y-99179804D01*
X204100496Y-99176204D01*
X204125000Y-99175000D01*
X205375000Y-99175000D01*
X205399504Y-99176204D01*
G37*
G36*
X133574504Y-62351204D02*
G01*
X133598773Y-62354804D01*
X133622571Y-62360765D01*
X133645671Y-62369030D01*
X133667849Y-62379520D01*
X133688893Y-62392133D01*
X133708598Y-62406747D01*
X133726777Y-62423223D01*
X133743253Y-62441402D01*
X133757867Y-62461107D01*
X133770480Y-62482151D01*
X133780970Y-62504329D01*
X133789235Y-62527429D01*
X133795196Y-62551227D01*
X133798796Y-62575496D01*
X133800000Y-62600000D01*
X133800000Y-65600000D01*
X133798796Y-65624504D01*
X133795196Y-65648773D01*
X133789235Y-65672571D01*
X133780970Y-65695671D01*
X133770480Y-65717849D01*
X133757867Y-65738893D01*
X133743253Y-65758598D01*
X133726777Y-65776777D01*
X133708598Y-65793253D01*
X133688893Y-65807867D01*
X133667849Y-65820480D01*
X133645671Y-65830970D01*
X133622571Y-65839235D01*
X133598773Y-65845196D01*
X133574504Y-65848796D01*
X133550000Y-65850000D01*
X132450000Y-65850000D01*
X132425496Y-65848796D01*
X132401227Y-65845196D01*
X132377429Y-65839235D01*
X132354329Y-65830970D01*
X132332151Y-65820480D01*
X132311107Y-65807867D01*
X132291402Y-65793253D01*
X132273223Y-65776777D01*
X132256747Y-65758598D01*
X132242133Y-65738893D01*
X132229520Y-65717849D01*
X132219030Y-65695671D01*
X132210765Y-65672571D01*
X132204804Y-65648773D01*
X132201204Y-65624504D01*
X132200000Y-65600000D01*
X132200000Y-62600000D01*
X132201204Y-62575496D01*
X132204804Y-62551227D01*
X132210765Y-62527429D01*
X132219030Y-62504329D01*
X132229520Y-62482151D01*
X132242133Y-62461107D01*
X132256747Y-62441402D01*
X132273223Y-62423223D01*
X132291402Y-62406747D01*
X132311107Y-62392133D01*
X132332151Y-62379520D01*
X132354329Y-62369030D01*
X132377429Y-62360765D01*
X132401227Y-62354804D01*
X132425496Y-62351204D01*
X132450000Y-62350000D01*
X133550000Y-62350000D01*
X133574504Y-62351204D01*
G37*
G36*
X133574504Y-67751204D02*
G01*
X133598773Y-67754804D01*
X133622571Y-67760765D01*
X133645671Y-67769030D01*
X133667849Y-67779520D01*
X133688893Y-67792133D01*
X133708598Y-67806747D01*
X133726777Y-67823223D01*
X133743253Y-67841402D01*
X133757867Y-67861107D01*
X133770480Y-67882151D01*
X133780970Y-67904329D01*
X133789235Y-67927429D01*
X133795196Y-67951227D01*
X133798796Y-67975496D01*
X133800000Y-68000000D01*
X133800000Y-71000000D01*
X133798796Y-71024504D01*
X133795196Y-71048773D01*
X133789235Y-71072571D01*
X133780970Y-71095671D01*
X133770480Y-71117849D01*
X133757867Y-71138893D01*
X133743253Y-71158598D01*
X133726777Y-71176777D01*
X133708598Y-71193253D01*
X133688893Y-71207867D01*
X133667849Y-71220480D01*
X133645671Y-71230970D01*
X133622571Y-71239235D01*
X133598773Y-71245196D01*
X133574504Y-71248796D01*
X133550000Y-71250000D01*
X132450000Y-71250000D01*
X132425496Y-71248796D01*
X132401227Y-71245196D01*
X132377429Y-71239235D01*
X132354329Y-71230970D01*
X132332151Y-71220480D01*
X132311107Y-71207867D01*
X132291402Y-71193253D01*
X132273223Y-71176777D01*
X132256747Y-71158598D01*
X132242133Y-71138893D01*
X132229520Y-71117849D01*
X132219030Y-71095671D01*
X132210765Y-71072571D01*
X132204804Y-71048773D01*
X132201204Y-71024504D01*
X132200000Y-71000000D01*
X132200000Y-68000000D01*
X132201204Y-67975496D01*
X132204804Y-67951227D01*
X132210765Y-67927429D01*
X132219030Y-67904329D01*
X132229520Y-67882151D01*
X132242133Y-67861107D01*
X132256747Y-67841402D01*
X132273223Y-67823223D01*
X132291402Y-67806747D01*
X132311107Y-67792133D01*
X132332151Y-67779520D01*
X132354329Y-67769030D01*
X132377429Y-67760765D01*
X132401227Y-67754804D01*
X132425496Y-67751204D01*
X132450000Y-67750000D01*
X133550000Y-67750000D01*
X133574504Y-67751204D01*
G37*
G36*
X102484306Y-81501685D02*
G01*
X102518282Y-81506725D01*
X102551600Y-81515071D01*
X102583939Y-81526642D01*
X102614989Y-81541328D01*
X102644450Y-81558986D01*
X102672038Y-81579446D01*
X102697487Y-81602513D01*
X102720554Y-81627962D01*
X102741014Y-81655550D01*
X102758672Y-81685011D01*
X102773358Y-81716061D01*
X102784929Y-81748400D01*
X102793275Y-81781718D01*
X102798315Y-81815694D01*
X102800000Y-81850000D01*
X102800000Y-86150000D01*
X102798315Y-86184306D01*
X102793275Y-86218282D01*
X102784929Y-86251600D01*
X102773358Y-86283939D01*
X102758672Y-86314989D01*
X102741014Y-86344450D01*
X102720554Y-86372038D01*
X102697487Y-86397487D01*
X102672038Y-86420554D01*
X102644450Y-86441014D01*
X102614989Y-86458672D01*
X102583939Y-86473358D01*
X102551600Y-86484929D01*
X102518282Y-86493275D01*
X102484306Y-86498315D01*
X102450000Y-86500000D01*
X101750000Y-86500000D01*
X101715694Y-86498315D01*
X101681718Y-86493275D01*
X101648400Y-86484929D01*
X101616061Y-86473358D01*
X101585011Y-86458672D01*
X101555550Y-86441014D01*
X101527962Y-86420554D01*
X101502513Y-86397487D01*
X101479446Y-86372038D01*
X101458986Y-86344450D01*
X101441328Y-86314989D01*
X101426642Y-86283939D01*
X101415071Y-86251600D01*
X101406725Y-86218282D01*
X101401685Y-86184306D01*
X101400000Y-86150000D01*
X101400000Y-81850000D01*
X101401685Y-81815694D01*
X101406725Y-81781718D01*
X101415071Y-81748400D01*
X101426642Y-81716061D01*
X101441328Y-81685011D01*
X101458986Y-81655550D01*
X101479446Y-81627962D01*
X101502513Y-81602513D01*
X101527962Y-81579446D01*
X101555550Y-81558986D01*
X101585011Y-81541328D01*
X101616061Y-81526642D01*
X101648400Y-81515071D01*
X101681718Y-81506725D01*
X101715694Y-81501685D01*
X101750000Y-81500000D01*
X102450000Y-81500000D01*
X102484306Y-81501685D01*
G37*
G36*
X104884306Y-81501685D02*
G01*
X104918282Y-81506725D01*
X104951600Y-81515071D01*
X104983939Y-81526642D01*
X105014989Y-81541328D01*
X105044450Y-81558986D01*
X105072038Y-81579446D01*
X105097487Y-81602513D01*
X105120554Y-81627962D01*
X105141014Y-81655550D01*
X105158672Y-81685011D01*
X105173358Y-81716061D01*
X105184929Y-81748400D01*
X105193275Y-81781718D01*
X105198315Y-81815694D01*
X105200000Y-81850000D01*
X105200000Y-86150000D01*
X105198315Y-86184306D01*
X105193275Y-86218282D01*
X105184929Y-86251600D01*
X105173358Y-86283939D01*
X105158672Y-86314989D01*
X105141014Y-86344450D01*
X105120554Y-86372038D01*
X105097487Y-86397487D01*
X105072038Y-86420554D01*
X105044450Y-86441014D01*
X105014989Y-86458672D01*
X104983939Y-86473358D01*
X104951600Y-86484929D01*
X104918282Y-86493275D01*
X104884306Y-86498315D01*
X104850000Y-86500000D01*
X104150000Y-86500000D01*
X104115694Y-86498315D01*
X104081718Y-86493275D01*
X104048400Y-86484929D01*
X104016061Y-86473358D01*
X103985011Y-86458672D01*
X103955550Y-86441014D01*
X103927962Y-86420554D01*
X103902513Y-86397487D01*
X103879446Y-86372038D01*
X103858986Y-86344450D01*
X103841328Y-86314989D01*
X103826642Y-86283939D01*
X103815071Y-86251600D01*
X103806725Y-86218282D01*
X103801685Y-86184306D01*
X103800000Y-86150000D01*
X103800000Y-81850000D01*
X103801685Y-81815694D01*
X103806725Y-81781718D01*
X103815071Y-81748400D01*
X103826642Y-81716061D01*
X103841328Y-81685011D01*
X103858986Y-81655550D01*
X103879446Y-81627962D01*
X103902513Y-81602513D01*
X103927962Y-81579446D01*
X103955550Y-81558986D01*
X103985011Y-81541328D01*
X104016061Y-81526642D01*
X104048400Y-81515071D01*
X104081718Y-81506725D01*
X104115694Y-81501685D01*
X104150000Y-81500000D01*
X104850000Y-81500000D01*
X104884306Y-81501685D01*
G37*
D14*
X199900000Y-107100000D03*
X207000000Y-107000000D03*
D15*
X177500000Y-105000000D03*
X195026000Y-105000000D03*
D16*
X138000000Y-71680000D03*
X138000000Y-92000000D03*
D17*
X141854000Y-103500000D03*
X162174000Y-103500000D03*
X142092000Y-60158000D03*
X162412000Y-60158000D03*
D18*
X99000000Y-64160000D03*
X99000000Y-59080000D03*
X99000000Y-54000000D03*
X111192000Y-54000000D03*
X111192000Y-59080000D03*
X111192000Y-64160000D03*
X99000000Y-71780000D03*
X111192000Y-71780000D03*
D19*
X122834000Y-64714000D03*
X125374000Y-69032000D03*
X120294000Y-69032000D03*
D13*
G36*
X148914505Y-109110204D02*
G01*
X148938773Y-109113804D01*
X148962572Y-109119765D01*
X148985671Y-109128030D01*
X149007850Y-109138520D01*
X149028893Y-109151132D01*
X149048599Y-109165747D01*
X149066777Y-109182223D01*
X149083253Y-109200401D01*
X149097868Y-109220107D01*
X149110480Y-109241150D01*
X149120970Y-109263329D01*
X149129235Y-109286428D01*
X149135196Y-109310227D01*
X149138796Y-109334495D01*
X149140000Y-109358999D01*
X149140000Y-112209001D01*
X149138796Y-112233505D01*
X149135196Y-112257773D01*
X149129235Y-112281572D01*
X149120970Y-112304671D01*
X149110480Y-112326850D01*
X149097868Y-112347893D01*
X149083253Y-112367599D01*
X149066777Y-112385777D01*
X149048599Y-112402253D01*
X149028893Y-112416868D01*
X149007850Y-112429480D01*
X148985671Y-112439970D01*
X148962572Y-112448235D01*
X148938773Y-112454196D01*
X148914505Y-112457796D01*
X148890001Y-112459000D01*
X148164999Y-112459000D01*
X148140495Y-112457796D01*
X148116227Y-112454196D01*
X148092428Y-112448235D01*
X148069329Y-112439970D01*
X148047150Y-112429480D01*
X148026107Y-112416868D01*
X148006401Y-112402253D01*
X147988223Y-112385777D01*
X147971747Y-112367599D01*
X147957132Y-112347893D01*
X147944520Y-112326850D01*
X147934030Y-112304671D01*
X147925765Y-112281572D01*
X147919804Y-112257773D01*
X147916204Y-112233505D01*
X147915000Y-112209001D01*
X147915000Y-109358999D01*
X147916204Y-109334495D01*
X147919804Y-109310227D01*
X147925765Y-109286428D01*
X147934030Y-109263329D01*
X147944520Y-109241150D01*
X147957132Y-109220107D01*
X147971747Y-109200401D01*
X147988223Y-109182223D01*
X148006401Y-109165747D01*
X148026107Y-109151132D01*
X148047150Y-109138520D01*
X148069329Y-109128030D01*
X148092428Y-109119765D01*
X148116227Y-109113804D01*
X148140495Y-109110204D01*
X148164999Y-109109000D01*
X148890001Y-109109000D01*
X148914505Y-109110204D01*
G37*
G36*
X154839505Y-109110204D02*
G01*
X154863773Y-109113804D01*
X154887572Y-109119765D01*
X154910671Y-109128030D01*
X154932850Y-109138520D01*
X154953893Y-109151132D01*
X154973599Y-109165747D01*
X154991777Y-109182223D01*
X155008253Y-109200401D01*
X155022868Y-109220107D01*
X155035480Y-109241150D01*
X155045970Y-109263329D01*
X155054235Y-109286428D01*
X155060196Y-109310227D01*
X155063796Y-109334495D01*
X155065000Y-109358999D01*
X155065000Y-112209001D01*
X155063796Y-112233505D01*
X155060196Y-112257773D01*
X155054235Y-112281572D01*
X155045970Y-112304671D01*
X155035480Y-112326850D01*
X155022868Y-112347893D01*
X155008253Y-112367599D01*
X154991777Y-112385777D01*
X154973599Y-112402253D01*
X154953893Y-112416868D01*
X154932850Y-112429480D01*
X154910671Y-112439970D01*
X154887572Y-112448235D01*
X154863773Y-112454196D01*
X154839505Y-112457796D01*
X154815001Y-112459000D01*
X154089999Y-112459000D01*
X154065495Y-112457796D01*
X154041227Y-112454196D01*
X154017428Y-112448235D01*
X153994329Y-112439970D01*
X153972150Y-112429480D01*
X153951107Y-112416868D01*
X153931401Y-112402253D01*
X153913223Y-112385777D01*
X153896747Y-112367599D01*
X153882132Y-112347893D01*
X153869520Y-112326850D01*
X153859030Y-112304671D01*
X153850765Y-112281572D01*
X153844804Y-112257773D01*
X153841204Y-112233505D01*
X153840000Y-112209001D01*
X153840000Y-109358999D01*
X153841204Y-109334495D01*
X153844804Y-109310227D01*
X153850765Y-109286428D01*
X153859030Y-109263329D01*
X153869520Y-109241150D01*
X153882132Y-109220107D01*
X153896747Y-109200401D01*
X153913223Y-109182223D01*
X153931401Y-109165747D01*
X153951107Y-109151132D01*
X153972150Y-109138520D01*
X153994329Y-109128030D01*
X154017428Y-109119765D01*
X154041227Y-109113804D01*
X154065495Y-109110204D01*
X154089999Y-109109000D01*
X154815001Y-109109000D01*
X154839505Y-109110204D01*
G37*
G36*
X155928005Y-50864204D02*
G01*
X155952273Y-50867804D01*
X155976072Y-50873765D01*
X155999171Y-50882030D01*
X156021350Y-50892520D01*
X156042393Y-50905132D01*
X156062099Y-50919747D01*
X156080277Y-50936223D01*
X156096753Y-50954401D01*
X156111368Y-50974107D01*
X156123980Y-50995150D01*
X156134470Y-51017329D01*
X156142735Y-51040428D01*
X156148696Y-51064227D01*
X156152296Y-51088495D01*
X156153500Y-51112999D01*
X156153500Y-53963001D01*
X156152296Y-53987505D01*
X156148696Y-54011773D01*
X156142735Y-54035572D01*
X156134470Y-54058671D01*
X156123980Y-54080850D01*
X156111368Y-54101893D01*
X156096753Y-54121599D01*
X156080277Y-54139777D01*
X156062099Y-54156253D01*
X156042393Y-54170868D01*
X156021350Y-54183480D01*
X155999171Y-54193970D01*
X155976072Y-54202235D01*
X155952273Y-54208196D01*
X155928005Y-54211796D01*
X155903501Y-54213000D01*
X155178499Y-54213000D01*
X155153995Y-54211796D01*
X155129727Y-54208196D01*
X155105928Y-54202235D01*
X155082829Y-54193970D01*
X155060650Y-54183480D01*
X155039607Y-54170868D01*
X155019901Y-54156253D01*
X155001723Y-54139777D01*
X154985247Y-54121599D01*
X154970632Y-54101893D01*
X154958020Y-54080850D01*
X154947530Y-54058671D01*
X154939265Y-54035572D01*
X154933304Y-54011773D01*
X154929704Y-53987505D01*
X154928500Y-53963001D01*
X154928500Y-51112999D01*
X154929704Y-51088495D01*
X154933304Y-51064227D01*
X154939265Y-51040428D01*
X154947530Y-51017329D01*
X154958020Y-50995150D01*
X154970632Y-50974107D01*
X154985247Y-50954401D01*
X155001723Y-50936223D01*
X155019901Y-50919747D01*
X155039607Y-50905132D01*
X155060650Y-50892520D01*
X155082829Y-50882030D01*
X155105928Y-50873765D01*
X155129727Y-50867804D01*
X155153995Y-50864204D01*
X155178499Y-50863000D01*
X155903501Y-50863000D01*
X155928005Y-50864204D01*
G37*
G36*
X150003005Y-50864204D02*
G01*
X150027273Y-50867804D01*
X150051072Y-50873765D01*
X150074171Y-50882030D01*
X150096350Y-50892520D01*
X150117393Y-50905132D01*
X150137099Y-50919747D01*
X150155277Y-50936223D01*
X150171753Y-50954401D01*
X150186368Y-50974107D01*
X150198980Y-50995150D01*
X150209470Y-51017329D01*
X150217735Y-51040428D01*
X150223696Y-51064227D01*
X150227296Y-51088495D01*
X150228500Y-51112999D01*
X150228500Y-53963001D01*
X150227296Y-53987505D01*
X150223696Y-54011773D01*
X150217735Y-54035572D01*
X150209470Y-54058671D01*
X150198980Y-54080850D01*
X150186368Y-54101893D01*
X150171753Y-54121599D01*
X150155277Y-54139777D01*
X150137099Y-54156253D01*
X150117393Y-54170868D01*
X150096350Y-54183480D01*
X150074171Y-54193970D01*
X150051072Y-54202235D01*
X150027273Y-54208196D01*
X150003005Y-54211796D01*
X149978501Y-54213000D01*
X149253499Y-54213000D01*
X149228995Y-54211796D01*
X149204727Y-54208196D01*
X149180928Y-54202235D01*
X149157829Y-54193970D01*
X149135650Y-54183480D01*
X149114607Y-54170868D01*
X149094901Y-54156253D01*
X149076723Y-54139777D01*
X149060247Y-54121599D01*
X149045632Y-54101893D01*
X149033020Y-54080850D01*
X149022530Y-54058671D01*
X149014265Y-54035572D01*
X149008304Y-54011773D01*
X149004704Y-53987505D01*
X149003500Y-53963001D01*
X149003500Y-51112999D01*
X149004704Y-51088495D01*
X149008304Y-51064227D01*
X149014265Y-51040428D01*
X149022530Y-51017329D01*
X149033020Y-50995150D01*
X149045632Y-50974107D01*
X149060247Y-50954401D01*
X149076723Y-50936223D01*
X149094901Y-50919747D01*
X149114607Y-50905132D01*
X149135650Y-50892520D01*
X149157829Y-50882030D01*
X149180928Y-50873765D01*
X149204727Y-50867804D01*
X149228995Y-50864204D01*
X149253499Y-50863000D01*
X149978501Y-50863000D01*
X150003005Y-50864204D01*
G37*
G36*
X157731504Y-109910204D02*
G01*
X157755773Y-109913804D01*
X157779571Y-109919765D01*
X157802671Y-109928030D01*
X157824849Y-109938520D01*
X157845893Y-109951133D01*
X157865598Y-109965747D01*
X157883777Y-109982223D01*
X157900253Y-110000402D01*
X157914867Y-110020107D01*
X157927480Y-110041151D01*
X157937970Y-110063329D01*
X157946235Y-110086429D01*
X157952196Y-110110227D01*
X157955796Y-110134496D01*
X157957000Y-110159000D01*
X157957000Y-111409000D01*
X157955796Y-111433504D01*
X157952196Y-111457773D01*
X157946235Y-111481571D01*
X157937970Y-111504671D01*
X157927480Y-111526849D01*
X157914867Y-111547893D01*
X157900253Y-111567598D01*
X157883777Y-111585777D01*
X157865598Y-111602253D01*
X157845893Y-111616867D01*
X157824849Y-111629480D01*
X157802671Y-111639970D01*
X157779571Y-111648235D01*
X157755773Y-111654196D01*
X157731504Y-111657796D01*
X157707000Y-111659000D01*
X156957000Y-111659000D01*
X156932496Y-111657796D01*
X156908227Y-111654196D01*
X156884429Y-111648235D01*
X156861329Y-111639970D01*
X156839151Y-111629480D01*
X156818107Y-111616867D01*
X156798402Y-111602253D01*
X156780223Y-111585777D01*
X156763747Y-111567598D01*
X156749133Y-111547893D01*
X156736520Y-111526849D01*
X156726030Y-111504671D01*
X156717765Y-111481571D01*
X156711804Y-111457773D01*
X156708204Y-111433504D01*
X156707000Y-111409000D01*
X156707000Y-110159000D01*
X156708204Y-110134496D01*
X156711804Y-110110227D01*
X156717765Y-110086429D01*
X156726030Y-110063329D01*
X156736520Y-110041151D01*
X156749133Y-110020107D01*
X156763747Y-110000402D01*
X156780223Y-109982223D01*
X156798402Y-109965747D01*
X156818107Y-109951133D01*
X156839151Y-109938520D01*
X156861329Y-109928030D01*
X156884429Y-109919765D01*
X156908227Y-109913804D01*
X156932496Y-109910204D01*
X156957000Y-109909000D01*
X157707000Y-109909000D01*
X157731504Y-109910204D01*
G37*
G36*
X160531504Y-109910204D02*
G01*
X160555773Y-109913804D01*
X160579571Y-109919765D01*
X160602671Y-109928030D01*
X160624849Y-109938520D01*
X160645893Y-109951133D01*
X160665598Y-109965747D01*
X160683777Y-109982223D01*
X160700253Y-110000402D01*
X160714867Y-110020107D01*
X160727480Y-110041151D01*
X160737970Y-110063329D01*
X160746235Y-110086429D01*
X160752196Y-110110227D01*
X160755796Y-110134496D01*
X160757000Y-110159000D01*
X160757000Y-111409000D01*
X160755796Y-111433504D01*
X160752196Y-111457773D01*
X160746235Y-111481571D01*
X160737970Y-111504671D01*
X160727480Y-111526849D01*
X160714867Y-111547893D01*
X160700253Y-111567598D01*
X160683777Y-111585777D01*
X160665598Y-111602253D01*
X160645893Y-111616867D01*
X160624849Y-111629480D01*
X160602671Y-111639970D01*
X160579571Y-111648235D01*
X160555773Y-111654196D01*
X160531504Y-111657796D01*
X160507000Y-111659000D01*
X159757000Y-111659000D01*
X159732496Y-111657796D01*
X159708227Y-111654196D01*
X159684429Y-111648235D01*
X159661329Y-111639970D01*
X159639151Y-111629480D01*
X159618107Y-111616867D01*
X159598402Y-111602253D01*
X159580223Y-111585777D01*
X159563747Y-111567598D01*
X159549133Y-111547893D01*
X159536520Y-111526849D01*
X159526030Y-111504671D01*
X159517765Y-111481571D01*
X159511804Y-111457773D01*
X159508204Y-111433504D01*
X159507000Y-111409000D01*
X159507000Y-110159000D01*
X159508204Y-110134496D01*
X159511804Y-110110227D01*
X159517765Y-110086429D01*
X159526030Y-110063329D01*
X159536520Y-110041151D01*
X159549133Y-110020107D01*
X159563747Y-110000402D01*
X159580223Y-109982223D01*
X159598402Y-109965747D01*
X159618107Y-109951133D01*
X159639151Y-109938520D01*
X159661329Y-109928030D01*
X159684429Y-109919765D01*
X159708227Y-109913804D01*
X159732496Y-109910204D01*
X159757000Y-109909000D01*
X160507000Y-109909000D01*
X160531504Y-109910204D01*
G37*
G36*
X146973504Y-51410204D02*
G01*
X146997773Y-51413804D01*
X147021571Y-51419765D01*
X147044671Y-51428030D01*
X147066849Y-51438520D01*
X147087893Y-51451133D01*
X147107598Y-51465747D01*
X147125777Y-51482223D01*
X147142253Y-51500402D01*
X147156867Y-51520107D01*
X147169480Y-51541151D01*
X147179970Y-51563329D01*
X147188235Y-51586429D01*
X147194196Y-51610227D01*
X147197796Y-51634496D01*
X147199000Y-51659000D01*
X147199000Y-52909000D01*
X147197796Y-52933504D01*
X147194196Y-52957773D01*
X147188235Y-52981571D01*
X147179970Y-53004671D01*
X147169480Y-53026849D01*
X147156867Y-53047893D01*
X147142253Y-53067598D01*
X147125777Y-53085777D01*
X147107598Y-53102253D01*
X147087893Y-53116867D01*
X147066849Y-53129480D01*
X147044671Y-53139970D01*
X147021571Y-53148235D01*
X146997773Y-53154196D01*
X146973504Y-53157796D01*
X146949000Y-53159000D01*
X146199000Y-53159000D01*
X146174496Y-53157796D01*
X146150227Y-53154196D01*
X146126429Y-53148235D01*
X146103329Y-53139970D01*
X146081151Y-53129480D01*
X146060107Y-53116867D01*
X146040402Y-53102253D01*
X146022223Y-53085777D01*
X146005747Y-53067598D01*
X145991133Y-53047893D01*
X145978520Y-53026849D01*
X145968030Y-53004671D01*
X145959765Y-52981571D01*
X145953804Y-52957773D01*
X145950204Y-52933504D01*
X145949000Y-52909000D01*
X145949000Y-51659000D01*
X145950204Y-51634496D01*
X145953804Y-51610227D01*
X145959765Y-51586429D01*
X145968030Y-51563329D01*
X145978520Y-51541151D01*
X145991133Y-51520107D01*
X146005747Y-51500402D01*
X146022223Y-51482223D01*
X146040402Y-51465747D01*
X146060107Y-51451133D01*
X146081151Y-51438520D01*
X146103329Y-51428030D01*
X146126429Y-51419765D01*
X146150227Y-51413804D01*
X146174496Y-51410204D01*
X146199000Y-51409000D01*
X146949000Y-51409000D01*
X146973504Y-51410204D01*
G37*
G36*
X144173504Y-51410204D02*
G01*
X144197773Y-51413804D01*
X144221571Y-51419765D01*
X144244671Y-51428030D01*
X144266849Y-51438520D01*
X144287893Y-51451133D01*
X144307598Y-51465747D01*
X144325777Y-51482223D01*
X144342253Y-51500402D01*
X144356867Y-51520107D01*
X144369480Y-51541151D01*
X144379970Y-51563329D01*
X144388235Y-51586429D01*
X144394196Y-51610227D01*
X144397796Y-51634496D01*
X144399000Y-51659000D01*
X144399000Y-52909000D01*
X144397796Y-52933504D01*
X144394196Y-52957773D01*
X144388235Y-52981571D01*
X144379970Y-53004671D01*
X144369480Y-53026849D01*
X144356867Y-53047893D01*
X144342253Y-53067598D01*
X144325777Y-53085777D01*
X144307598Y-53102253D01*
X144287893Y-53116867D01*
X144266849Y-53129480D01*
X144244671Y-53139970D01*
X144221571Y-53148235D01*
X144197773Y-53154196D01*
X144173504Y-53157796D01*
X144149000Y-53159000D01*
X143399000Y-53159000D01*
X143374496Y-53157796D01*
X143350227Y-53154196D01*
X143326429Y-53148235D01*
X143303329Y-53139970D01*
X143281151Y-53129480D01*
X143260107Y-53116867D01*
X143240402Y-53102253D01*
X143222223Y-53085777D01*
X143205747Y-53067598D01*
X143191133Y-53047893D01*
X143178520Y-53026849D01*
X143168030Y-53004671D01*
X143159765Y-52981571D01*
X143153804Y-52957773D01*
X143150204Y-52933504D01*
X143149000Y-52909000D01*
X143149000Y-51659000D01*
X143150204Y-51634496D01*
X143153804Y-51610227D01*
X143159765Y-51586429D01*
X143168030Y-51563329D01*
X143178520Y-51541151D01*
X143191133Y-51520107D01*
X143205747Y-51500402D01*
X143222223Y-51482223D01*
X143240402Y-51465747D01*
X143260107Y-51451133D01*
X143281151Y-51438520D01*
X143303329Y-51428030D01*
X143326429Y-51419765D01*
X143350227Y-51413804D01*
X143374496Y-51410204D01*
X143399000Y-51409000D01*
X144149000Y-51409000D01*
X144173504Y-51410204D01*
G37*
D20*
X154500000Y-104434000D03*
X151970160Y-104434000D03*
X149473340Y-104434000D03*
X149661200Y-58888000D03*
X152191040Y-58888000D03*
X154687860Y-58888000D03*
D21*
X165000000Y-75000000D03*
X165000000Y-88800000D03*
X204600000Y-70800000D03*
X204700000Y-82100000D03*
X204700000Y-92700000D03*
D13*
G36*
X118384306Y-110001685D02*
G01*
X118418282Y-110006725D01*
X118451600Y-110015071D01*
X118483939Y-110026642D01*
X118514989Y-110041328D01*
X118544450Y-110058986D01*
X118572038Y-110079446D01*
X118597487Y-110102513D01*
X118620554Y-110127962D01*
X118641014Y-110155550D01*
X118658672Y-110185011D01*
X118673358Y-110216061D01*
X118684929Y-110248400D01*
X118693275Y-110281718D01*
X118698315Y-110315694D01*
X118700000Y-110350000D01*
X118700000Y-114650000D01*
X118698315Y-114684306D01*
X118693275Y-114718282D01*
X118684929Y-114751600D01*
X118673358Y-114783939D01*
X118658672Y-114814989D01*
X118641014Y-114844450D01*
X118620554Y-114872038D01*
X118597487Y-114897487D01*
X118572038Y-114920554D01*
X118544450Y-114941014D01*
X118514989Y-114958672D01*
X118483939Y-114973358D01*
X118451600Y-114984929D01*
X118418282Y-114993275D01*
X118384306Y-114998315D01*
X118350000Y-115000000D01*
X117650000Y-115000000D01*
X117615694Y-114998315D01*
X117581718Y-114993275D01*
X117548400Y-114984929D01*
X117516061Y-114973358D01*
X117485011Y-114958672D01*
X117455550Y-114941014D01*
X117427962Y-114920554D01*
X117402513Y-114897487D01*
X117379446Y-114872038D01*
X117358986Y-114844450D01*
X117341328Y-114814989D01*
X117326642Y-114783939D01*
X117315071Y-114751600D01*
X117306725Y-114718282D01*
X117301685Y-114684306D01*
X117300000Y-114650000D01*
X117300000Y-110350000D01*
X117301685Y-110315694D01*
X117306725Y-110281718D01*
X117315071Y-110248400D01*
X117326642Y-110216061D01*
X117341328Y-110185011D01*
X117358986Y-110155550D01*
X117379446Y-110127962D01*
X117402513Y-110102513D01*
X117427962Y-110079446D01*
X117455550Y-110058986D01*
X117485011Y-110041328D01*
X117516061Y-110026642D01*
X117548400Y-110015071D01*
X117581718Y-110006725D01*
X117615694Y-110001685D01*
X117650000Y-110000000D01*
X118350000Y-110000000D01*
X118384306Y-110001685D01*
G37*
G36*
X123212846Y-110009305D02*
G01*
X123246822Y-110014345D01*
X123280140Y-110022691D01*
X123312479Y-110034262D01*
X123343529Y-110048948D01*
X123372990Y-110066606D01*
X123400578Y-110087066D01*
X123426027Y-110110133D01*
X123449094Y-110135582D01*
X123469554Y-110163170D01*
X123487212Y-110192631D01*
X123501898Y-110223681D01*
X123513469Y-110256020D01*
X123521815Y-110289338D01*
X123526855Y-110323314D01*
X123528540Y-110357620D01*
X123528540Y-114657620D01*
X123526855Y-114691926D01*
X123521815Y-114725902D01*
X123513469Y-114759220D01*
X123501898Y-114791559D01*
X123487212Y-114822609D01*
X123469554Y-114852070D01*
X123449094Y-114879658D01*
X123426027Y-114905107D01*
X123400578Y-114928174D01*
X123372990Y-114948634D01*
X123343529Y-114966292D01*
X123312479Y-114980978D01*
X123280140Y-114992549D01*
X123246822Y-115000895D01*
X123212846Y-115005935D01*
X123178540Y-115007620D01*
X122478540Y-115007620D01*
X122444234Y-115005935D01*
X122410258Y-115000895D01*
X122376940Y-114992549D01*
X122344601Y-114980978D01*
X122313551Y-114966292D01*
X122284090Y-114948634D01*
X122256502Y-114928174D01*
X122231053Y-114905107D01*
X122207986Y-114879658D01*
X122187526Y-114852070D01*
X122169868Y-114822609D01*
X122155182Y-114791559D01*
X122143611Y-114759220D01*
X122135265Y-114725902D01*
X122130225Y-114691926D01*
X122128540Y-114657620D01*
X122128540Y-110357620D01*
X122130225Y-110323314D01*
X122135265Y-110289338D01*
X122143611Y-110256020D01*
X122155182Y-110223681D01*
X122169868Y-110192631D01*
X122187526Y-110163170D01*
X122207986Y-110135582D01*
X122231053Y-110110133D01*
X122256502Y-110087066D01*
X122284090Y-110066606D01*
X122313551Y-110048948D01*
X122344601Y-110034262D01*
X122376940Y-110022691D01*
X122410258Y-110014345D01*
X122444234Y-110009305D01*
X122478540Y-110007620D01*
X123178540Y-110007620D01*
X123212846Y-110009305D01*
G37*
G36*
X118363986Y-110014385D02*
G01*
X118397962Y-110019425D01*
X118431280Y-110027771D01*
X118463619Y-110039342D01*
X118494669Y-110054028D01*
X118524130Y-110071686D01*
X118551718Y-110092146D01*
X118577167Y-110115213D01*
X118600234Y-110140662D01*
X118620694Y-110168250D01*
X118638352Y-110197711D01*
X118653038Y-110228761D01*
X118664609Y-110261100D01*
X118672955Y-110294418D01*
X118677995Y-110328394D01*
X118679680Y-110362700D01*
X118679680Y-114662700D01*
X118677995Y-114697006D01*
X118672955Y-114730982D01*
X118664609Y-114764300D01*
X118653038Y-114796639D01*
X118638352Y-114827689D01*
X118620694Y-114857150D01*
X118600234Y-114884738D01*
X118577167Y-114910187D01*
X118551718Y-114933254D01*
X118524130Y-114953714D01*
X118494669Y-114971372D01*
X118463619Y-114986058D01*
X118431280Y-114997629D01*
X118397962Y-115005975D01*
X118363986Y-115011015D01*
X118329680Y-115012700D01*
X117629680Y-115012700D01*
X117595374Y-115011015D01*
X117561398Y-115005975D01*
X117528080Y-114997629D01*
X117495741Y-114986058D01*
X117464691Y-114971372D01*
X117435230Y-114953714D01*
X117407642Y-114933254D01*
X117382193Y-114910187D01*
X117359126Y-114884738D01*
X117338666Y-114857150D01*
X117321008Y-114827689D01*
X117306322Y-114796639D01*
X117294751Y-114764300D01*
X117286405Y-114730982D01*
X117281365Y-114697006D01*
X117279680Y-114662700D01*
X117279680Y-110362700D01*
X117281365Y-110328394D01*
X117286405Y-110294418D01*
X117294751Y-110261100D01*
X117306322Y-110228761D01*
X117321008Y-110197711D01*
X117338666Y-110168250D01*
X117359126Y-110140662D01*
X117382193Y-110115213D01*
X117407642Y-110092146D01*
X117435230Y-110071686D01*
X117464691Y-110054028D01*
X117495741Y-110039342D01*
X117528080Y-110027771D01*
X117561398Y-110019425D01*
X117595374Y-110014385D01*
X117629680Y-110012700D01*
X118329680Y-110012700D01*
X118363986Y-110014385D01*
G37*
G36*
X123205226Y-109996605D02*
G01*
X123239202Y-110001645D01*
X123272520Y-110009991D01*
X123304859Y-110021562D01*
X123335909Y-110036248D01*
X123365370Y-110053906D01*
X123392958Y-110074366D01*
X123418407Y-110097433D01*
X123441474Y-110122882D01*
X123461934Y-110150470D01*
X123479592Y-110179931D01*
X123494278Y-110210981D01*
X123505849Y-110243320D01*
X123514195Y-110276638D01*
X123519235Y-110310614D01*
X123520920Y-110344920D01*
X123520920Y-114644920D01*
X123519235Y-114679226D01*
X123514195Y-114713202D01*
X123505849Y-114746520D01*
X123494278Y-114778859D01*
X123479592Y-114809909D01*
X123461934Y-114839370D01*
X123441474Y-114866958D01*
X123418407Y-114892407D01*
X123392958Y-114915474D01*
X123365370Y-114935934D01*
X123335909Y-114953592D01*
X123304859Y-114968278D01*
X123272520Y-114979849D01*
X123239202Y-114988195D01*
X123205226Y-114993235D01*
X123170920Y-114994920D01*
X122470920Y-114994920D01*
X122436614Y-114993235D01*
X122402638Y-114988195D01*
X122369320Y-114979849D01*
X122336981Y-114968278D01*
X122305931Y-114953592D01*
X122276470Y-114935934D01*
X122248882Y-114915474D01*
X122223433Y-114892407D01*
X122200366Y-114866958D01*
X122179906Y-114839370D01*
X122162248Y-114809909D01*
X122147562Y-114778859D01*
X122135991Y-114746520D01*
X122127645Y-114713202D01*
X122122605Y-114679226D01*
X122120920Y-114644920D01*
X122120920Y-110344920D01*
X122122605Y-110310614D01*
X122127645Y-110276638D01*
X122135991Y-110243320D01*
X122147562Y-110210981D01*
X122162248Y-110179931D01*
X122179906Y-110150470D01*
X122200366Y-110122882D01*
X122223433Y-110097433D01*
X122248882Y-110074366D01*
X122276470Y-110053906D01*
X122305931Y-110036248D01*
X122336981Y-110021562D01*
X122369320Y-110009991D01*
X122402638Y-110001645D01*
X122436614Y-109996605D01*
X122470920Y-109994920D01*
X123170920Y-109994920D01*
X123205226Y-109996605D01*
G37*
G36*
X120784606Y-110014385D02*
G01*
X120818582Y-110019425D01*
X120851900Y-110027771D01*
X120884239Y-110039342D01*
X120915289Y-110054028D01*
X120944750Y-110071686D01*
X120972338Y-110092146D01*
X120997787Y-110115213D01*
X121020854Y-110140662D01*
X121041314Y-110168250D01*
X121058972Y-110197711D01*
X121073658Y-110228761D01*
X121085229Y-110261100D01*
X121093575Y-110294418D01*
X121098615Y-110328394D01*
X121100300Y-110362700D01*
X121100300Y-114662700D01*
X121098615Y-114697006D01*
X121093575Y-114730982D01*
X121085229Y-114764300D01*
X121073658Y-114796639D01*
X121058972Y-114827689D01*
X121041314Y-114857150D01*
X121020854Y-114884738D01*
X120997787Y-114910187D01*
X120972338Y-114933254D01*
X120944750Y-114953714D01*
X120915289Y-114971372D01*
X120884239Y-114986058D01*
X120851900Y-114997629D01*
X120818582Y-115005975D01*
X120784606Y-115011015D01*
X120750300Y-115012700D01*
X120050300Y-115012700D01*
X120015994Y-115011015D01*
X119982018Y-115005975D01*
X119948700Y-114997629D01*
X119916361Y-114986058D01*
X119885311Y-114971372D01*
X119855850Y-114953714D01*
X119828262Y-114933254D01*
X119802813Y-114910187D01*
X119779746Y-114884738D01*
X119759286Y-114857150D01*
X119741628Y-114827689D01*
X119726942Y-114796639D01*
X119715371Y-114764300D01*
X119707025Y-114730982D01*
X119701985Y-114697006D01*
X119700300Y-114662700D01*
X119700300Y-110362700D01*
X119701985Y-110328394D01*
X119707025Y-110294418D01*
X119715371Y-110261100D01*
X119726942Y-110228761D01*
X119741628Y-110197711D01*
X119759286Y-110168250D01*
X119779746Y-110140662D01*
X119802813Y-110115213D01*
X119828262Y-110092146D01*
X119855850Y-110071686D01*
X119885311Y-110054028D01*
X119916361Y-110039342D01*
X119948700Y-110027771D01*
X119982018Y-110019425D01*
X120015994Y-110014385D01*
X120050300Y-110012700D01*
X120750300Y-110012700D01*
X120784606Y-110014385D01*
G37*
G36*
X130484006Y-109988985D02*
G01*
X130517982Y-109994025D01*
X130551300Y-110002371D01*
X130583639Y-110013942D01*
X130614689Y-110028628D01*
X130644150Y-110046286D01*
X130671738Y-110066746D01*
X130697187Y-110089813D01*
X130720254Y-110115262D01*
X130740714Y-110142850D01*
X130758372Y-110172311D01*
X130773058Y-110203361D01*
X130784629Y-110235700D01*
X130792975Y-110269018D01*
X130798015Y-110302994D01*
X130799700Y-110337300D01*
X130799700Y-114637300D01*
X130798015Y-114671606D01*
X130792975Y-114705582D01*
X130784629Y-114738900D01*
X130773058Y-114771239D01*
X130758372Y-114802289D01*
X130740714Y-114831750D01*
X130720254Y-114859338D01*
X130697187Y-114884787D01*
X130671738Y-114907854D01*
X130644150Y-114928314D01*
X130614689Y-114945972D01*
X130583639Y-114960658D01*
X130551300Y-114972229D01*
X130517982Y-114980575D01*
X130484006Y-114985615D01*
X130449700Y-114987300D01*
X129749700Y-114987300D01*
X129715394Y-114985615D01*
X129681418Y-114980575D01*
X129648100Y-114972229D01*
X129615761Y-114960658D01*
X129584711Y-114945972D01*
X129555250Y-114928314D01*
X129527662Y-114907854D01*
X129502213Y-114884787D01*
X129479146Y-114859338D01*
X129458686Y-114831750D01*
X129441028Y-114802289D01*
X129426342Y-114771239D01*
X129414771Y-114738900D01*
X129406425Y-114705582D01*
X129401385Y-114671606D01*
X129399700Y-114637300D01*
X129399700Y-110337300D01*
X129401385Y-110302994D01*
X129406425Y-110269018D01*
X129414771Y-110235700D01*
X129426342Y-110203361D01*
X129441028Y-110172311D01*
X129458686Y-110142850D01*
X129479146Y-110115262D01*
X129502213Y-110089813D01*
X129527662Y-110066746D01*
X129555250Y-110046286D01*
X129584711Y-110028628D01*
X129615761Y-110013942D01*
X129648100Y-110002371D01*
X129681418Y-109994025D01*
X129715394Y-109988985D01*
X129749700Y-109987300D01*
X130449700Y-109987300D01*
X130484006Y-109988985D01*
G37*
G36*
X135312546Y-109996605D02*
G01*
X135346522Y-110001645D01*
X135379840Y-110009991D01*
X135412179Y-110021562D01*
X135443229Y-110036248D01*
X135472690Y-110053906D01*
X135500278Y-110074366D01*
X135525727Y-110097433D01*
X135548794Y-110122882D01*
X135569254Y-110150470D01*
X135586912Y-110179931D01*
X135601598Y-110210981D01*
X135613169Y-110243320D01*
X135621515Y-110276638D01*
X135626555Y-110310614D01*
X135628240Y-110344920D01*
X135628240Y-114644920D01*
X135626555Y-114679226D01*
X135621515Y-114713202D01*
X135613169Y-114746520D01*
X135601598Y-114778859D01*
X135586912Y-114809909D01*
X135569254Y-114839370D01*
X135548794Y-114866958D01*
X135525727Y-114892407D01*
X135500278Y-114915474D01*
X135472690Y-114935934D01*
X135443229Y-114953592D01*
X135412179Y-114968278D01*
X135379840Y-114979849D01*
X135346522Y-114988195D01*
X135312546Y-114993235D01*
X135278240Y-114994920D01*
X134578240Y-114994920D01*
X134543934Y-114993235D01*
X134509958Y-114988195D01*
X134476640Y-114979849D01*
X134444301Y-114968278D01*
X134413251Y-114953592D01*
X134383790Y-114935934D01*
X134356202Y-114915474D01*
X134330753Y-114892407D01*
X134307686Y-114866958D01*
X134287226Y-114839370D01*
X134269568Y-114809909D01*
X134254882Y-114778859D01*
X134243311Y-114746520D01*
X134234965Y-114713202D01*
X134229925Y-114679226D01*
X134228240Y-114644920D01*
X134228240Y-110344920D01*
X134229925Y-110310614D01*
X134234965Y-110276638D01*
X134243311Y-110243320D01*
X134254882Y-110210981D01*
X134269568Y-110179931D01*
X134287226Y-110150470D01*
X134307686Y-110122882D01*
X134330753Y-110097433D01*
X134356202Y-110074366D01*
X134383790Y-110053906D01*
X134413251Y-110036248D01*
X134444301Y-110021562D01*
X134476640Y-110009991D01*
X134509958Y-110001645D01*
X134543934Y-109996605D01*
X134578240Y-109994920D01*
X135278240Y-109994920D01*
X135312546Y-109996605D01*
G37*
G36*
X130463686Y-110001685D02*
G01*
X130497662Y-110006725D01*
X130530980Y-110015071D01*
X130563319Y-110026642D01*
X130594369Y-110041328D01*
X130623830Y-110058986D01*
X130651418Y-110079446D01*
X130676867Y-110102513D01*
X130699934Y-110127962D01*
X130720394Y-110155550D01*
X130738052Y-110185011D01*
X130752738Y-110216061D01*
X130764309Y-110248400D01*
X130772655Y-110281718D01*
X130777695Y-110315694D01*
X130779380Y-110350000D01*
X130779380Y-114650000D01*
X130777695Y-114684306D01*
X130772655Y-114718282D01*
X130764309Y-114751600D01*
X130752738Y-114783939D01*
X130738052Y-114814989D01*
X130720394Y-114844450D01*
X130699934Y-114872038D01*
X130676867Y-114897487D01*
X130651418Y-114920554D01*
X130623830Y-114941014D01*
X130594369Y-114958672D01*
X130563319Y-114973358D01*
X130530980Y-114984929D01*
X130497662Y-114993275D01*
X130463686Y-114998315D01*
X130429380Y-115000000D01*
X129729380Y-115000000D01*
X129695074Y-114998315D01*
X129661098Y-114993275D01*
X129627780Y-114984929D01*
X129595441Y-114973358D01*
X129564391Y-114958672D01*
X129534930Y-114941014D01*
X129507342Y-114920554D01*
X129481893Y-114897487D01*
X129458826Y-114872038D01*
X129438366Y-114844450D01*
X129420708Y-114814989D01*
X129406022Y-114783939D01*
X129394451Y-114751600D01*
X129386105Y-114718282D01*
X129381065Y-114684306D01*
X129379380Y-114650000D01*
X129379380Y-110350000D01*
X129381065Y-110315694D01*
X129386105Y-110281718D01*
X129394451Y-110248400D01*
X129406022Y-110216061D01*
X129420708Y-110185011D01*
X129438366Y-110155550D01*
X129458826Y-110127962D01*
X129481893Y-110102513D01*
X129507342Y-110079446D01*
X129534930Y-110058986D01*
X129564391Y-110041328D01*
X129595441Y-110026642D01*
X129627780Y-110015071D01*
X129661098Y-110006725D01*
X129695074Y-110001685D01*
X129729380Y-110000000D01*
X130429380Y-110000000D01*
X130463686Y-110001685D01*
G37*
G36*
X135304926Y-109983905D02*
G01*
X135338902Y-109988945D01*
X135372220Y-109997291D01*
X135404559Y-110008862D01*
X135435609Y-110023548D01*
X135465070Y-110041206D01*
X135492658Y-110061666D01*
X135518107Y-110084733D01*
X135541174Y-110110182D01*
X135561634Y-110137770D01*
X135579292Y-110167231D01*
X135593978Y-110198281D01*
X135605549Y-110230620D01*
X135613895Y-110263938D01*
X135618935Y-110297914D01*
X135620620Y-110332220D01*
X135620620Y-114632220D01*
X135618935Y-114666526D01*
X135613895Y-114700502D01*
X135605549Y-114733820D01*
X135593978Y-114766159D01*
X135579292Y-114797209D01*
X135561634Y-114826670D01*
X135541174Y-114854258D01*
X135518107Y-114879707D01*
X135492658Y-114902774D01*
X135465070Y-114923234D01*
X135435609Y-114940892D01*
X135404559Y-114955578D01*
X135372220Y-114967149D01*
X135338902Y-114975495D01*
X135304926Y-114980535D01*
X135270620Y-114982220D01*
X134570620Y-114982220D01*
X134536314Y-114980535D01*
X134502338Y-114975495D01*
X134469020Y-114967149D01*
X134436681Y-114955578D01*
X134405631Y-114940892D01*
X134376170Y-114923234D01*
X134348582Y-114902774D01*
X134323133Y-114879707D01*
X134300066Y-114854258D01*
X134279606Y-114826670D01*
X134261948Y-114797209D01*
X134247262Y-114766159D01*
X134235691Y-114733820D01*
X134227345Y-114700502D01*
X134222305Y-114666526D01*
X134220620Y-114632220D01*
X134220620Y-110332220D01*
X134222305Y-110297914D01*
X134227345Y-110263938D01*
X134235691Y-110230620D01*
X134247262Y-110198281D01*
X134261948Y-110167231D01*
X134279606Y-110137770D01*
X134300066Y-110110182D01*
X134323133Y-110084733D01*
X134348582Y-110061666D01*
X134376170Y-110041206D01*
X134405631Y-110023548D01*
X134436681Y-110008862D01*
X134469020Y-109997291D01*
X134502338Y-109988945D01*
X134536314Y-109983905D01*
X134570620Y-109982220D01*
X135270620Y-109982220D01*
X135304926Y-109983905D01*
G37*
G36*
X132884306Y-110001685D02*
G01*
X132918282Y-110006725D01*
X132951600Y-110015071D01*
X132983939Y-110026642D01*
X133014989Y-110041328D01*
X133044450Y-110058986D01*
X133072038Y-110079446D01*
X133097487Y-110102513D01*
X133120554Y-110127962D01*
X133141014Y-110155550D01*
X133158672Y-110185011D01*
X133173358Y-110216061D01*
X133184929Y-110248400D01*
X133193275Y-110281718D01*
X133198315Y-110315694D01*
X133200000Y-110350000D01*
X133200000Y-114650000D01*
X133198315Y-114684306D01*
X133193275Y-114718282D01*
X133184929Y-114751600D01*
X133173358Y-114783939D01*
X133158672Y-114814989D01*
X133141014Y-114844450D01*
X133120554Y-114872038D01*
X133097487Y-114897487D01*
X133072038Y-114920554D01*
X133044450Y-114941014D01*
X133014989Y-114958672D01*
X132983939Y-114973358D01*
X132951600Y-114984929D01*
X132918282Y-114993275D01*
X132884306Y-114998315D01*
X132850000Y-115000000D01*
X132150000Y-115000000D01*
X132115694Y-114998315D01*
X132081718Y-114993275D01*
X132048400Y-114984929D01*
X132016061Y-114973358D01*
X131985011Y-114958672D01*
X131955550Y-114941014D01*
X131927962Y-114920554D01*
X131902513Y-114897487D01*
X131879446Y-114872038D01*
X131858986Y-114844450D01*
X131841328Y-114814989D01*
X131826642Y-114783939D01*
X131815071Y-114751600D01*
X131806725Y-114718282D01*
X131801685Y-114684306D01*
X131800000Y-114650000D01*
X131800000Y-110350000D01*
X131801685Y-110315694D01*
X131806725Y-110281718D01*
X131815071Y-110248400D01*
X131826642Y-110216061D01*
X131841328Y-110185011D01*
X131858986Y-110155550D01*
X131879446Y-110127962D01*
X131902513Y-110102513D01*
X131927962Y-110079446D01*
X131955550Y-110058986D01*
X131985011Y-110041328D01*
X132016061Y-110026642D01*
X132048400Y-110015071D01*
X132081718Y-110006725D01*
X132115694Y-110001685D01*
X132150000Y-110000000D01*
X132850000Y-110000000D01*
X132884306Y-110001685D01*
G37*
D22*
X104500000Y-94000000D03*
X102500000Y-94950000D03*
X102500000Y-93050000D03*
D23*
X136962000Y-85266000D03*
X136962000Y-78466000D03*
X114462000Y-81766000D03*
X114462000Y-87066000D03*
X114462000Y-76766000D03*
D24*
X113143000Y-99731000D03*
X110093000Y-96381000D03*
X110093000Y-99731000D03*
X113143000Y-96381000D03*
D25*
X113898000Y-104356000D03*
X111618000Y-104356000D03*
X109338000Y-104356000D03*
D13*
G36*
X129672504Y-72003204D02*
G01*
X129696773Y-72006804D01*
X129720571Y-72012765D01*
X129743671Y-72021030D01*
X129765849Y-72031520D01*
X129786893Y-72044133D01*
X129806598Y-72058747D01*
X129824777Y-72075223D01*
X129841253Y-72093402D01*
X129855867Y-72113107D01*
X129868480Y-72134151D01*
X129878970Y-72156329D01*
X129887235Y-72179429D01*
X129893196Y-72203227D01*
X129896796Y-72227496D01*
X129898000Y-72252000D01*
X129898000Y-73502000D01*
X129896796Y-73526504D01*
X129893196Y-73550773D01*
X129887235Y-73574571D01*
X129878970Y-73597671D01*
X129868480Y-73619849D01*
X129855867Y-73640893D01*
X129841253Y-73660598D01*
X129824777Y-73678777D01*
X129806598Y-73695253D01*
X129786893Y-73709867D01*
X129765849Y-73722480D01*
X129743671Y-73732970D01*
X129720571Y-73741235D01*
X129696773Y-73747196D01*
X129672504Y-73750796D01*
X129648000Y-73752000D01*
X128898000Y-73752000D01*
X128873496Y-73750796D01*
X128849227Y-73747196D01*
X128825429Y-73741235D01*
X128802329Y-73732970D01*
X128780151Y-73722480D01*
X128759107Y-73709867D01*
X128739402Y-73695253D01*
X128721223Y-73678777D01*
X128704747Y-73660598D01*
X128690133Y-73640893D01*
X128677520Y-73619849D01*
X128667030Y-73597671D01*
X128658765Y-73574571D01*
X128652804Y-73550773D01*
X128649204Y-73526504D01*
X128648000Y-73502000D01*
X128648000Y-72252000D01*
X128649204Y-72227496D01*
X128652804Y-72203227D01*
X128658765Y-72179429D01*
X128667030Y-72156329D01*
X128677520Y-72134151D01*
X128690133Y-72113107D01*
X128704747Y-72093402D01*
X128721223Y-72075223D01*
X128739402Y-72058747D01*
X128759107Y-72044133D01*
X128780151Y-72031520D01*
X128802329Y-72021030D01*
X128825429Y-72012765D01*
X128849227Y-72006804D01*
X128873496Y-72003204D01*
X128898000Y-72002000D01*
X129648000Y-72002000D01*
X129672504Y-72003204D01*
G37*
G36*
X126872504Y-72003204D02*
G01*
X126896773Y-72006804D01*
X126920571Y-72012765D01*
X126943671Y-72021030D01*
X126965849Y-72031520D01*
X126986893Y-72044133D01*
X127006598Y-72058747D01*
X127024777Y-72075223D01*
X127041253Y-72093402D01*
X127055867Y-72113107D01*
X127068480Y-72134151D01*
X127078970Y-72156329D01*
X127087235Y-72179429D01*
X127093196Y-72203227D01*
X127096796Y-72227496D01*
X127098000Y-72252000D01*
X127098000Y-73502000D01*
X127096796Y-73526504D01*
X127093196Y-73550773D01*
X127087235Y-73574571D01*
X127078970Y-73597671D01*
X127068480Y-73619849D01*
X127055867Y-73640893D01*
X127041253Y-73660598D01*
X127024777Y-73678777D01*
X127006598Y-73695253D01*
X126986893Y-73709867D01*
X126965849Y-73722480D01*
X126943671Y-73732970D01*
X126920571Y-73741235D01*
X126896773Y-73747196D01*
X126872504Y-73750796D01*
X126848000Y-73752000D01*
X126098000Y-73752000D01*
X126073496Y-73750796D01*
X126049227Y-73747196D01*
X126025429Y-73741235D01*
X126002329Y-73732970D01*
X125980151Y-73722480D01*
X125959107Y-73709867D01*
X125939402Y-73695253D01*
X125921223Y-73678777D01*
X125904747Y-73660598D01*
X125890133Y-73640893D01*
X125877520Y-73619849D01*
X125867030Y-73597671D01*
X125858765Y-73574571D01*
X125852804Y-73550773D01*
X125849204Y-73526504D01*
X125848000Y-73502000D01*
X125848000Y-72252000D01*
X125849204Y-72227496D01*
X125852804Y-72203227D01*
X125858765Y-72179429D01*
X125867030Y-72156329D01*
X125877520Y-72134151D01*
X125890133Y-72113107D01*
X125904747Y-72093402D01*
X125921223Y-72075223D01*
X125939402Y-72058747D01*
X125959107Y-72044133D01*
X125980151Y-72031520D01*
X126002329Y-72021030D01*
X126025429Y-72012765D01*
X126049227Y-72006804D01*
X126073496Y-72003204D01*
X126098000Y-72002000D01*
X126848000Y-72002000D01*
X126872504Y-72003204D01*
G37*
G36*
X111649504Y-80576204D02*
G01*
X111673773Y-80579804D01*
X111697571Y-80585765D01*
X111720671Y-80594030D01*
X111742849Y-80604520D01*
X111763893Y-80617133D01*
X111783598Y-80631747D01*
X111801777Y-80648223D01*
X111818253Y-80666402D01*
X111832867Y-80686107D01*
X111845480Y-80707151D01*
X111855970Y-80729329D01*
X111864235Y-80752429D01*
X111870196Y-80776227D01*
X111873796Y-80800496D01*
X111875000Y-80825000D01*
X111875000Y-81575000D01*
X111873796Y-81599504D01*
X111870196Y-81623773D01*
X111864235Y-81647571D01*
X111855970Y-81670671D01*
X111845480Y-81692849D01*
X111832867Y-81713893D01*
X111818253Y-81733598D01*
X111801777Y-81751777D01*
X111783598Y-81768253D01*
X111763893Y-81782867D01*
X111742849Y-81795480D01*
X111720671Y-81805970D01*
X111697571Y-81814235D01*
X111673773Y-81820196D01*
X111649504Y-81823796D01*
X111625000Y-81825000D01*
X110375000Y-81825000D01*
X110350496Y-81823796D01*
X110326227Y-81820196D01*
X110302429Y-81814235D01*
X110279329Y-81805970D01*
X110257151Y-81795480D01*
X110236107Y-81782867D01*
X110216402Y-81768253D01*
X110198223Y-81751777D01*
X110181747Y-81733598D01*
X110167133Y-81713893D01*
X110154520Y-81692849D01*
X110144030Y-81670671D01*
X110135765Y-81647571D01*
X110129804Y-81623773D01*
X110126204Y-81599504D01*
X110125000Y-81575000D01*
X110125000Y-80825000D01*
X110126204Y-80800496D01*
X110129804Y-80776227D01*
X110135765Y-80752429D01*
X110144030Y-80729329D01*
X110154520Y-80707151D01*
X110167133Y-80686107D01*
X110181747Y-80666402D01*
X110198223Y-80648223D01*
X110216402Y-80631747D01*
X110236107Y-80617133D01*
X110257151Y-80604520D01*
X110279329Y-80594030D01*
X110302429Y-80585765D01*
X110326227Y-80579804D01*
X110350496Y-80576204D01*
X110375000Y-80575000D01*
X111625000Y-80575000D01*
X111649504Y-80576204D01*
G37*
G36*
X111649504Y-83376204D02*
G01*
X111673773Y-83379804D01*
X111697571Y-83385765D01*
X111720671Y-83394030D01*
X111742849Y-83404520D01*
X111763893Y-83417133D01*
X111783598Y-83431747D01*
X111801777Y-83448223D01*
X111818253Y-83466402D01*
X111832867Y-83486107D01*
X111845480Y-83507151D01*
X111855970Y-83529329D01*
X111864235Y-83552429D01*
X111870196Y-83576227D01*
X111873796Y-83600496D01*
X111875000Y-83625000D01*
X111875000Y-84375000D01*
X111873796Y-84399504D01*
X111870196Y-84423773D01*
X111864235Y-84447571D01*
X111855970Y-84470671D01*
X111845480Y-84492849D01*
X111832867Y-84513893D01*
X111818253Y-84533598D01*
X111801777Y-84551777D01*
X111783598Y-84568253D01*
X111763893Y-84582867D01*
X111742849Y-84595480D01*
X111720671Y-84605970D01*
X111697571Y-84614235D01*
X111673773Y-84620196D01*
X111649504Y-84623796D01*
X111625000Y-84625000D01*
X110375000Y-84625000D01*
X110350496Y-84623796D01*
X110326227Y-84620196D01*
X110302429Y-84614235D01*
X110279329Y-84605970D01*
X110257151Y-84595480D01*
X110236107Y-84582867D01*
X110216402Y-84568253D01*
X110198223Y-84551777D01*
X110181747Y-84533598D01*
X110167133Y-84513893D01*
X110154520Y-84492849D01*
X110144030Y-84470671D01*
X110135765Y-84447571D01*
X110129804Y-84423773D01*
X110126204Y-84399504D01*
X110125000Y-84375000D01*
X110125000Y-83625000D01*
X110126204Y-83600496D01*
X110129804Y-83576227D01*
X110135765Y-83552429D01*
X110144030Y-83529329D01*
X110154520Y-83507151D01*
X110167133Y-83486107D01*
X110181747Y-83466402D01*
X110198223Y-83448223D01*
X110216402Y-83431747D01*
X110236107Y-83417133D01*
X110257151Y-83404520D01*
X110279329Y-83394030D01*
X110302429Y-83385765D01*
X110326227Y-83379804D01*
X110350496Y-83376204D01*
X110375000Y-83375000D01*
X111625000Y-83375000D01*
X111649504Y-83376204D01*
G37*
G36*
X104899504Y-89126204D02*
G01*
X104923773Y-89129804D01*
X104947571Y-89135765D01*
X104970671Y-89144030D01*
X104992849Y-89154520D01*
X105013893Y-89167133D01*
X105033598Y-89181747D01*
X105051777Y-89198223D01*
X105068253Y-89216402D01*
X105082867Y-89236107D01*
X105095480Y-89257151D01*
X105105970Y-89279329D01*
X105114235Y-89302429D01*
X105120196Y-89326227D01*
X105123796Y-89350496D01*
X105125000Y-89375000D01*
X105125000Y-90625000D01*
X105123796Y-90649504D01*
X105120196Y-90673773D01*
X105114235Y-90697571D01*
X105105970Y-90720671D01*
X105095480Y-90742849D01*
X105082867Y-90763893D01*
X105068253Y-90783598D01*
X105051777Y-90801777D01*
X105033598Y-90818253D01*
X105013893Y-90832867D01*
X104992849Y-90845480D01*
X104970671Y-90855970D01*
X104947571Y-90864235D01*
X104923773Y-90870196D01*
X104899504Y-90873796D01*
X104875000Y-90875000D01*
X104125000Y-90875000D01*
X104100496Y-90873796D01*
X104076227Y-90870196D01*
X104052429Y-90864235D01*
X104029329Y-90855970D01*
X104007151Y-90845480D01*
X103986107Y-90832867D01*
X103966402Y-90818253D01*
X103948223Y-90801777D01*
X103931747Y-90783598D01*
X103917133Y-90763893D01*
X103904520Y-90742849D01*
X103894030Y-90720671D01*
X103885765Y-90697571D01*
X103879804Y-90673773D01*
X103876204Y-90649504D01*
X103875000Y-90625000D01*
X103875000Y-89375000D01*
X103876204Y-89350496D01*
X103879804Y-89326227D01*
X103885765Y-89302429D01*
X103894030Y-89279329D01*
X103904520Y-89257151D01*
X103917133Y-89236107D01*
X103931747Y-89216402D01*
X103948223Y-89198223D01*
X103966402Y-89181747D01*
X103986107Y-89167133D01*
X104007151Y-89154520D01*
X104029329Y-89144030D01*
X104052429Y-89135765D01*
X104076227Y-89129804D01*
X104100496Y-89126204D01*
X104125000Y-89125000D01*
X104875000Y-89125000D01*
X104899504Y-89126204D01*
G37*
G36*
X102099504Y-89126204D02*
G01*
X102123773Y-89129804D01*
X102147571Y-89135765D01*
X102170671Y-89144030D01*
X102192849Y-89154520D01*
X102213893Y-89167133D01*
X102233598Y-89181747D01*
X102251777Y-89198223D01*
X102268253Y-89216402D01*
X102282867Y-89236107D01*
X102295480Y-89257151D01*
X102305970Y-89279329D01*
X102314235Y-89302429D01*
X102320196Y-89326227D01*
X102323796Y-89350496D01*
X102325000Y-89375000D01*
X102325000Y-90625000D01*
X102323796Y-90649504D01*
X102320196Y-90673773D01*
X102314235Y-90697571D01*
X102305970Y-90720671D01*
X102295480Y-90742849D01*
X102282867Y-90763893D01*
X102268253Y-90783598D01*
X102251777Y-90801777D01*
X102233598Y-90818253D01*
X102213893Y-90832867D01*
X102192849Y-90845480D01*
X102170671Y-90855970D01*
X102147571Y-90864235D01*
X102123773Y-90870196D01*
X102099504Y-90873796D01*
X102075000Y-90875000D01*
X101325000Y-90875000D01*
X101300496Y-90873796D01*
X101276227Y-90870196D01*
X101252429Y-90864235D01*
X101229329Y-90855970D01*
X101207151Y-90845480D01*
X101186107Y-90832867D01*
X101166402Y-90818253D01*
X101148223Y-90801777D01*
X101131747Y-90783598D01*
X101117133Y-90763893D01*
X101104520Y-90742849D01*
X101094030Y-90720671D01*
X101085765Y-90697571D01*
X101079804Y-90673773D01*
X101076204Y-90649504D01*
X101075000Y-90625000D01*
X101075000Y-89375000D01*
X101076204Y-89350496D01*
X101079804Y-89326227D01*
X101085765Y-89302429D01*
X101094030Y-89279329D01*
X101104520Y-89257151D01*
X101117133Y-89236107D01*
X101131747Y-89216402D01*
X101148223Y-89198223D01*
X101166402Y-89181747D01*
X101186107Y-89167133D01*
X101207151Y-89154520D01*
X101229329Y-89144030D01*
X101252429Y-89135765D01*
X101276227Y-89129804D01*
X101300496Y-89126204D01*
X101325000Y-89125000D01*
X102075000Y-89125000D01*
X102099504Y-89126204D01*
G37*
G36*
X104899504Y-98126204D02*
G01*
X104923773Y-98129804D01*
X104947571Y-98135765D01*
X104970671Y-98144030D01*
X104992849Y-98154520D01*
X105013893Y-98167133D01*
X105033598Y-98181747D01*
X105051777Y-98198223D01*
X105068253Y-98216402D01*
X105082867Y-98236107D01*
X105095480Y-98257151D01*
X105105970Y-98279329D01*
X105114235Y-98302429D01*
X105120196Y-98326227D01*
X105123796Y-98350496D01*
X105125000Y-98375000D01*
X105125000Y-99625000D01*
X105123796Y-99649504D01*
X105120196Y-99673773D01*
X105114235Y-99697571D01*
X105105970Y-99720671D01*
X105095480Y-99742849D01*
X105082867Y-99763893D01*
X105068253Y-99783598D01*
X105051777Y-99801777D01*
X105033598Y-99818253D01*
X105013893Y-99832867D01*
X104992849Y-99845480D01*
X104970671Y-99855970D01*
X104947571Y-99864235D01*
X104923773Y-99870196D01*
X104899504Y-99873796D01*
X104875000Y-99875000D01*
X104125000Y-99875000D01*
X104100496Y-99873796D01*
X104076227Y-99870196D01*
X104052429Y-99864235D01*
X104029329Y-99855970D01*
X104007151Y-99845480D01*
X103986107Y-99832867D01*
X103966402Y-99818253D01*
X103948223Y-99801777D01*
X103931747Y-99783598D01*
X103917133Y-99763893D01*
X103904520Y-99742849D01*
X103894030Y-99720671D01*
X103885765Y-99697571D01*
X103879804Y-99673773D01*
X103876204Y-99649504D01*
X103875000Y-99625000D01*
X103875000Y-98375000D01*
X103876204Y-98350496D01*
X103879804Y-98326227D01*
X103885765Y-98302429D01*
X103894030Y-98279329D01*
X103904520Y-98257151D01*
X103917133Y-98236107D01*
X103931747Y-98216402D01*
X103948223Y-98198223D01*
X103966402Y-98181747D01*
X103986107Y-98167133D01*
X104007151Y-98154520D01*
X104029329Y-98144030D01*
X104052429Y-98135765D01*
X104076227Y-98129804D01*
X104100496Y-98126204D01*
X104125000Y-98125000D01*
X104875000Y-98125000D01*
X104899504Y-98126204D01*
G37*
G36*
X102099504Y-98126204D02*
G01*
X102123773Y-98129804D01*
X102147571Y-98135765D01*
X102170671Y-98144030D01*
X102192849Y-98154520D01*
X102213893Y-98167133D01*
X102233598Y-98181747D01*
X102251777Y-98198223D01*
X102268253Y-98216402D01*
X102282867Y-98236107D01*
X102295480Y-98257151D01*
X102305970Y-98279329D01*
X102314235Y-98302429D01*
X102320196Y-98326227D01*
X102323796Y-98350496D01*
X102325000Y-98375000D01*
X102325000Y-99625000D01*
X102323796Y-99649504D01*
X102320196Y-99673773D01*
X102314235Y-99697571D01*
X102305970Y-99720671D01*
X102295480Y-99742849D01*
X102282867Y-99763893D01*
X102268253Y-99783598D01*
X102251777Y-99801777D01*
X102233598Y-99818253D01*
X102213893Y-99832867D01*
X102192849Y-99845480D01*
X102170671Y-99855970D01*
X102147571Y-99864235D01*
X102123773Y-99870196D01*
X102099504Y-99873796D01*
X102075000Y-99875000D01*
X101325000Y-99875000D01*
X101300496Y-99873796D01*
X101276227Y-99870196D01*
X101252429Y-99864235D01*
X101229329Y-99855970D01*
X101207151Y-99845480D01*
X101186107Y-99832867D01*
X101166402Y-99818253D01*
X101148223Y-99801777D01*
X101131747Y-99783598D01*
X101117133Y-99763893D01*
X101104520Y-99742849D01*
X101094030Y-99720671D01*
X101085765Y-99697571D01*
X101079804Y-99673773D01*
X101076204Y-99649504D01*
X101075000Y-99625000D01*
X101075000Y-98375000D01*
X101076204Y-98350496D01*
X101079804Y-98326227D01*
X101085765Y-98302429D01*
X101094030Y-98279329D01*
X101104520Y-98257151D01*
X101117133Y-98236107D01*
X101131747Y-98216402D01*
X101148223Y-98198223D01*
X101166402Y-98181747D01*
X101186107Y-98167133D01*
X101207151Y-98154520D01*
X101229329Y-98144030D01*
X101252429Y-98135765D01*
X101276227Y-98129804D01*
X101300496Y-98126204D01*
X101325000Y-98125000D01*
X102075000Y-98125000D01*
X102099504Y-98126204D01*
G37*
G36*
X168024504Y-107201204D02*
G01*
X168048773Y-107204804D01*
X168072571Y-107210765D01*
X168095671Y-107219030D01*
X168117849Y-107229520D01*
X168138893Y-107242133D01*
X168158598Y-107256747D01*
X168176777Y-107273223D01*
X168193253Y-107291402D01*
X168207867Y-107311107D01*
X168220480Y-107332151D01*
X168230970Y-107354329D01*
X168239235Y-107377429D01*
X168245196Y-107401227D01*
X168248796Y-107425496D01*
X168250000Y-107450000D01*
X168250000Y-108550000D01*
X168248796Y-108574504D01*
X168245196Y-108598773D01*
X168239235Y-108622571D01*
X168230970Y-108645671D01*
X168220480Y-108667849D01*
X168207867Y-108688893D01*
X168193253Y-108708598D01*
X168176777Y-108726777D01*
X168158598Y-108743253D01*
X168138893Y-108757867D01*
X168117849Y-108770480D01*
X168095671Y-108780970D01*
X168072571Y-108789235D01*
X168048773Y-108795196D01*
X168024504Y-108798796D01*
X168000000Y-108800000D01*
X165000000Y-108800000D01*
X164975496Y-108798796D01*
X164951227Y-108795196D01*
X164927429Y-108789235D01*
X164904329Y-108780970D01*
X164882151Y-108770480D01*
X164861107Y-108757867D01*
X164841402Y-108743253D01*
X164823223Y-108726777D01*
X164806747Y-108708598D01*
X164792133Y-108688893D01*
X164779520Y-108667849D01*
X164769030Y-108645671D01*
X164760765Y-108622571D01*
X164754804Y-108598773D01*
X164751204Y-108574504D01*
X164750000Y-108550000D01*
X164750000Y-107450000D01*
X164751204Y-107425496D01*
X164754804Y-107401227D01*
X164760765Y-107377429D01*
X164769030Y-107354329D01*
X164779520Y-107332151D01*
X164792133Y-107311107D01*
X164806747Y-107291402D01*
X164823223Y-107273223D01*
X164841402Y-107256747D01*
X164861107Y-107242133D01*
X164882151Y-107229520D01*
X164904329Y-107219030D01*
X164927429Y-107210765D01*
X164951227Y-107204804D01*
X164975496Y-107201204D01*
X165000000Y-107200000D01*
X168000000Y-107200000D01*
X168024504Y-107201204D01*
G37*
G36*
X173424504Y-107201204D02*
G01*
X173448773Y-107204804D01*
X173472571Y-107210765D01*
X173495671Y-107219030D01*
X173517849Y-107229520D01*
X173538893Y-107242133D01*
X173558598Y-107256747D01*
X173576777Y-107273223D01*
X173593253Y-107291402D01*
X173607867Y-107311107D01*
X173620480Y-107332151D01*
X173630970Y-107354329D01*
X173639235Y-107377429D01*
X173645196Y-107401227D01*
X173648796Y-107425496D01*
X173650000Y-107450000D01*
X173650000Y-108550000D01*
X173648796Y-108574504D01*
X173645196Y-108598773D01*
X173639235Y-108622571D01*
X173630970Y-108645671D01*
X173620480Y-108667849D01*
X173607867Y-108688893D01*
X173593253Y-108708598D01*
X173576777Y-108726777D01*
X173558598Y-108743253D01*
X173538893Y-108757867D01*
X173517849Y-108770480D01*
X173495671Y-108780970D01*
X173472571Y-108789235D01*
X173448773Y-108795196D01*
X173424504Y-108798796D01*
X173400000Y-108800000D01*
X170400000Y-108800000D01*
X170375496Y-108798796D01*
X170351227Y-108795196D01*
X170327429Y-108789235D01*
X170304329Y-108780970D01*
X170282151Y-108770480D01*
X170261107Y-108757867D01*
X170241402Y-108743253D01*
X170223223Y-108726777D01*
X170206747Y-108708598D01*
X170192133Y-108688893D01*
X170179520Y-108667849D01*
X170169030Y-108645671D01*
X170160765Y-108622571D01*
X170154804Y-108598773D01*
X170151204Y-108574504D01*
X170150000Y-108550000D01*
X170150000Y-107450000D01*
X170151204Y-107425496D01*
X170154804Y-107401227D01*
X170160765Y-107377429D01*
X170169030Y-107354329D01*
X170179520Y-107332151D01*
X170192133Y-107311107D01*
X170206747Y-107291402D01*
X170223223Y-107273223D01*
X170241402Y-107256747D01*
X170261107Y-107242133D01*
X170282151Y-107229520D01*
X170304329Y-107219030D01*
X170327429Y-107210765D01*
X170351227Y-107204804D01*
X170375496Y-107201204D01*
X170400000Y-107200000D01*
X173400000Y-107200000D01*
X173424504Y-107201204D01*
G37*
G36*
X142049504Y-97126204D02*
G01*
X142073773Y-97129804D01*
X142097571Y-97135765D01*
X142120671Y-97144030D01*
X142142849Y-97154520D01*
X142163893Y-97167133D01*
X142183598Y-97181747D01*
X142201777Y-97198223D01*
X142218253Y-97216402D01*
X142232867Y-97236107D01*
X142245480Y-97257151D01*
X142255970Y-97279329D01*
X142264235Y-97302429D01*
X142270196Y-97326227D01*
X142273796Y-97350496D01*
X142275000Y-97375000D01*
X142275000Y-98625000D01*
X142273796Y-98649504D01*
X142270196Y-98673773D01*
X142264235Y-98697571D01*
X142255970Y-98720671D01*
X142245480Y-98742849D01*
X142232867Y-98763893D01*
X142218253Y-98783598D01*
X142201777Y-98801777D01*
X142183598Y-98818253D01*
X142163893Y-98832867D01*
X142142849Y-98845480D01*
X142120671Y-98855970D01*
X142097571Y-98864235D01*
X142073773Y-98870196D01*
X142049504Y-98873796D01*
X142025000Y-98875000D01*
X141275000Y-98875000D01*
X141250496Y-98873796D01*
X141226227Y-98870196D01*
X141202429Y-98864235D01*
X141179329Y-98855970D01*
X141157151Y-98845480D01*
X141136107Y-98832867D01*
X141116402Y-98818253D01*
X141098223Y-98801777D01*
X141081747Y-98783598D01*
X141067133Y-98763893D01*
X141054520Y-98742849D01*
X141044030Y-98720671D01*
X141035765Y-98697571D01*
X141029804Y-98673773D01*
X141026204Y-98649504D01*
X141025000Y-98625000D01*
X141025000Y-97375000D01*
X141026204Y-97350496D01*
X141029804Y-97326227D01*
X141035765Y-97302429D01*
X141044030Y-97279329D01*
X141054520Y-97257151D01*
X141067133Y-97236107D01*
X141081747Y-97216402D01*
X141098223Y-97198223D01*
X141116402Y-97181747D01*
X141136107Y-97167133D01*
X141157151Y-97154520D01*
X141179329Y-97144030D01*
X141202429Y-97135765D01*
X141226227Y-97129804D01*
X141250496Y-97126204D01*
X141275000Y-97125000D01*
X142025000Y-97125000D01*
X142049504Y-97126204D01*
G37*
G36*
X139249504Y-97126204D02*
G01*
X139273773Y-97129804D01*
X139297571Y-97135765D01*
X139320671Y-97144030D01*
X139342849Y-97154520D01*
X139363893Y-97167133D01*
X139383598Y-97181747D01*
X139401777Y-97198223D01*
X139418253Y-97216402D01*
X139432867Y-97236107D01*
X139445480Y-97257151D01*
X139455970Y-97279329D01*
X139464235Y-97302429D01*
X139470196Y-97326227D01*
X139473796Y-97350496D01*
X139475000Y-97375000D01*
X139475000Y-98625000D01*
X139473796Y-98649504D01*
X139470196Y-98673773D01*
X139464235Y-98697571D01*
X139455970Y-98720671D01*
X139445480Y-98742849D01*
X139432867Y-98763893D01*
X139418253Y-98783598D01*
X139401777Y-98801777D01*
X139383598Y-98818253D01*
X139363893Y-98832867D01*
X139342849Y-98845480D01*
X139320671Y-98855970D01*
X139297571Y-98864235D01*
X139273773Y-98870196D01*
X139249504Y-98873796D01*
X139225000Y-98875000D01*
X138475000Y-98875000D01*
X138450496Y-98873796D01*
X138426227Y-98870196D01*
X138402429Y-98864235D01*
X138379329Y-98855970D01*
X138357151Y-98845480D01*
X138336107Y-98832867D01*
X138316402Y-98818253D01*
X138298223Y-98801777D01*
X138281747Y-98783598D01*
X138267133Y-98763893D01*
X138254520Y-98742849D01*
X138244030Y-98720671D01*
X138235765Y-98697571D01*
X138229804Y-98673773D01*
X138226204Y-98649504D01*
X138225000Y-98625000D01*
X138225000Y-97375000D01*
X138226204Y-97350496D01*
X138229804Y-97326227D01*
X138235765Y-97302429D01*
X138244030Y-97279329D01*
X138254520Y-97257151D01*
X138267133Y-97236107D01*
X138281747Y-97216402D01*
X138298223Y-97198223D01*
X138316402Y-97181747D01*
X138336107Y-97167133D01*
X138357151Y-97154520D01*
X138379329Y-97144030D01*
X138402429Y-97135765D01*
X138426227Y-97129804D01*
X138450496Y-97126204D01*
X138475000Y-97125000D01*
X139225000Y-97125000D01*
X139249504Y-97126204D01*
G37*
G36*
X138995504Y-64218204D02*
G01*
X139019773Y-64221804D01*
X139043571Y-64227765D01*
X139066671Y-64236030D01*
X139088849Y-64246520D01*
X139109893Y-64259133D01*
X139129598Y-64273747D01*
X139147777Y-64290223D01*
X139164253Y-64308402D01*
X139178867Y-64328107D01*
X139191480Y-64349151D01*
X139201970Y-64371329D01*
X139210235Y-64394429D01*
X139216196Y-64418227D01*
X139219796Y-64442496D01*
X139221000Y-64467000D01*
X139221000Y-65717000D01*
X139219796Y-65741504D01*
X139216196Y-65765773D01*
X139210235Y-65789571D01*
X139201970Y-65812671D01*
X139191480Y-65834849D01*
X139178867Y-65855893D01*
X139164253Y-65875598D01*
X139147777Y-65893777D01*
X139129598Y-65910253D01*
X139109893Y-65924867D01*
X139088849Y-65937480D01*
X139066671Y-65947970D01*
X139043571Y-65956235D01*
X139019773Y-65962196D01*
X138995504Y-65965796D01*
X138971000Y-65967000D01*
X138221000Y-65967000D01*
X138196496Y-65965796D01*
X138172227Y-65962196D01*
X138148429Y-65956235D01*
X138125329Y-65947970D01*
X138103151Y-65937480D01*
X138082107Y-65924867D01*
X138062402Y-65910253D01*
X138044223Y-65893777D01*
X138027747Y-65875598D01*
X138013133Y-65855893D01*
X138000520Y-65834849D01*
X137990030Y-65812671D01*
X137981765Y-65789571D01*
X137975804Y-65765773D01*
X137972204Y-65741504D01*
X137971000Y-65717000D01*
X137971000Y-64467000D01*
X137972204Y-64442496D01*
X137975804Y-64418227D01*
X137981765Y-64394429D01*
X137990030Y-64371329D01*
X138000520Y-64349151D01*
X138013133Y-64328107D01*
X138027747Y-64308402D01*
X138044223Y-64290223D01*
X138062402Y-64273747D01*
X138082107Y-64259133D01*
X138103151Y-64246520D01*
X138125329Y-64236030D01*
X138148429Y-64227765D01*
X138172227Y-64221804D01*
X138196496Y-64218204D01*
X138221000Y-64217000D01*
X138971000Y-64217000D01*
X138995504Y-64218204D01*
G37*
G36*
X141795504Y-64218204D02*
G01*
X141819773Y-64221804D01*
X141843571Y-64227765D01*
X141866671Y-64236030D01*
X141888849Y-64246520D01*
X141909893Y-64259133D01*
X141929598Y-64273747D01*
X141947777Y-64290223D01*
X141964253Y-64308402D01*
X141978867Y-64328107D01*
X141991480Y-64349151D01*
X142001970Y-64371329D01*
X142010235Y-64394429D01*
X142016196Y-64418227D01*
X142019796Y-64442496D01*
X142021000Y-64467000D01*
X142021000Y-65717000D01*
X142019796Y-65741504D01*
X142016196Y-65765773D01*
X142010235Y-65789571D01*
X142001970Y-65812671D01*
X141991480Y-65834849D01*
X141978867Y-65855893D01*
X141964253Y-65875598D01*
X141947777Y-65893777D01*
X141929598Y-65910253D01*
X141909893Y-65924867D01*
X141888849Y-65937480D01*
X141866671Y-65947970D01*
X141843571Y-65956235D01*
X141819773Y-65962196D01*
X141795504Y-65965796D01*
X141771000Y-65967000D01*
X141021000Y-65967000D01*
X140996496Y-65965796D01*
X140972227Y-65962196D01*
X140948429Y-65956235D01*
X140925329Y-65947970D01*
X140903151Y-65937480D01*
X140882107Y-65924867D01*
X140862402Y-65910253D01*
X140844223Y-65893777D01*
X140827747Y-65875598D01*
X140813133Y-65855893D01*
X140800520Y-65834849D01*
X140790030Y-65812671D01*
X140781765Y-65789571D01*
X140775804Y-65765773D01*
X140772204Y-65741504D01*
X140771000Y-65717000D01*
X140771000Y-64467000D01*
X140772204Y-64442496D01*
X140775804Y-64418227D01*
X140781765Y-64394429D01*
X140790030Y-64371329D01*
X140800520Y-64349151D01*
X140813133Y-64328107D01*
X140827747Y-64308402D01*
X140844223Y-64290223D01*
X140862402Y-64273747D01*
X140882107Y-64259133D01*
X140903151Y-64246520D01*
X140925329Y-64236030D01*
X140948429Y-64227765D01*
X140972227Y-64221804D01*
X140996496Y-64218204D01*
X141021000Y-64217000D01*
X141771000Y-64217000D01*
X141795504Y-64218204D01*
G37*
G36*
X116649504Y-61376204D02*
G01*
X116673773Y-61379804D01*
X116697571Y-61385765D01*
X116720671Y-61394030D01*
X116742849Y-61404520D01*
X116763893Y-61417133D01*
X116783598Y-61431747D01*
X116801777Y-61448223D01*
X116818253Y-61466402D01*
X116832867Y-61486107D01*
X116845480Y-61507151D01*
X116855970Y-61529329D01*
X116864235Y-61552429D01*
X116870196Y-61576227D01*
X116873796Y-61600496D01*
X116875000Y-61625000D01*
X116875000Y-62375000D01*
X116873796Y-62399504D01*
X116870196Y-62423773D01*
X116864235Y-62447571D01*
X116855970Y-62470671D01*
X116845480Y-62492849D01*
X116832867Y-62513893D01*
X116818253Y-62533598D01*
X116801777Y-62551777D01*
X116783598Y-62568253D01*
X116763893Y-62582867D01*
X116742849Y-62595480D01*
X116720671Y-62605970D01*
X116697571Y-62614235D01*
X116673773Y-62620196D01*
X116649504Y-62623796D01*
X116625000Y-62625000D01*
X115375000Y-62625000D01*
X115350496Y-62623796D01*
X115326227Y-62620196D01*
X115302429Y-62614235D01*
X115279329Y-62605970D01*
X115257151Y-62595480D01*
X115236107Y-62582867D01*
X115216402Y-62568253D01*
X115198223Y-62551777D01*
X115181747Y-62533598D01*
X115167133Y-62513893D01*
X115154520Y-62492849D01*
X115144030Y-62470671D01*
X115135765Y-62447571D01*
X115129804Y-62423773D01*
X115126204Y-62399504D01*
X115125000Y-62375000D01*
X115125000Y-61625000D01*
X115126204Y-61600496D01*
X115129804Y-61576227D01*
X115135765Y-61552429D01*
X115144030Y-61529329D01*
X115154520Y-61507151D01*
X115167133Y-61486107D01*
X115181747Y-61466402D01*
X115198223Y-61448223D01*
X115216402Y-61431747D01*
X115236107Y-61417133D01*
X115257151Y-61404520D01*
X115279329Y-61394030D01*
X115302429Y-61385765D01*
X115326227Y-61379804D01*
X115350496Y-61376204D01*
X115375000Y-61375000D01*
X116625000Y-61375000D01*
X116649504Y-61376204D01*
G37*
G36*
X116649504Y-64176204D02*
G01*
X116673773Y-64179804D01*
X116697571Y-64185765D01*
X116720671Y-64194030D01*
X116742849Y-64204520D01*
X116763893Y-64217133D01*
X116783598Y-64231747D01*
X116801777Y-64248223D01*
X116818253Y-64266402D01*
X116832867Y-64286107D01*
X116845480Y-64307151D01*
X116855970Y-64329329D01*
X116864235Y-64352429D01*
X116870196Y-64376227D01*
X116873796Y-64400496D01*
X116875000Y-64425000D01*
X116875000Y-65175000D01*
X116873796Y-65199504D01*
X116870196Y-65223773D01*
X116864235Y-65247571D01*
X116855970Y-65270671D01*
X116845480Y-65292849D01*
X116832867Y-65313893D01*
X116818253Y-65333598D01*
X116801777Y-65351777D01*
X116783598Y-65368253D01*
X116763893Y-65382867D01*
X116742849Y-65395480D01*
X116720671Y-65405970D01*
X116697571Y-65414235D01*
X116673773Y-65420196D01*
X116649504Y-65423796D01*
X116625000Y-65425000D01*
X115375000Y-65425000D01*
X115350496Y-65423796D01*
X115326227Y-65420196D01*
X115302429Y-65414235D01*
X115279329Y-65405970D01*
X115257151Y-65395480D01*
X115236107Y-65382867D01*
X115216402Y-65368253D01*
X115198223Y-65351777D01*
X115181747Y-65333598D01*
X115167133Y-65313893D01*
X115154520Y-65292849D01*
X115144030Y-65270671D01*
X115135765Y-65247571D01*
X115129804Y-65223773D01*
X115126204Y-65199504D01*
X115125000Y-65175000D01*
X115125000Y-64425000D01*
X115126204Y-64400496D01*
X115129804Y-64376227D01*
X115135765Y-64352429D01*
X115144030Y-64329329D01*
X115154520Y-64307151D01*
X115167133Y-64286107D01*
X115181747Y-64266402D01*
X115198223Y-64248223D01*
X115216402Y-64231747D01*
X115236107Y-64217133D01*
X115257151Y-64204520D01*
X115279329Y-64194030D01*
X115302429Y-64185765D01*
X115326227Y-64179804D01*
X115350496Y-64176204D01*
X115375000Y-64175000D01*
X116625000Y-64175000D01*
X116649504Y-64176204D01*
G37*
G36*
X122699504Y-72126204D02*
G01*
X122723773Y-72129804D01*
X122747571Y-72135765D01*
X122770671Y-72144030D01*
X122792849Y-72154520D01*
X122813893Y-72167133D01*
X122833598Y-72181747D01*
X122851777Y-72198223D01*
X122868253Y-72216402D01*
X122882867Y-72236107D01*
X122895480Y-72257151D01*
X122905970Y-72279329D01*
X122914235Y-72302429D01*
X122920196Y-72326227D01*
X122923796Y-72350496D01*
X122925000Y-72375000D01*
X122925000Y-73625000D01*
X122923796Y-73649504D01*
X122920196Y-73673773D01*
X122914235Y-73697571D01*
X122905970Y-73720671D01*
X122895480Y-73742849D01*
X122882867Y-73763893D01*
X122868253Y-73783598D01*
X122851777Y-73801777D01*
X122833598Y-73818253D01*
X122813893Y-73832867D01*
X122792849Y-73845480D01*
X122770671Y-73855970D01*
X122747571Y-73864235D01*
X122723773Y-73870196D01*
X122699504Y-73873796D01*
X122675000Y-73875000D01*
X121925000Y-73875000D01*
X121900496Y-73873796D01*
X121876227Y-73870196D01*
X121852429Y-73864235D01*
X121829329Y-73855970D01*
X121807151Y-73845480D01*
X121786107Y-73832867D01*
X121766402Y-73818253D01*
X121748223Y-73801777D01*
X121731747Y-73783598D01*
X121717133Y-73763893D01*
X121704520Y-73742849D01*
X121694030Y-73720671D01*
X121685765Y-73697571D01*
X121679804Y-73673773D01*
X121676204Y-73649504D01*
X121675000Y-73625000D01*
X121675000Y-72375000D01*
X121676204Y-72350496D01*
X121679804Y-72326227D01*
X121685765Y-72302429D01*
X121694030Y-72279329D01*
X121704520Y-72257151D01*
X121717133Y-72236107D01*
X121731747Y-72216402D01*
X121748223Y-72198223D01*
X121766402Y-72181747D01*
X121786107Y-72167133D01*
X121807151Y-72154520D01*
X121829329Y-72144030D01*
X121852429Y-72135765D01*
X121876227Y-72129804D01*
X121900496Y-72126204D01*
X121925000Y-72125000D01*
X122675000Y-72125000D01*
X122699504Y-72126204D01*
G37*
G36*
X119899504Y-72126204D02*
G01*
X119923773Y-72129804D01*
X119947571Y-72135765D01*
X119970671Y-72144030D01*
X119992849Y-72154520D01*
X120013893Y-72167133D01*
X120033598Y-72181747D01*
X120051777Y-72198223D01*
X120068253Y-72216402D01*
X120082867Y-72236107D01*
X120095480Y-72257151D01*
X120105970Y-72279329D01*
X120114235Y-72302429D01*
X120120196Y-72326227D01*
X120123796Y-72350496D01*
X120125000Y-72375000D01*
X120125000Y-73625000D01*
X120123796Y-73649504D01*
X120120196Y-73673773D01*
X120114235Y-73697571D01*
X120105970Y-73720671D01*
X120095480Y-73742849D01*
X120082867Y-73763893D01*
X120068253Y-73783598D01*
X120051777Y-73801777D01*
X120033598Y-73818253D01*
X120013893Y-73832867D01*
X119992849Y-73845480D01*
X119970671Y-73855970D01*
X119947571Y-73864235D01*
X119923773Y-73870196D01*
X119899504Y-73873796D01*
X119875000Y-73875000D01*
X119125000Y-73875000D01*
X119100496Y-73873796D01*
X119076227Y-73870196D01*
X119052429Y-73864235D01*
X119029329Y-73855970D01*
X119007151Y-73845480D01*
X118986107Y-73832867D01*
X118966402Y-73818253D01*
X118948223Y-73801777D01*
X118931747Y-73783598D01*
X118917133Y-73763893D01*
X118904520Y-73742849D01*
X118894030Y-73720671D01*
X118885765Y-73697571D01*
X118879804Y-73673773D01*
X118876204Y-73649504D01*
X118875000Y-73625000D01*
X118875000Y-72375000D01*
X118876204Y-72350496D01*
X118879804Y-72326227D01*
X118885765Y-72302429D01*
X118894030Y-72279329D01*
X118904520Y-72257151D01*
X118917133Y-72236107D01*
X118931747Y-72216402D01*
X118948223Y-72198223D01*
X118966402Y-72181747D01*
X118986107Y-72167133D01*
X119007151Y-72154520D01*
X119029329Y-72144030D01*
X119052429Y-72135765D01*
X119076227Y-72129804D01*
X119100496Y-72126204D01*
X119125000Y-72125000D01*
X119875000Y-72125000D01*
X119899504Y-72126204D01*
G37*
G36*
X206799504Y-76376204D02*
G01*
X206823773Y-76379804D01*
X206847571Y-76385765D01*
X206870671Y-76394030D01*
X206892849Y-76404520D01*
X206913893Y-76417133D01*
X206933598Y-76431747D01*
X206951777Y-76448223D01*
X206968253Y-76466402D01*
X206982867Y-76486107D01*
X206995480Y-76507151D01*
X207005970Y-76529329D01*
X207014235Y-76552429D01*
X207020196Y-76576227D01*
X207023796Y-76600496D01*
X207025000Y-76625000D01*
X207025000Y-77875000D01*
X207023796Y-77899504D01*
X207020196Y-77923773D01*
X207014235Y-77947571D01*
X207005970Y-77970671D01*
X206995480Y-77992849D01*
X206982867Y-78013893D01*
X206968253Y-78033598D01*
X206951777Y-78051777D01*
X206933598Y-78068253D01*
X206913893Y-78082867D01*
X206892849Y-78095480D01*
X206870671Y-78105970D01*
X206847571Y-78114235D01*
X206823773Y-78120196D01*
X206799504Y-78123796D01*
X206775000Y-78125000D01*
X206025000Y-78125000D01*
X206000496Y-78123796D01*
X205976227Y-78120196D01*
X205952429Y-78114235D01*
X205929329Y-78105970D01*
X205907151Y-78095480D01*
X205886107Y-78082867D01*
X205866402Y-78068253D01*
X205848223Y-78051777D01*
X205831747Y-78033598D01*
X205817133Y-78013893D01*
X205804520Y-77992849D01*
X205794030Y-77970671D01*
X205785765Y-77947571D01*
X205779804Y-77923773D01*
X205776204Y-77899504D01*
X205775000Y-77875000D01*
X205775000Y-76625000D01*
X205776204Y-76600496D01*
X205779804Y-76576227D01*
X205785765Y-76552429D01*
X205794030Y-76529329D01*
X205804520Y-76507151D01*
X205817133Y-76486107D01*
X205831747Y-76466402D01*
X205848223Y-76448223D01*
X205866402Y-76431747D01*
X205886107Y-76417133D01*
X205907151Y-76404520D01*
X205929329Y-76394030D01*
X205952429Y-76385765D01*
X205976227Y-76379804D01*
X206000496Y-76376204D01*
X206025000Y-76375000D01*
X206775000Y-76375000D01*
X206799504Y-76376204D01*
G37*
G36*
X203999504Y-76376204D02*
G01*
X204023773Y-76379804D01*
X204047571Y-76385765D01*
X204070671Y-76394030D01*
X204092849Y-76404520D01*
X204113893Y-76417133D01*
X204133598Y-76431747D01*
X204151777Y-76448223D01*
X204168253Y-76466402D01*
X204182867Y-76486107D01*
X204195480Y-76507151D01*
X204205970Y-76529329D01*
X204214235Y-76552429D01*
X204220196Y-76576227D01*
X204223796Y-76600496D01*
X204225000Y-76625000D01*
X204225000Y-77875000D01*
X204223796Y-77899504D01*
X204220196Y-77923773D01*
X204214235Y-77947571D01*
X204205970Y-77970671D01*
X204195480Y-77992849D01*
X204182867Y-78013893D01*
X204168253Y-78033598D01*
X204151777Y-78051777D01*
X204133598Y-78068253D01*
X204113893Y-78082867D01*
X204092849Y-78095480D01*
X204070671Y-78105970D01*
X204047571Y-78114235D01*
X204023773Y-78120196D01*
X203999504Y-78123796D01*
X203975000Y-78125000D01*
X203225000Y-78125000D01*
X203200496Y-78123796D01*
X203176227Y-78120196D01*
X203152429Y-78114235D01*
X203129329Y-78105970D01*
X203107151Y-78095480D01*
X203086107Y-78082867D01*
X203066402Y-78068253D01*
X203048223Y-78051777D01*
X203031747Y-78033598D01*
X203017133Y-78013893D01*
X203004520Y-77992849D01*
X202994030Y-77970671D01*
X202985765Y-77947571D01*
X202979804Y-77923773D01*
X202976204Y-77899504D01*
X202975000Y-77875000D01*
X202975000Y-76625000D01*
X202976204Y-76600496D01*
X202979804Y-76576227D01*
X202985765Y-76552429D01*
X202994030Y-76529329D01*
X203004520Y-76507151D01*
X203017133Y-76486107D01*
X203031747Y-76466402D01*
X203048223Y-76448223D01*
X203066402Y-76431747D01*
X203086107Y-76417133D01*
X203107151Y-76404520D01*
X203129329Y-76394030D01*
X203152429Y-76385765D01*
X203176227Y-76379804D01*
X203200496Y-76376204D01*
X203225000Y-76375000D01*
X203975000Y-76375000D01*
X203999504Y-76376204D01*
G37*
M02*
